<mxfile host="65bd71144e">
    <diagram id="NQo6zGPmrkjX3W7OiB79" name="Page-1">
        <mxGraphModel dx="2715" dy="2493" grid="1" gridSize="10" guides="1" tooltips="1" connect="1" arrows="1" fold="1" page="1" pageScale="1" pageWidth="850" pageHeight="1100" math="0" shadow="0">
            <root>
                <mxCell id="0"/>
                <mxCell id="1" parent="0"/>
                <UserObject label="" mermaidData="{&#xa;  &quot;data&quot;: &quot;erDiagram\n    TABLA1 {\n        INT id_data PK\n        FLOAT has_domain\n        FLOAT has_birth_date\n        FLOAT has_photo\n        FLOAT can_post_on_wall\n        FLOAT can_send_message\n        FLOAT has_website\n        FLOAT gender\n        FLOAT has_short_name\n        FLOAT has_first_name\n        FLOAT has_last_name\n        FLOAT access_to_closed_profile\n        FLOAT is_profile_closed\n        INT target\n        STRING has_nickname\n        STRING has_maiden_name\n        STRING has_mobile\n        STRING all_posts_visible\n        STRING audio_available\n        STRING has_interests\n        STRING has_books\n        STRING has_tv\n        STRING has_quotes\n        STRING has_about\n        STRING has_games\n        STRING has_movies\n        STRING has_activities\n        STRING has_music\n        STRING can_add_as_friend\n        STRING can_invite_to_group\n        STRING subscribers_count\n        STRING is_blacklisted\n        STRING has_career\n        STRING has_military_service\n        STRING has_hometown\n    }\n    TABLA2 {\n        INT id_data PK\n        STRING marital_status\n        STRING has_universities\n        STRING has_schools\n        STRING has_relatives\n        STRING is_verified\n        STRING is_confirmed\n        STRING has_status\n        INT posts_count\n        FLOAT avg_likes\n        FLOAT links_ratio\n        FLOAT hashtags_ratio\n        FLOAT avg_keywords\n        INT avg_text_length\n        FLOAT attachments_ratio\n        INT avg_comments\n        FLOAT reposts_ratio\n        FLOAT ads_ratio\n        INT avg_views\n        INT posting_frequency_days\n        FLOAT phone_numbers_ratio\n        FLOAT avg_text_uniqueness\n        STRING city\n        STRING has_occupation\n        STRING occupation_type_university\n        STRING occupation_type_work\n        STRING has_personal_data\n    }\n    TABLA_FINAL {\n        INT id_data PK\n        FLOAT has_domain\n        FLOAT has_birth_date\n        FLOAT has_photo\n        FLOAT can_post_on_wall\n        FLOAT can_send_message\n        FLOAT has_website\n        FLOAT gender\n        FLOAT has_short_name\n        FLOAT has_first_name\n        FLOAT has_last_name\n        FLOAT access_to_closed_profile\n        FLOAT is_profile_closed\n        INT target\n        STRING has_nickname\n        STRING has_maiden_name\n        STRING has_mobile\n        STRING all_posts_visible\n        STRING audio_available\n        STRING has_interests\n        STRING has_books\n        STRING has_tv\n        STRING has_quotes\n        STRING has_about\n        STRING has_games\n        STRING has_movies\n        STRING has_activities\n        STRING has_music\n        STRING can_add_as_friend\n        STRING can_invite_to_group\n        STRING subscribers_count\n        STRING is_blacklisted\n        STRING has_career\n        STRING has_military_service\n        STRING has_hometown\n        STRING marital_status\n        STRING has_universities\n        STRING has_schools\n        STRING has_relatives\n        STRING is_verified\n        STRING is_confirmed\n        STRING has_status\n        INT posts_count\n        FLOAT avg_likes\n        FLOAT links_ratio\n        FLOAT hashtags_ratio\n        FLOAT avg_keywords\n        INT avg_text_length\n        FLOAT attachments_ratio\n        INT avg_comments\n        FLOAT reposts_ratio\n        FLOAT ads_ratio\n        INT avg_views\n        INT posting_frequency_days\n        FLOAT phone_numbers_ratio\n        FLOAT avg_text_uniqueness\n        STRING city\n        STRING has_occupation\n        STRING occupation_type_university\n        STRING occupation_type_work\n        STRING has_personal_data\n    }\n    TABLA_AUDITORIA {\n        INT id_auditoria PK\n        STRING nombre_tabla\n        DATETIME fecha_auditoria\n        INT nulos\n        INT vacios\n        INT candidad_in\n        INT cantidad_out\n        INT diferencia\n    }\n    \n    TABLA1 ||--|| TABLA_FINAL : \&quot;id_data\&quot;\n    TABLA2 ||--|| TABLA_FINAL : \&quot;id_data\&quot;\n    TABLA_FINAL ||--o{ TABLA_AUDITORIA : \&quot;audita\&quot;\n&quot;&#xa;}" id="2">
                    <mxCell style="shape=image;noLabel=1;verticalAlign=top;imageAspect=1;image=data:image/svg+xml,PHN2ZyBhcmlhLXJvbGVkZXNjcmlwdGlvbj0iZXIiIHJvbGU9ImdyYXBoaWNzLWRvY3VtZW50IGRvY3VtZW50IiB2aWV3Qm94PSIwIDAgNTMzLjAyNTM5MDYyNSAyNjAwIiBzdHlsZT0ibWF4LXdpZHRoOiA1MzMuMDI1MzkwNjI1cHg7IiB4bWxucz0iaHR0cDovL3d3dy53My5vcmcvMjAwMC9zdmciIHdpZHRoPSIxMDAlIiBpZD0iZ2VNZXJtYWlkT3V0cHV0LTE3NDM2NDExNzM1MzEiPjxzdHlsZT4jZ2VNZXJtYWlkT3V0cHV0LTE3NDM2NDExNzM1MzF7Zm9udC1mYW1pbHk6InRyZWJ1Y2hldCBtcyIsdmVyZGFuYSxhcmlhbCxzYW5zLXNlcmlmO2ZvbnQtc2l6ZToxNnB4O2ZpbGw6IzAwMDAwMDt9I2dlTWVybWFpZE91dHB1dC0xNzQzNjQxMTczNTMxIC5lcnJvci1pY29ue2ZpbGw6IzU1MjIyMjt9I2dlTWVybWFpZE91dHB1dC0xNzQzNjQxMTczNTMxIC5lcnJvci10ZXh0e2ZpbGw6IzU1MjIyMjtzdHJva2U6IzU1MjIyMjt9I2dlTWVybWFpZE91dHB1dC0xNzQzNjQxMTczNTMxIC5lZGdlLXRoaWNrbmVzcy1ub3JtYWx7c3Ryb2tlLXdpZHRoOjFweDt9I2dlTWVybWFpZE91dHB1dC0xNzQzNjQxMTczNTMxIC5lZGdlLXRoaWNrbmVzcy10aGlja3tzdHJva2Utd2lkdGg6My41cHg7fSNnZU1lcm1haWRPdXRwdXQtMTc0MzY0MTE3MzUzMSAuZWRnZS1wYXR0ZXJuLXNvbGlke3N0cm9rZS1kYXNoYXJyYXk6MDt9I2dlTWVybWFpZE91dHB1dC0xNzQzNjQxMTczNTMxIC5lZGdlLXRoaWNrbmVzcy1pbnZpc2libGV7c3Ryb2tlLXdpZHRoOjA7ZmlsbDpub25lO30jZ2VNZXJtYWlkT3V0cHV0LTE3NDM2NDExNzM1MzEgLmVkZ2UtcGF0dGVybi1kYXNoZWR7c3Ryb2tlLWRhc2hhcnJheTozO30jZ2VNZXJtYWlkT3V0cHV0LTE3NDM2NDExNzM1MzEgLmVkZ2UtcGF0dGVybi1kb3R0ZWR7c3Ryb2tlLWRhc2hhcnJheToyO30jZ2VNZXJtYWlkT3V0cHV0LTE3NDM2NDExNzM1MzEgLm1hcmtlcntmaWxsOiM2NjY7c3Ryb2tlOiM2NjY7fSNnZU1lcm1haWRPdXRwdXQtMTc0MzY0MTE3MzUzMSAubWFya2VyLmNyb3Nze3N0cm9rZTojNjY2O30jZ2VNZXJtYWlkT3V0cHV0LTE3NDM2NDExNzM1MzEgc3Zne2ZvbnQtZmFtaWx5OiJ0cmVidWNoZXQgbXMiLHZlcmRhbmEsYXJpYWwsc2Fucy1zZXJpZjtmb250LXNpemU6MTZweDt9I2dlTWVybWFpZE91dHB1dC0xNzQzNjQxMTczNTMxIHB7bWFyZ2luOjA7fSNnZU1lcm1haWRPdXRwdXQtMTc0MzY0MTE3MzUzMSAuZW50aXR5Qm94e2ZpbGw6I2VlZTtzdHJva2U6Izk5OTt9I2dlTWVybWFpZE91dHB1dC0xNzQzNjQxMTczNTMxIC5hdHRyaWJ1dGVCb3hPZGR7ZmlsbDojZmZmZmZmO3N0cm9rZTojOTk5O30jZ2VNZXJtYWlkT3V0cHV0LTE3NDM2NDExNzM1MzEgLmF0dHJpYnV0ZUJveEV2ZW57ZmlsbDojZjJmMmYyO3N0cm9rZTojOTk5O30jZ2VNZXJtYWlkT3V0cHV0LTE3NDM2NDExNzM1MzEgLnJlbGF0aW9uc2hpcExhYmVsQm94e2ZpbGw6aHNsKC0xNjAsIDAlLCA5My4zMzMzMzMzMzMzJSk7b3BhY2l0eTowLjc7YmFja2dyb3VuZC1jb2xvcjpoc2woLTE2MCwgMCUsIDkzLjMzMzMzMzMzMzMlKTt9I2dlTWVybWFpZE91dHB1dC0xNzQzNjQxMTczNTMxIC5yZWxhdGlvbnNoaXBMYWJlbEJveCByZWN0e29wYWNpdHk6MC41O30jZ2VNZXJtYWlkT3V0cHV0LTE3NDM2NDExNzM1MzEgLnJlbGF0aW9uc2hpcExpbmV7c3Ryb2tlOiM2NjY7fSNnZU1lcm1haWRPdXRwdXQtMTc0MzY0MTE3MzUzMSAuZW50aXR5VGl0bGVUZXh0e3RleHQtYW5jaG9yOm1pZGRsZTtmb250LXNpemU6MThweDtmaWxsOiMwMDAwMDA7fSNnZU1lcm1haWRPdXRwdXQtMTc0MzY0MTE3MzUzMSAjTURfUEFSRU5UX1NUQVJUe2ZpbGw6I2Y1ZjVmNSFpbXBvcnRhbnQ7c3Ryb2tlOiM2NjYhaW1wb3J0YW50O3N0cm9rZS13aWR0aDoxO30jZ2VNZXJtYWlkT3V0cHV0LTE3NDM2NDExNzM1MzEgI01EX1BBUkVOVF9FTkR7ZmlsbDojZjVmNWY1IWltcG9ydGFudDtzdHJva2U6IzY2NiFpbXBvcnRhbnQ7c3Ryb2tlLXdpZHRoOjE7fSNnZU1lcm1haWRPdXRwdXQtMTc0MzY0MTE3MzUzMSA6cm9vdHstLW1lcm1haWQtZm9udC1mYW1pbHk6InRyZWJ1Y2hldCBtcyIsdmVyZGFuYSxhcmlhbCxzYW5zLXNlcmlmO308L3N0eWxlPjxnPjwvZz48ZGVmcz48bWFya2VyIG9yaWVudD0iYXV0byIgbWFya2VySGVpZ2h0PSIyNDAiIG1hcmtlcldpZHRoPSIxOTAiIHJlZlk9IjciIHJlZlg9IjAiIGlkPSJNRF9QQVJFTlRfU1RBUlQiPjxwYXRoIGQ9Ik0gMTgsNyBMOSwxMyBMMSw3IEw5LDEgWiI+PC9wYXRoPjwvbWFya2VyPjwvZGVmcz48ZGVmcz48bWFya2VyIG9yaWVudD0iYXV0byIgbWFya2VySGVpZ2h0PSIyOCIgbWFya2VyV2lkdGg9IjIwIiByZWZZPSI3IiByZWZYPSIxOSIgaWQ9Ik1EX1BBUkVOVF9FTkQiPjxwYXRoIGQ9Ik0gMTgsNyBMOSwxMyBMMSw3IEw5LDEgWiI+PC9wYXRoPjwvbWFya2VyPjwvZGVmcz48ZGVmcz48bWFya2VyIG9yaWVudD0iYXV0byIgbWFya2VySGVpZ2h0PSIxOCIgbWFya2VyV2lkdGg9IjE4IiByZWZZPSI5IiByZWZYPSIwIiBpZD0iT05MWV9PTkVfU1RBUlQiPjxwYXRoIGQ9Ik05LDAgTDksMTggTTE1LDAgTDE1LDE4IiBmaWxsPSJub25lIiBzdHJva2U9ImdyYXkiPjwvcGF0aD48L21hcmtlcj48L2RlZnM+PGRlZnM+PG1hcmtlciBvcmllbnQ9ImF1dG8iIG1hcmtlckhlaWdodD0iMTgiIG1hcmtlcldpZHRoPSIxOCIgcmVmWT0iOSIgcmVmWD0iMTgiIGlkPSJPTkxZX09ORV9FTkQiPjxwYXRoIGQ9Ik0zLDAgTDMsMTggTTksMCBMOSwxOCIgZmlsbD0ibm9uZSIgc3Ryb2tlPSJncmF5Ij48L3BhdGg+PC9tYXJrZXI+PC9kZWZzPjxkZWZzPjxtYXJrZXIgb3JpZW50PSJhdXRvIiBtYXJrZXJIZWlnaHQ9IjE4IiBtYXJrZXJXaWR0aD0iMzAiIHJlZlk9IjkiIHJlZlg9IjAiIGlkPSJaRVJPX09SX09ORV9TVEFSVCI+PGNpcmNsZSByPSI2IiBjeT0iOSIgY3g9IjIxIiBmaWxsPSJ3aGl0ZSIgc3Ryb2tlPSJncmF5Ij48L2NpcmNsZT48cGF0aCBkPSJNOSwwIEw5LDE4IiBmaWxsPSJub25lIiBzdHJva2U9ImdyYXkiPjwvcGF0aD48L21hcmtlcj48L2RlZnM+PGRlZnM+PG1hcmtlciBvcmllbnQ9ImF1dG8iIG1hcmtlckhlaWdodD0iMTgiIG1hcmtlcldpZHRoPSIzMCIgcmVmWT0iOSIgcmVmWD0iMzAiIGlkPSJaRVJPX09SX09ORV9FTkQiPjxjaXJjbGUgcj0iNiIgY3k9IjkiIGN4PSI5IiBmaWxsPSJ3aGl0ZSIgc3Ryb2tlPSJncmF5Ij48L2NpcmNsZT48cGF0aCBkPSJNMjEsMCBMMjEsMTgiIGZpbGw9Im5vbmUiIHN0cm9rZT0iZ3JheSI+PC9wYXRoPjwvbWFya2VyPjwvZGVmcz48ZGVmcz48bWFya2VyIG9yaWVudD0iYXV0byIgbWFya2VySGVpZ2h0PSIzNiIgbWFya2VyV2lkdGg9IjQ1IiByZWZZPSIxOCIgcmVmWD0iMTgiIGlkPSJPTkVfT1JfTU9SRV9TVEFSVCI+PHBhdGggZD0iTTAsMTggUSAxOCwwIDM2LDE4IFEgMTgsMzYgMCwxOCBNNDIsOSBMNDIsMjciIGZpbGw9Im5vbmUiIHN0cm9rZT0iZ3JheSI+PC9wYXRoPjwvbWFya2VyPjwvZGVmcz48ZGVmcz48bWFya2VyIG9yaWVudD0iYXV0byIgbWFya2VySGVpZ2h0PSIzNiIgbWFya2VyV2lkdGg9IjQ1IiByZWZZPSIxOCIgcmVmWD0iMjciIGlkPSJPTkVfT1JfTU9SRV9FTkQiPjxwYXRoIGQ9Ik0zLDkgTDMsMjcgTTksMTggUTI3LDAgNDUsMTggUTI3LDM2IDksMTgiIGZpbGw9Im5vbmUiIHN0cm9rZT0iZ3JheSI+PC9wYXRoPjwvbWFya2VyPjwvZGVmcz48ZGVmcz48bWFya2VyIG9yaWVudD0iYXV0byIgbWFya2VySGVpZ2h0PSIzNiIgbWFya2VyV2lkdGg9IjU3IiByZWZZPSIxOCIgcmVmWD0iMTgiIGlkPSJaRVJPX09SX01PUkVfU1RBUlQiPjxjaXJjbGUgcj0iNiIgY3k9IjE4IiBjeD0iNDgiIGZpbGw9IndoaXRlIiBzdHJva2U9ImdyYXkiPjwvY2lyY2xlPjxwYXRoIGQ9Ik0wLDE4IFExOCwwIDM2LDE4IFExOCwzNiAwLDE4IiBmaWxsPSJub25lIiBzdHJva2U9ImdyYXkiPjwvcGF0aD48L21hcmtlcj48L2RlZnM+PGRlZnM+PG1hcmtlciBvcmllbnQ9ImF1dG8iIG1hcmtlckhlaWdodD0iMzYiIG1hcmtlcldpZHRoPSI1NyIgcmVmWT0iMTgiIHJlZlg9IjM5IiBpZD0iWkVST19PUl9NT1JFX0VORCI+PGNpcmNsZSByPSI2IiBjeT0iMTgiIGN4PSI5IiBmaWxsPSJ3aGl0ZSIgc3Ryb2tlPSJncmF5Ij48L2NpcmNsZT48cGF0aCBkPSJNMjEsMTggUTM5LDAgNTcsMTggUTM5LDM2IDIxLDE4IiBmaWxsPSJub25lIiBzdHJva2U9ImdyYXkiPjwvcGF0aD48L21hcmtlcj48L2RlZnM+PHBhdGggc3R5bGU9InN0cm9rZTogZ3JheTsgZmlsbDogbm9uZTsiIG1hcmtlci1zdGFydD0idXJsKCNPTkxZX09ORV9TVEFSVCkiIG1hcmtlci1lbmQ9InVybCgjT05MWV9PTkVfRU5EKSIgZD0iTTExNS4xOCw4MTRMMTE1LjE4LDgyMi4zMzNDMTE1LjE4LDgzMC42NjcsMTE1LjE4LDg0Ny4zMzMsMTIzLDg5NC4zMzNDMTMwLjgyMSw5NDEuMzMyLDE0Ni40NjIsMTAxOC42NjQsMTU0LjI4MiwxMDU3LjMzTDE2Mi4xMDMsMTA5NS45OTUiIGNsYXNzPSJlciByZWxhdGlvbnNoaXBMaW5lIj48L3BhdGg+PHBhdGggc3R5bGU9InN0cm9rZTogZ3JheTsgZmlsbDogbm9uZTsiIG1hcmtlci1zdGFydD0idXJsKCNPTkxZX09ORV9TVEFSVCkiIG1hcmtlci1lbmQ9InVybCgjT05MWV9PTkVfRU5EKSIgZD0iTTQxMS42OTIsNzI2TDQxMS42OTIsNzQ5QzQxMS42OTIsNzcyLDQxMS42OTIsODE4LDQwMy44NzIsODc5LjY2NkMzOTYuMDUxLDk0MS4zMzIsMzgwLjQxLDEwMTguNjY0LDM3Mi41OSwxMDU3LjMzTDM2NC43NjksMTA5NS45OTUiIGNsYXNzPSJlciByZWxhdGlvbnNoaXBMaW5lIj48L3BhdGg+PHBhdGggc3R5bGU9InN0cm9rZTogZ3JheTsgZmlsbDogbm9uZTsiIG1hcmtlci1zdGFydD0idXJsKCNPTkxZX09ORV9TVEFSVCkiIG1hcmtlci1lbmQ9InVybCgjWkVST19PUl9NT1JFX0VORCkiIGQ9Ik0yNjMuNDM2LDIyODBMMjYzLjQzNiwyMjg4LjMzM0MyNjMuNDM2LDIyOTYuNjY3LDI2My40MzYsMjMxMy4zMzMsMjYzLjQzNiwyMzMwQzI2My40MzYsMjM0Ni42NjcsMjYzLjQzNiwyMzYzLjMzMywyNjMuNDM2LDIzNzEuNjY3TDI2My40MzYsMjM4MCIgY2xhc3M9ImVyIHJlbGF0aW9uc2hpcExpbmUiPjwvcGF0aD48ZyB0cmFuc2Zvcm09InRyYW5zbGF0ZSgyMCwyMCApIiBpZD0iZW50aXR5LVRBQkxBMS05MDEzZjIyNS05OTAxLTViOTUtOTJhZi02ODdhNzMwNzg2MzgiPjxyZWN0IGhlaWdodD0iNzk0IiB3aWR0aD0iMTkwLjM1OTMxMzk2NDg0Mzc1IiB5PSIwIiB4PSIwIiBjbGFzcz0iZXIgZW50aXR5Qm94Ij48L3JlY3Q+PHRleHQgc3R5bGU9ImRvbWluYW50LWJhc2VsaW5lOiBtaWRkbGU7IHRleHQtYW5jaG9yOiBtaWRkbGU7IGZvbnQtc2l6ZTogMTJweDsiIHRyYW5zZm9ybT0idHJhbnNsYXRlKDk1LjE3OTY1Njk4MjQyMTg4LDEyKSIgeT0iMCIgeD0iMCIgaWQ9InRleHQtZW50aXR5LVRBQkxBMS05MDEzZjIyNS05OTAxLTViOTUtOTJhZi02ODdhNzMwNzg2MzgiIGNsYXNzPSJlciBlbnRpdHlMYWJlbCI+VEFCTEExPC90ZXh0PjxyZWN0IGhlaWdodD0iMjIiIHdpZHRoPSI0My4xMTI1NjQwODY5MTQwNiIgeT0iMjQiIHg9IjAiIGNsYXNzPSJlciBhdHRyaWJ1dGVCb3hPZGQiPjwvcmVjdD48dGV4dCBzdHlsZT0iZG9taW5hbnQtYmFzZWxpbmU6IG1pZGRsZTsgZm9udC1zaXplOiAxMC4ycHg7IiB0cmFuc2Zvcm09InRyYW5zbGF0ZSg1LDM1KSIgeT0iMCIgeD0iMCIgaWQ9InRleHQtZW50aXR5LVRBQkxBMS05MDEzZjIyNS05OTAxLTViOTUtOTJhZi02ODdhNzMwNzg2MzgtYXR0ci0xLXR5cGUiIGNsYXNzPSJlciBlbnRpdHlMYWJlbCI+SU5UPC90ZXh0PjxyZWN0IGhlaWdodD0iMjIiIHdpZHRoPSIxMjQuNTU5MDY2NzcyNDYwOTQiIHk9IjI0IiB4PSI0My4xMTI1NjQwODY5MTQwNiIgY2xhc3M9ImVyIGF0dHJpYnV0ZUJveE9kZCI+PC9yZWN0Pjx0ZXh0IHN0eWxlPSJkb21pbmFudC1iYXNlbGluZTogbWlkZGxlOyBmb250LXNpemU6IDEwLjJweDsiIHRyYW5zZm9ybT0idHJhbnNsYXRlKDQ4LjExMjU2NDA4NjkxNDA2LDM1KSIgeT0iMCIgeD0iMCIgaWQ9InRleHQtZW50aXR5LVRBQkxBMS05MDEzZjIyNS05OTAxLTViOTUtOTJhZi02ODdhNzMwNzg2MzgtYXR0ci0xLW5hbWUiIGNsYXNzPSJlciBlbnRpdHlMYWJlbCI+aWRfZGF0YTwvdGV4dD48cmVjdCBoZWlnaHQ9IjIyIiB3aWR0aD0iMjIuNjg3NjgzMTA1NDY4NzUiIHk9IjI0IiB4PSIxNjcuNjcxNjMwODU5Mzc1IiBjbGFzcz0iZXIgYXR0cmlidXRlQm94T2RkIj48L3JlY3Q+PHRleHQgc3R5bGU9ImRvbWluYW50LWJhc2VsaW5lOiBtaWRkbGU7IGZvbnQtc2l6ZTogMTAuMnB4OyIgdHJhbnNmb3JtPSJ0cmFuc2xhdGUoMTcyLjY3MTYzMDg1OTM3NSwzNSkiIHk9IjAiIHg9IjAiIGlkPSJ0ZXh0LWVudGl0eS1UQUJMQTEtOTAxM2YyMjUtOTkwMS01Yjk1LTkyYWYtNjg3YTczMDc4NjM4LWF0dHItMS1rZXkiIGNsYXNzPSJlciBlbnRpdHlMYWJlbCI+UEs8L3RleHQ+PHJlY3QgaGVpZ2h0PSIyMiIgd2lkdGg9IjQzLjExMjU2NDA4NjkxNDA2IiB5PSI0NiIgeD0iMCIgY2xhc3M9ImVyIGF0dHJpYnV0ZUJveEV2ZW4iPjwvcmVjdD48dGV4dCBzdHlsZT0iZG9taW5hbnQtYmFzZWxpbmU6IG1pZGRsZTsgZm9udC1zaXplOiAxMC4ycHg7IiB0cmFuc2Zvcm09InRyYW5zbGF0ZSg1LDU3KSIgeT0iMCIgeD0iMCIgaWQ9InRleHQtZW50aXR5LVRBQkxBMS05MDEzZjIyNS05OTAxLTViOTUtOTJhZi02ODdhNzMwNzg2MzgtYXR0ci0yLXR5cGUiIGNsYXNzPSJlciBlbnRpdHlMYWJlbCI+RkxPQVQ8L3RleHQ+PHJlY3QgaGVpZ2h0PSIyMiIgd2lkdGg9IjEyNC41NTkwNjY3NzI0NjA5NCIgeT0iNDYiIHg9IjQzLjExMjU2NDA4NjkxNDA2IiBjbGFzcz0iZXIgYXR0cmlidXRlQm94RXZlbiI+PC9yZWN0Pjx0ZXh0IHN0eWxlPSJkb21pbmFudC1iYXNlbGluZTogbWlkZGxlOyBmb250LXNpemU6IDEwLjJweDsiIHRyYW5zZm9ybT0idHJhbnNsYXRlKDQ4LjExMjU2NDA4NjkxNDA2LDU3KSIgeT0iMCIgeD0iMCIgaWQ9InRleHQtZW50aXR5LVRBQkxBMS05MDEzZjIyNS05OTAxLTViOTUtOTJhZi02ODdhNzMwNzg2MzgtYXR0ci0yLW5hbWUiIGNsYXNzPSJlciBlbnRpdHlMYWJlbCI+aGFzX2RvbWFpbjwvdGV4dD48cmVjdCBoZWlnaHQ9IjIyIiB3aWR0aD0iMjIuNjg3NjgzMTA1NDY4NzUiIHk9IjQ2IiB4PSIxNjcuNjcxNjMwODU5Mzc1IiBjbGFzcz0iZXIgYXR0cmlidXRlQm94RXZlbiI+PC9yZWN0Pjx0ZXh0IHN0eWxlPSJkb21pbmFudC1iYXNlbGluZTogbWlkZGxlOyBmb250LXNpemU6IDEwLjJweDsiIHRyYW5zZm9ybT0idHJhbnNsYXRlKDE3Mi42NzE2MzA4NTkzNzUsNTcpIiB5PSIwIiB4PSIwIiBpZD0idGV4dC1lbnRpdHktVEFCTEExLTkwMTNmMjI1LTk5MDEtNWI5NS05MmFmLTY4N2E3MzA3ODYzOC1hdHRyLTIta2V5IiBjbGFzcz0iZXIgZW50aXR5TGFiZWwiPjwvdGV4dD48cmVjdCBoZWlnaHQ9IjIyIiB3aWR0aD0iNDMuMTEyNTY0MDg2OTE0MDYiIHk9IjY4IiB4PSIwIiBjbGFzcz0iZXIgYXR0cmlidXRlQm94T2RkIj48L3JlY3Q+PHRleHQgc3R5bGU9ImRvbWluYW50LWJhc2VsaW5lOiBtaWRkbGU7IGZvbnQtc2l6ZTogMTAuMnB4OyIgdHJhbnNmb3JtPSJ0cmFuc2xhdGUoNSw3OSkiIHk9IjAiIHg9IjAiIGlkPSJ0ZXh0LWVudGl0eS1UQUJMQTEtOTAxM2YyMjUtOTkwMS01Yjk1LTkyYWYtNjg3YTczMDc4NjM4LWF0dHItMy10eXBlIiBjbGFzcz0iZXIgZW50aXR5TGFiZWwiPkZMT0FUPC90ZXh0PjxyZWN0IGhlaWdodD0iMjIiIHdpZHRoPSIxMjQuNTU5MDY2NzcyNDYwOTQiIHk9IjY4IiB4PSI0My4xMTI1NjQwODY5MTQwNiIgY2xhc3M9ImVyIGF0dHJpYnV0ZUJveE9kZCI+PC9yZWN0Pjx0ZXh0IHN0eWxlPSJkb21pbmFudC1iYXNlbGluZTogbWlkZGxlOyBmb250LXNpemU6IDEwLjJweDsiIHRyYW5zZm9ybT0idHJhbnNsYXRlKDQ4LjExMjU2NDA4NjkxNDA2LDc5KSIgeT0iMCIgeD0iMCIgaWQ9InRleHQtZW50aXR5LVRBQkxBMS05MDEzZjIyNS05OTAxLTViOTUtOTJhZi02ODdhNzMwNzg2MzgtYXR0ci0zLW5hbWUiIGNsYXNzPSJlciBlbnRpdHlMYWJlbCI+aGFzX2JpcnRoX2RhdGU8L3RleHQ+PHJlY3QgaGVpZ2h0PSIyMiIgd2lkdGg9IjIyLjY4NzY4MzEwNTQ2ODc1IiB5PSI2OCIgeD0iMTY3LjY3MTYzMDg1OTM3NSIgY2xhc3M9ImVyIGF0dHJpYnV0ZUJveE9kZCI+PC9yZWN0Pjx0ZXh0IHN0eWxlPSJkb21pbmFudC1iYXNlbGluZTogbWlkZGxlOyBmb250LXNpemU6IDEwLjJweDsiIHRyYW5zZm9ybT0idHJhbnNsYXRlKDE3Mi42NzE2MzA4NTkzNzUsNzkpIiB5PSIwIiB4PSIwIiBpZD0idGV4dC1lbnRpdHktVEFCTEExLTkwMTNmMjI1LTk5MDEtNWI5NS05MmFmLTY4N2E3MzA3ODYzOC1hdHRyLTMta2V5IiBjbGFzcz0iZXIgZW50aXR5TGFiZWwiPjwvdGV4dD48cmVjdCBoZWlnaHQ9IjIyIiB3aWR0aD0iNDMuMTEyNTY0MDg2OTE0MDYiIHk9IjkwIiB4PSIwIiBjbGFzcz0iZXIgYXR0cmlidXRlQm94RXZlbiI+PC9yZWN0Pjx0ZXh0IHN0eWxlPSJkb21pbmFudC1iYXNlbGluZTogbWlkZGxlOyBmb250LXNpemU6IDEwLjJweDsiIHRyYW5zZm9ybT0idHJhbnNsYXRlKDUsMTAxKSIgeT0iMCIgeD0iMCIgaWQ9InRleHQtZW50aXR5LVRBQkxBMS05MDEzZjIyNS05OTAxLTViOTUtOTJhZi02ODdhNzMwNzg2MzgtYXR0ci00LXR5cGUiIGNsYXNzPSJlciBlbnRpdHlMYWJlbCI+RkxPQVQ8L3RleHQ+PHJlY3QgaGVpZ2h0PSIyMiIgd2lkdGg9IjEyNC41NTkwNjY3NzI0NjA5NCIgeT0iOTAiIHg9IjQzLjExMjU2NDA4NjkxNDA2IiBjbGFzcz0iZXIgYXR0cmlidXRlQm94RXZlbiI+PC9yZWN0Pjx0ZXh0IHN0eWxlPSJkb21pbmFudC1iYXNlbGluZTogbWlkZGxlOyBmb250LXNpemU6IDEwLjJweDsiIHRyYW5zZm9ybT0idHJhbnNsYXRlKDQ4LjExMjU2NDA4NjkxNDA2LDEwMSkiIHk9IjAiIHg9IjAiIGlkPSJ0ZXh0LWVudGl0eS1UQUJMQTEtOTAxM2YyMjUtOTkwMS01Yjk1LTkyYWYtNjg3YTczMDc4NjM4LWF0dHItNC1uYW1lIiBjbGFzcz0iZXIgZW50aXR5TGFiZWwiPmhhc19waG90bzwvdGV4dD48cmVjdCBoZWlnaHQ9IjIyIiB3aWR0aD0iMjIuNjg3NjgzMTA1NDY4NzUiIHk9IjkwIiB4PSIxNjcuNjcxNjMwODU5Mzc1IiBjbGFzcz0iZXIgYXR0cmlidXRlQm94RXZlbiI+PC9yZWN0Pjx0ZXh0IHN0eWxlPSJkb21pbmFudC1iYXNlbGluZTogbWlkZGxlOyBmb250LXNpemU6IDEwLjJweDsiIHRyYW5zZm9ybT0idHJhbnNsYXRlKDE3Mi42NzE2MzA4NTkzNzUsMTAxKSIgeT0iMCIgeD0iMCIgaWQ9InRleHQtZW50aXR5LVRBQkxBMS05MDEzZjIyNS05OTAxLTViOTUtOTJhZi02ODdhNzMwNzg2MzgtYXR0ci00LWtleSIgY2xhc3M9ImVyIGVudGl0eUxhYmVsIj48L3RleHQ+PHJlY3QgaGVpZ2h0PSIyMiIgd2lkdGg9IjQzLjExMjU2NDA4NjkxNDA2IiB5PSIxMTIiIHg9IjAiIGNsYXNzPSJlciBhdHRyaWJ1dGVCb3hPZGQiPjwvcmVjdD48dGV4dCBzdHlsZT0iZG9taW5hbnQtYmFzZWxpbmU6IG1pZGRsZTsgZm9udC1zaXplOiAxMC4ycHg7IiB0cmFuc2Zvcm09InRyYW5zbGF0ZSg1LDEyMykiIHk9IjAiIHg9IjAiIGlkPSJ0ZXh0LWVudGl0eS1UQUJMQTEtOTAxM2YyMjUtOTkwMS01Yjk1LTkyYWYtNjg3YTczMDc4NjM4LWF0dHItNS10eXBlIiBjbGFzcz0iZXIgZW50aXR5TGFiZWwiPkZMT0FUPC90ZXh0PjxyZWN0IGhlaWdodD0iMjIiIHdpZHRoPSIxMjQuNTU5MDY2NzcyNDYwOTQiIHk9IjExMiIgeD0iNDMuMTEyNTY0MDg2OTE0MDYiIGNsYXNzPSJlciBhdHRyaWJ1dGVCb3hPZGQiPjwvcmVjdD48dGV4dCBzdHlsZT0iZG9taW5hbnQtYmFzZWxpbmU6IG1pZGRsZTsgZm9udC1zaXplOiAxMC4ycHg7IiB0cmFuc2Zvcm09InRyYW5zbGF0ZSg0OC4xMTI1NjQwODY5MTQwNiwxMjMpIiB5PSIwIiB4PSIwIiBpZD0idGV4dC1lbnRpdHktVEFCTEExLTkwMTNmMjI1LTk5MDEtNWI5NS05MmFmLTY4N2E3MzA3ODYzOC1hdHRyLTUtbmFtZSIgY2xhc3M9ImVyIGVudGl0eUxhYmVsIj5jYW5fcG9zdF9vbl93YWxsPC90ZXh0PjxyZWN0IGhlaWdodD0iMjIiIHdpZHRoPSIyMi42ODc2ODMxMDU0Njg3NSIgeT0iMTEyIiB4PSIxNjcuNjcxNjMwODU5Mzc1IiBjbGFzcz0iZXIgYXR0cmlidXRlQm94T2RkIj48L3JlY3Q+PHRleHQgc3R5bGU9ImRvbWluYW50LWJhc2VsaW5lOiBtaWRkbGU7IGZvbnQtc2l6ZTogMTAuMnB4OyIgdHJhbnNmb3JtPSJ0cmFuc2xhdGUoMTcyLjY3MTYzMDg1OTM3NSwxMjMpIiB5PSIwIiB4PSIwIiBpZD0idGV4dC1lbnRpdHktVEFCTEExLTkwMTNmMjI1LTk5MDEtNWI5NS05MmFmLTY4N2E3MzA3ODYzOC1hdHRyLTUta2V5IiBjbGFzcz0iZXIgZW50aXR5TGFiZWwiPjwvdGV4dD48cmVjdCBoZWlnaHQ9IjIyIiB3aWR0aD0iNDMuMTEyNTY0MDg2OTE0MDYiIHk9IjEzNCIgeD0iMCIgY2xhc3M9ImVyIGF0dHJpYnV0ZUJveEV2ZW4iPjwvcmVjdD48dGV4dCBzdHlsZT0iZG9taW5hbnQtYmFzZWxpbmU6IG1pZGRsZTsgZm9udC1zaXplOiAxMC4ycHg7IiB0cmFuc2Zvcm09InRyYW5zbGF0ZSg1LDE0NSkiIHk9IjAiIHg9IjAiIGlkPSJ0ZXh0LWVudGl0eS1UQUJMQTEtOTAxM2YyMjUtOTkwMS01Yjk1LTkyYWYtNjg3YTczMDc4NjM4LWF0dHItNi10eXBlIiBjbGFzcz0iZXIgZW50aXR5TGFiZWwiPkZMT0FUPC90ZXh0PjxyZWN0IGhlaWdodD0iMjIiIHdpZHRoPSIxMjQuNTU5MDY2NzcyNDYwOTQiIHk9IjEzNCIgeD0iNDMuMTEyNTY0MDg2OTE0MDYiIGNsYXNzPSJlciBhdHRyaWJ1dGVCb3hFdmVuIj48L3JlY3Q+PHRleHQgc3R5bGU9ImRvbWluYW50LWJhc2VsaW5lOiBtaWRkbGU7IGZvbnQtc2l6ZTogMTAuMnB4OyIgdHJhbnNmb3JtPSJ0cmFuc2xhdGUoNDguMTEyNTY0MDg2OTE0MDYsMTQ1KSIgeT0iMCIgeD0iMCIgaWQ9InRleHQtZW50aXR5LVRBQkxBMS05MDEzZjIyNS05OTAxLTViOTUtOTJhZi02ODdhNzMwNzg2MzgtYXR0ci02LW5hbWUiIGNsYXNzPSJlciBlbnRpdHlMYWJlbCI+Y2FuX3NlbmRfbWVzc2FnZTwvdGV4dD48cmVjdCBoZWlnaHQ9IjIyIiB3aWR0aD0iMjIuNjg3NjgzMTA1NDY4NzUiIHk9IjEzNCIgeD0iMTY3LjY3MTYzMDg1OTM3NSIgY2xhc3M9ImVyIGF0dHJpYnV0ZUJveEV2ZW4iPjwvcmVjdD48dGV4dCBzdHlsZT0iZG9taW5hbnQtYmFzZWxpbmU6IG1pZGRsZTsgZm9udC1zaXplOiAxMC4ycHg7IiB0cmFuc2Zvcm09InRyYW5zbGF0ZSgxNzIuNjcxNjMwODU5Mzc1LDE0NSkiIHk9IjAiIHg9IjAiIGlkPSJ0ZXh0LWVudGl0eS1UQUJMQTEtOTAxM2YyMjUtOTkwMS01Yjk1LTkyYWYtNjg3YTczMDc4NjM4LWF0dHItNi1rZXkiIGNsYXNzPSJlciBlbnRpdHlMYWJlbCI+PC90ZXh0PjxyZWN0IGhlaWdodD0iMjIiIHdpZHRoPSI0My4xMTI1NjQwODY5MTQwNiIgeT0iMTU2IiB4PSIwIiBjbGFzcz0iZXIgYXR0cmlidXRlQm94T2RkIj48L3JlY3Q+PHRleHQgc3R5bGU9ImRvbWluYW50LWJhc2VsaW5lOiBtaWRkbGU7IGZvbnQtc2l6ZTogMTAuMnB4OyIgdHJhbnNmb3JtPSJ0cmFuc2xhdGUoNSwxNjcpIiB5PSIwIiB4PSIwIiBpZD0idGV4dC1lbnRpdHktVEFCTEExLTkwMTNmMjI1LTk5MDEtNWI5NS05MmFmLTY4N2E3MzA3ODYzOC1hdHRyLTctdHlwZSIgY2xhc3M9ImVyIGVudGl0eUxhYmVsIj5GTE9BVDwvdGV4dD48cmVjdCBoZWlnaHQ9IjIyIiB3aWR0aD0iMTI0LjU1OTA2Njc3MjQ2MDk0IiB5PSIxNTYiIHg9IjQzLjExMjU2NDA4NjkxNDA2IiBjbGFzcz0iZXIgYXR0cmlidXRlQm94T2RkIj48L3JlY3Q+PHRleHQgc3R5bGU9ImRvbWluYW50LWJhc2VsaW5lOiBtaWRkbGU7IGZvbnQtc2l6ZTogMTAuMnB4OyIgdHJhbnNmb3JtPSJ0cmFuc2xhdGUoNDguMTEyNTY0MDg2OTE0MDYsMTY3KSIgeT0iMCIgeD0iMCIgaWQ9InRleHQtZW50aXR5LVRBQkxBMS05MDEzZjIyNS05OTAxLTViOTUtOTJhZi02ODdhNzMwNzg2MzgtYXR0ci03LW5hbWUiIGNsYXNzPSJlciBlbnRpdHlMYWJlbCI+aGFzX3dlYnNpdGU8L3RleHQ+PHJlY3QgaGVpZ2h0PSIyMiIgd2lkdGg9IjIyLjY4NzY4MzEwNTQ2ODc1IiB5PSIxNTYiIHg9IjE2Ny42NzE2MzA4NTkzNzUiIGNsYXNzPSJlciBhdHRyaWJ1dGVCb3hPZGQiPjwvcmVjdD48dGV4dCBzdHlsZT0iZG9taW5hbnQtYmFzZWxpbmU6IG1pZGRsZTsgZm9udC1zaXplOiAxMC4ycHg7IiB0cmFuc2Zvcm09InRyYW5zbGF0ZSgxNzIuNjcxNjMwODU5Mzc1LDE2NykiIHk9IjAiIHg9IjAiIGlkPSJ0ZXh0LWVudGl0eS1UQUJMQTEtOTAxM2YyMjUtOTkwMS01Yjk1LTkyYWYtNjg3YTczMDc4NjM4LWF0dHItNy1rZXkiIGNsYXNzPSJlciBlbnRpdHlMYWJlbCI+PC90ZXh0PjxyZWN0IGhlaWdodD0iMjIiIHdpZHRoPSI0My4xMTI1NjQwODY5MTQwNiIgeT0iMTc4IiB4PSIwIiBjbGFzcz0iZXIgYXR0cmlidXRlQm94RXZlbiI+PC9yZWN0Pjx0ZXh0IHN0eWxlPSJkb21pbmFudC1iYXNlbGluZTogbWlkZGxlOyBmb250LXNpemU6IDEwLjJweDsiIHRyYW5zZm9ybT0idHJhbnNsYXRlKDUsMTg5KSIgeT0iMCIgeD0iMCIgaWQ9InRleHQtZW50aXR5LVRBQkxBMS05MDEzZjIyNS05OTAxLTViOTUtOTJhZi02ODdhNzMwNzg2MzgtYXR0ci04LXR5cGUiIGNsYXNzPSJlciBlbnRpdHlMYWJlbCI+RkxPQVQ8L3RleHQ+PHJlY3QgaGVpZ2h0PSIyMiIgd2lkdGg9IjEyNC41NTkwNjY3NzI0NjA5NCIgeT0iMTc4IiB4PSI0My4xMTI1NjQwODY5MTQwNiIgY2xhc3M9ImVyIGF0dHJpYnV0ZUJveEV2ZW4iPjwvcmVjdD48dGV4dCBzdHlsZT0iZG9taW5hbnQtYmFzZWxpbmU6IG1pZGRsZTsgZm9udC1zaXplOiAxMC4ycHg7IiB0cmFuc2Zvcm09InRyYW5zbGF0ZSg0OC4xMTI1NjQwODY5MTQwNiwxODkpIiB5PSIwIiB4PSIwIiBpZD0idGV4dC1lbnRpdHktVEFCTEExLTkwMTNmMjI1LTk5MDEtNWI5NS05MmFmLTY4N2E3MzA3ODYzOC1hdHRyLTgtbmFtZSIgY2xhc3M9ImVyIGVudGl0eUxhYmVsIj5nZW5kZXI8L3RleHQ+PHJlY3QgaGVpZ2h0PSIyMiIgd2lkdGg9IjIyLjY4NzY4MzEwNTQ2ODc1IiB5PSIxNzgiIHg9IjE2Ny42NzE2MzA4NTkzNzUiIGNsYXNzPSJlciBhdHRyaWJ1dGVCb3hFdmVuIj48L3JlY3Q+PHRleHQgc3R5bGU9ImRvbWluYW50LWJhc2VsaW5lOiBtaWRkbGU7IGZvbnQtc2l6ZTogMTAuMnB4OyIgdHJhbnNmb3JtPSJ0cmFuc2xhdGUoMTcyLjY3MTYzMDg1OTM3NSwxODkpIiB5PSIwIiB4PSIwIiBpZD0idGV4dC1lbnRpdHktVEFCTEExLTkwMTNmMjI1LTk5MDEtNWI5NS05MmFmLTY4N2E3MzA3ODYzOC1hdHRyLTgta2V5IiBjbGFzcz0iZXIgZW50aXR5TGFiZWwiPjwvdGV4dD48cmVjdCBoZWlnaHQ9IjIyIiB3aWR0aD0iNDMuMTEyNTY0MDg2OTE0MDYiIHk9IjIwMCIgeD0iMCIgY2xhc3M9ImVyIGF0dHJpYnV0ZUJveE9kZCI+PC9yZWN0Pjx0ZXh0IHN0eWxlPSJkb21pbmFudC1iYXNlbGluZTogbWlkZGxlOyBmb250LXNpemU6IDEwLjJweDsiIHRyYW5zZm9ybT0idHJhbnNsYXRlKDUsMjExKSIgeT0iMCIgeD0iMCIgaWQ9InRleHQtZW50aXR5LVRBQkxBMS05MDEzZjIyNS05OTAxLTViOTUtOTJhZi02ODdhNzMwNzg2MzgtYXR0ci05LXR5cGUiIGNsYXNzPSJlciBlbnRpdHlMYWJlbCI+RkxPQVQ8L3RleHQ+PHJlY3QgaGVpZ2h0PSIyMiIgd2lkdGg9IjEyNC41NTkwNjY3NzI0NjA5NCIgeT0iMjAwIiB4PSI0My4xMTI1NjQwODY5MTQwNiIgY2xhc3M9ImVyIGF0dHJpYnV0ZUJveE9kZCI+PC9yZWN0Pjx0ZXh0IHN0eWxlPSJkb21pbmFudC1iYXNlbGluZTogbWlkZGxlOyBmb250LXNpemU6IDEwLjJweDsiIHRyYW5zZm9ybT0idHJhbnNsYXRlKDQ4LjExMjU2NDA4NjkxNDA2LDIxMSkiIHk9IjAiIHg9IjAiIGlkPSJ0ZXh0LWVudGl0eS1UQUJMQTEtOTAxM2YyMjUtOTkwMS01Yjk1LTkyYWYtNjg3YTczMDc4NjM4LWF0dHItOS1uYW1lIiBjbGFzcz0iZXIgZW50aXR5TGFiZWwiPmhhc19zaG9ydF9uYW1lPC90ZXh0PjxyZWN0IGhlaWdodD0iMjIiIHdpZHRoPSIyMi42ODc2ODMxMDU0Njg3NSIgeT0iMjAwIiB4PSIxNjcuNjcxNjMwODU5Mzc1IiBjbGFzcz0iZXIgYXR0cmlidXRlQm94T2RkIj48L3JlY3Q+PHRleHQgc3R5bGU9ImRvbWluYW50LWJhc2VsaW5lOiBtaWRkbGU7IGZvbnQtc2l6ZTogMTAuMnB4OyIgdHJhbnNmb3JtPSJ0cmFuc2xhdGUoMTcyLjY3MTYzMDg1OTM3NSwyMTEpIiB5PSIwIiB4PSIwIiBpZD0idGV4dC1lbnRpdHktVEFCTEExLTkwMTNmMjI1LTk5MDEtNWI5NS05MmFmLTY4N2E3MzA3ODYzOC1hdHRyLTkta2V5IiBjbGFzcz0iZXIgZW50aXR5TGFiZWwiPjwvdGV4dD48cmVjdCBoZWlnaHQ9IjIyIiB3aWR0aD0iNDMuMTEyNTY0MDg2OTE0MDYiIHk9IjIyMiIgeD0iMCIgY2xhc3M9ImVyIGF0dHJpYnV0ZUJveEV2ZW4iPjwvcmVjdD48dGV4dCBzdHlsZT0iZG9taW5hbnQtYmFzZWxpbmU6IG1pZGRsZTsgZm9udC1zaXplOiAxMC4ycHg7IiB0cmFuc2Zvcm09InRyYW5zbGF0ZSg1LDIzMykiIHk9IjAiIHg9IjAiIGlkPSJ0ZXh0LWVudGl0eS1UQUJMQTEtOTAxM2YyMjUtOTkwMS01Yjk1LTkyYWYtNjg3YTczMDc4NjM4LWF0dHItMTAtdHlwZSIgY2xhc3M9ImVyIGVudGl0eUxhYmVsIj5GTE9BVDwvdGV4dD48cmVjdCBoZWlnaHQ9IjIyIiB3aWR0aD0iMTI0LjU1OTA2Njc3MjQ2MDk0IiB5PSIyMjIiIHg9IjQzLjExMjU2NDA4NjkxNDA2IiBjbGFzcz0iZXIgYXR0cmlidXRlQm94RXZlbiI+PC9yZWN0Pjx0ZXh0IHN0eWxlPSJkb21pbmFudC1iYXNlbGluZTogbWlkZGxlOyBmb250LXNpemU6IDEwLjJweDsiIHRyYW5zZm9ybT0idHJhbnNsYXRlKDQ4LjExMjU2NDA4NjkxNDA2LDIzMykiIHk9IjAiIHg9IjAiIGlkPSJ0ZXh0LWVudGl0eS1UQUJMQTEtOTAxM2YyMjUtOTkwMS01Yjk1LTkyYWYtNjg3YTczMDc4NjM4LWF0dHItMTAtbmFtZSIgY2xhc3M9ImVyIGVudGl0eUxhYmVsIj5oYXNfZmlyc3RfbmFtZTwvdGV4dD48cmVjdCBoZWlnaHQ9IjIyIiB3aWR0aD0iMjIuNjg3NjgzMTA1NDY4NzUiIHk9IjIyMiIgeD0iMTY3LjY3MTYzMDg1OTM3NSIgY2xhc3M9ImVyIGF0dHJpYnV0ZUJveEV2ZW4iPjwvcmVjdD48dGV4dCBzdHlsZT0iZG9taW5hbnQtYmFzZWxpbmU6IG1pZGRsZTsgZm9udC1zaXplOiAxMC4ycHg7IiB0cmFuc2Zvcm09InRyYW5zbGF0ZSgxNzIuNjcxNjMwODU5Mzc1LDIzMykiIHk9IjAiIHg9IjAiIGlkPSJ0ZXh0LWVudGl0eS1UQUJMQTEtOTAxM2YyMjUtOTkwMS01Yjk1LTkyYWYtNjg3YTczMDc4NjM4LWF0dHItMTAta2V5IiBjbGFzcz0iZXIgZW50aXR5TGFiZWwiPjwvdGV4dD48cmVjdCBoZWlnaHQ9IjIyIiB3aWR0aD0iNDMuMTEyNTY0MDg2OTE0MDYiIHk9IjI0NCIgeD0iMCIgY2xhc3M9ImVyIGF0dHJpYnV0ZUJveE9kZCI+PC9yZWN0Pjx0ZXh0IHN0eWxlPSJkb21pbmFudC1iYXNlbGluZTogbWlkZGxlOyBmb250LXNpemU6IDEwLjJweDsiIHRyYW5zZm9ybT0idHJhbnNsYXRlKDUsMjU1KSIgeT0iMCIgeD0iMCIgaWQ9InRleHQtZW50aXR5LVRBQkxBMS05MDEzZjIyNS05OTAxLTViOTUtOTJhZi02ODdhNzMwNzg2MzgtYXR0ci0xMS10eXBlIiBjbGFzcz0iZXIgZW50aXR5TGFiZWwiPkZMT0FUPC90ZXh0PjxyZWN0IGhlaWdodD0iMjIiIHdpZHRoPSIxMjQuNTU5MDY2NzcyNDYwOTQiIHk9IjI0NCIgeD0iNDMuMTEyNTY0MDg2OTE0MDYiIGNsYXNzPSJlciBhdHRyaWJ1dGVCb3hPZGQiPjwvcmVjdD48dGV4dCBzdHlsZT0iZG9taW5hbnQtYmFzZWxpbmU6IG1pZGRsZTsgZm9udC1zaXplOiAxMC4ycHg7IiB0cmFuc2Zvcm09InRyYW5zbGF0ZSg0OC4xMTI1NjQwODY5MTQwNiwyNTUpIiB5PSIwIiB4PSIwIiBpZD0idGV4dC1lbnRpdHktVEFCTEExLTkwMTNmMjI1LTk5MDEtNWI5NS05MmFmLTY4N2E3MzA3ODYzOC1hdHRyLTExLW5hbWUiIGNsYXNzPSJlciBlbnRpdHlMYWJlbCI+aGFzX2xhc3RfbmFtZTwvdGV4dD48cmVjdCBoZWlnaHQ9IjIyIiB3aWR0aD0iMjIuNjg3NjgzMTA1NDY4NzUiIHk9IjI0NCIgeD0iMTY3LjY3MTYzMDg1OTM3NSIgY2xhc3M9ImVyIGF0dHJpYnV0ZUJveE9kZCI+PC9yZWN0Pjx0ZXh0IHN0eWxlPSJkb21pbmFudC1iYXNlbGluZTogbWlkZGxlOyBmb250LXNpemU6IDEwLjJweDsiIHRyYW5zZm9ybT0idHJhbnNsYXRlKDE3Mi42NzE2MzA4NTkzNzUsMjU1KSIgeT0iMCIgeD0iMCIgaWQ9InRleHQtZW50aXR5LVRBQkxBMS05MDEzZjIyNS05OTAxLTViOTUtOTJhZi02ODdhNzMwNzg2MzgtYXR0ci0xMS1rZXkiIGNsYXNzPSJlciBlbnRpdHlMYWJlbCI+PC90ZXh0PjxyZWN0IGhlaWdodD0iMjIiIHdpZHRoPSI0My4xMTI1NjQwODY5MTQwNiIgeT0iMjY2IiB4PSIwIiBjbGFzcz0iZXIgYXR0cmlidXRlQm94RXZlbiI+PC9yZWN0Pjx0ZXh0IHN0eWxlPSJkb21pbmFudC1iYXNlbGluZTogbWlkZGxlOyBmb250LXNpemU6IDEwLjJweDsiIHRyYW5zZm9ybT0idHJhbnNsYXRlKDUsMjc3KSIgeT0iMCIgeD0iMCIgaWQ9InRleHQtZW50aXR5LVRBQkxBMS05MDEzZjIyNS05OTAxLTViOTUtOTJhZi02ODdhNzMwNzg2MzgtYXR0ci0xMi10eXBlIiBjbGFzcz0iZXIgZW50aXR5TGFiZWwiPkZMT0FUPC90ZXh0PjxyZWN0IGhlaWdodD0iMjIiIHdpZHRoPSIxMjQuNTU5MDY2NzcyNDYwOTQiIHk9IjI2NiIgeD0iNDMuMTEyNTY0MDg2OTE0MDYiIGNsYXNzPSJlciBhdHRyaWJ1dGVCb3hFdmVuIj48L3JlY3Q+PHRleHQgc3R5bGU9ImRvbWluYW50LWJhc2VsaW5lOiBtaWRkbGU7IGZvbnQtc2l6ZTogMTAuMnB4OyIgdHJhbnNmb3JtPSJ0cmFuc2xhdGUoNDguMTEyNTY0MDg2OTE0MDYsMjc3KSIgeT0iMCIgeD0iMCIgaWQ9InRleHQtZW50aXR5LVRBQkxBMS05MDEzZjIyNS05OTAxLTViOTUtOTJhZi02ODdhNzMwNzg2MzgtYXR0ci0xMi1uYW1lIiBjbGFzcz0iZXIgZW50aXR5TGFiZWwiPmFjY2Vzc190b19jbG9zZWRfcHJvZmlsZTwvdGV4dD48cmVjdCBoZWlnaHQ9IjIyIiB3aWR0aD0iMjIuNjg3NjgzMTA1NDY4NzUiIHk9IjI2NiIgeD0iMTY3LjY3MTYzMDg1OTM3NSIgY2xhc3M9ImVyIGF0dHJpYnV0ZUJveEV2ZW4iPjwvcmVjdD48dGV4dCBzdHlsZT0iZG9taW5hbnQtYmFzZWxpbmU6IG1pZGRsZTsgZm9udC1zaXplOiAxMC4ycHg7IiB0cmFuc2Zvcm09InRyYW5zbGF0ZSgxNzIuNjcxNjMwODU5Mzc1LDI3NykiIHk9IjAiIHg9IjAiIGlkPSJ0ZXh0LWVudGl0eS1UQUJMQTEtOTAxM2YyMjUtOTkwMS01Yjk1LTkyYWYtNjg3YTczMDc4NjM4LWF0dHItMTIta2V5IiBjbGFzcz0iZXIgZW50aXR5TGFiZWwiPjwvdGV4dD48cmVjdCBoZWlnaHQ9IjIyIiB3aWR0aD0iNDMuMTEyNTY0MDg2OTE0MDYiIHk9IjI4OCIgeD0iMCIgY2xhc3M9ImVyIGF0dHJpYnV0ZUJveE9kZCI+PC9yZWN0Pjx0ZXh0IHN0eWxlPSJkb21pbmFudC1iYXNlbGluZTogbWlkZGxlOyBmb250LXNpemU6IDEwLjJweDsiIHRyYW5zZm9ybT0idHJhbnNsYXRlKDUsMjk5KSIgeT0iMCIgeD0iMCIgaWQ9InRleHQtZW50aXR5LVRBQkxBMS05MDEzZjIyNS05OTAxLTViOTUtOTJhZi02ODdhNzMwNzg2MzgtYXR0ci0xMy10eXBlIiBjbGFzcz0iZXIgZW50aXR5TGFiZWwiPkZMT0FUPC90ZXh0PjxyZWN0IGhlaWdodD0iMjIiIHdpZHRoPSIxMjQuNTU5MDY2NzcyNDYwOTQiIHk9IjI4OCIgeD0iNDMuMTEyNTY0MDg2OTE0MDYiIGNsYXNzPSJlciBhdHRyaWJ1dGVCb3hPZGQiPjwvcmVjdD48dGV4dCBzdHlsZT0iZG9taW5hbnQtYmFzZWxpbmU6IG1pZGRsZTsgZm9udC1zaXplOiAxMC4ycHg7IiB0cmFuc2Zvcm09InRyYW5zbGF0ZSg0OC4xMTI1NjQwODY5MTQwNiwyOTkpIiB5PSIwIiB4PSIwIiBpZD0idGV4dC1lbnRpdHktVEFCTEExLTkwMTNmMjI1LTk5MDEtNWI5NS05MmFmLTY4N2E3MzA3ODYzOC1hdHRyLTEzLW5hbWUiIGNsYXNzPSJlciBlbnRpdHlMYWJlbCI+aXNfcHJvZmlsZV9jbG9zZWQ8L3RleHQ+PHJlY3QgaGVpZ2h0PSIyMiIgd2lkdGg9IjIyLjY4NzY4MzEwNTQ2ODc1IiB5PSIyODgiIHg9IjE2Ny42NzE2MzA4NTkzNzUiIGNsYXNzPSJlciBhdHRyaWJ1dGVCb3hPZGQiPjwvcmVjdD48dGV4dCBzdHlsZT0iZG9taW5hbnQtYmFzZWxpbmU6IG1pZGRsZTsgZm9udC1zaXplOiAxMC4ycHg7IiB0cmFuc2Zvcm09InRyYW5zbGF0ZSgxNzIuNjcxNjMwODU5Mzc1LDI5OSkiIHk9IjAiIHg9IjAiIGlkPSJ0ZXh0LWVudGl0eS1UQUJMQTEtOTAxM2YyMjUtOTkwMS01Yjk1LTkyYWYtNjg3YTczMDc4NjM4LWF0dHItMTMta2V5IiBjbGFzcz0iZXIgZW50aXR5TGFiZWwiPjwvdGV4dD48cmVjdCBoZWlnaHQ9IjIyIiB3aWR0aD0iNDMuMTEyNTY0MDg2OTE0MDYiIHk9IjMxMCIgeD0iMCIgY2xhc3M9ImVyIGF0dHJpYnV0ZUJveEV2ZW4iPjwvcmVjdD48dGV4dCBzdHlsZT0iZG9taW5hbnQtYmFzZWxpbmU6IG1pZGRsZTsgZm9udC1zaXplOiAxMC4ycHg7IiB0cmFuc2Zvcm09InRyYW5zbGF0ZSg1LDMyMSkiIHk9IjAiIHg9IjAiIGlkPSJ0ZXh0LWVudGl0eS1UQUJMQTEtOTAxM2YyMjUtOTkwMS01Yjk1LTkyYWYtNjg3YTczMDc4NjM4LWF0dHItMTQtdHlwZSIgY2xhc3M9ImVyIGVudGl0eUxhYmVsIj5JTlQ8L3RleHQ+PHJlY3QgaGVpZ2h0PSIyMiIgd2lkdGg9IjEyNC41NTkwNjY3NzI0NjA5NCIgeT0iMzEwIiB4PSI0My4xMTI1NjQwODY5MTQwNiIgY2xhc3M9ImVyIGF0dHJpYnV0ZUJveEV2ZW4iPjwvcmVjdD48dGV4dCBzdHlsZT0iZG9taW5hbnQtYmFzZWxpbmU6IG1pZGRsZTsgZm9udC1zaXplOiAxMC4ycHg7IiB0cmFuc2Zvcm09InRyYW5zbGF0ZSg0OC4xMTI1NjQwODY5MTQwNiwzMjEpIiB5PSIwIiB4PSIwIiBpZD0idGV4dC1lbnRpdHktVEFCTEExLTkwMTNmMjI1LTk5MDEtNWI5NS05MmFmLTY4N2E3MzA3ODYzOC1hdHRyLTE0LW5hbWUiIGNsYXNzPSJlciBlbnRpdHlMYWJlbCI+dGFyZ2V0PC90ZXh0PjxyZWN0IGhlaWdodD0iMjIiIHdpZHRoPSIyMi42ODc2ODMxMDU0Njg3NSIgeT0iMzEwIiB4PSIxNjcuNjcxNjMwODU5Mzc1IiBjbGFzcz0iZXIgYXR0cmlidXRlQm94RXZlbiI+PC9yZWN0Pjx0ZXh0IHN0eWxlPSJkb21pbmFudC1iYXNlbGluZTogbWlkZGxlOyBmb250LXNpemU6IDEwLjJweDsiIHRyYW5zZm9ybT0idHJhbnNsYXRlKDE3Mi42NzE2MzA4NTkzNzUsMzIxKSIgeT0iMCIgeD0iMCIgaWQ9InRleHQtZW50aXR5LVRBQkxBMS05MDEzZjIyNS05OTAxLTViOTUtOTJhZi02ODdhNzMwNzg2MzgtYXR0ci0xNC1rZXkiIGNsYXNzPSJlciBlbnRpdHlMYWJlbCI+PC90ZXh0PjxyZWN0IGhlaWdodD0iMjIiIHdpZHRoPSI0My4xMTI1NjQwODY5MTQwNiIgeT0iMzMyIiB4PSIwIiBjbGFzcz0iZXIgYXR0cmlidXRlQm94T2RkIj48L3JlY3Q+PHRleHQgc3R5bGU9ImRvbWluYW50LWJhc2VsaW5lOiBtaWRkbGU7IGZvbnQtc2l6ZTogMTAuMnB4OyIgdHJhbnNmb3JtPSJ0cmFuc2xhdGUoNSwzNDMpIiB5PSIwIiB4PSIwIiBpZD0idGV4dC1lbnRpdHktVEFCTEExLTkwMTNmMjI1LTk5MDEtNWI5NS05MmFmLTY4N2E3MzA3ODYzOC1hdHRyLTE1LXR5cGUiIGNsYXNzPSJlciBlbnRpdHlMYWJlbCI+U1RSSU5HPC90ZXh0PjxyZWN0IGhlaWdodD0iMjIiIHdpZHRoPSIxMjQuNTU5MDY2NzcyNDYwOTQiIHk9IjMzMiIgeD0iNDMuMTEyNTY0MDg2OTE0MDYiIGNsYXNzPSJlciBhdHRyaWJ1dGVCb3hPZGQiPjwvcmVjdD48dGV4dCBzdHlsZT0iZG9taW5hbnQtYmFzZWxpbmU6IG1pZGRsZTsgZm9udC1zaXplOiAxMC4ycHg7IiB0cmFuc2Zvcm09InRyYW5zbGF0ZSg0OC4xMTI1NjQwODY5MTQwNiwzNDMpIiB5PSIwIiB4PSIwIiBpZD0idGV4dC1lbnRpdHktVEFCTEExLTkwMTNmMjI1LTk5MDEtNWI5NS05MmFmLTY4N2E3MzA3ODYzOC1hdHRyLTE1LW5hbWUiIGNsYXNzPSJlciBlbnRpdHlMYWJlbCI+aGFzX25pY2tuYW1lPC90ZXh0PjxyZWN0IGhlaWdodD0iMjIiIHdpZHRoPSIyMi42ODc2ODMxMDU0Njg3NSIgeT0iMzMyIiB4PSIxNjcuNjcxNjMwODU5Mzc1IiBjbGFzcz0iZXIgYXR0cmlidXRlQm94T2RkIj48L3JlY3Q+PHRleHQgc3R5bGU9ImRvbWluYW50LWJhc2VsaW5lOiBtaWRkbGU7IGZvbnQtc2l6ZTogMTAuMnB4OyIgdHJhbnNmb3JtPSJ0cmFuc2xhdGUoMTcyLjY3MTYzMDg1OTM3NSwzNDMpIiB5PSIwIiB4PSIwIiBpZD0idGV4dC1lbnRpdHktVEFCTEExLTkwMTNmMjI1LTk5MDEtNWI5NS05MmFmLTY4N2E3MzA3ODYzOC1hdHRyLTE1LWtleSIgY2xhc3M9ImVyIGVudGl0eUxhYmVsIj48L3RleHQ+PHJlY3QgaGVpZ2h0PSIyMiIgd2lkdGg9IjQzLjExMjU2NDA4NjkxNDA2IiB5PSIzNTQiIHg9IjAiIGNsYXNzPSJlciBhdHRyaWJ1dGVCb3hFdmVuIj48L3JlY3Q+PHRleHQgc3R5bGU9ImRvbWluYW50LWJhc2VsaW5lOiBtaWRkbGU7IGZvbnQtc2l6ZTogMTAuMnB4OyIgdHJhbnNmb3JtPSJ0cmFuc2xhdGUoNSwzNjUpIiB5PSIwIiB4PSIwIiBpZD0idGV4dC1lbnRpdHktVEFCTEExLTkwMTNmMjI1LTk5MDEtNWI5NS05MmFmLTY4N2E3MzA3ODYzOC1hdHRyLTE2LXR5cGUiIGNsYXNzPSJlciBlbnRpdHlMYWJlbCI+U1RSSU5HPC90ZXh0PjxyZWN0IGhlaWdodD0iMjIiIHdpZHRoPSIxMjQuNTU5MDY2NzcyNDYwOTQiIHk9IjM1NCIgeD0iNDMuMTEyNTY0MDg2OTE0MDYiIGNsYXNzPSJlciBhdHRyaWJ1dGVCb3hFdmVuIj48L3JlY3Q+PHRleHQgc3R5bGU9ImRvbWluYW50LWJhc2VsaW5lOiBtaWRkbGU7IGZvbnQtc2l6ZTogMTAuMnB4OyIgdHJhbnNmb3JtPSJ0cmFuc2xhdGUoNDguMTEyNTY0MDg2OTE0MDYsMzY1KSIgeT0iMCIgeD0iMCIgaWQ9InRleHQtZW50aXR5LVRBQkxBMS05MDEzZjIyNS05OTAxLTViOTUtOTJhZi02ODdhNzMwNzg2MzgtYXR0ci0xNi1uYW1lIiBjbGFzcz0iZXIgZW50aXR5TGFiZWwiPmhhc19tYWlkZW5fbmFtZTwvdGV4dD48cmVjdCBoZWlnaHQ9IjIyIiB3aWR0aD0iMjIuNjg3NjgzMTA1NDY4NzUiIHk9IjM1NCIgeD0iMTY3LjY3MTYzMDg1OTM3NSIgY2xhc3M9ImVyIGF0dHJpYnV0ZUJveEV2ZW4iPjwvcmVjdD48dGV4dCBzdHlsZT0iZG9taW5hbnQtYmFzZWxpbmU6IG1pZGRsZTsgZm9udC1zaXplOiAxMC4ycHg7IiB0cmFuc2Zvcm09InRyYW5zbGF0ZSgxNzIuNjcxNjMwODU5Mzc1LDM2NSkiIHk9IjAiIHg9IjAiIGlkPSJ0ZXh0LWVudGl0eS1UQUJMQTEtOTAxM2YyMjUtOTkwMS01Yjk1LTkyYWYtNjg3YTczMDc4NjM4LWF0dHItMTYta2V5IiBjbGFzcz0iZXIgZW50aXR5TGFiZWwiPjwvdGV4dD48cmVjdCBoZWlnaHQ9IjIyIiB3aWR0aD0iNDMuMTEyNTY0MDg2OTE0MDYiIHk9IjM3NiIgeD0iMCIgY2xhc3M9ImVyIGF0dHJpYnV0ZUJveE9kZCI+PC9yZWN0Pjx0ZXh0IHN0eWxlPSJkb21pbmFudC1iYXNlbGluZTogbWlkZGxlOyBmb250LXNpemU6IDEwLjJweDsiIHRyYW5zZm9ybT0idHJhbnNsYXRlKDUsMzg3KSIgeT0iMCIgeD0iMCIgaWQ9InRleHQtZW50aXR5LVRBQkxBMS05MDEzZjIyNS05OTAxLTViOTUtOTJhZi02ODdhNzMwNzg2MzgtYXR0ci0xNy10eXBlIiBjbGFzcz0iZXIgZW50aXR5TGFiZWwiPlNUUklORzwvdGV4dD48cmVjdCBoZWlnaHQ9IjIyIiB3aWR0aD0iMTI0LjU1OTA2Njc3MjQ2MDk0IiB5PSIzNzYiIHg9IjQzLjExMjU2NDA4NjkxNDA2IiBjbGFzcz0iZXIgYXR0cmlidXRlQm94T2RkIj48L3JlY3Q+PHRleHQgc3R5bGU9ImRvbWluYW50LWJhc2VsaW5lOiBtaWRkbGU7IGZvbnQtc2l6ZTogMTAuMnB4OyIgdHJhbnNmb3JtPSJ0cmFuc2xhdGUoNDguMTEyNTY0MDg2OTE0MDYsMzg3KSIgeT0iMCIgeD0iMCIgaWQ9InRleHQtZW50aXR5LVRBQkxBMS05MDEzZjIyNS05OTAxLTViOTUtOTJhZi02ODdhNzMwNzg2MzgtYXR0ci0xNy1uYW1lIiBjbGFzcz0iZXIgZW50aXR5TGFiZWwiPmhhc19tb2JpbGU8L3RleHQ+PHJlY3QgaGVpZ2h0PSIyMiIgd2lkdGg9IjIyLjY4NzY4MzEwNTQ2ODc1IiB5PSIzNzYiIHg9IjE2Ny42NzE2MzA4NTkzNzUiIGNsYXNzPSJlciBhdHRyaWJ1dGVCb3hPZGQiPjwvcmVjdD48dGV4dCBzdHlsZT0iZG9taW5hbnQtYmFzZWxpbmU6IG1pZGRsZTsgZm9udC1zaXplOiAxMC4ycHg7IiB0cmFuc2Zvcm09InRyYW5zbGF0ZSgxNzIuNjcxNjMwODU5Mzc1LDM4NykiIHk9IjAiIHg9IjAiIGlkPSJ0ZXh0LWVudGl0eS1UQUJMQTEtOTAxM2YyMjUtOTkwMS01Yjk1LTkyYWYtNjg3YTczMDc4NjM4LWF0dHItMTcta2V5IiBjbGFzcz0iZXIgZW50aXR5TGFiZWwiPjwvdGV4dD48cmVjdCBoZWlnaHQ9IjIyIiB3aWR0aD0iNDMuMTEyNTY0MDg2OTE0MDYiIHk9IjM5OCIgeD0iMCIgY2xhc3M9ImVyIGF0dHJpYnV0ZUJveEV2ZW4iPjwvcmVjdD48dGV4dCBzdHlsZT0iZG9taW5hbnQtYmFzZWxpbmU6IG1pZGRsZTsgZm9udC1zaXplOiAxMC4ycHg7IiB0cmFuc2Zvcm09InRyYW5zbGF0ZSg1LDQwOSkiIHk9IjAiIHg9IjAiIGlkPSJ0ZXh0LWVudGl0eS1UQUJMQTEtOTAxM2YyMjUtOTkwMS01Yjk1LTkyYWYtNjg3YTczMDc4NjM4LWF0dHItMTgtdHlwZSIgY2xhc3M9ImVyIGVudGl0eUxhYmVsIj5TVFJJTkc8L3RleHQ+PHJlY3QgaGVpZ2h0PSIyMiIgd2lkdGg9IjEyNC41NTkwNjY3NzI0NjA5NCIgeT0iMzk4IiB4PSI0My4xMTI1NjQwODY5MTQwNiIgY2xhc3M9ImVyIGF0dHJpYnV0ZUJveEV2ZW4iPjwvcmVjdD48dGV4dCBzdHlsZT0iZG9taW5hbnQtYmFzZWxpbmU6IG1pZGRsZTsgZm9udC1zaXplOiAxMC4ycHg7IiB0cmFuc2Zvcm09InRyYW5zbGF0ZSg0OC4xMTI1NjQwODY5MTQwNiw0MDkpIiB5PSIwIiB4PSIwIiBpZD0idGV4dC1lbnRpdHktVEFCTEExLTkwMTNmMjI1LTk5MDEtNWI5NS05MmFmLTY4N2E3MzA3ODYzOC1hdHRyLTE4LW5hbWUiIGNsYXNzPSJlciBlbnRpdHlMYWJlbCI+YWxsX3Bvc3RzX3Zpc2libGU8L3RleHQ+PHJlY3QgaGVpZ2h0PSIyMiIgd2lkdGg9IjIyLjY4NzY4MzEwNTQ2ODc1IiB5PSIzOTgiIHg9IjE2Ny42NzE2MzA4NTkzNzUiIGNsYXNzPSJlciBhdHRyaWJ1dGVCb3hFdmVuIj48L3JlY3Q+PHRleHQgc3R5bGU9ImRvbWluYW50LWJhc2VsaW5lOiBtaWRkbGU7IGZvbnQtc2l6ZTogMTAuMnB4OyIgdHJhbnNmb3JtPSJ0cmFuc2xhdGUoMTcyLjY3MTYzMDg1OTM3NSw0MDkpIiB5PSIwIiB4PSIwIiBpZD0idGV4dC1lbnRpdHktVEFCTEExLTkwMTNmMjI1LTk5MDEtNWI5NS05MmFmLTY4N2E3MzA3ODYzOC1hdHRyLTE4LWtleSIgY2xhc3M9ImVyIGVudGl0eUxhYmVsIj48L3RleHQ+PHJlY3QgaGVpZ2h0PSIyMiIgd2lkdGg9IjQzLjExMjU2NDA4NjkxNDA2IiB5PSI0MjAiIHg9IjAiIGNsYXNzPSJlciBhdHRyaWJ1dGVCb3hPZGQiPjwvcmVjdD48dGV4dCBzdHlsZT0iZG9taW5hbnQtYmFzZWxpbmU6IG1pZGRsZTsgZm9udC1zaXplOiAxMC4ycHg7IiB0cmFuc2Zvcm09InRyYW5zbGF0ZSg1LDQzMSkiIHk9IjAiIHg9IjAiIGlkPSJ0ZXh0LWVudGl0eS1UQUJMQTEtOTAxM2YyMjUtOTkwMS01Yjk1LTkyYWYtNjg3YTczMDc4NjM4LWF0dHItMTktdHlwZSIgY2xhc3M9ImVyIGVudGl0eUxhYmVsIj5TVFJJTkc8L3RleHQ+PHJlY3QgaGVpZ2h0PSIyMiIgd2lkdGg9IjEyNC41NTkwNjY3NzI0NjA5NCIgeT0iNDIwIiB4PSI0My4xMTI1NjQwODY5MTQwNiIgY2xhc3M9ImVyIGF0dHJpYnV0ZUJveE9kZCI+PC9yZWN0Pjx0ZXh0IHN0eWxlPSJkb21pbmFudC1iYXNlbGluZTogbWlkZGxlOyBmb250LXNpemU6IDEwLjJweDsiIHRyYW5zZm9ybT0idHJhbnNsYXRlKDQ4LjExMjU2NDA4NjkxNDA2LDQzMSkiIHk9IjAiIHg9IjAiIGlkPSJ0ZXh0LWVudGl0eS1UQUJMQTEtOTAxM2YyMjUtOTkwMS01Yjk1LTkyYWYtNjg3YTczMDc4NjM4LWF0dHItMTktbmFtZSIgY2xhc3M9ImVyIGVudGl0eUxhYmVsIj5hdWRpb19hdmFpbGFibGU8L3RleHQ+PHJlY3QgaGVpZ2h0PSIyMiIgd2lkdGg9IjIyLjY4NzY4MzEwNTQ2ODc1IiB5PSI0MjAiIHg9IjE2Ny42NzE2MzA4NTkzNzUiIGNsYXNzPSJlciBhdHRyaWJ1dGVCb3hPZGQiPjwvcmVjdD48dGV4dCBzdHlsZT0iZG9taW5hbnQtYmFzZWxpbmU6IG1pZGRsZTsgZm9udC1zaXplOiAxMC4ycHg7IiB0cmFuc2Zvcm09InRyYW5zbGF0ZSgxNzIuNjcxNjMwODU5Mzc1LDQzMSkiIHk9IjAiIHg9IjAiIGlkPSJ0ZXh0LWVudGl0eS1UQUJMQTEtOTAxM2YyMjUtOTkwMS01Yjk1LTkyYWYtNjg3YTczMDc4NjM4LWF0dHItMTkta2V5IiBjbGFzcz0iZXIgZW50aXR5TGFiZWwiPjwvdGV4dD48cmVjdCBoZWlnaHQ9IjIyIiB3aWR0aD0iNDMuMTEyNTY0MDg2OTE0MDYiIHk9IjQ0MiIgeD0iMCIgY2xhc3M9ImVyIGF0dHJpYnV0ZUJveEV2ZW4iPjwvcmVjdD48dGV4dCBzdHlsZT0iZG9taW5hbnQtYmFzZWxpbmU6IG1pZGRsZTsgZm9udC1zaXplOiAxMC4ycHg7IiB0cmFuc2Zvcm09InRyYW5zbGF0ZSg1LDQ1MykiIHk9IjAiIHg9IjAiIGlkPSJ0ZXh0LWVudGl0eS1UQUJMQTEtOTAxM2YyMjUtOTkwMS01Yjk1LTkyYWYtNjg3YTczMDc4NjM4LWF0dHItMjAtdHlwZSIgY2xhc3M9ImVyIGVudGl0eUxhYmVsIj5TVFJJTkc8L3RleHQ+PHJlY3QgaGVpZ2h0PSIyMiIgd2lkdGg9IjEyNC41NTkwNjY3NzI0NjA5NCIgeT0iNDQyIiB4PSI0My4xMTI1NjQwODY5MTQwNiIgY2xhc3M9ImVyIGF0dHJpYnV0ZUJveEV2ZW4iPjwvcmVjdD48dGV4dCBzdHlsZT0iZG9taW5hbnQtYmFzZWxpbmU6IG1pZGRsZTsgZm9udC1zaXplOiAxMC4ycHg7IiB0cmFuc2Zvcm09InRyYW5zbGF0ZSg0OC4xMTI1NjQwODY5MTQwNiw0NTMpIiB5PSIwIiB4PSIwIiBpZD0idGV4dC1lbnRpdHktVEFCTEExLTkwMTNmMjI1LTk5MDEtNWI5NS05MmFmLTY4N2E3MzA3ODYzOC1hdHRyLTIwLW5hbWUiIGNsYXNzPSJlciBlbnRpdHlMYWJlbCI+aGFzX2ludGVyZXN0czwvdGV4dD48cmVjdCBoZWlnaHQ9IjIyIiB3aWR0aD0iMjIuNjg3NjgzMTA1NDY4NzUiIHk9IjQ0MiIgeD0iMTY3LjY3MTYzMDg1OTM3NSIgY2xhc3M9ImVyIGF0dHJpYnV0ZUJveEV2ZW4iPjwvcmVjdD48dGV4dCBzdHlsZT0iZG9taW5hbnQtYmFzZWxpbmU6IG1pZGRsZTsgZm9udC1zaXplOiAxMC4ycHg7IiB0cmFuc2Zvcm09InRyYW5zbGF0ZSgxNzIuNjcxNjMwODU5Mzc1LDQ1MykiIHk9IjAiIHg9IjAiIGlkPSJ0ZXh0LWVudGl0eS1UQUJMQTEtOTAxM2YyMjUtOTkwMS01Yjk1LTkyYWYtNjg3YTczMDc4NjM4LWF0dHItMjAta2V5IiBjbGFzcz0iZXIgZW50aXR5TGFiZWwiPjwvdGV4dD48cmVjdCBoZWlnaHQ9IjIyIiB3aWR0aD0iNDMuMTEyNTY0MDg2OTE0MDYiIHk9IjQ2NCIgeD0iMCIgY2xhc3M9ImVyIGF0dHJpYnV0ZUJveE9kZCI+PC9yZWN0Pjx0ZXh0IHN0eWxlPSJkb21pbmFudC1iYXNlbGluZTogbWlkZGxlOyBmb250LXNpemU6IDEwLjJweDsiIHRyYW5zZm9ybT0idHJhbnNsYXRlKDUsNDc1KSIgeT0iMCIgeD0iMCIgaWQ9InRleHQtZW50aXR5LVRBQkxBMS05MDEzZjIyNS05OTAxLTViOTUtOTJhZi02ODdhNzMwNzg2MzgtYXR0ci0yMS10eXBlIiBjbGFzcz0iZXIgZW50aXR5TGFiZWwiPlNUUklORzwvdGV4dD48cmVjdCBoZWlnaHQ9IjIyIiB3aWR0aD0iMTI0LjU1OTA2Njc3MjQ2MDk0IiB5PSI0NjQiIHg9IjQzLjExMjU2NDA4NjkxNDA2IiBjbGFzcz0iZXIgYXR0cmlidXRlQm94T2RkIj48L3JlY3Q+PHRleHQgc3R5bGU9ImRvbWluYW50LWJhc2VsaW5lOiBtaWRkbGU7IGZvbnQtc2l6ZTogMTAuMnB4OyIgdHJhbnNmb3JtPSJ0cmFuc2xhdGUoNDguMTEyNTY0MDg2OTE0MDYsNDc1KSIgeT0iMCIgeD0iMCIgaWQ9InRleHQtZW50aXR5LVRBQkxBMS05MDEzZjIyNS05OTAxLTViOTUtOTJhZi02ODdhNzMwNzg2MzgtYXR0ci0yMS1uYW1lIiBjbGFzcz0iZXIgZW50aXR5TGFiZWwiPmhhc19ib29rczwvdGV4dD48cmVjdCBoZWlnaHQ9IjIyIiB3aWR0aD0iMjIuNjg3NjgzMTA1NDY4NzUiIHk9IjQ2NCIgeD0iMTY3LjY3MTYzMDg1OTM3NSIgY2xhc3M9ImVyIGF0dHJpYnV0ZUJveE9kZCI+PC9yZWN0Pjx0ZXh0IHN0eWxlPSJkb21pbmFudC1iYXNlbGluZTogbWlkZGxlOyBmb250LXNpemU6IDEwLjJweDsiIHRyYW5zZm9ybT0idHJhbnNsYXRlKDE3Mi42NzE2MzA4NTkzNzUsNDc1KSIgeT0iMCIgeD0iMCIgaWQ9InRleHQtZW50aXR5LVRBQkxBMS05MDEzZjIyNS05OTAxLTViOTUtOTJhZi02ODdhNzMwNzg2MzgtYXR0ci0yMS1rZXkiIGNsYXNzPSJlciBlbnRpdHlMYWJlbCI+PC90ZXh0PjxyZWN0IGhlaWdodD0iMjIiIHdpZHRoPSI0My4xMTI1NjQwODY5MTQwNiIgeT0iNDg2IiB4PSIwIiBjbGFzcz0iZXIgYXR0cmlidXRlQm94RXZlbiI+PC9yZWN0Pjx0ZXh0IHN0eWxlPSJkb21pbmFudC1iYXNlbGluZTogbWlkZGxlOyBmb250LXNpemU6IDEwLjJweDsiIHRyYW5zZm9ybT0idHJhbnNsYXRlKDUsNDk3KSIgeT0iMCIgeD0iMCIgaWQ9InRleHQtZW50aXR5LVRBQkxBMS05MDEzZjIyNS05OTAxLTViOTUtOTJhZi02ODdhNzMwNzg2MzgtYXR0ci0yMi10eXBlIiBjbGFzcz0iZXIgZW50aXR5TGFiZWwiPlNUUklORzwvdGV4dD48cmVjdCBoZWlnaHQ9IjIyIiB3aWR0aD0iMTI0LjU1OTA2Njc3MjQ2MDk0IiB5PSI0ODYiIHg9IjQzLjExMjU2NDA4NjkxNDA2IiBjbGFzcz0iZXIgYXR0cmlidXRlQm94RXZlbiI+PC9yZWN0Pjx0ZXh0IHN0eWxlPSJkb21pbmFudC1iYXNlbGluZTogbWlkZGxlOyBmb250LXNpemU6IDEwLjJweDsiIHRyYW5zZm9ybT0idHJhbnNsYXRlKDQ4LjExMjU2NDA4NjkxNDA2LDQ5NykiIHk9IjAiIHg9IjAiIGlkPSJ0ZXh0LWVudGl0eS1UQUJMQTEtOTAxM2YyMjUtOTkwMS01Yjk1LTkyYWYtNjg3YTczMDc4NjM4LWF0dHItMjItbmFtZSIgY2xhc3M9ImVyIGVudGl0eUxhYmVsIj5oYXNfdHY8L3RleHQ+PHJlY3QgaGVpZ2h0PSIyMiIgd2lkdGg9IjIyLjY4NzY4MzEwNTQ2ODc1IiB5PSI0ODYiIHg9IjE2Ny42NzE2MzA4NTkzNzUiIGNsYXNzPSJlciBhdHRyaWJ1dGVCb3hFdmVuIj48L3JlY3Q+PHRleHQgc3R5bGU9ImRvbWluYW50LWJhc2VsaW5lOiBtaWRkbGU7IGZvbnQtc2l6ZTogMTAuMnB4OyIgdHJhbnNmb3JtPSJ0cmFuc2xhdGUoMTcyLjY3MTYzMDg1OTM3NSw0OTcpIiB5PSIwIiB4PSIwIiBpZD0idGV4dC1lbnRpdHktVEFCTEExLTkwMTNmMjI1LTk5MDEtNWI5NS05MmFmLTY4N2E3MzA3ODYzOC1hdHRyLTIyLWtleSIgY2xhc3M9ImVyIGVudGl0eUxhYmVsIj48L3RleHQ+PHJlY3QgaGVpZ2h0PSIyMiIgd2lkdGg9IjQzLjExMjU2NDA4NjkxNDA2IiB5PSI1MDgiIHg9IjAiIGNsYXNzPSJlciBhdHRyaWJ1dGVCb3hPZGQiPjwvcmVjdD48dGV4dCBzdHlsZT0iZG9taW5hbnQtYmFzZWxpbmU6IG1pZGRsZTsgZm9udC1zaXplOiAxMC4ycHg7IiB0cmFuc2Zvcm09InRyYW5zbGF0ZSg1LDUxOSkiIHk9IjAiIHg9IjAiIGlkPSJ0ZXh0LWVudGl0eS1UQUJMQTEtOTAxM2YyMjUtOTkwMS01Yjk1LTkyYWYtNjg3YTczMDc4NjM4LWF0dHItMjMtdHlwZSIgY2xhc3M9ImVyIGVudGl0eUxhYmVsIj5TVFJJTkc8L3RleHQ+PHJlY3QgaGVpZ2h0PSIyMiIgd2lkdGg9IjEyNC41NTkwNjY3NzI0NjA5NCIgeT0iNTA4IiB4PSI0My4xMTI1NjQwODY5MTQwNiIgY2xhc3M9ImVyIGF0dHJpYnV0ZUJveE9kZCI+PC9yZWN0Pjx0ZXh0IHN0eWxlPSJkb21pbmFudC1iYXNlbGluZTogbWlkZGxlOyBmb250LXNpemU6IDEwLjJweDsiIHRyYW5zZm9ybT0idHJhbnNsYXRlKDQ4LjExMjU2NDA4NjkxNDA2LDUxOSkiIHk9IjAiIHg9IjAiIGlkPSJ0ZXh0LWVudGl0eS1UQUJMQTEtOTAxM2YyMjUtOTkwMS01Yjk1LTkyYWYtNjg3YTczMDc4NjM4LWF0dHItMjMtbmFtZSIgY2xhc3M9ImVyIGVudGl0eUxhYmVsIj5oYXNfcXVvdGVzPC90ZXh0PjxyZWN0IGhlaWdodD0iMjIiIHdpZHRoPSIyMi42ODc2ODMxMDU0Njg3NSIgeT0iNTA4IiB4PSIxNjcuNjcxNjMwODU5Mzc1IiBjbGFzcz0iZXIgYXR0cmlidXRlQm94T2RkIj48L3JlY3Q+PHRleHQgc3R5bGU9ImRvbWluYW50LWJhc2VsaW5lOiBtaWRkbGU7IGZvbnQtc2l6ZTogMTAuMnB4OyIgdHJhbnNmb3JtPSJ0cmFuc2xhdGUoMTcyLjY3MTYzMDg1OTM3NSw1MTkpIiB5PSIwIiB4PSIwIiBpZD0idGV4dC1lbnRpdHktVEFCTEExLTkwMTNmMjI1LTk5MDEtNWI5NS05MmFmLTY4N2E3MzA3ODYzOC1hdHRyLTIzLWtleSIgY2xhc3M9ImVyIGVudGl0eUxhYmVsIj48L3RleHQ+PHJlY3QgaGVpZ2h0PSIyMiIgd2lkdGg9IjQzLjExMjU2NDA4NjkxNDA2IiB5PSI1MzAiIHg9IjAiIGNsYXNzPSJlciBhdHRyaWJ1dGVCb3hFdmVuIj48L3JlY3Q+PHRleHQgc3R5bGU9ImRvbWluYW50LWJhc2VsaW5lOiBtaWRkbGU7IGZvbnQtc2l6ZTogMTAuMnB4OyIgdHJhbnNmb3JtPSJ0cmFuc2xhdGUoNSw1NDEpIiB5PSIwIiB4PSIwIiBpZD0idGV4dC1lbnRpdHktVEFCTEExLTkwMTNmMjI1LTk5MDEtNWI5NS05MmFmLTY4N2E3MzA3ODYzOC1hdHRyLTI0LXR5cGUiIGNsYXNzPSJlciBlbnRpdHlMYWJlbCI+U1RSSU5HPC90ZXh0PjxyZWN0IGhlaWdodD0iMjIiIHdpZHRoPSIxMjQuNTU5MDY2NzcyNDYwOTQiIHk9IjUzMCIgeD0iNDMuMTEyNTY0MDg2OTE0MDYiIGNsYXNzPSJlciBhdHRyaWJ1dGVCb3hFdmVuIj48L3JlY3Q+PHRleHQgc3R5bGU9ImRvbWluYW50LWJhc2VsaW5lOiBtaWRkbGU7IGZvbnQtc2l6ZTogMTAuMnB4OyIgdHJhbnNmb3JtPSJ0cmFuc2xhdGUoNDguMTEyNTY0MDg2OTE0MDYsNTQxKSIgeT0iMCIgeD0iMCIgaWQ9InRleHQtZW50aXR5LVRBQkxBMS05MDEzZjIyNS05OTAxLTViOTUtOTJhZi02ODdhNzMwNzg2MzgtYXR0ci0yNC1uYW1lIiBjbGFzcz0iZXIgZW50aXR5TGFiZWwiPmhhc19hYm91dDwvdGV4dD48cmVjdCBoZWlnaHQ9IjIyIiB3aWR0aD0iMjIuNjg3NjgzMTA1NDY4NzUiIHk9IjUzMCIgeD0iMTY3LjY3MTYzMDg1OTM3NSIgY2xhc3M9ImVyIGF0dHJpYnV0ZUJveEV2ZW4iPjwvcmVjdD48dGV4dCBzdHlsZT0iZG9taW5hbnQtYmFzZWxpbmU6IG1pZGRsZTsgZm9udC1zaXplOiAxMC4ycHg7IiB0cmFuc2Zvcm09InRyYW5zbGF0ZSgxNzIuNjcxNjMwODU5Mzc1LDU0MSkiIHk9IjAiIHg9IjAiIGlkPSJ0ZXh0LWVudGl0eS1UQUJMQTEtOTAxM2YyMjUtOTkwMS01Yjk1LTkyYWYtNjg3YTczMDc4NjM4LWF0dHItMjQta2V5IiBjbGFzcz0iZXIgZW50aXR5TGFiZWwiPjwvdGV4dD48cmVjdCBoZWlnaHQ9IjIyIiB3aWR0aD0iNDMuMTEyNTY0MDg2OTE0MDYiIHk9IjU1MiIgeD0iMCIgY2xhc3M9ImVyIGF0dHJpYnV0ZUJveE9kZCI+PC9yZWN0Pjx0ZXh0IHN0eWxlPSJkb21pbmFudC1iYXNlbGluZTogbWlkZGxlOyBmb250LXNpemU6IDEwLjJweDsiIHRyYW5zZm9ybT0idHJhbnNsYXRlKDUsNTYzKSIgeT0iMCIgeD0iMCIgaWQ9InRleHQtZW50aXR5LVRBQkxBMS05MDEzZjIyNS05OTAxLTViOTUtOTJhZi02ODdhNzMwNzg2MzgtYXR0ci0yNS10eXBlIiBjbGFzcz0iZXIgZW50aXR5TGFiZWwiPlNUUklORzwvdGV4dD48cmVjdCBoZWlnaHQ9IjIyIiB3aWR0aD0iMTI0LjU1OTA2Njc3MjQ2MDk0IiB5PSI1NTIiIHg9IjQzLjExMjU2NDA4NjkxNDA2IiBjbGFzcz0iZXIgYXR0cmlidXRlQm94T2RkIj48L3JlY3Q+PHRleHQgc3R5bGU9ImRvbWluYW50LWJhc2VsaW5lOiBtaWRkbGU7IGZvbnQtc2l6ZTogMTAuMnB4OyIgdHJhbnNmb3JtPSJ0cmFuc2xhdGUoNDguMTEyNTY0MDg2OTE0MDYsNTYzKSIgeT0iMCIgeD0iMCIgaWQ9InRleHQtZW50aXR5LVRBQkxBMS05MDEzZjIyNS05OTAxLTViOTUtOTJhZi02ODdhNzMwNzg2MzgtYXR0ci0yNS1uYW1lIiBjbGFzcz0iZXIgZW50aXR5TGFiZWwiPmhhc19nYW1lczwvdGV4dD48cmVjdCBoZWlnaHQ9IjIyIiB3aWR0aD0iMjIuNjg3NjgzMTA1NDY4NzUiIHk9IjU1MiIgeD0iMTY3LjY3MTYzMDg1OTM3NSIgY2xhc3M9ImVyIGF0dHJpYnV0ZUJveE9kZCI+PC9yZWN0Pjx0ZXh0IHN0eWxlPSJkb21pbmFudC1iYXNlbGluZTogbWlkZGxlOyBmb250LXNpemU6IDEwLjJweDsiIHRyYW5zZm9ybT0idHJhbnNsYXRlKDE3Mi42NzE2MzA4NTkzNzUsNTYzKSIgeT0iMCIgeD0iMCIgaWQ9InRleHQtZW50aXR5LVRBQkxBMS05MDEzZjIyNS05OTAxLTViOTUtOTJhZi02ODdhNzMwNzg2MzgtYXR0ci0yNS1rZXkiIGNsYXNzPSJlciBlbnRpdHlMYWJlbCI+PC90ZXh0PjxyZWN0IGhlaWdodD0iMjIiIHdpZHRoPSI0My4xMTI1NjQwODY5MTQwNiIgeT0iNTc0IiB4PSIwIiBjbGFzcz0iZXIgYXR0cmlidXRlQm94RXZlbiI+PC9yZWN0Pjx0ZXh0IHN0eWxlPSJkb21pbmFudC1iYXNlbGluZTogbWlkZGxlOyBmb250LXNpemU6IDEwLjJweDsiIHRyYW5zZm9ybT0idHJhbnNsYXRlKDUsNTg1KSIgeT0iMCIgeD0iMCIgaWQ9InRleHQtZW50aXR5LVRBQkxBMS05MDEzZjIyNS05OTAxLTViOTUtOTJhZi02ODdhNzMwNzg2MzgtYXR0ci0yNi10eXBlIiBjbGFzcz0iZXIgZW50aXR5TGFiZWwiPlNUUklORzwvdGV4dD48cmVjdCBoZWlnaHQ9IjIyIiB3aWR0aD0iMTI0LjU1OTA2Njc3MjQ2MDk0IiB5PSI1NzQiIHg9IjQzLjExMjU2NDA4NjkxNDA2IiBjbGFzcz0iZXIgYXR0cmlidXRlQm94RXZlbiI+PC9yZWN0Pjx0ZXh0IHN0eWxlPSJkb21pbmFudC1iYXNlbGluZTogbWlkZGxlOyBmb250LXNpemU6IDEwLjJweDsiIHRyYW5zZm9ybT0idHJhbnNsYXRlKDQ4LjExMjU2NDA4NjkxNDA2LDU4NSkiIHk9IjAiIHg9IjAiIGlkPSJ0ZXh0LWVudGl0eS1UQUJMQTEtOTAxM2YyMjUtOTkwMS01Yjk1LTkyYWYtNjg3YTczMDc4NjM4LWF0dHItMjYtbmFtZSIgY2xhc3M9ImVyIGVudGl0eUxhYmVsIj5oYXNfbW92aWVzPC90ZXh0PjxyZWN0IGhlaWdodD0iMjIiIHdpZHRoPSIyMi42ODc2ODMxMDU0Njg3NSIgeT0iNTc0IiB4PSIxNjcuNjcxNjMwODU5Mzc1IiBjbGFzcz0iZXIgYXR0cmlidXRlQm94RXZlbiI+PC9yZWN0Pjx0ZXh0IHN0eWxlPSJkb21pbmFudC1iYXNlbGluZTogbWlkZGxlOyBmb250LXNpemU6IDEwLjJweDsiIHRyYW5zZm9ybT0idHJhbnNsYXRlKDE3Mi42NzE2MzA4NTkzNzUsNTg1KSIgeT0iMCIgeD0iMCIgaWQ9InRleHQtZW50aXR5LVRBQkxBMS05MDEzZjIyNS05OTAxLTViOTUtOTJhZi02ODdhNzMwNzg2MzgtYXR0ci0yNi1rZXkiIGNsYXNzPSJlciBlbnRpdHlMYWJlbCI+PC90ZXh0PjxyZWN0IGhlaWdodD0iMjIiIHdpZHRoPSI0My4xMTI1NjQwODY5MTQwNiIgeT0iNTk2IiB4PSIwIiBjbGFzcz0iZXIgYXR0cmlidXRlQm94T2RkIj48L3JlY3Q+PHRleHQgc3R5bGU9ImRvbWluYW50LWJhc2VsaW5lOiBtaWRkbGU7IGZvbnQtc2l6ZTogMTAuMnB4OyIgdHJhbnNmb3JtPSJ0cmFuc2xhdGUoNSw2MDcpIiB5PSIwIiB4PSIwIiBpZD0idGV4dC1lbnRpdHktVEFCTEExLTkwMTNmMjI1LTk5MDEtNWI5NS05MmFmLTY4N2E3MzA3ODYzOC1hdHRyLTI3LXR5cGUiIGNsYXNzPSJlciBlbnRpdHlMYWJlbCI+U1RSSU5HPC90ZXh0PjxyZWN0IGhlaWdodD0iMjIiIHdpZHRoPSIxMjQuNTU5MDY2NzcyNDYwOTQiIHk9IjU5NiIgeD0iNDMuMTEyNTY0MDg2OTE0MDYiIGNsYXNzPSJlciBhdHRyaWJ1dGVCb3hPZGQiPjwvcmVjdD48dGV4dCBzdHlsZT0iZG9taW5hbnQtYmFzZWxpbmU6IG1pZGRsZTsgZm9udC1zaXplOiAxMC4ycHg7IiB0cmFuc2Zvcm09InRyYW5zbGF0ZSg0OC4xMTI1NjQwODY5MTQwNiw2MDcpIiB5PSIwIiB4PSIwIiBpZD0idGV4dC1lbnRpdHktVEFCTEExLTkwMTNmMjI1LTk5MDEtNWI5NS05MmFmLTY4N2E3MzA3ODYzOC1hdHRyLTI3LW5hbWUiIGNsYXNzPSJlciBlbnRpdHlMYWJlbCI+aGFzX2FjdGl2aXRpZXM8L3RleHQ+PHJlY3QgaGVpZ2h0PSIyMiIgd2lkdGg9IjIyLjY4NzY4MzEwNTQ2ODc1IiB5PSI1OTYiIHg9IjE2Ny42NzE2MzA4NTkzNzUiIGNsYXNzPSJlciBhdHRyaWJ1dGVCb3hPZGQiPjwvcmVjdD48dGV4dCBzdHlsZT0iZG9taW5hbnQtYmFzZWxpbmU6IG1pZGRsZTsgZm9udC1zaXplOiAxMC4ycHg7IiB0cmFuc2Zvcm09InRyYW5zbGF0ZSgxNzIuNjcxNjMwODU5Mzc1LDYwNykiIHk9IjAiIHg9IjAiIGlkPSJ0ZXh0LWVudGl0eS1UQUJMQTEtOTAxM2YyMjUtOTkwMS01Yjk1LTkyYWYtNjg3YTczMDc4NjM4LWF0dHItMjcta2V5IiBjbGFzcz0iZXIgZW50aXR5TGFiZWwiPjwvdGV4dD48cmVjdCBoZWlnaHQ9IjIyIiB3aWR0aD0iNDMuMTEyNTY0MDg2OTE0MDYiIHk9IjYxOCIgeD0iMCIgY2xhc3M9ImVyIGF0dHJpYnV0ZUJveEV2ZW4iPjwvcmVjdD48dGV4dCBzdHlsZT0iZG9taW5hbnQtYmFzZWxpbmU6IG1pZGRsZTsgZm9udC1zaXplOiAxMC4ycHg7IiB0cmFuc2Zvcm09InRyYW5zbGF0ZSg1LDYyOSkiIHk9IjAiIHg9IjAiIGlkPSJ0ZXh0LWVudGl0eS1UQUJMQTEtOTAxM2YyMjUtOTkwMS01Yjk1LTkyYWYtNjg3YTczMDc4NjM4LWF0dHItMjgtdHlwZSIgY2xhc3M9ImVyIGVudGl0eUxhYmVsIj5TVFJJTkc8L3RleHQ+PHJlY3QgaGVpZ2h0PSIyMiIgd2lkdGg9IjEyNC41NTkwNjY3NzI0NjA5NCIgeT0iNjE4IiB4PSI0My4xMTI1NjQwODY5MTQwNiIgY2xhc3M9ImVyIGF0dHJpYnV0ZUJveEV2ZW4iPjwvcmVjdD48dGV4dCBzdHlsZT0iZG9taW5hbnQtYmFzZWxpbmU6IG1pZGRsZTsgZm9udC1zaXplOiAxMC4ycHg7IiB0cmFuc2Zvcm09InRyYW5zbGF0ZSg0OC4xMTI1NjQwODY5MTQwNiw2MjkpIiB5PSIwIiB4PSIwIiBpZD0idGV4dC1lbnRpdHktVEFCTEExLTkwMTNmMjI1LTk5MDEtNWI5NS05MmFmLTY4N2E3MzA3ODYzOC1hdHRyLTI4LW5hbWUiIGNsYXNzPSJlciBlbnRpdHlMYWJlbCI+aGFzX211c2ljPC90ZXh0PjxyZWN0IGhlaWdodD0iMjIiIHdpZHRoPSIyMi42ODc2ODMxMDU0Njg3NSIgeT0iNjE4IiB4PSIxNjcuNjcxNjMwODU5Mzc1IiBjbGFzcz0iZXIgYXR0cmlidXRlQm94RXZlbiI+PC9yZWN0Pjx0ZXh0IHN0eWxlPSJkb21pbmFudC1iYXNlbGluZTogbWlkZGxlOyBmb250LXNpemU6IDEwLjJweDsiIHRyYW5zZm9ybT0idHJhbnNsYXRlKDE3Mi42NzE2MzA4NTkzNzUsNjI5KSIgeT0iMCIgeD0iMCIgaWQ9InRleHQtZW50aXR5LVRBQkxBMS05MDEzZjIyNS05OTAxLTViOTUtOTJhZi02ODdhNzMwNzg2MzgtYXR0ci0yOC1rZXkiIGNsYXNzPSJlciBlbnRpdHlMYWJlbCI+PC90ZXh0PjxyZWN0IGhlaWdodD0iMjIiIHdpZHRoPSI0My4xMTI1NjQwODY5MTQwNiIgeT0iNjQwIiB4PSIwIiBjbGFzcz0iZXIgYXR0cmlidXRlQm94T2RkIj48L3JlY3Q+PHRleHQgc3R5bGU9ImRvbWluYW50LWJhc2VsaW5lOiBtaWRkbGU7IGZvbnQtc2l6ZTogMTAuMnB4OyIgdHJhbnNmb3JtPSJ0cmFuc2xhdGUoNSw2NTEpIiB5PSIwIiB4PSIwIiBpZD0idGV4dC1lbnRpdHktVEFCTEExLTkwMTNmMjI1LTk5MDEtNWI5NS05MmFmLTY4N2E3MzA3ODYzOC1hdHRyLTI5LXR5cGUiIGNsYXNzPSJlciBlbnRpdHlMYWJlbCI+U1RSSU5HPC90ZXh0PjxyZWN0IGhlaWdodD0iMjIiIHdpZHRoPSIxMjQuNTU5MDY2NzcyNDYwOTQiIHk9IjY0MCIgeD0iNDMuMTEyNTY0MDg2OTE0MDYiIGNsYXNzPSJlciBhdHRyaWJ1dGVCb3hPZGQiPjwvcmVjdD48dGV4dCBzdHlsZT0iZG9taW5hbnQtYmFzZWxpbmU6IG1pZGRsZTsgZm9udC1zaXplOiAxMC4ycHg7IiB0cmFuc2Zvcm09InRyYW5zbGF0ZSg0OC4xMTI1NjQwODY5MTQwNiw2NTEpIiB5PSIwIiB4PSIwIiBpZD0idGV4dC1lbnRpdHktVEFCTEExLTkwMTNmMjI1LTk5MDEtNWI5NS05MmFmLTY4N2E3MzA3ODYzOC1hdHRyLTI5LW5hbWUiIGNsYXNzPSJlciBlbnRpdHlMYWJlbCI+Y2FuX2FkZF9hc19mcmllbmQ8L3RleHQ+PHJlY3QgaGVpZ2h0PSIyMiIgd2lkdGg9IjIyLjY4NzY4MzEwNTQ2ODc1IiB5PSI2NDAiIHg9IjE2Ny42NzE2MzA4NTkzNzUiIGNsYXNzPSJlciBhdHRyaWJ1dGVCb3hPZGQiPjwvcmVjdD48dGV4dCBzdHlsZT0iZG9taW5hbnQtYmFzZWxpbmU6IG1pZGRsZTsgZm9udC1zaXplOiAxMC4ycHg7IiB0cmFuc2Zvcm09InRyYW5zbGF0ZSgxNzIuNjcxNjMwODU5Mzc1LDY1MSkiIHk9IjAiIHg9IjAiIGlkPSJ0ZXh0LWVudGl0eS1UQUJMQTEtOTAxM2YyMjUtOTkwMS01Yjk1LTkyYWYtNjg3YTczMDc4NjM4LWF0dHItMjkta2V5IiBjbGFzcz0iZXIgZW50aXR5TGFiZWwiPjwvdGV4dD48cmVjdCBoZWlnaHQ9IjIyIiB3aWR0aD0iNDMuMTEyNTY0MDg2OTE0MDYiIHk9IjY2MiIgeD0iMCIgY2xhc3M9ImVyIGF0dHJpYnV0ZUJveEV2ZW4iPjwvcmVjdD48dGV4dCBzdHlsZT0iZG9taW5hbnQtYmFzZWxpbmU6IG1pZGRsZTsgZm9udC1zaXplOiAxMC4ycHg7IiB0cmFuc2Zvcm09InRyYW5zbGF0ZSg1LDY3MykiIHk9IjAiIHg9IjAiIGlkPSJ0ZXh0LWVudGl0eS1UQUJMQTEtOTAxM2YyMjUtOTkwMS01Yjk1LTkyYWYtNjg3YTczMDc4NjM4LWF0dHItMzAtdHlwZSIgY2xhc3M9ImVyIGVudGl0eUxhYmVsIj5TVFJJTkc8L3RleHQ+PHJlY3QgaGVpZ2h0PSIyMiIgd2lkdGg9IjEyNC41NTkwNjY3NzI0NjA5NCIgeT0iNjYyIiB4PSI0My4xMTI1NjQwODY5MTQwNiIgY2xhc3M9ImVyIGF0dHJpYnV0ZUJveEV2ZW4iPjwvcmVjdD48dGV4dCBzdHlsZT0iZG9taW5hbnQtYmFzZWxpbmU6IG1pZGRsZTsgZm9udC1zaXplOiAxMC4ycHg7IiB0cmFuc2Zvcm09InRyYW5zbGF0ZSg0OC4xMTI1NjQwODY5MTQwNiw2NzMpIiB5PSIwIiB4PSIwIiBpZD0idGV4dC1lbnRpdHktVEFCTEExLTkwMTNmMjI1LTk5MDEtNWI5NS05MmFmLTY4N2E3MzA3ODYzOC1hdHRyLTMwLW5hbWUiIGNsYXNzPSJlciBlbnRpdHlMYWJlbCI+Y2FuX2ludml0ZV90b19ncm91cDwvdGV4dD48cmVjdCBoZWlnaHQ9IjIyIiB3aWR0aD0iMjIuNjg3NjgzMTA1NDY4NzUiIHk9IjY2MiIgeD0iMTY3LjY3MTYzMDg1OTM3NSIgY2xhc3M9ImVyIGF0dHJpYnV0ZUJveEV2ZW4iPjwvcmVjdD48dGV4dCBzdHlsZT0iZG9taW5hbnQtYmFzZWxpbmU6IG1pZGRsZTsgZm9udC1zaXplOiAxMC4ycHg7IiB0cmFuc2Zvcm09InRyYW5zbGF0ZSgxNzIuNjcxNjMwODU5Mzc1LDY3MykiIHk9IjAiIHg9IjAiIGlkPSJ0ZXh0LWVudGl0eS1UQUJMQTEtOTAxM2YyMjUtOTkwMS01Yjk1LTkyYWYtNjg3YTczMDc4NjM4LWF0dHItMzAta2V5IiBjbGFzcz0iZXIgZW50aXR5TGFiZWwiPjwvdGV4dD48cmVjdCBoZWlnaHQ9IjIyIiB3aWR0aD0iNDMuMTEyNTY0MDg2OTE0MDYiIHk9IjY4NCIgeD0iMCIgY2xhc3M9ImVyIGF0dHJpYnV0ZUJveE9kZCI+PC9yZWN0Pjx0ZXh0IHN0eWxlPSJkb21pbmFudC1iYXNlbGluZTogbWlkZGxlOyBmb250LXNpemU6IDEwLjJweDsiIHRyYW5zZm9ybT0idHJhbnNsYXRlKDUsNjk1KSIgeT0iMCIgeD0iMCIgaWQ9InRleHQtZW50aXR5LVRBQkxBMS05MDEzZjIyNS05OTAxLTViOTUtOTJhZi02ODdhNzMwNzg2MzgtYXR0ci0zMS10eXBlIiBjbGFzcz0iZXIgZW50aXR5TGFiZWwiPlNUUklORzwvdGV4dD48cmVjdCBoZWlnaHQ9IjIyIiB3aWR0aD0iMTI0LjU1OTA2Njc3MjQ2MDk0IiB5PSI2ODQiIHg9IjQzLjExMjU2NDA4NjkxNDA2IiBjbGFzcz0iZXIgYXR0cmlidXRlQm94T2RkIj48L3JlY3Q+PHRleHQgc3R5bGU9ImRvbWluYW50LWJhc2VsaW5lOiBtaWRkbGU7IGZvbnQtc2l6ZTogMTAuMnB4OyIgdHJhbnNmb3JtPSJ0cmFuc2xhdGUoNDguMTEyNTY0MDg2OTE0MDYsNjk1KSIgeT0iMCIgeD0iMCIgaWQ9InRleHQtZW50aXR5LVRBQkxBMS05MDEzZjIyNS05OTAxLTViOTUtOTJhZi02ODdhNzMwNzg2MzgtYXR0ci0zMS1uYW1lIiBjbGFzcz0iZXIgZW50aXR5TGFiZWwiPnN1YnNjcmliZXJzX2NvdW50PC90ZXh0PjxyZWN0IGhlaWdodD0iMjIiIHdpZHRoPSIyMi42ODc2ODMxMDU0Njg3NSIgeT0iNjg0IiB4PSIxNjcuNjcxNjMwODU5Mzc1IiBjbGFzcz0iZXIgYXR0cmlidXRlQm94T2RkIj48L3JlY3Q+PHRleHQgc3R5bGU9ImRvbWluYW50LWJhc2VsaW5lOiBtaWRkbGU7IGZvbnQtc2l6ZTogMTAuMnB4OyIgdHJhbnNmb3JtPSJ0cmFuc2xhdGUoMTcyLjY3MTYzMDg1OTM3NSw2OTUpIiB5PSIwIiB4PSIwIiBpZD0idGV4dC1lbnRpdHktVEFCTEExLTkwMTNmMjI1LTk5MDEtNWI5NS05MmFmLTY4N2E3MzA3ODYzOC1hdHRyLTMxLWtleSIgY2xhc3M9ImVyIGVudGl0eUxhYmVsIj48L3RleHQ+PHJlY3QgaGVpZ2h0PSIyMiIgd2lkdGg9IjQzLjExMjU2NDA4NjkxNDA2IiB5PSI3MDYiIHg9IjAiIGNsYXNzPSJlciBhdHRyaWJ1dGVCb3hFdmVuIj48L3JlY3Q+PHRleHQgc3R5bGU9ImRvbWluYW50LWJhc2VsaW5lOiBtaWRkbGU7IGZvbnQtc2l6ZTogMTAuMnB4OyIgdHJhbnNmb3JtPSJ0cmFuc2xhdGUoNSw3MTcpIiB5PSIwIiB4PSIwIiBpZD0idGV4dC1lbnRpdHktVEFCTEExLTkwMTNmMjI1LTk5MDEtNWI5NS05MmFmLTY4N2E3MzA3ODYzOC1hdHRyLTMyLXR5cGUiIGNsYXNzPSJlciBlbnRpdHlMYWJlbCI+U1RSSU5HPC90ZXh0PjxyZWN0IGhlaWdodD0iMjIiIHdpZHRoPSIxMjQuNTU5MDY2NzcyNDYwOTQiIHk9IjcwNiIgeD0iNDMuMTEyNTY0MDg2OTE0MDYiIGNsYXNzPSJlciBhdHRyaWJ1dGVCb3hFdmVuIj48L3JlY3Q+PHRleHQgc3R5bGU9ImRvbWluYW50LWJhc2VsaW5lOiBtaWRkbGU7IGZvbnQtc2l6ZTogMTAuMnB4OyIgdHJhbnNmb3JtPSJ0cmFuc2xhdGUoNDguMTEyNTY0MDg2OTE0MDYsNzE3KSIgeT0iMCIgeD0iMCIgaWQ9InRleHQtZW50aXR5LVRBQkxBMS05MDEzZjIyNS05OTAxLTViOTUtOTJhZi02ODdhNzMwNzg2MzgtYXR0ci0zMi1uYW1lIiBjbGFzcz0iZXIgZW50aXR5TGFiZWwiPmlzX2JsYWNrbGlzdGVkPC90ZXh0PjxyZWN0IGhlaWdodD0iMjIiIHdpZHRoPSIyMi42ODc2ODMxMDU0Njg3NSIgeT0iNzA2IiB4PSIxNjcuNjcxNjMwODU5Mzc1IiBjbGFzcz0iZXIgYXR0cmlidXRlQm94RXZlbiI+PC9yZWN0Pjx0ZXh0IHN0eWxlPSJkb21pbmFudC1iYXNlbGluZTogbWlkZGxlOyBmb250LXNpemU6IDEwLjJweDsiIHRyYW5zZm9ybT0idHJhbnNsYXRlKDE3Mi42NzE2MzA4NTkzNzUsNzE3KSIgeT0iMCIgeD0iMCIgaWQ9InRleHQtZW50aXR5LVRBQkxBMS05MDEzZjIyNS05OTAxLTViOTUtOTJhZi02ODdhNzMwNzg2MzgtYXR0ci0zMi1rZXkiIGNsYXNzPSJlciBlbnRpdHlMYWJlbCI+PC90ZXh0PjxyZWN0IGhlaWdodD0iMjIiIHdpZHRoPSI0My4xMTI1NjQwODY5MTQwNiIgeT0iNzI4IiB4PSIwIiBjbGFzcz0iZXIgYXR0cmlidXRlQm94T2RkIj48L3JlY3Q+PHRleHQgc3R5bGU9ImRvbWluYW50LWJhc2VsaW5lOiBtaWRkbGU7IGZvbnQtc2l6ZTogMTAuMnB4OyIgdHJhbnNmb3JtPSJ0cmFuc2xhdGUoNSw3MzkpIiB5PSIwIiB4PSIwIiBpZD0idGV4dC1lbnRpdHktVEFCTEExLTkwMTNmMjI1LTk5MDEtNWI5NS05MmFmLTY4N2E3MzA3ODYzOC1hdHRyLTMzLXR5cGUiIGNsYXNzPSJlciBlbnRpdHlMYWJlbCI+U1RSSU5HPC90ZXh0PjxyZWN0IGhlaWdodD0iMjIiIHdpZHRoPSIxMjQuNTU5MDY2NzcyNDYwOTQiIHk9IjcyOCIgeD0iNDMuMTEyNTY0MDg2OTE0MDYiIGNsYXNzPSJlciBhdHRyaWJ1dGVCb3hPZGQiPjwvcmVjdD48dGV4dCBzdHlsZT0iZG9taW5hbnQtYmFzZWxpbmU6IG1pZGRsZTsgZm9udC1zaXplOiAxMC4ycHg7IiB0cmFuc2Zvcm09InRyYW5zbGF0ZSg0OC4xMTI1NjQwODY5MTQwNiw3MzkpIiB5PSIwIiB4PSIwIiBpZD0idGV4dC1lbnRpdHktVEFCTEExLTkwMTNmMjI1LTk5MDEtNWI5NS05MmFmLTY4N2E3MzA3ODYzOC1hdHRyLTMzLW5hbWUiIGNsYXNzPSJlciBlbnRpdHlMYWJlbCI+aGFzX2NhcmVlcjwvdGV4dD48cmVjdCBoZWlnaHQ9IjIyIiB3aWR0aD0iMjIuNjg3NjgzMTA1NDY4NzUiIHk9IjcyOCIgeD0iMTY3LjY3MTYzMDg1OTM3NSIgY2xhc3M9ImVyIGF0dHJpYnV0ZUJveE9kZCI+PC9yZWN0Pjx0ZXh0IHN0eWxlPSJkb21pbmFudC1iYXNlbGluZTogbWlkZGxlOyBmb250LXNpemU6IDEwLjJweDsiIHRyYW5zZm9ybT0idHJhbnNsYXRlKDE3Mi42NzE2MzA4NTkzNzUsNzM5KSIgeT0iMCIgeD0iMCIgaWQ9InRleHQtZW50aXR5LVRBQkxBMS05MDEzZjIyNS05OTAxLTViOTUtOTJhZi02ODdhNzMwNzg2MzgtYXR0ci0zMy1rZXkiIGNsYXNzPSJlciBlbnRpdHlMYWJlbCI+PC90ZXh0PjxyZWN0IGhlaWdodD0iMjIiIHdpZHRoPSI0My4xMTI1NjQwODY5MTQwNiIgeT0iNzUwIiB4PSIwIiBjbGFzcz0iZXIgYXR0cmlidXRlQm94RXZlbiI+PC9yZWN0Pjx0ZXh0IHN0eWxlPSJkb21pbmFudC1iYXNlbGluZTogbWlkZGxlOyBmb250LXNpemU6IDEwLjJweDsiIHRyYW5zZm9ybT0idHJhbnNsYXRlKDUsNzYxKSIgeT0iMCIgeD0iMCIgaWQ9InRleHQtZW50aXR5LVRBQkxBMS05MDEzZjIyNS05OTAxLTViOTUtOTJhZi02ODdhNzMwNzg2MzgtYXR0ci0zNC10eXBlIiBjbGFzcz0iZXIgZW50aXR5TGFiZWwiPlNUUklORzwvdGV4dD48cmVjdCBoZWlnaHQ9IjIyIiB3aWR0aD0iMTI0LjU1OTA2Njc3MjQ2MDk0IiB5PSI3NTAiIHg9IjQzLjExMjU2NDA4NjkxNDA2IiBjbGFzcz0iZXIgYXR0cmlidXRlQm94RXZlbiI+PC9yZWN0Pjx0ZXh0IHN0eWxlPSJkb21pbmFudC1iYXNlbGluZTogbWlkZGxlOyBmb250LXNpemU6IDEwLjJweDsiIHRyYW5zZm9ybT0idHJhbnNsYXRlKDQ4LjExMjU2NDA4NjkxNDA2LDc2MSkiIHk9IjAiIHg9IjAiIGlkPSJ0ZXh0LWVudGl0eS1UQUJMQTEtOTAxM2YyMjUtOTkwMS01Yjk1LTkyYWYtNjg3YTczMDc4NjM4LWF0dHItMzQtbmFtZSIgY2xhc3M9ImVyIGVudGl0eUxhYmVsIj5oYXNfbWlsaXRhcnlfc2VydmljZTwvdGV4dD48cmVjdCBoZWlnaHQ9IjIyIiB3aWR0aD0iMjIuNjg3NjgzMTA1NDY4NzUiIHk9Ijc1MCIgeD0iMTY3LjY3MTYzMDg1OTM3NSIgY2xhc3M9ImVyIGF0dHJpYnV0ZUJveEV2ZW4iPjwvcmVjdD48dGV4dCBzdHlsZT0iZG9taW5hbnQtYmFzZWxpbmU6IG1pZGRsZTsgZm9udC1zaXplOiAxMC4ycHg7IiB0cmFuc2Zvcm09InRyYW5zbGF0ZSgxNzIuNjcxNjMwODU5Mzc1LDc2MSkiIHk9IjAiIHg9IjAiIGlkPSJ0ZXh0LWVudGl0eS1UQUJMQTEtOTAxM2YyMjUtOTkwMS01Yjk1LTkyYWYtNjg3YTczMDc4NjM4LWF0dHItMzQta2V5IiBjbGFzcz0iZXIgZW50aXR5TGFiZWwiPjwvdGV4dD48cmVjdCBoZWlnaHQ9IjIyIiB3aWR0aD0iNDMuMTEyNTY0MDg2OTE0MDYiIHk9Ijc3MiIgeD0iMCIgY2xhc3M9ImVyIGF0dHJpYnV0ZUJveE9kZCI+PC9yZWN0Pjx0ZXh0IHN0eWxlPSJkb21pbmFudC1iYXNlbGluZTogbWlkZGxlOyBmb250LXNpemU6IDEwLjJweDsiIHRyYW5zZm9ybT0idHJhbnNsYXRlKDUsNzgzKSIgeT0iMCIgeD0iMCIgaWQ9InRleHQtZW50aXR5LVRBQkxBMS05MDEzZjIyNS05OTAxLTViOTUtOTJhZi02ODdhNzMwNzg2MzgtYXR0ci0zNS10eXBlIiBjbGFzcz0iZXIgZW50aXR5TGFiZWwiPlNUUklORzwvdGV4dD48cmVjdCBoZWlnaHQ9IjIyIiB3aWR0aD0iMTI0LjU1OTA2Njc3MjQ2MDk0IiB5PSI3NzIiIHg9IjQzLjExMjU2NDA4NjkxNDA2IiBjbGFzcz0iZXIgYXR0cmlidXRlQm94T2RkIj48L3JlY3Q+PHRleHQgc3R5bGU9ImRvbWluYW50LWJhc2VsaW5lOiBtaWRkbGU7IGZvbnQtc2l6ZTogMTAuMnB4OyIgdHJhbnNmb3JtPSJ0cmFuc2xhdGUoNDguMTEyNTY0MDg2OTE0MDYsNzgzKSIgeT0iMCIgeD0iMCIgaWQ9InRleHQtZW50aXR5LVRBQkxBMS05MDEzZjIyNS05OTAxLTViOTUtOTJhZi02ODdhNzMwNzg2MzgtYXR0ci0zNS1uYW1lIiBjbGFzcz0iZXIgZW50aXR5TGFiZWwiPmhhc19ob21ldG93bjwvdGV4dD48cmVjdCBoZWlnaHQ9IjIyIiB3aWR0aD0iMjIuNjg3NjgzMTA1NDY4NzUiIHk9Ijc3MiIgeD0iMTY3LjY3MTYzMDg1OTM3NSIgY2xhc3M9ImVyIGF0dHJpYnV0ZUJveE9kZCI+PC9yZWN0Pjx0ZXh0IHN0eWxlPSJkb21pbmFudC1iYXNlbGluZTogbWlkZGxlOyBmb250LXNpemU6IDEwLjJweDsiIHRyYW5zZm9ybT0idHJhbnNsYXRlKDE3Mi42NzE2MzA4NTkzNzUsNzgzKSIgeT0iMCIgeD0iMCIgaWQ9InRleHQtZW50aXR5LVRBQkxBMS05MDEzZjIyNS05OTAxLTViOTUtOTJhZi02ODdhNzMwNzg2MzgtYXR0ci0zNS1rZXkiIGNsYXNzPSJlciBlbnRpdHlMYWJlbCI+PC90ZXh0PjwvZz48ZyB0cmFuc2Zvcm09InRyYW5zbGF0ZSgzMTAuMzU5MzEzOTY0ODQzNzUsMTA4ICkiIGlkPSJlbnRpdHktVEFCTEEyLTUyZmMxN2VhLTRiZjgtNTdhNy1iMjhiLTVlNDU3MmFlYmY1YSI+PHJlY3QgaGVpZ2h0PSI2MTgiIHdpZHRoPSIyMDIuNjY2MDQ2MTQyNTc4MTIiIHk9IjAiIHg9IjAiIGNsYXNzPSJlciBlbnRpdHlCb3giPjwvcmVjdD48dGV4dCBzdHlsZT0iZG9taW5hbnQtYmFzZWxpbmU6IG1pZGRsZTsgdGV4dC1hbmNob3I6IG1pZGRsZTsgZm9udC1zaXplOiAxMnB4OyIgdHJhbnNmb3JtPSJ0cmFuc2xhdGUoMTAxLjMzMzAyMzA3MTI4OTA2LDEyKSIgeT0iMCIgeD0iMCIgaWQ9InRleHQtZW50aXR5LVRBQkxBMi01MmZjMTdlYS00YmY4LTU3YTctYjI4Yi01ZTQ1NzJhZWJmNWEiIGNsYXNzPSJlciBlbnRpdHlMYWJlbCI+VEFCTEEyPC90ZXh0PjxyZWN0IGhlaWdodD0iMjIiIHdpZHRoPSI0My4xMTI1NjQwODY5MTQwNiIgeT0iMjQiIHg9IjAiIGNsYXNzPSJlciBhdHRyaWJ1dGVCb3hPZGQiPjwvcmVjdD48dGV4dCBzdHlsZT0iZG9taW5hbnQtYmFzZWxpbmU6IG1pZGRsZTsgZm9udC1zaXplOiAxMC4ycHg7IiB0cmFuc2Zvcm09InRyYW5zbGF0ZSg1LDM1KSIgeT0iMCIgeD0iMCIgaWQ9InRleHQtZW50aXR5LVRBQkxBMi01MmZjMTdlYS00YmY4LTU3YTctYjI4Yi01ZTQ1NzJhZWJmNWEtYXR0ci0xLXR5cGUiIGNsYXNzPSJlciBlbnRpdHlMYWJlbCI+SU5UPC90ZXh0PjxyZWN0IGhlaWdodD0iMjIiIHdpZHRoPSIxMzYuODY1Nzk4OTUwMTk1MyIgeT0iMjQiIHg9IjQzLjExMjU2NDA4NjkxNDA2IiBjbGFzcz0iZXIgYXR0cmlidXRlQm94T2RkIj48L3JlY3Q+PHRleHQgc3R5bGU9ImRvbWluYW50LWJhc2VsaW5lOiBtaWRkbGU7IGZvbnQtc2l6ZTogMTAuMnB4OyIgdHJhbnNmb3JtPSJ0cmFuc2xhdGUoNDguMTEyNTY0MDg2OTE0MDYsMzUpIiB5PSIwIiB4PSIwIiBpZD0idGV4dC1lbnRpdHktVEFCTEEyLTUyZmMxN2VhLTRiZjgtNTdhNy1iMjhiLTVlNDU3MmFlYmY1YS1hdHRyLTEtbmFtZSIgY2xhc3M9ImVyIGVudGl0eUxhYmVsIj5pZF9kYXRhPC90ZXh0PjxyZWN0IGhlaWdodD0iMjIiIHdpZHRoPSIyMi42ODc2ODMxMDU0Njg3NSIgeT0iMjQiIHg9IjE3OS45NzgzNjMwMzcxMDkzOCIgY2xhc3M9ImVyIGF0dHJpYnV0ZUJveE9kZCI+PC9yZWN0Pjx0ZXh0IHN0eWxlPSJkb21pbmFudC1iYXNlbGluZTogbWlkZGxlOyBmb250LXNpemU6IDEwLjJweDsiIHRyYW5zZm9ybT0idHJhbnNsYXRlKDE4NC45NzgzNjMwMzcxMDkzOCwzNSkiIHk9IjAiIHg9IjAiIGlkPSJ0ZXh0LWVudGl0eS1UQUJMQTItNTJmYzE3ZWEtNGJmOC01N2E3LWIyOGItNWU0NTcyYWViZjVhLWF0dHItMS1rZXkiIGNsYXNzPSJlciBlbnRpdHlMYWJlbCI+UEs8L3RleHQ+PHJlY3QgaGVpZ2h0PSIyMiIgd2lkdGg9IjQzLjExMjU2NDA4NjkxNDA2IiB5PSI0NiIgeD0iMCIgY2xhc3M9ImVyIGF0dHJpYnV0ZUJveEV2ZW4iPjwvcmVjdD48dGV4dCBzdHlsZT0iZG9taW5hbnQtYmFzZWxpbmU6IG1pZGRsZTsgZm9udC1zaXplOiAxMC4ycHg7IiB0cmFuc2Zvcm09InRyYW5zbGF0ZSg1LDU3KSIgeT0iMCIgeD0iMCIgaWQ9InRleHQtZW50aXR5LVRBQkxBMi01MmZjMTdlYS00YmY4LTU3YTctYjI4Yi01ZTQ1NzJhZWJmNWEtYXR0ci0yLXR5cGUiIGNsYXNzPSJlciBlbnRpdHlMYWJlbCI+U1RSSU5HPC90ZXh0PjxyZWN0IGhlaWdodD0iMjIiIHdpZHRoPSIxMzYuODY1Nzk4OTUwMTk1MyIgeT0iNDYiIHg9IjQzLjExMjU2NDA4NjkxNDA2IiBjbGFzcz0iZXIgYXR0cmlidXRlQm94RXZlbiI+PC9yZWN0Pjx0ZXh0IHN0eWxlPSJkb21pbmFudC1iYXNlbGluZTogbWlkZGxlOyBmb250LXNpemU6IDEwLjJweDsiIHRyYW5zZm9ybT0idHJhbnNsYXRlKDQ4LjExMjU2NDA4NjkxNDA2LDU3KSIgeT0iMCIgeD0iMCIgaWQ9InRleHQtZW50aXR5LVRBQkxBMi01MmZjMTdlYS00YmY4LTU3YTctYjI4Yi01ZTQ1NzJhZWJmNWEtYXR0ci0yLW5hbWUiIGNsYXNzPSJlciBlbnRpdHlMYWJlbCI+bWFyaXRhbF9zdGF0dXM8L3RleHQ+PHJlY3QgaGVpZ2h0PSIyMiIgd2lkdGg9IjIyLjY4NzY4MzEwNTQ2ODc1IiB5PSI0NiIgeD0iMTc5Ljk3ODM2MzAzNzEwOTM4IiBjbGFzcz0iZXIgYXR0cmlidXRlQm94RXZlbiI+PC9yZWN0Pjx0ZXh0IHN0eWxlPSJkb21pbmFudC1iYXNlbGluZTogbWlkZGxlOyBmb250LXNpemU6IDEwLjJweDsiIHRyYW5zZm9ybT0idHJhbnNsYXRlKDE4NC45NzgzNjMwMzcxMDkzOCw1NykiIHk9IjAiIHg9IjAiIGlkPSJ0ZXh0LWVudGl0eS1UQUJMQTItNTJmYzE3ZWEtNGJmOC01N2E3LWIyOGItNWU0NTcyYWViZjVhLWF0dHItMi1rZXkiIGNsYXNzPSJlciBlbnRpdHlMYWJlbCI+PC90ZXh0PjxyZWN0IGhlaWdodD0iMjIiIHdpZHRoPSI0My4xMTI1NjQwODY5MTQwNiIgeT0iNjgiIHg9IjAiIGNsYXNzPSJlciBhdHRyaWJ1dGVCb3hPZGQiPjwvcmVjdD48dGV4dCBzdHlsZT0iZG9taW5hbnQtYmFzZWxpbmU6IG1pZGRsZTsgZm9udC1zaXplOiAxMC4ycHg7IiB0cmFuc2Zvcm09InRyYW5zbGF0ZSg1LDc5KSIgeT0iMCIgeD0iMCIgaWQ9InRleHQtZW50aXR5LVRBQkxBMi01MmZjMTdlYS00YmY4LTU3YTctYjI4Yi01ZTQ1NzJhZWJmNWEtYXR0ci0zLXR5cGUiIGNsYXNzPSJlciBlbnRpdHlMYWJlbCI+U1RSSU5HPC90ZXh0PjxyZWN0IGhlaWdodD0iMjIiIHdpZHRoPSIxMzYuODY1Nzk4OTUwMTk1MyIgeT0iNjgiIHg9IjQzLjExMjU2NDA4NjkxNDA2IiBjbGFzcz0iZXIgYXR0cmlidXRlQm94T2RkIj48L3JlY3Q+PHRleHQgc3R5bGU9ImRvbWluYW50LWJhc2VsaW5lOiBtaWRkbGU7IGZvbnQtc2l6ZTogMTAuMnB4OyIgdHJhbnNmb3JtPSJ0cmFuc2xhdGUoNDguMTEyNTY0MDg2OTE0MDYsNzkpIiB5PSIwIiB4PSIwIiBpZD0idGV4dC1lbnRpdHktVEFCTEEyLTUyZmMxN2VhLTRiZjgtNTdhNy1iMjhiLTVlNDU3MmFlYmY1YS1hdHRyLTMtbmFtZSIgY2xhc3M9ImVyIGVudGl0eUxhYmVsIj5oYXNfdW5pdmVyc2l0aWVzPC90ZXh0PjxyZWN0IGhlaWdodD0iMjIiIHdpZHRoPSIyMi42ODc2ODMxMDU0Njg3NSIgeT0iNjgiIHg9IjE3OS45NzgzNjMwMzcxMDkzOCIgY2xhc3M9ImVyIGF0dHJpYnV0ZUJveE9kZCI+PC9yZWN0Pjx0ZXh0IHN0eWxlPSJkb21pbmFudC1iYXNlbGluZTogbWlkZGxlOyBmb250LXNpemU6IDEwLjJweDsiIHRyYW5zZm9ybT0idHJhbnNsYXRlKDE4NC45NzgzNjMwMzcxMDkzOCw3OSkiIHk9IjAiIHg9IjAiIGlkPSJ0ZXh0LWVudGl0eS1UQUJMQTItNTJmYzE3ZWEtNGJmOC01N2E3LWIyOGItNWU0NTcyYWViZjVhLWF0dHItMy1rZXkiIGNsYXNzPSJlciBlbnRpdHlMYWJlbCI+PC90ZXh0PjxyZWN0IGhlaWdodD0iMjIiIHdpZHRoPSI0My4xMTI1NjQwODY5MTQwNiIgeT0iOTAiIHg9IjAiIGNsYXNzPSJlciBhdHRyaWJ1dGVCb3hFdmVuIj48L3JlY3Q+PHRleHQgc3R5bGU9ImRvbWluYW50LWJhc2VsaW5lOiBtaWRkbGU7IGZvbnQtc2l6ZTogMTAuMnB4OyIgdHJhbnNmb3JtPSJ0cmFuc2xhdGUoNSwxMDEpIiB5PSIwIiB4PSIwIiBpZD0idGV4dC1lbnRpdHktVEFCTEEyLTUyZmMxN2VhLTRiZjgtNTdhNy1iMjhiLTVlNDU3MmFlYmY1YS1hdHRyLTQtdHlwZSIgY2xhc3M9ImVyIGVudGl0eUxhYmVsIj5TVFJJTkc8L3RleHQ+PHJlY3QgaGVpZ2h0PSIyMiIgd2lkdGg9IjEzNi44NjU3OTg5NTAxOTUzIiB5PSI5MCIgeD0iNDMuMTEyNTY0MDg2OTE0MDYiIGNsYXNzPSJlciBhdHRyaWJ1dGVCb3hFdmVuIj48L3JlY3Q+PHRleHQgc3R5bGU9ImRvbWluYW50LWJhc2VsaW5lOiBtaWRkbGU7IGZvbnQtc2l6ZTogMTAuMnB4OyIgdHJhbnNmb3JtPSJ0cmFuc2xhdGUoNDguMTEyNTY0MDg2OTE0MDYsMTAxKSIgeT0iMCIgeD0iMCIgaWQ9InRleHQtZW50aXR5LVRBQkxBMi01MmZjMTdlYS00YmY4LTU3YTctYjI4Yi01ZTQ1NzJhZWJmNWEtYXR0ci00LW5hbWUiIGNsYXNzPSJlciBlbnRpdHlMYWJlbCI+aGFzX3NjaG9vbHM8L3RleHQ+PHJlY3QgaGVpZ2h0PSIyMiIgd2lkdGg9IjIyLjY4NzY4MzEwNTQ2ODc1IiB5PSI5MCIgeD0iMTc5Ljk3ODM2MzAzNzEwOTM4IiBjbGFzcz0iZXIgYXR0cmlidXRlQm94RXZlbiI+PC9yZWN0Pjx0ZXh0IHN0eWxlPSJkb21pbmFudC1iYXNlbGluZTogbWlkZGxlOyBmb250LXNpemU6IDEwLjJweDsiIHRyYW5zZm9ybT0idHJhbnNsYXRlKDE4NC45NzgzNjMwMzcxMDkzOCwxMDEpIiB5PSIwIiB4PSIwIiBpZD0idGV4dC1lbnRpdHktVEFCTEEyLTUyZmMxN2VhLTRiZjgtNTdhNy1iMjhiLTVlNDU3MmFlYmY1YS1hdHRyLTQta2V5IiBjbGFzcz0iZXIgZW50aXR5TGFiZWwiPjwvdGV4dD48cmVjdCBoZWlnaHQ9IjIyIiB3aWR0aD0iNDMuMTEyNTY0MDg2OTE0MDYiIHk9IjExMiIgeD0iMCIgY2xhc3M9ImVyIGF0dHJpYnV0ZUJveE9kZCI+PC9yZWN0Pjx0ZXh0IHN0eWxlPSJkb21pbmFudC1iYXNlbGluZTogbWlkZGxlOyBmb250LXNpemU6IDEwLjJweDsiIHRyYW5zZm9ybT0idHJhbnNsYXRlKDUsMTIzKSIgeT0iMCIgeD0iMCIgaWQ9InRleHQtZW50aXR5LVRBQkxBMi01MmZjMTdlYS00YmY4LTU3YTctYjI4Yi01ZTQ1NzJhZWJmNWEtYXR0ci01LXR5cGUiIGNsYXNzPSJlciBlbnRpdHlMYWJlbCI+U1RSSU5HPC90ZXh0PjxyZWN0IGhlaWdodD0iMjIiIHdpZHRoPSIxMzYuODY1Nzk4OTUwMTk1MyIgeT0iMTEyIiB4PSI0My4xMTI1NjQwODY5MTQwNiIgY2xhc3M9ImVyIGF0dHJpYnV0ZUJveE9kZCI+PC9yZWN0Pjx0ZXh0IHN0eWxlPSJkb21pbmFudC1iYXNlbGluZTogbWlkZGxlOyBmb250LXNpemU6IDEwLjJweDsiIHRyYW5zZm9ybT0idHJhbnNsYXRlKDQ4LjExMjU2NDA4NjkxNDA2LDEyMykiIHk9IjAiIHg9IjAiIGlkPSJ0ZXh0LWVudGl0eS1UQUJMQTItNTJmYzE3ZWEtNGJmOC01N2E3LWIyOGItNWU0NTcyYWViZjVhLWF0dHItNS1uYW1lIiBjbGFzcz0iZXIgZW50aXR5TGFiZWwiPmhhc19yZWxhdGl2ZXM8L3RleHQ+PHJlY3QgaGVpZ2h0PSIyMiIgd2lkdGg9IjIyLjY4NzY4MzEwNTQ2ODc1IiB5PSIxMTIiIHg9IjE3OS45NzgzNjMwMzcxMDkzOCIgY2xhc3M9ImVyIGF0dHJpYnV0ZUJveE9kZCI+PC9yZWN0Pjx0ZXh0IHN0eWxlPSJkb21pbmFudC1iYXNlbGluZTogbWlkZGxlOyBmb250LXNpemU6IDEwLjJweDsiIHRyYW5zZm9ybT0idHJhbnNsYXRlKDE4NC45NzgzNjMwMzcxMDkzOCwxMjMpIiB5PSIwIiB4PSIwIiBpZD0idGV4dC1lbnRpdHktVEFCTEEyLTUyZmMxN2VhLTRiZjgtNTdhNy1iMjhiLTVlNDU3MmFlYmY1YS1hdHRyLTUta2V5IiBjbGFzcz0iZXIgZW50aXR5TGFiZWwiPjwvdGV4dD48cmVjdCBoZWlnaHQ9IjIyIiB3aWR0aD0iNDMuMTEyNTY0MDg2OTE0MDYiIHk9IjEzNCIgeD0iMCIgY2xhc3M9ImVyIGF0dHJpYnV0ZUJveEV2ZW4iPjwvcmVjdD48dGV4dCBzdHlsZT0iZG9taW5hbnQtYmFzZWxpbmU6IG1pZGRsZTsgZm9udC1zaXplOiAxMC4ycHg7IiB0cmFuc2Zvcm09InRyYW5zbGF0ZSg1LDE0NSkiIHk9IjAiIHg9IjAiIGlkPSJ0ZXh0LWVudGl0eS1UQUJMQTItNTJmYzE3ZWEtNGJmOC01N2E3LWIyOGItNWU0NTcyYWViZjVhLWF0dHItNi10eXBlIiBjbGFzcz0iZXIgZW50aXR5TGFiZWwiPlNUUklORzwvdGV4dD48cmVjdCBoZWlnaHQ9IjIyIiB3aWR0aD0iMTM2Ljg2NTc5ODk1MDE5NTMiIHk9IjEzNCIgeD0iNDMuMTEyNTY0MDg2OTE0MDYiIGNsYXNzPSJlciBhdHRyaWJ1dGVCb3hFdmVuIj48L3JlY3Q+PHRleHQgc3R5bGU9ImRvbWluYW50LWJhc2VsaW5lOiBtaWRkbGU7IGZvbnQtc2l6ZTogMTAuMnB4OyIgdHJhbnNmb3JtPSJ0cmFuc2xhdGUoNDguMTEyNTY0MDg2OTE0MDYsMTQ1KSIgeT0iMCIgeD0iMCIgaWQ9InRleHQtZW50aXR5LVRBQkxBMi01MmZjMTdlYS00YmY4LTU3YTctYjI4Yi01ZTQ1NzJhZWJmNWEtYXR0ci02LW5hbWUiIGNsYXNzPSJlciBlbnRpdHlMYWJlbCI+aXNfdmVyaWZpZWQ8L3RleHQ+PHJlY3QgaGVpZ2h0PSIyMiIgd2lkdGg9IjIyLjY4NzY4MzEwNTQ2ODc1IiB5PSIxMzQiIHg9IjE3OS45NzgzNjMwMzcxMDkzOCIgY2xhc3M9ImVyIGF0dHJpYnV0ZUJveEV2ZW4iPjwvcmVjdD48dGV4dCBzdHlsZT0iZG9taW5hbnQtYmFzZWxpbmU6IG1pZGRsZTsgZm9udC1zaXplOiAxMC4ycHg7IiB0cmFuc2Zvcm09InRyYW5zbGF0ZSgxODQuOTc4MzYzMDM3MTA5MzgsMTQ1KSIgeT0iMCIgeD0iMCIgaWQ9InRleHQtZW50aXR5LVRBQkxBMi01MmZjMTdlYS00YmY4LTU3YTctYjI4Yi01ZTQ1NzJhZWJmNWEtYXR0ci02LWtleSIgY2xhc3M9ImVyIGVudGl0eUxhYmVsIj48L3RleHQ+PHJlY3QgaGVpZ2h0PSIyMiIgd2lkdGg9IjQzLjExMjU2NDA4NjkxNDA2IiB5PSIxNTYiIHg9IjAiIGNsYXNzPSJlciBhdHRyaWJ1dGVCb3hPZGQiPjwvcmVjdD48dGV4dCBzdHlsZT0iZG9taW5hbnQtYmFzZWxpbmU6IG1pZGRsZTsgZm9udC1zaXplOiAxMC4ycHg7IiB0cmFuc2Zvcm09InRyYW5zbGF0ZSg1LDE2NykiIHk9IjAiIHg9IjAiIGlkPSJ0ZXh0LWVudGl0eS1UQUJMQTItNTJmYzE3ZWEtNGJmOC01N2E3LWIyOGItNWU0NTcyYWViZjVhLWF0dHItNy10eXBlIiBjbGFzcz0iZXIgZW50aXR5TGFiZWwiPlNUUklORzwvdGV4dD48cmVjdCBoZWlnaHQ9IjIyIiB3aWR0aD0iMTM2Ljg2NTc5ODk1MDE5NTMiIHk9IjE1NiIgeD0iNDMuMTEyNTY0MDg2OTE0MDYiIGNsYXNzPSJlciBhdHRyaWJ1dGVCb3hPZGQiPjwvcmVjdD48dGV4dCBzdHlsZT0iZG9taW5hbnQtYmFzZWxpbmU6IG1pZGRsZTsgZm9udC1zaXplOiAxMC4ycHg7IiB0cmFuc2Zvcm09InRyYW5zbGF0ZSg0OC4xMTI1NjQwODY5MTQwNiwxNjcpIiB5PSIwIiB4PSIwIiBpZD0idGV4dC1lbnRpdHktVEFCTEEyLTUyZmMxN2VhLTRiZjgtNTdhNy1iMjhiLTVlNDU3MmFlYmY1YS1hdHRyLTctbmFtZSIgY2xhc3M9ImVyIGVudGl0eUxhYmVsIj5pc19jb25maXJtZWQ8L3RleHQ+PHJlY3QgaGVpZ2h0PSIyMiIgd2lkdGg9IjIyLjY4NzY4MzEwNTQ2ODc1IiB5PSIxNTYiIHg9IjE3OS45NzgzNjMwMzcxMDkzOCIgY2xhc3M9ImVyIGF0dHJpYnV0ZUJveE9kZCI+PC9yZWN0Pjx0ZXh0IHN0eWxlPSJkb21pbmFudC1iYXNlbGluZTogbWlkZGxlOyBmb250LXNpemU6IDEwLjJweDsiIHRyYW5zZm9ybT0idHJhbnNsYXRlKDE4NC45NzgzNjMwMzcxMDkzOCwxNjcpIiB5PSIwIiB4PSIwIiBpZD0idGV4dC1lbnRpdHktVEFCTEEyLTUyZmMxN2VhLTRiZjgtNTdhNy1iMjhiLTVlNDU3MmFlYmY1YS1hdHRyLTcta2V5IiBjbGFzcz0iZXIgZW50aXR5TGFiZWwiPjwvdGV4dD48cmVjdCBoZWlnaHQ9IjIyIiB3aWR0aD0iNDMuMTEyNTY0MDg2OTE0MDYiIHk9IjE3OCIgeD0iMCIgY2xhc3M9ImVyIGF0dHJpYnV0ZUJveEV2ZW4iPjwvcmVjdD48dGV4dCBzdHlsZT0iZG9taW5hbnQtYmFzZWxpbmU6IG1pZGRsZTsgZm9udC1zaXplOiAxMC4ycHg7IiB0cmFuc2Zvcm09InRyYW5zbGF0ZSg1LDE4OSkiIHk9IjAiIHg9IjAiIGlkPSJ0ZXh0LWVudGl0eS1UQUJMQTItNTJmYzE3ZWEtNGJmOC01N2E3LWIyOGItNWU0NTcyYWViZjVhLWF0dHItOC10eXBlIiBjbGFzcz0iZXIgZW50aXR5TGFiZWwiPlNUUklORzwvdGV4dD48cmVjdCBoZWlnaHQ9IjIyIiB3aWR0aD0iMTM2Ljg2NTc5ODk1MDE5NTMiIHk9IjE3OCIgeD0iNDMuMTEyNTY0MDg2OTE0MDYiIGNsYXNzPSJlciBhdHRyaWJ1dGVCb3hFdmVuIj48L3JlY3Q+PHRleHQgc3R5bGU9ImRvbWluYW50LWJhc2VsaW5lOiBtaWRkbGU7IGZvbnQtc2l6ZTogMTAuMnB4OyIgdHJhbnNmb3JtPSJ0cmFuc2xhdGUoNDguMTEyNTY0MDg2OTE0MDYsMTg5KSIgeT0iMCIgeD0iMCIgaWQ9InRleHQtZW50aXR5LVRBQkxBMi01MmZjMTdlYS00YmY4LTU3YTctYjI4Yi01ZTQ1NzJhZWJmNWEtYXR0ci04LW5hbWUiIGNsYXNzPSJlciBlbnRpdHlMYWJlbCI+aGFzX3N0YXR1czwvdGV4dD48cmVjdCBoZWlnaHQ9IjIyIiB3aWR0aD0iMjIuNjg3NjgzMTA1NDY4NzUiIHk9IjE3OCIgeD0iMTc5Ljk3ODM2MzAzNzEwOTM4IiBjbGFzcz0iZXIgYXR0cmlidXRlQm94RXZlbiI+PC9yZWN0Pjx0ZXh0IHN0eWxlPSJkb21pbmFudC1iYXNlbGluZTogbWlkZGxlOyBmb250LXNpemU6IDEwLjJweDsiIHRyYW5zZm9ybT0idHJhbnNsYXRlKDE4NC45NzgzNjMwMzcxMDkzOCwxODkpIiB5PSIwIiB4PSIwIiBpZD0idGV4dC1lbnRpdHktVEFCTEEyLTUyZmMxN2VhLTRiZjgtNTdhNy1iMjhiLTVlNDU3MmFlYmY1YS1hdHRyLTgta2V5IiBjbGFzcz0iZXIgZW50aXR5TGFiZWwiPjwvdGV4dD48cmVjdCBoZWlnaHQ9IjIyIiB3aWR0aD0iNDMuMTEyNTY0MDg2OTE0MDYiIHk9IjIwMCIgeD0iMCIgY2xhc3M9ImVyIGF0dHJpYnV0ZUJveE9kZCI+PC9yZWN0Pjx0ZXh0IHN0eWxlPSJkb21pbmFudC1iYXNlbGluZTogbWlkZGxlOyBmb250LXNpemU6IDEwLjJweDsiIHRyYW5zZm9ybT0idHJhbnNsYXRlKDUsMjExKSIgeT0iMCIgeD0iMCIgaWQ9InRleHQtZW50aXR5LVRBQkxBMi01MmZjMTdlYS00YmY4LTU3YTctYjI4Yi01ZTQ1NzJhZWJmNWEtYXR0ci05LXR5cGUiIGNsYXNzPSJlciBlbnRpdHlMYWJlbCI+SU5UPC90ZXh0PjxyZWN0IGhlaWdodD0iMjIiIHdpZHRoPSIxMzYuODY1Nzk4OTUwMTk1MyIgeT0iMjAwIiB4PSI0My4xMTI1NjQwODY5MTQwNiIgY2xhc3M9ImVyIGF0dHJpYnV0ZUJveE9kZCI+PC9yZWN0Pjx0ZXh0IHN0eWxlPSJkb21pbmFudC1iYXNlbGluZTogbWlkZGxlOyBmb250LXNpemU6IDEwLjJweDsiIHRyYW5zZm9ybT0idHJhbnNsYXRlKDQ4LjExMjU2NDA4NjkxNDA2LDIxMSkiIHk9IjAiIHg9IjAiIGlkPSJ0ZXh0LWVudGl0eS1UQUJMQTItNTJmYzE3ZWEtNGJmOC01N2E3LWIyOGItNWU0NTcyYWViZjVhLWF0dHItOS1uYW1lIiBjbGFzcz0iZXIgZW50aXR5TGFiZWwiPnBvc3RzX2NvdW50PC90ZXh0PjxyZWN0IGhlaWdodD0iMjIiIHdpZHRoPSIyMi42ODc2ODMxMDU0Njg3NSIgeT0iMjAwIiB4PSIxNzkuOTc4MzYzMDM3MTA5MzgiIGNsYXNzPSJlciBhdHRyaWJ1dGVCb3hPZGQiPjwvcmVjdD48dGV4dCBzdHlsZT0iZG9taW5hbnQtYmFzZWxpbmU6IG1pZGRsZTsgZm9udC1zaXplOiAxMC4ycHg7IiB0cmFuc2Zvcm09InRyYW5zbGF0ZSgxODQuOTc4MzYzMDM3MTA5MzgsMjExKSIgeT0iMCIgeD0iMCIgaWQ9InRleHQtZW50aXR5LVRBQkxBMi01MmZjMTdlYS00YmY4LTU3YTctYjI4Yi01ZTQ1NzJhZWJmNWEtYXR0ci05LWtleSIgY2xhc3M9ImVyIGVudGl0eUxhYmVsIj48L3RleHQ+PHJlY3QgaGVpZ2h0PSIyMiIgd2lkdGg9IjQzLjExMjU2NDA4NjkxNDA2IiB5PSIyMjIiIHg9IjAiIGNsYXNzPSJlciBhdHRyaWJ1dGVCb3hFdmVuIj48L3JlY3Q+PHRleHQgc3R5bGU9ImRvbWluYW50LWJhc2VsaW5lOiBtaWRkbGU7IGZvbnQtc2l6ZTogMTAuMnB4OyIgdHJhbnNmb3JtPSJ0cmFuc2xhdGUoNSwyMzMpIiB5PSIwIiB4PSIwIiBpZD0idGV4dC1lbnRpdHktVEFCTEEyLTUyZmMxN2VhLTRiZjgtNTdhNy1iMjhiLTVlNDU3MmFlYmY1YS1hdHRyLTEwLXR5cGUiIGNsYXNzPSJlciBlbnRpdHlMYWJlbCI+RkxPQVQ8L3RleHQ+PHJlY3QgaGVpZ2h0PSIyMiIgd2lkdGg9IjEzNi44NjU3OTg5NTAxOTUzIiB5PSIyMjIiIHg9IjQzLjExMjU2NDA4NjkxNDA2IiBjbGFzcz0iZXIgYXR0cmlidXRlQm94RXZlbiI+PC9yZWN0Pjx0ZXh0IHN0eWxlPSJkb21pbmFudC1iYXNlbGluZTogbWlkZGxlOyBmb250LXNpemU6IDEwLjJweDsiIHRyYW5zZm9ybT0idHJhbnNsYXRlKDQ4LjExMjU2NDA4NjkxNDA2LDIzMykiIHk9IjAiIHg9IjAiIGlkPSJ0ZXh0LWVudGl0eS1UQUJMQTItNTJmYzE3ZWEtNGJmOC01N2E3LWIyOGItNWU0NTcyYWViZjVhLWF0dHItMTAtbmFtZSIgY2xhc3M9ImVyIGVudGl0eUxhYmVsIj5hdmdfbGlrZXM8L3RleHQ+PHJlY3QgaGVpZ2h0PSIyMiIgd2lkdGg9IjIyLjY4NzY4MzEwNTQ2ODc1IiB5PSIyMjIiIHg9IjE3OS45NzgzNjMwMzcxMDkzOCIgY2xhc3M9ImVyIGF0dHJpYnV0ZUJveEV2ZW4iPjwvcmVjdD48dGV4dCBzdHlsZT0iZG9taW5hbnQtYmFzZWxpbmU6IG1pZGRsZTsgZm9udC1zaXplOiAxMC4ycHg7IiB0cmFuc2Zvcm09InRyYW5zbGF0ZSgxODQuOTc4MzYzMDM3MTA5MzgsMjMzKSIgeT0iMCIgeD0iMCIgaWQ9InRleHQtZW50aXR5LVRBQkxBMi01MmZjMTdlYS00YmY4LTU3YTctYjI4Yi01ZTQ1NzJhZWJmNWEtYXR0ci0xMC1rZXkiIGNsYXNzPSJlciBlbnRpdHlMYWJlbCI+PC90ZXh0PjxyZWN0IGhlaWdodD0iMjIiIHdpZHRoPSI0My4xMTI1NjQwODY5MTQwNiIgeT0iMjQ0IiB4PSIwIiBjbGFzcz0iZXIgYXR0cmlidXRlQm94T2RkIj48L3JlY3Q+PHRleHQgc3R5bGU9ImRvbWluYW50LWJhc2VsaW5lOiBtaWRkbGU7IGZvbnQtc2l6ZTogMTAuMnB4OyIgdHJhbnNmb3JtPSJ0cmFuc2xhdGUoNSwyNTUpIiB5PSIwIiB4PSIwIiBpZD0idGV4dC1lbnRpdHktVEFCTEEyLTUyZmMxN2VhLTRiZjgtNTdhNy1iMjhiLTVlNDU3MmFlYmY1YS1hdHRyLTExLXR5cGUiIGNsYXNzPSJlciBlbnRpdHlMYWJlbCI+RkxPQVQ8L3RleHQ+PHJlY3QgaGVpZ2h0PSIyMiIgd2lkdGg9IjEzNi44NjU3OTg5NTAxOTUzIiB5PSIyNDQiIHg9IjQzLjExMjU2NDA4NjkxNDA2IiBjbGFzcz0iZXIgYXR0cmlidXRlQm94T2RkIj48L3JlY3Q+PHRleHQgc3R5bGU9ImRvbWluYW50LWJhc2VsaW5lOiBtaWRkbGU7IGZvbnQtc2l6ZTogMTAuMnB4OyIgdHJhbnNmb3JtPSJ0cmFuc2xhdGUoNDguMTEyNTY0MDg2OTE0MDYsMjU1KSIgeT0iMCIgeD0iMCIgaWQ9InRleHQtZW50aXR5LVRBQkxBMi01MmZjMTdlYS00YmY4LTU3YTctYjI4Yi01ZTQ1NzJhZWJmNWEtYXR0ci0xMS1uYW1lIiBjbGFzcz0iZXIgZW50aXR5TGFiZWwiPmxpbmtzX3JhdGlvPC90ZXh0PjxyZWN0IGhlaWdodD0iMjIiIHdpZHRoPSIyMi42ODc2ODMxMDU0Njg3NSIgeT0iMjQ0IiB4PSIxNzkuOTc4MzYzMDM3MTA5MzgiIGNsYXNzPSJlciBhdHRyaWJ1dGVCb3hPZGQiPjwvcmVjdD48dGV4dCBzdHlsZT0iZG9taW5hbnQtYmFzZWxpbmU6IG1pZGRsZTsgZm9udC1zaXplOiAxMC4ycHg7IiB0cmFuc2Zvcm09InRyYW5zbGF0ZSgxODQuOTc4MzYzMDM3MTA5MzgsMjU1KSIgeT0iMCIgeD0iMCIgaWQ9InRleHQtZW50aXR5LVRBQkxBMi01MmZjMTdlYS00YmY4LTU3YTctYjI4Yi01ZTQ1NzJhZWJmNWEtYXR0ci0xMS1rZXkiIGNsYXNzPSJlciBlbnRpdHlMYWJlbCI+PC90ZXh0PjxyZWN0IGhlaWdodD0iMjIiIHdpZHRoPSI0My4xMTI1NjQwODY5MTQwNiIgeT0iMjY2IiB4PSIwIiBjbGFzcz0iZXIgYXR0cmlidXRlQm94RXZlbiI+PC9yZWN0Pjx0ZXh0IHN0eWxlPSJkb21pbmFudC1iYXNlbGluZTogbWlkZGxlOyBmb250LXNpemU6IDEwLjJweDsiIHRyYW5zZm9ybT0idHJhbnNsYXRlKDUsMjc3KSIgeT0iMCIgeD0iMCIgaWQ9InRleHQtZW50aXR5LVRBQkxBMi01MmZjMTdlYS00YmY4LTU3YTctYjI4Yi01ZTQ1NzJhZWJmNWEtYXR0ci0xMi10eXBlIiBjbGFzcz0iZXIgZW50aXR5TGFiZWwiPkZMT0FUPC90ZXh0PjxyZWN0IGhlaWdodD0iMjIiIHdpZHRoPSIxMzYuODY1Nzk4OTUwMTk1MyIgeT0iMjY2IiB4PSI0My4xMTI1NjQwODY5MTQwNiIgY2xhc3M9ImVyIGF0dHJpYnV0ZUJveEV2ZW4iPjwvcmVjdD48dGV4dCBzdHlsZT0iZG9taW5hbnQtYmFzZWxpbmU6IG1pZGRsZTsgZm9udC1zaXplOiAxMC4ycHg7IiB0cmFuc2Zvcm09InRyYW5zbGF0ZSg0OC4xMTI1NjQwODY5MTQwNiwyNzcpIiB5PSIwIiB4PSIwIiBpZD0idGV4dC1lbnRpdHktVEFCTEEyLTUyZmMxN2VhLTRiZjgtNTdhNy1iMjhiLTVlNDU3MmFlYmY1YS1hdHRyLTEyLW5hbWUiIGNsYXNzPSJlciBlbnRpdHlMYWJlbCI+aGFzaHRhZ3NfcmF0aW88L3RleHQ+PHJlY3QgaGVpZ2h0PSIyMiIgd2lkdGg9IjIyLjY4NzY4MzEwNTQ2ODc1IiB5PSIyNjYiIHg9IjE3OS45NzgzNjMwMzcxMDkzOCIgY2xhc3M9ImVyIGF0dHJpYnV0ZUJveEV2ZW4iPjwvcmVjdD48dGV4dCBzdHlsZT0iZG9taW5hbnQtYmFzZWxpbmU6IG1pZGRsZTsgZm9udC1zaXplOiAxMC4ycHg7IiB0cmFuc2Zvcm09InRyYW5zbGF0ZSgxODQuOTc4MzYzMDM3MTA5MzgsMjc3KSIgeT0iMCIgeD0iMCIgaWQ9InRleHQtZW50aXR5LVRBQkxBMi01MmZjMTdlYS00YmY4LTU3YTctYjI4Yi01ZTQ1NzJhZWJmNWEtYXR0ci0xMi1rZXkiIGNsYXNzPSJlciBlbnRpdHlMYWJlbCI+PC90ZXh0PjxyZWN0IGhlaWdodD0iMjIiIHdpZHRoPSI0My4xMTI1NjQwODY5MTQwNiIgeT0iMjg4IiB4PSIwIiBjbGFzcz0iZXIgYXR0cmlidXRlQm94T2RkIj48L3JlY3Q+PHRleHQgc3R5bGU9ImRvbWluYW50LWJhc2VsaW5lOiBtaWRkbGU7IGZvbnQtc2l6ZTogMTAuMnB4OyIgdHJhbnNmb3JtPSJ0cmFuc2xhdGUoNSwyOTkpIiB5PSIwIiB4PSIwIiBpZD0idGV4dC1lbnRpdHktVEFCTEEyLTUyZmMxN2VhLTRiZjgtNTdhNy1iMjhiLTVlNDU3MmFlYmY1YS1hdHRyLTEzLXR5cGUiIGNsYXNzPSJlciBlbnRpdHlMYWJlbCI+RkxPQVQ8L3RleHQ+PHJlY3QgaGVpZ2h0PSIyMiIgd2lkdGg9IjEzNi44NjU3OTg5NTAxOTUzIiB5PSIyODgiIHg9IjQzLjExMjU2NDA4NjkxNDA2IiBjbGFzcz0iZXIgYXR0cmlidXRlQm94T2RkIj48L3JlY3Q+PHRleHQgc3R5bGU9ImRvbWluYW50LWJhc2VsaW5lOiBtaWRkbGU7IGZvbnQtc2l6ZTogMTAuMnB4OyIgdHJhbnNmb3JtPSJ0cmFuc2xhdGUoNDguMTEyNTY0MDg2OTE0MDYsMjk5KSIgeT0iMCIgeD0iMCIgaWQ9InRleHQtZW50aXR5LVRBQkxBMi01MmZjMTdlYS00YmY4LTU3YTctYjI4Yi01ZTQ1NzJhZWJmNWEtYXR0ci0xMy1uYW1lIiBjbGFzcz0iZXIgZW50aXR5TGFiZWwiPmF2Z19rZXl3b3JkczwvdGV4dD48cmVjdCBoZWlnaHQ9IjIyIiB3aWR0aD0iMjIuNjg3NjgzMTA1NDY4NzUiIHk9IjI4OCIgeD0iMTc5Ljk3ODM2MzAzNzEwOTM4IiBjbGFzcz0iZXIgYXR0cmlidXRlQm94T2RkIj48L3JlY3Q+PHRleHQgc3R5bGU9ImRvbWluYW50LWJhc2VsaW5lOiBtaWRkbGU7IGZvbnQtc2l6ZTogMTAuMnB4OyIgdHJhbnNmb3JtPSJ0cmFuc2xhdGUoMTg0Ljk3ODM2MzAzNzEwOTM4LDI5OSkiIHk9IjAiIHg9IjAiIGlkPSJ0ZXh0LWVudGl0eS1UQUJMQTItNTJmYzE3ZWEtNGJmOC01N2E3LWIyOGItNWU0NTcyYWViZjVhLWF0dHItMTMta2V5IiBjbGFzcz0iZXIgZW50aXR5TGFiZWwiPjwvdGV4dD48cmVjdCBoZWlnaHQ9IjIyIiB3aWR0aD0iNDMuMTEyNTY0MDg2OTE0MDYiIHk9IjMxMCIgeD0iMCIgY2xhc3M9ImVyIGF0dHJpYnV0ZUJveEV2ZW4iPjwvcmVjdD48dGV4dCBzdHlsZT0iZG9taW5hbnQtYmFzZWxpbmU6IG1pZGRsZTsgZm9udC1zaXplOiAxMC4ycHg7IiB0cmFuc2Zvcm09InRyYW5zbGF0ZSg1LDMyMSkiIHk9IjAiIHg9IjAiIGlkPSJ0ZXh0LWVudGl0eS1UQUJMQTItNTJmYzE3ZWEtNGJmOC01N2E3LWIyOGItNWU0NTcyYWViZjVhLWF0dHItMTQtdHlwZSIgY2xhc3M9ImVyIGVudGl0eUxhYmVsIj5JTlQ8L3RleHQ+PHJlY3QgaGVpZ2h0PSIyMiIgd2lkdGg9IjEzNi44NjU3OTg5NTAxOTUzIiB5PSIzMTAiIHg9IjQzLjExMjU2NDA4NjkxNDA2IiBjbGFzcz0iZXIgYXR0cmlidXRlQm94RXZlbiI+PC9yZWN0Pjx0ZXh0IHN0eWxlPSJkb21pbmFudC1iYXNlbGluZTogbWlkZGxlOyBmb250LXNpemU6IDEwLjJweDsiIHRyYW5zZm9ybT0idHJhbnNsYXRlKDQ4LjExMjU2NDA4NjkxNDA2LDMyMSkiIHk9IjAiIHg9IjAiIGlkPSJ0ZXh0LWVudGl0eS1UQUJMQTItNTJmYzE3ZWEtNGJmOC01N2E3LWIyOGItNWU0NTcyYWViZjVhLWF0dHItMTQtbmFtZSIgY2xhc3M9ImVyIGVudGl0eUxhYmVsIj5hdmdfdGV4dF9sZW5ndGg8L3RleHQ+PHJlY3QgaGVpZ2h0PSIyMiIgd2lkdGg9IjIyLjY4NzY4MzEwNTQ2ODc1IiB5PSIzMTAiIHg9IjE3OS45NzgzNjMwMzcxMDkzOCIgY2xhc3M9ImVyIGF0dHJpYnV0ZUJveEV2ZW4iPjwvcmVjdD48dGV4dCBzdHlsZT0iZG9taW5hbnQtYmFzZWxpbmU6IG1pZGRsZTsgZm9udC1zaXplOiAxMC4ycHg7IiB0cmFuc2Zvcm09InRyYW5zbGF0ZSgxODQuOTc4MzYzMDM3MTA5MzgsMzIxKSIgeT0iMCIgeD0iMCIgaWQ9InRleHQtZW50aXR5LVRBQkxBMi01MmZjMTdlYS00YmY4LTU3YTctYjI4Yi01ZTQ1NzJhZWJmNWEtYXR0ci0xNC1rZXkiIGNsYXNzPSJlciBlbnRpdHlMYWJlbCI+PC90ZXh0PjxyZWN0IGhlaWdodD0iMjIiIHdpZHRoPSI0My4xMTI1NjQwODY5MTQwNiIgeT0iMzMyIiB4PSIwIiBjbGFzcz0iZXIgYXR0cmlidXRlQm94T2RkIj48L3JlY3Q+PHRleHQgc3R5bGU9ImRvbWluYW50LWJhc2VsaW5lOiBtaWRkbGU7IGZvbnQtc2l6ZTogMTAuMnB4OyIgdHJhbnNmb3JtPSJ0cmFuc2xhdGUoNSwzNDMpIiB5PSIwIiB4PSIwIiBpZD0idGV4dC1lbnRpdHktVEFCTEEyLTUyZmMxN2VhLTRiZjgtNTdhNy1iMjhiLTVlNDU3MmFlYmY1YS1hdHRyLTE1LXR5cGUiIGNsYXNzPSJlciBlbnRpdHlMYWJlbCI+RkxPQVQ8L3RleHQ+PHJlY3QgaGVpZ2h0PSIyMiIgd2lkdGg9IjEzNi44NjU3OTg5NTAxOTUzIiB5PSIzMzIiIHg9IjQzLjExMjU2NDA4NjkxNDA2IiBjbGFzcz0iZXIgYXR0cmlidXRlQm94T2RkIj48L3JlY3Q+PHRleHQgc3R5bGU9ImRvbWluYW50LWJhc2VsaW5lOiBtaWRkbGU7IGZvbnQtc2l6ZTogMTAuMnB4OyIgdHJhbnNmb3JtPSJ0cmFuc2xhdGUoNDguMTEyNTY0MDg2OTE0MDYsMzQzKSIgeT0iMCIgeD0iMCIgaWQ9InRleHQtZW50aXR5LVRBQkxBMi01MmZjMTdlYS00YmY4LTU3YTctYjI4Yi01ZTQ1NzJhZWJmNWEtYXR0ci0xNS1uYW1lIiBjbGFzcz0iZXIgZW50aXR5TGFiZWwiPmF0dGFjaG1lbnRzX3JhdGlvPC90ZXh0PjxyZWN0IGhlaWdodD0iMjIiIHdpZHRoPSIyMi42ODc2ODMxMDU0Njg3NSIgeT0iMzMyIiB4PSIxNzkuOTc4MzYzMDM3MTA5MzgiIGNsYXNzPSJlciBhdHRyaWJ1dGVCb3hPZGQiPjwvcmVjdD48dGV4dCBzdHlsZT0iZG9taW5hbnQtYmFzZWxpbmU6IG1pZGRsZTsgZm9udC1zaXplOiAxMC4ycHg7IiB0cmFuc2Zvcm09InRyYW5zbGF0ZSgxODQuOTc4MzYzMDM3MTA5MzgsMzQzKSIgeT0iMCIgeD0iMCIgaWQ9InRleHQtZW50aXR5LVRBQkxBMi01MmZjMTdlYS00YmY4LTU3YTctYjI4Yi01ZTQ1NzJhZWJmNWEtYXR0ci0xNS1rZXkiIGNsYXNzPSJlciBlbnRpdHlMYWJlbCI+PC90ZXh0PjxyZWN0IGhlaWdodD0iMjIiIHdpZHRoPSI0My4xMTI1NjQwODY5MTQwNiIgeT0iMzU0IiB4PSIwIiBjbGFzcz0iZXIgYXR0cmlidXRlQm94RXZlbiI+PC9yZWN0Pjx0ZXh0IHN0eWxlPSJkb21pbmFudC1iYXNlbGluZTogbWlkZGxlOyBmb250LXNpemU6IDEwLjJweDsiIHRyYW5zZm9ybT0idHJhbnNsYXRlKDUsMzY1KSIgeT0iMCIgeD0iMCIgaWQ9InRleHQtZW50aXR5LVRBQkxBMi01MmZjMTdlYS00YmY4LTU3YTctYjI4Yi01ZTQ1NzJhZWJmNWEtYXR0ci0xNi10eXBlIiBjbGFzcz0iZXIgZW50aXR5TGFiZWwiPklOVDwvdGV4dD48cmVjdCBoZWlnaHQ9IjIyIiB3aWR0aD0iMTM2Ljg2NTc5ODk1MDE5NTMiIHk9IjM1NCIgeD0iNDMuMTEyNTY0MDg2OTE0MDYiIGNsYXNzPSJlciBhdHRyaWJ1dGVCb3hFdmVuIj48L3JlY3Q+PHRleHQgc3R5bGU9ImRvbWluYW50LWJhc2VsaW5lOiBtaWRkbGU7IGZvbnQtc2l6ZTogMTAuMnB4OyIgdHJhbnNmb3JtPSJ0cmFuc2xhdGUoNDguMTEyNTY0MDg2OTE0MDYsMzY1KSIgeT0iMCIgeD0iMCIgaWQ9InRleHQtZW50aXR5LVRBQkxBMi01MmZjMTdlYS00YmY4LTU3YTctYjI4Yi01ZTQ1NzJhZWJmNWEtYXR0ci0xNi1uYW1lIiBjbGFzcz0iZXIgZW50aXR5TGFiZWwiPmF2Z19jb21tZW50czwvdGV4dD48cmVjdCBoZWlnaHQ9IjIyIiB3aWR0aD0iMjIuNjg3NjgzMTA1NDY4NzUiIHk9IjM1NCIgeD0iMTc5Ljk3ODM2MzAzNzEwOTM4IiBjbGFzcz0iZXIgYXR0cmlidXRlQm94RXZlbiI+PC9yZWN0Pjx0ZXh0IHN0eWxlPSJkb21pbmFudC1iYXNlbGluZTogbWlkZGxlOyBmb250LXNpemU6IDEwLjJweDsiIHRyYW5zZm9ybT0idHJhbnNsYXRlKDE4NC45NzgzNjMwMzcxMDkzOCwzNjUpIiB5PSIwIiB4PSIwIiBpZD0idGV4dC1lbnRpdHktVEFCTEEyLTUyZmMxN2VhLTRiZjgtNTdhNy1iMjhiLTVlNDU3MmFlYmY1YS1hdHRyLTE2LWtleSIgY2xhc3M9ImVyIGVudGl0eUxhYmVsIj48L3RleHQ+PHJlY3QgaGVpZ2h0PSIyMiIgd2lkdGg9IjQzLjExMjU2NDA4NjkxNDA2IiB5PSIzNzYiIHg9IjAiIGNsYXNzPSJlciBhdHRyaWJ1dGVCb3hPZGQiPjwvcmVjdD48dGV4dCBzdHlsZT0iZG9taW5hbnQtYmFzZWxpbmU6IG1pZGRsZTsgZm9udC1zaXplOiAxMC4ycHg7IiB0cmFuc2Zvcm09InRyYW5zbGF0ZSg1LDM4NykiIHk9IjAiIHg9IjAiIGlkPSJ0ZXh0LWVudGl0eS1UQUJMQTItNTJmYzE3ZWEtNGJmOC01N2E3LWIyOGItNWU0NTcyYWViZjVhLWF0dHItMTctdHlwZSIgY2xhc3M9ImVyIGVudGl0eUxhYmVsIj5GTE9BVDwvdGV4dD48cmVjdCBoZWlnaHQ9IjIyIiB3aWR0aD0iMTM2Ljg2NTc5ODk1MDE5NTMiIHk9IjM3NiIgeD0iNDMuMTEyNTY0MDg2OTE0MDYiIGNsYXNzPSJlciBhdHRyaWJ1dGVCb3hPZGQiPjwvcmVjdD48dGV4dCBzdHlsZT0iZG9taW5hbnQtYmFzZWxpbmU6IG1pZGRsZTsgZm9udC1zaXplOiAxMC4ycHg7IiB0cmFuc2Zvcm09InRyYW5zbGF0ZSg0OC4xMTI1NjQwODY5MTQwNiwzODcpIiB5PSIwIiB4PSIwIiBpZD0idGV4dC1lbnRpdHktVEFCTEEyLTUyZmMxN2VhLTRiZjgtNTdhNy1iMjhiLTVlNDU3MmFlYmY1YS1hdHRyLTE3LW5hbWUiIGNsYXNzPSJlciBlbnRpdHlMYWJlbCI+cmVwb3N0c19yYXRpbzwvdGV4dD48cmVjdCBoZWlnaHQ9IjIyIiB3aWR0aD0iMjIuNjg3NjgzMTA1NDY4NzUiIHk9IjM3NiIgeD0iMTc5Ljk3ODM2MzAzNzEwOTM4IiBjbGFzcz0iZXIgYXR0cmlidXRlQm94T2RkIj48L3JlY3Q+PHRleHQgc3R5bGU9ImRvbWluYW50LWJhc2VsaW5lOiBtaWRkbGU7IGZvbnQtc2l6ZTogMTAuMnB4OyIgdHJhbnNmb3JtPSJ0cmFuc2xhdGUoMTg0Ljk3ODM2MzAzNzEwOTM4LDM4NykiIHk9IjAiIHg9IjAiIGlkPSJ0ZXh0LWVudGl0eS1UQUJMQTItNTJmYzE3ZWEtNGJmOC01N2E3LWIyOGItNWU0NTcyYWViZjVhLWF0dHItMTcta2V5IiBjbGFzcz0iZXIgZW50aXR5TGFiZWwiPjwvdGV4dD48cmVjdCBoZWlnaHQ9IjIyIiB3aWR0aD0iNDMuMTEyNTY0MDg2OTE0MDYiIHk9IjM5OCIgeD0iMCIgY2xhc3M9ImVyIGF0dHJpYnV0ZUJveEV2ZW4iPjwvcmVjdD48dGV4dCBzdHlsZT0iZG9taW5hbnQtYmFzZWxpbmU6IG1pZGRsZTsgZm9udC1zaXplOiAxMC4ycHg7IiB0cmFuc2Zvcm09InRyYW5zbGF0ZSg1LDQwOSkiIHk9IjAiIHg9IjAiIGlkPSJ0ZXh0LWVudGl0eS1UQUJMQTItNTJmYzE3ZWEtNGJmOC01N2E3LWIyOGItNWU0NTcyYWViZjVhLWF0dHItMTgtdHlwZSIgY2xhc3M9ImVyIGVudGl0eUxhYmVsIj5GTE9BVDwvdGV4dD48cmVjdCBoZWlnaHQ9IjIyIiB3aWR0aD0iMTM2Ljg2NTc5ODk1MDE5NTMiIHk9IjM5OCIgeD0iNDMuMTEyNTY0MDg2OTE0MDYiIGNsYXNzPSJlciBhdHRyaWJ1dGVCb3hFdmVuIj48L3JlY3Q+PHRleHQgc3R5bGU9ImRvbWluYW50LWJhc2VsaW5lOiBtaWRkbGU7IGZvbnQtc2l6ZTogMTAuMnB4OyIgdHJhbnNmb3JtPSJ0cmFuc2xhdGUoNDguMTEyNTY0MDg2OTE0MDYsNDA5KSIgeT0iMCIgeD0iMCIgaWQ9InRleHQtZW50aXR5LVRBQkxBMi01MmZjMTdlYS00YmY4LTU3YTctYjI4Yi01ZTQ1NzJhZWJmNWEtYXR0ci0xOC1uYW1lIiBjbGFzcz0iZXIgZW50aXR5TGFiZWwiPmFkc19yYXRpbzwvdGV4dD48cmVjdCBoZWlnaHQ9IjIyIiB3aWR0aD0iMjIuNjg3NjgzMTA1NDY4NzUiIHk9IjM5OCIgeD0iMTc5Ljk3ODM2MzAzNzEwOTM4IiBjbGFzcz0iZXIgYXR0cmlidXRlQm94RXZlbiI+PC9yZWN0Pjx0ZXh0IHN0eWxlPSJkb21pbmFudC1iYXNlbGluZTogbWlkZGxlOyBmb250LXNpemU6IDEwLjJweDsiIHRyYW5zZm9ybT0idHJhbnNsYXRlKDE4NC45NzgzNjMwMzcxMDkzOCw0MDkpIiB5PSIwIiB4PSIwIiBpZD0idGV4dC1lbnRpdHktVEFCTEEyLTUyZmMxN2VhLTRiZjgtNTdhNy1iMjhiLTVlNDU3MmFlYmY1YS1hdHRyLTE4LWtleSIgY2xhc3M9ImVyIGVudGl0eUxhYmVsIj48L3RleHQ+PHJlY3QgaGVpZ2h0PSIyMiIgd2lkdGg9IjQzLjExMjU2NDA4NjkxNDA2IiB5PSI0MjAiIHg9IjAiIGNsYXNzPSJlciBhdHRyaWJ1dGVCb3hPZGQiPjwvcmVjdD48dGV4dCBzdHlsZT0iZG9taW5hbnQtYmFzZWxpbmU6IG1pZGRsZTsgZm9udC1zaXplOiAxMC4ycHg7IiB0cmFuc2Zvcm09InRyYW5zbGF0ZSg1LDQzMSkiIHk9IjAiIHg9IjAiIGlkPSJ0ZXh0LWVudGl0eS1UQUJMQTItNTJmYzE3ZWEtNGJmOC01N2E3LWIyOGItNWU0NTcyYWViZjVhLWF0dHItMTktdHlwZSIgY2xhc3M9ImVyIGVudGl0eUxhYmVsIj5JTlQ8L3RleHQ+PHJlY3QgaGVpZ2h0PSIyMiIgd2lkdGg9IjEzNi44NjU3OTg5NTAxOTUzIiB5PSI0MjAiIHg9IjQzLjExMjU2NDA4NjkxNDA2IiBjbGFzcz0iZXIgYXR0cmlidXRlQm94T2RkIj48L3JlY3Q+PHRleHQgc3R5bGU9ImRvbWluYW50LWJhc2VsaW5lOiBtaWRkbGU7IGZvbnQtc2l6ZTogMTAuMnB4OyIgdHJhbnNmb3JtPSJ0cmFuc2xhdGUoNDguMTEyNTY0MDg2OTE0MDYsNDMxKSIgeT0iMCIgeD0iMCIgaWQ9InRleHQtZW50aXR5LVRBQkxBMi01MmZjMTdlYS00YmY4LTU3YTctYjI4Yi01ZTQ1NzJhZWJmNWEtYXR0ci0xOS1uYW1lIiBjbGFzcz0iZXIgZW50aXR5TGFiZWwiPmF2Z192aWV3czwvdGV4dD48cmVjdCBoZWlnaHQ9IjIyIiB3aWR0aD0iMjIuNjg3NjgzMTA1NDY4NzUiIHk9IjQyMCIgeD0iMTc5Ljk3ODM2MzAzNzEwOTM4IiBjbGFzcz0iZXIgYXR0cmlidXRlQm94T2RkIj48L3JlY3Q+PHRleHQgc3R5bGU9ImRvbWluYW50LWJhc2VsaW5lOiBtaWRkbGU7IGZvbnQtc2l6ZTogMTAuMnB4OyIgdHJhbnNmb3JtPSJ0cmFuc2xhdGUoMTg0Ljk3ODM2MzAzNzEwOTM4LDQzMSkiIHk9IjAiIHg9IjAiIGlkPSJ0ZXh0LWVudGl0eS1UQUJMQTItNTJmYzE3ZWEtNGJmOC01N2E3LWIyOGItNWU0NTcyYWViZjVhLWF0dHItMTkta2V5IiBjbGFzcz0iZXIgZW50aXR5TGFiZWwiPjwvdGV4dD48cmVjdCBoZWlnaHQ9IjIyIiB3aWR0aD0iNDMuMTEyNTY0MDg2OTE0MDYiIHk9IjQ0MiIgeD0iMCIgY2xhc3M9ImVyIGF0dHJpYnV0ZUJveEV2ZW4iPjwvcmVjdD48dGV4dCBzdHlsZT0iZG9taW5hbnQtYmFzZWxpbmU6IG1pZGRsZTsgZm9udC1zaXplOiAxMC4ycHg7IiB0cmFuc2Zvcm09InRyYW5zbGF0ZSg1LDQ1MykiIHk9IjAiIHg9IjAiIGlkPSJ0ZXh0LWVudGl0eS1UQUJMQTItNTJmYzE3ZWEtNGJmOC01N2E3LWIyOGItNWU0NTcyYWViZjVhLWF0dHItMjAtdHlwZSIgY2xhc3M9ImVyIGVudGl0eUxhYmVsIj5JTlQ8L3RleHQ+PHJlY3QgaGVpZ2h0PSIyMiIgd2lkdGg9IjEzNi44NjU3OTg5NTAxOTUzIiB5PSI0NDIiIHg9IjQzLjExMjU2NDA4NjkxNDA2IiBjbGFzcz0iZXIgYXR0cmlidXRlQm94RXZlbiI+PC9yZWN0Pjx0ZXh0IHN0eWxlPSJkb21pbmFudC1iYXNlbGluZTogbWlkZGxlOyBmb250LXNpemU6IDEwLjJweDsiIHRyYW5zZm9ybT0idHJhbnNsYXRlKDQ4LjExMjU2NDA4NjkxNDA2LDQ1MykiIHk9IjAiIHg9IjAiIGlkPSJ0ZXh0LWVudGl0eS1UQUJMQTItNTJmYzE3ZWEtNGJmOC01N2E3LWIyOGItNWU0NTcyYWViZjVhLWF0dHItMjAtbmFtZSIgY2xhc3M9ImVyIGVudGl0eUxhYmVsIj5wb3N0aW5nX2ZyZXF1ZW5jeV9kYXlzPC90ZXh0PjxyZWN0IGhlaWdodD0iMjIiIHdpZHRoPSIyMi42ODc2ODMxMDU0Njg3NSIgeT0iNDQyIiB4PSIxNzkuOTc4MzYzMDM3MTA5MzgiIGNsYXNzPSJlciBhdHRyaWJ1dGVCb3hFdmVuIj48L3JlY3Q+PHRleHQgc3R5bGU9ImRvbWluYW50LWJhc2VsaW5lOiBtaWRkbGU7IGZvbnQtc2l6ZTogMTAuMnB4OyIgdHJhbnNmb3JtPSJ0cmFuc2xhdGUoMTg0Ljk3ODM2MzAzNzEwOTM4LDQ1MykiIHk9IjAiIHg9IjAiIGlkPSJ0ZXh0LWVudGl0eS1UQUJMQTItNTJmYzE3ZWEtNGJmOC01N2E3LWIyOGItNWU0NTcyYWViZjVhLWF0dHItMjAta2V5IiBjbGFzcz0iZXIgZW50aXR5TGFiZWwiPjwvdGV4dD48cmVjdCBoZWlnaHQ9IjIyIiB3aWR0aD0iNDMuMTEyNTY0MDg2OTE0MDYiIHk9IjQ2NCIgeD0iMCIgY2xhc3M9ImVyIGF0dHJpYnV0ZUJveE9kZCI+PC9yZWN0Pjx0ZXh0IHN0eWxlPSJkb21pbmFudC1iYXNlbGluZTogbWlkZGxlOyBmb250LXNpemU6IDEwLjJweDsiIHRyYW5zZm9ybT0idHJhbnNsYXRlKDUsNDc1KSIgeT0iMCIgeD0iMCIgaWQ9InRleHQtZW50aXR5LVRBQkxBMi01MmZjMTdlYS00YmY4LTU3YTctYjI4Yi01ZTQ1NzJhZWJmNWEtYXR0ci0yMS10eXBlIiBjbGFzcz0iZXIgZW50aXR5TGFiZWwiPkZMT0FUPC90ZXh0PjxyZWN0IGhlaWdodD0iMjIiIHdpZHRoPSIxMzYuODY1Nzk4OTUwMTk1MyIgeT0iNDY0IiB4PSI0My4xMTI1NjQwODY5MTQwNiIgY2xhc3M9ImVyIGF0dHJpYnV0ZUJveE9kZCI+PC9yZWN0Pjx0ZXh0IHN0eWxlPSJkb21pbmFudC1iYXNlbGluZTogbWlkZGxlOyBmb250LXNpemU6IDEwLjJweDsiIHRyYW5zZm9ybT0idHJhbnNsYXRlKDQ4LjExMjU2NDA4NjkxNDA2LDQ3NSkiIHk9IjAiIHg9IjAiIGlkPSJ0ZXh0LWVudGl0eS1UQUJMQTItNTJmYzE3ZWEtNGJmOC01N2E3LWIyOGItNWU0NTcyYWViZjVhLWF0dHItMjEtbmFtZSIgY2xhc3M9ImVyIGVudGl0eUxhYmVsIj5waG9uZV9udW1iZXJzX3JhdGlvPC90ZXh0PjxyZWN0IGhlaWdodD0iMjIiIHdpZHRoPSIyMi42ODc2ODMxMDU0Njg3NSIgeT0iNDY0IiB4PSIxNzkuOTc4MzYzMDM3MTA5MzgiIGNsYXNzPSJlciBhdHRyaWJ1dGVCb3hPZGQiPjwvcmVjdD48dGV4dCBzdHlsZT0iZG9taW5hbnQtYmFzZWxpbmU6IG1pZGRsZTsgZm9udC1zaXplOiAxMC4ycHg7IiB0cmFuc2Zvcm09InRyYW5zbGF0ZSgxODQuOTc4MzYzMDM3MTA5MzgsNDc1KSIgeT0iMCIgeD0iMCIgaWQ9InRleHQtZW50aXR5LVRBQkxBMi01MmZjMTdlYS00YmY4LTU3YTctYjI4Yi01ZTQ1NzJhZWJmNWEtYXR0ci0yMS1rZXkiIGNsYXNzPSJlciBlbnRpdHlMYWJlbCI+PC90ZXh0PjxyZWN0IGhlaWdodD0iMjIiIHdpZHRoPSI0My4xMTI1NjQwODY5MTQwNiIgeT0iNDg2IiB4PSIwIiBjbGFzcz0iZXIgYXR0cmlidXRlQm94RXZlbiI+PC9yZWN0Pjx0ZXh0IHN0eWxlPSJkb21pbmFudC1iYXNlbGluZTogbWlkZGxlOyBmb250LXNpemU6IDEwLjJweDsiIHRyYW5zZm9ybT0idHJhbnNsYXRlKDUsNDk3KSIgeT0iMCIgeD0iMCIgaWQ9InRleHQtZW50aXR5LVRBQkxBMi01MmZjMTdlYS00YmY4LTU3YTctYjI4Yi01ZTQ1NzJhZWJmNWEtYXR0ci0yMi10eXBlIiBjbGFzcz0iZXIgZW50aXR5TGFiZWwiPkZMT0FUPC90ZXh0PjxyZWN0IGhlaWdodD0iMjIiIHdpZHRoPSIxMzYuODY1Nzk4OTUwMTk1MyIgeT0iNDg2IiB4PSI0My4xMTI1NjQwODY5MTQwNiIgY2xhc3M9ImVyIGF0dHJpYnV0ZUJveEV2ZW4iPjwvcmVjdD48dGV4dCBzdHlsZT0iZG9taW5hbnQtYmFzZWxpbmU6IG1pZGRsZTsgZm9udC1zaXplOiAxMC4ycHg7IiB0cmFuc2Zvcm09InRyYW5zbGF0ZSg0OC4xMTI1NjQwODY5MTQwNiw0OTcpIiB5PSIwIiB4PSIwIiBpZD0idGV4dC1lbnRpdHktVEFCTEEyLTUyZmMxN2VhLTRiZjgtNTdhNy1iMjhiLTVlNDU3MmFlYmY1YS1hdHRyLTIyLW5hbWUiIGNsYXNzPSJlciBlbnRpdHlMYWJlbCI+YXZnX3RleHRfdW5pcXVlbmVzczwvdGV4dD48cmVjdCBoZWlnaHQ9IjIyIiB3aWR0aD0iMjIuNjg3NjgzMTA1NDY4NzUiIHk9IjQ4NiIgeD0iMTc5Ljk3ODM2MzAzNzEwOTM4IiBjbGFzcz0iZXIgYXR0cmlidXRlQm94RXZlbiI+PC9yZWN0Pjx0ZXh0IHN0eWxlPSJkb21pbmFudC1iYXNlbGluZTogbWlkZGxlOyBmb250LXNpemU6IDEwLjJweDsiIHRyYW5zZm9ybT0idHJhbnNsYXRlKDE4NC45NzgzNjMwMzcxMDkzOCw0OTcpIiB5PSIwIiB4PSIwIiBpZD0idGV4dC1lbnRpdHktVEFCTEEyLTUyZmMxN2VhLTRiZjgtNTdhNy1iMjhiLTVlNDU3MmFlYmY1YS1hdHRyLTIyLWtleSIgY2xhc3M9ImVyIGVudGl0eUxhYmVsIj48L3RleHQ+PHJlY3QgaGVpZ2h0PSIyMiIgd2lkdGg9IjQzLjExMjU2NDA4NjkxNDA2IiB5PSI1MDgiIHg9IjAiIGNsYXNzPSJlciBhdHRyaWJ1dGVCb3hPZGQiPjwvcmVjdD48dGV4dCBzdHlsZT0iZG9taW5hbnQtYmFzZWxpbmU6IG1pZGRsZTsgZm9udC1zaXplOiAxMC4ycHg7IiB0cmFuc2Zvcm09InRyYW5zbGF0ZSg1LDUxOSkiIHk9IjAiIHg9IjAiIGlkPSJ0ZXh0LWVudGl0eS1UQUJMQTItNTJmYzE3ZWEtNGJmOC01N2E3LWIyOGItNWU0NTcyYWViZjVhLWF0dHItMjMtdHlwZSIgY2xhc3M9ImVyIGVudGl0eUxhYmVsIj5TVFJJTkc8L3RleHQ+PHJlY3QgaGVpZ2h0PSIyMiIgd2lkdGg9IjEzNi44NjU3OTg5NTAxOTUzIiB5PSI1MDgiIHg9IjQzLjExMjU2NDA4NjkxNDA2IiBjbGFzcz0iZXIgYXR0cmlidXRlQm94T2RkIj48L3JlY3Q+PHRleHQgc3R5bGU9ImRvbWluYW50LWJhc2VsaW5lOiBtaWRkbGU7IGZvbnQtc2l6ZTogMTAuMnB4OyIgdHJhbnNmb3JtPSJ0cmFuc2xhdGUoNDguMTEyNTY0MDg2OTE0MDYsNTE5KSIgeT0iMCIgeD0iMCIgaWQ9InRleHQtZW50aXR5LVRBQkxBMi01MmZjMTdlYS00YmY4LTU3YTctYjI4Yi01ZTQ1NzJhZWJmNWEtYXR0ci0yMy1uYW1lIiBjbGFzcz0iZXIgZW50aXR5TGFiZWwiPmNpdHk8L3RleHQ+PHJlY3QgaGVpZ2h0PSIyMiIgd2lkdGg9IjIyLjY4NzY4MzEwNTQ2ODc1IiB5PSI1MDgiIHg9IjE3OS45NzgzNjMwMzcxMDkzOCIgY2xhc3M9ImVyIGF0dHJpYnV0ZUJveE9kZCI+PC9yZWN0Pjx0ZXh0IHN0eWxlPSJkb21pbmFudC1iYXNlbGluZTogbWlkZGxlOyBmb250LXNpemU6IDEwLjJweDsiIHRyYW5zZm9ybT0idHJhbnNsYXRlKDE4NC45NzgzNjMwMzcxMDkzOCw1MTkpIiB5PSIwIiB4PSIwIiBpZD0idGV4dC1lbnRpdHktVEFCTEEyLTUyZmMxN2VhLTRiZjgtNTdhNy1iMjhiLTVlNDU3MmFlYmY1YS1hdHRyLTIzLWtleSIgY2xhc3M9ImVyIGVudGl0eUxhYmVsIj48L3RleHQ+PHJlY3QgaGVpZ2h0PSIyMiIgd2lkdGg9IjQzLjExMjU2NDA4NjkxNDA2IiB5PSI1MzAiIHg9IjAiIGNsYXNzPSJlciBhdHRyaWJ1dGVCb3hFdmVuIj48L3JlY3Q+PHRleHQgc3R5bGU9ImRvbWluYW50LWJhc2VsaW5lOiBtaWRkbGU7IGZvbnQtc2l6ZTogMTAuMnB4OyIgdHJhbnNmb3JtPSJ0cmFuc2xhdGUoNSw1NDEpIiB5PSIwIiB4PSIwIiBpZD0idGV4dC1lbnRpdHktVEFCTEEyLTUyZmMxN2VhLTRiZjgtNTdhNy1iMjhiLTVlNDU3MmFlYmY1YS1hdHRyLTI0LXR5cGUiIGNsYXNzPSJlciBlbnRpdHlMYWJlbCI+U1RSSU5HPC90ZXh0PjxyZWN0IGhlaWdodD0iMjIiIHdpZHRoPSIxMzYuODY1Nzk4OTUwMTk1MyIgeT0iNTMwIiB4PSI0My4xMTI1NjQwODY5MTQwNiIgY2xhc3M9ImVyIGF0dHJpYnV0ZUJveEV2ZW4iPjwvcmVjdD48dGV4dCBzdHlsZT0iZG9taW5hbnQtYmFzZWxpbmU6IG1pZGRsZTsgZm9udC1zaXplOiAxMC4ycHg7IiB0cmFuc2Zvcm09InRyYW5zbGF0ZSg0OC4xMTI1NjQwODY5MTQwNiw1NDEpIiB5PSIwIiB4PSIwIiBpZD0idGV4dC1lbnRpdHktVEFCTEEyLTUyZmMxN2VhLTRiZjgtNTdhNy1iMjhiLTVlNDU3MmFlYmY1YS1hdHRyLTI0LW5hbWUiIGNsYXNzPSJlciBlbnRpdHlMYWJlbCI+aGFzX29jY3VwYXRpb248L3RleHQ+PHJlY3QgaGVpZ2h0PSIyMiIgd2lkdGg9IjIyLjY4NzY4MzEwNTQ2ODc1IiB5PSI1MzAiIHg9IjE3OS45NzgzNjMwMzcxMDkzOCIgY2xhc3M9ImVyIGF0dHJpYnV0ZUJveEV2ZW4iPjwvcmVjdD48dGV4dCBzdHlsZT0iZG9taW5hbnQtYmFzZWxpbmU6IG1pZGRsZTsgZm9udC1zaXplOiAxMC4ycHg7IiB0cmFuc2Zvcm09InRyYW5zbGF0ZSgxODQuOTc4MzYzMDM3MTA5MzgsNTQxKSIgeT0iMCIgeD0iMCIgaWQ9InRleHQtZW50aXR5LVRBQkxBMi01MmZjMTdlYS00YmY4LTU3YTctYjI4Yi01ZTQ1NzJhZWJmNWEtYXR0ci0yNC1rZXkiIGNsYXNzPSJlciBlbnRpdHlMYWJlbCI+PC90ZXh0PjxyZWN0IGhlaWdodD0iMjIiIHdpZHRoPSI0My4xMTI1NjQwODY5MTQwNiIgeT0iNTUyIiB4PSIwIiBjbGFzcz0iZXIgYXR0cmlidXRlQm94T2RkIj48L3JlY3Q+PHRleHQgc3R5bGU9ImRvbWluYW50LWJhc2VsaW5lOiBtaWRkbGU7IGZvbnQtc2l6ZTogMTAuMnB4OyIgdHJhbnNmb3JtPSJ0cmFuc2xhdGUoNSw1NjMpIiB5PSIwIiB4PSIwIiBpZD0idGV4dC1lbnRpdHktVEFCTEEyLTUyZmMxN2VhLTRiZjgtNTdhNy1iMjhiLTVlNDU3MmFlYmY1YS1hdHRyLTI1LXR5cGUiIGNsYXNzPSJlciBlbnRpdHlMYWJlbCI+U1RSSU5HPC90ZXh0PjxyZWN0IGhlaWdodD0iMjIiIHdpZHRoPSIxMzYuODY1Nzk4OTUwMTk1MyIgeT0iNTUyIiB4PSI0My4xMTI1NjQwODY5MTQwNiIgY2xhc3M9ImVyIGF0dHJpYnV0ZUJveE9kZCI+PC9yZWN0Pjx0ZXh0IHN0eWxlPSJkb21pbmFudC1iYXNlbGluZTogbWlkZGxlOyBmb250LXNpemU6IDEwLjJweDsiIHRyYW5zZm9ybT0idHJhbnNsYXRlKDQ4LjExMjU2NDA4NjkxNDA2LDU2MykiIHk9IjAiIHg9IjAiIGlkPSJ0ZXh0LWVudGl0eS1UQUJMQTItNTJmYzE3ZWEtNGJmOC01N2E3LWIyOGItNWU0NTcyYWViZjVhLWF0dHItMjUtbmFtZSIgY2xhc3M9ImVyIGVudGl0eUxhYmVsIj5vY2N1cGF0aW9uX3R5cGVfdW5pdmVyc2l0eTwvdGV4dD48cmVjdCBoZWlnaHQ9IjIyIiB3aWR0aD0iMjIuNjg3NjgzMTA1NDY4NzUiIHk9IjU1MiIgeD0iMTc5Ljk3ODM2MzAzNzEwOTM4IiBjbGFzcz0iZXIgYXR0cmlidXRlQm94T2RkIj48L3JlY3Q+PHRleHQgc3R5bGU9ImRvbWluYW50LWJhc2VsaW5lOiBtaWRkbGU7IGZvbnQtc2l6ZTogMTAuMnB4OyIgdHJhbnNmb3JtPSJ0cmFuc2xhdGUoMTg0Ljk3ODM2MzAzNzEwOTM4LDU2MykiIHk9IjAiIHg9IjAiIGlkPSJ0ZXh0LWVudGl0eS1UQUJMQTItNTJmYzE3ZWEtNGJmOC01N2E3LWIyOGItNWU0NTcyYWViZjVhLWF0dHItMjUta2V5IiBjbGFzcz0iZXIgZW50aXR5TGFiZWwiPjwvdGV4dD48cmVjdCBoZWlnaHQ9IjIyIiB3aWR0aD0iNDMuMTEyNTY0MDg2OTE0MDYiIHk9IjU3NCIgeD0iMCIgY2xhc3M9ImVyIGF0dHJpYnV0ZUJveEV2ZW4iPjwvcmVjdD48dGV4dCBzdHlsZT0iZG9taW5hbnQtYmFzZWxpbmU6IG1pZGRsZTsgZm9udC1zaXplOiAxMC4ycHg7IiB0cmFuc2Zvcm09InRyYW5zbGF0ZSg1LDU4NSkiIHk9IjAiIHg9IjAiIGlkPSJ0ZXh0LWVudGl0eS1UQUJMQTItNTJmYzE3ZWEtNGJmOC01N2E3LWIyOGItNWU0NTcyYWViZjVhLWF0dHItMjYtdHlwZSIgY2xhc3M9ImVyIGVudGl0eUxhYmVsIj5TVFJJTkc8L3RleHQ+PHJlY3QgaGVpZ2h0PSIyMiIgd2lkdGg9IjEzNi44NjU3OTg5NTAxOTUzIiB5PSI1NzQiIHg9IjQzLjExMjU2NDA4NjkxNDA2IiBjbGFzcz0iZXIgYXR0cmlidXRlQm94RXZlbiI+PC9yZWN0Pjx0ZXh0IHN0eWxlPSJkb21pbmFudC1iYXNlbGluZTogbWlkZGxlOyBmb250LXNpemU6IDEwLjJweDsiIHRyYW5zZm9ybT0idHJhbnNsYXRlKDQ4LjExMjU2NDA4NjkxNDA2LDU4NSkiIHk9IjAiIHg9IjAiIGlkPSJ0ZXh0LWVudGl0eS1UQUJMQTItNTJmYzE3ZWEtNGJmOC01N2E3LWIyOGItNWU0NTcyYWViZjVhLWF0dHItMjYtbmFtZSIgY2xhc3M9ImVyIGVudGl0eUxhYmVsIj5vY2N1cGF0aW9uX3R5cGVfd29yazwvdGV4dD48cmVjdCBoZWlnaHQ9IjIyIiB3aWR0aD0iMjIuNjg3NjgzMTA1NDY4NzUiIHk9IjU3NCIgeD0iMTc5Ljk3ODM2MzAzNzEwOTM4IiBjbGFzcz0iZXIgYXR0cmlidXRlQm94RXZlbiI+PC9yZWN0Pjx0ZXh0IHN0eWxlPSJkb21pbmFudC1iYXNlbGluZTogbWlkZGxlOyBmb250LXNpemU6IDEwLjJweDsiIHRyYW5zZm9ybT0idHJhbnNsYXRlKDE4NC45NzgzNjMwMzcxMDkzOCw1ODUpIiB5PSIwIiB4PSIwIiBpZD0idGV4dC1lbnRpdHktVEFCTEEyLTUyZmMxN2VhLTRiZjgtNTdhNy1iMjhiLTVlNDU3MmFlYmY1YS1hdHRyLTI2LWtleSIgY2xhc3M9ImVyIGVudGl0eUxhYmVsIj48L3RleHQ+PHJlY3QgaGVpZ2h0PSIyMiIgd2lkdGg9IjQzLjExMjU2NDA4NjkxNDA2IiB5PSI1OTYiIHg9IjAiIGNsYXNzPSJlciBhdHRyaWJ1dGVCb3hPZGQiPjwvcmVjdD48dGV4dCBzdHlsZT0iZG9taW5hbnQtYmFzZWxpbmU6IG1pZGRsZTsgZm9udC1zaXplOiAxMC4ycHg7IiB0cmFuc2Zvcm09InRyYW5zbGF0ZSg1LDYwNykiIHk9IjAiIHg9IjAiIGlkPSJ0ZXh0LWVudGl0eS1UQUJMQTItNTJmYzE3ZWEtNGJmOC01N2E3LWIyOGItNWU0NTcyYWViZjVhLWF0dHItMjctdHlwZSIgY2xhc3M9ImVyIGVudGl0eUxhYmVsIj5TVFJJTkc8L3RleHQ+PHJlY3QgaGVpZ2h0PSIyMiIgd2lkdGg9IjEzNi44NjU3OTg5NTAxOTUzIiB5PSI1OTYiIHg9IjQzLjExMjU2NDA4NjkxNDA2IiBjbGFzcz0iZXIgYXR0cmlidXRlQm94T2RkIj48L3JlY3Q+PHRleHQgc3R5bGU9ImRvbWluYW50LWJhc2VsaW5lOiBtaWRkbGU7IGZvbnQtc2l6ZTogMTAuMnB4OyIgdHJhbnNmb3JtPSJ0cmFuc2xhdGUoNDguMTEyNTY0MDg2OTE0MDYsNjA3KSIgeT0iMCIgeD0iMCIgaWQ9InRleHQtZW50aXR5LVRBQkxBMi01MmZjMTdlYS00YmY4LTU3YTctYjI4Yi01ZTQ1NzJhZWJmNWEtYXR0ci0yNy1uYW1lIiBjbGFzcz0iZXIgZW50aXR5TGFiZWwiPmhhc19wZXJzb25hbF9kYXRhPC90ZXh0PjxyZWN0IGhlaWdodD0iMjIiIHdpZHRoPSIyMi42ODc2ODMxMDU0Njg3NSIgeT0iNTk2IiB4PSIxNzkuOTc4MzYzMDM3MTA5MzgiIGNsYXNzPSJlciBhdHRyaWJ1dGVCb3hPZGQiPjwvcmVjdD48dGV4dCBzdHlsZT0iZG9taW5hbnQtYmFzZWxpbmU6IG1pZGRsZTsgZm9udC1zaXplOiAxMC4ycHg7IiB0cmFuc2Zvcm09InRyYW5zbGF0ZSgxODQuOTc4MzYzMDM3MTA5MzgsNjA3KSIgeT0iMCIgeD0iMCIgaWQ9InRleHQtZW50aXR5LVRBQkxBMi01MmZjMTdlYS00YmY4LTU3YTctYjI4Yi01ZTQ1NzJhZWJmNWEtYXR0ci0yNy1rZXkiIGNsYXNzPSJlciBlbnRpdHlMYWJlbCI+PC90ZXh0PjwvZz48ZyB0cmFuc2Zvcm09InRyYW5zbGF0ZSgxNjIuMTAyOTczOTM3OTg4MjgsOTE0ICkiIGlkPSJlbnRpdHktVEFCTEFGSU5BTC1kMWM0N2EzNy04YmM0LTU2MzYtOTVjZi1kNTZiMjA5OTAzZmMiPjxyZWN0IGhlaWdodD0iMTM2NiIgd2lkdGg9IjIwMi42NjYwNDYxNDI1NzgxMiIgeT0iMCIgeD0iMCIgY2xhc3M9ImVyIGVudGl0eUJveCI+PC9yZWN0Pjx0ZXh0IHN0eWxlPSJkb21pbmFudC1iYXNlbGluZTogbWlkZGxlOyB0ZXh0LWFuY2hvcjogbWlkZGxlOyBmb250LXNpemU6IDEycHg7IiB0cmFuc2Zvcm09InRyYW5zbGF0ZSgxMDEuMzMzMDIzMDcxMjg5MDYsMTIpIiB5PSIwIiB4PSIwIiBpZD0idGV4dC1lbnRpdHktVEFCTEFGSU5BTC1kMWM0N2EzNy04YmM0LTU2MzYtOTVjZi1kNTZiMjA5OTAzZmMiIGNsYXNzPSJlciBlbnRpdHlMYWJlbCI+VEFCTEFfRklOQUw8L3RleHQ+PHJlY3QgaGVpZ2h0PSIyMiIgd2lkdGg9IjQzLjExMjU2NDA4NjkxNDA2IiB5PSIyNCIgeD0iMCIgY2xhc3M9ImVyIGF0dHJpYnV0ZUJveE9kZCI+PC9yZWN0Pjx0ZXh0IHN0eWxlPSJkb21pbmFudC1iYXNlbGluZTogbWlkZGxlOyBmb250LXNpemU6IDEwLjJweDsiIHRyYW5zZm9ybT0idHJhbnNsYXRlKDUsMzUpIiB5PSIwIiB4PSIwIiBpZD0idGV4dC1lbnRpdHktVEFCTEFGSU5BTC1kMWM0N2EzNy04YmM0LTU2MzYtOTVjZi1kNTZiMjA5OTAzZmMtYXR0ci0xLXR5cGUiIGNsYXNzPSJlciBlbnRpdHlMYWJlbCI+SU5UPC90ZXh0PjxyZWN0IGhlaWdodD0iMjIiIHdpZHRoPSIxMzYuODY1Nzk4OTUwMTk1MyIgeT0iMjQiIHg9IjQzLjExMjU2NDA4NjkxNDA2IiBjbGFzcz0iZXIgYXR0cmlidXRlQm94T2RkIj48L3JlY3Q+PHRleHQgc3R5bGU9ImRvbWluYW50LWJhc2VsaW5lOiBtaWRkbGU7IGZvbnQtc2l6ZTogMTAuMnB4OyIgdHJhbnNmb3JtPSJ0cmFuc2xhdGUoNDguMTEyNTY0MDg2OTE0MDYsMzUpIiB5PSIwIiB4PSIwIiBpZD0idGV4dC1lbnRpdHktVEFCTEFGSU5BTC1kMWM0N2EzNy04YmM0LTU2MzYtOTVjZi1kNTZiMjA5OTAzZmMtYXR0ci0xLW5hbWUiIGNsYXNzPSJlciBlbnRpdHlMYWJlbCI+aWRfZGF0YTwvdGV4dD48cmVjdCBoZWlnaHQ9IjIyIiB3aWR0aD0iMjIuNjg3NjgzMTA1NDY4NzUiIHk9IjI0IiB4PSIxNzkuOTc4MzYzMDM3MTA5MzgiIGNsYXNzPSJlciBhdHRyaWJ1dGVCb3hPZGQiPjwvcmVjdD48dGV4dCBzdHlsZT0iZG9taW5hbnQtYmFzZWxpbmU6IG1pZGRsZTsgZm9udC1zaXplOiAxMC4ycHg7IiB0cmFuc2Zvcm09InRyYW5zbGF0ZSgxODQuOTc4MzYzMDM3MTA5MzgsMzUpIiB5PSIwIiB4PSIwIiBpZD0idGV4dC1lbnRpdHktVEFCTEFGSU5BTC1kMWM0N2EzNy04YmM0LTU2MzYtOTVjZi1kNTZiMjA5OTAzZmMtYXR0ci0xLWtleSIgY2xhc3M9ImVyIGVudGl0eUxhYmVsIj5QSzwvdGV4dD48cmVjdCBoZWlnaHQ9IjIyIiB3aWR0aD0iNDMuMTEyNTY0MDg2OTE0MDYiIHk9IjQ2IiB4PSIwIiBjbGFzcz0iZXIgYXR0cmlidXRlQm94RXZlbiI+PC9yZWN0Pjx0ZXh0IHN0eWxlPSJkb21pbmFudC1iYXNlbGluZTogbWlkZGxlOyBmb250LXNpemU6IDEwLjJweDsiIHRyYW5zZm9ybT0idHJhbnNsYXRlKDUsNTcpIiB5PSIwIiB4PSIwIiBpZD0idGV4dC1lbnRpdHktVEFCTEFGSU5BTC1kMWM0N2EzNy04YmM0LTU2MzYtOTVjZi1kNTZiMjA5OTAzZmMtYXR0ci0yLXR5cGUiIGNsYXNzPSJlciBlbnRpdHlMYWJlbCI+RkxPQVQ8L3RleHQ+PHJlY3QgaGVpZ2h0PSIyMiIgd2lkdGg9IjEzNi44NjU3OTg5NTAxOTUzIiB5PSI0NiIgeD0iNDMuMTEyNTY0MDg2OTE0MDYiIGNsYXNzPSJlciBhdHRyaWJ1dGVCb3hFdmVuIj48L3JlY3Q+PHRleHQgc3R5bGU9ImRvbWluYW50LWJhc2VsaW5lOiBtaWRkbGU7IGZvbnQtc2l6ZTogMTAuMnB4OyIgdHJhbnNmb3JtPSJ0cmFuc2xhdGUoNDguMTEyNTY0MDg2OTE0MDYsNTcpIiB5PSIwIiB4PSIwIiBpZD0idGV4dC1lbnRpdHktVEFCTEFGSU5BTC1kMWM0N2EzNy04YmM0LTU2MzYtOTVjZi1kNTZiMjA5OTAzZmMtYXR0ci0yLW5hbWUiIGNsYXNzPSJlciBlbnRpdHlMYWJlbCI+aGFzX2RvbWFpbjwvdGV4dD48cmVjdCBoZWlnaHQ9IjIyIiB3aWR0aD0iMjIuNjg3NjgzMTA1NDY4NzUiIHk9IjQ2IiB4PSIxNzkuOTc4MzYzMDM3MTA5MzgiIGNsYXNzPSJlciBhdHRyaWJ1dGVCb3hFdmVuIj48L3JlY3Q+PHRleHQgc3R5bGU9ImRvbWluYW50LWJhc2VsaW5lOiBtaWRkbGU7IGZvbnQtc2l6ZTogMTAuMnB4OyIgdHJhbnNmb3JtPSJ0cmFuc2xhdGUoMTg0Ljk3ODM2MzAzNzEwOTM4LDU3KSIgeT0iMCIgeD0iMCIgaWQ9InRleHQtZW50aXR5LVRBQkxBRklOQUwtZDFjNDdhMzctOGJjNC01NjM2LTk1Y2YtZDU2YjIwOTkwM2ZjLWF0dHItMi1rZXkiIGNsYXNzPSJlciBlbnRpdHlMYWJlbCI+PC90ZXh0PjxyZWN0IGhlaWdodD0iMjIiIHdpZHRoPSI0My4xMTI1NjQwODY5MTQwNiIgeT0iNjgiIHg9IjAiIGNsYXNzPSJlciBhdHRyaWJ1dGVCb3hPZGQiPjwvcmVjdD48dGV4dCBzdHlsZT0iZG9taW5hbnQtYmFzZWxpbmU6IG1pZGRsZTsgZm9udC1zaXplOiAxMC4ycHg7IiB0cmFuc2Zvcm09InRyYW5zbGF0ZSg1LDc5KSIgeT0iMCIgeD0iMCIgaWQ9InRleHQtZW50aXR5LVRBQkxBRklOQUwtZDFjNDdhMzctOGJjNC01NjM2LTk1Y2YtZDU2YjIwOTkwM2ZjLWF0dHItMy10eXBlIiBjbGFzcz0iZXIgZW50aXR5TGFiZWwiPkZMT0FUPC90ZXh0PjxyZWN0IGhlaWdodD0iMjIiIHdpZHRoPSIxMzYuODY1Nzk4OTUwMTk1MyIgeT0iNjgiIHg9IjQzLjExMjU2NDA4NjkxNDA2IiBjbGFzcz0iZXIgYXR0cmlidXRlQm94T2RkIj48L3JlY3Q+PHRleHQgc3R5bGU9ImRvbWluYW50LWJhc2VsaW5lOiBtaWRkbGU7IGZvbnQtc2l6ZTogMTAuMnB4OyIgdHJhbnNmb3JtPSJ0cmFuc2xhdGUoNDguMTEyNTY0MDg2OTE0MDYsNzkpIiB5PSIwIiB4PSIwIiBpZD0idGV4dC1lbnRpdHktVEFCTEFGSU5BTC1kMWM0N2EzNy04YmM0LTU2MzYtOTVjZi1kNTZiMjA5OTAzZmMtYXR0ci0zLW5hbWUiIGNsYXNzPSJlciBlbnRpdHlMYWJlbCI+aGFzX2JpcnRoX2RhdGU8L3RleHQ+PHJlY3QgaGVpZ2h0PSIyMiIgd2lkdGg9IjIyLjY4NzY4MzEwNTQ2ODc1IiB5PSI2OCIgeD0iMTc5Ljk3ODM2MzAzNzEwOTM4IiBjbGFzcz0iZXIgYXR0cmlidXRlQm94T2RkIj48L3JlY3Q+PHRleHQgc3R5bGU9ImRvbWluYW50LWJhc2VsaW5lOiBtaWRkbGU7IGZvbnQtc2l6ZTogMTAuMnB4OyIgdHJhbnNmb3JtPSJ0cmFuc2xhdGUoMTg0Ljk3ODM2MzAzNzEwOTM4LDc5KSIgeT0iMCIgeD0iMCIgaWQ9InRleHQtZW50aXR5LVRBQkxBRklOQUwtZDFjNDdhMzctOGJjNC01NjM2LTk1Y2YtZDU2YjIwOTkwM2ZjLWF0dHItMy1rZXkiIGNsYXNzPSJlciBlbnRpdHlMYWJlbCI+PC90ZXh0PjxyZWN0IGhlaWdodD0iMjIiIHdpZHRoPSI0My4xMTI1NjQwODY5MTQwNiIgeT0iOTAiIHg9IjAiIGNsYXNzPSJlciBhdHRyaWJ1dGVCb3hFdmVuIj48L3JlY3Q+PHRleHQgc3R5bGU9ImRvbWluYW50LWJhc2VsaW5lOiBtaWRkbGU7IGZvbnQtc2l6ZTogMTAuMnB4OyIgdHJhbnNmb3JtPSJ0cmFuc2xhdGUoNSwxMDEpIiB5PSIwIiB4PSIwIiBpZD0idGV4dC1lbnRpdHktVEFCTEFGSU5BTC1kMWM0N2EzNy04YmM0LTU2MzYtOTVjZi1kNTZiMjA5OTAzZmMtYXR0ci00LXR5cGUiIGNsYXNzPSJlciBlbnRpdHlMYWJlbCI+RkxPQVQ8L3RleHQ+PHJlY3QgaGVpZ2h0PSIyMiIgd2lkdGg9IjEzNi44NjU3OTg5NTAxOTUzIiB5PSI5MCIgeD0iNDMuMTEyNTY0MDg2OTE0MDYiIGNsYXNzPSJlciBhdHRyaWJ1dGVCb3hFdmVuIj48L3JlY3Q+PHRleHQgc3R5bGU9ImRvbWluYW50LWJhc2VsaW5lOiBtaWRkbGU7IGZvbnQtc2l6ZTogMTAuMnB4OyIgdHJhbnNmb3JtPSJ0cmFuc2xhdGUoNDguMTEyNTY0MDg2OTE0MDYsMTAxKSIgeT0iMCIgeD0iMCIgaWQ9InRleHQtZW50aXR5LVRBQkxBRklOQUwtZDFjNDdhMzctOGJjNC01NjM2LTk1Y2YtZDU2YjIwOTkwM2ZjLWF0dHItNC1uYW1lIiBjbGFzcz0iZXIgZW50aXR5TGFiZWwiPmhhc19waG90bzwvdGV4dD48cmVjdCBoZWlnaHQ9IjIyIiB3aWR0aD0iMjIuNjg3NjgzMTA1NDY4NzUiIHk9IjkwIiB4PSIxNzkuOTc4MzYzMDM3MTA5MzgiIGNsYXNzPSJlciBhdHRyaWJ1dGVCb3hFdmVuIj48L3JlY3Q+PHRleHQgc3R5bGU9ImRvbWluYW50LWJhc2VsaW5lOiBtaWRkbGU7IGZvbnQtc2l6ZTogMTAuMnB4OyIgdHJhbnNmb3JtPSJ0cmFuc2xhdGUoMTg0Ljk3ODM2MzAzNzEwOTM4LDEwMSkiIHk9IjAiIHg9IjAiIGlkPSJ0ZXh0LWVudGl0eS1UQUJMQUZJTkFMLWQxYzQ3YTM3LThiYzQtNTYzNi05NWNmLWQ1NmIyMDk5MDNmYy1hdHRyLTQta2V5IiBjbGFzcz0iZXIgZW50aXR5TGFiZWwiPjwvdGV4dD48cmVjdCBoZWlnaHQ9IjIyIiB3aWR0aD0iNDMuMTEyNTY0MDg2OTE0MDYiIHk9IjExMiIgeD0iMCIgY2xhc3M9ImVyIGF0dHJpYnV0ZUJveE9kZCI+PC9yZWN0Pjx0ZXh0IHN0eWxlPSJkb21pbmFudC1iYXNlbGluZTogbWlkZGxlOyBmb250LXNpemU6IDEwLjJweDsiIHRyYW5zZm9ybT0idHJhbnNsYXRlKDUsMTIzKSIgeT0iMCIgeD0iMCIgaWQ9InRleHQtZW50aXR5LVRBQkxBRklOQUwtZDFjNDdhMzctOGJjNC01NjM2LTk1Y2YtZDU2YjIwOTkwM2ZjLWF0dHItNS10eXBlIiBjbGFzcz0iZXIgZW50aXR5TGFiZWwiPkZMT0FUPC90ZXh0PjxyZWN0IGhlaWdodD0iMjIiIHdpZHRoPSIxMzYuODY1Nzk4OTUwMTk1MyIgeT0iMTEyIiB4PSI0My4xMTI1NjQwODY5MTQwNiIgY2xhc3M9ImVyIGF0dHJpYnV0ZUJveE9kZCI+PC9yZWN0Pjx0ZXh0IHN0eWxlPSJkb21pbmFudC1iYXNlbGluZTogbWlkZGxlOyBmb250LXNpemU6IDEwLjJweDsiIHRyYW5zZm9ybT0idHJhbnNsYXRlKDQ4LjExMjU2NDA4NjkxNDA2LDEyMykiIHk9IjAiIHg9IjAiIGlkPSJ0ZXh0LWVudGl0eS1UQUJMQUZJTkFMLWQxYzQ3YTM3LThiYzQtNTYzNi05NWNmLWQ1NmIyMDk5MDNmYy1hdHRyLTUtbmFtZSIgY2xhc3M9ImVyIGVudGl0eUxhYmVsIj5jYW5fcG9zdF9vbl93YWxsPC90ZXh0PjxyZWN0IGhlaWdodD0iMjIiIHdpZHRoPSIyMi42ODc2ODMxMDU0Njg3NSIgeT0iMTEyIiB4PSIxNzkuOTc4MzYzMDM3MTA5MzgiIGNsYXNzPSJlciBhdHRyaWJ1dGVCb3hPZGQiPjwvcmVjdD48dGV4dCBzdHlsZT0iZG9taW5hbnQtYmFzZWxpbmU6IG1pZGRsZTsgZm9udC1zaXplOiAxMC4ycHg7IiB0cmFuc2Zvcm09InRyYW5zbGF0ZSgxODQuOTc4MzYzMDM3MTA5MzgsMTIzKSIgeT0iMCIgeD0iMCIgaWQ9InRleHQtZW50aXR5LVRBQkxBRklOQUwtZDFjNDdhMzctOGJjNC01NjM2LTk1Y2YtZDU2YjIwOTkwM2ZjLWF0dHItNS1rZXkiIGNsYXNzPSJlciBlbnRpdHlMYWJlbCI+PC90ZXh0PjxyZWN0IGhlaWdodD0iMjIiIHdpZHRoPSI0My4xMTI1NjQwODY5MTQwNiIgeT0iMTM0IiB4PSIwIiBjbGFzcz0iZXIgYXR0cmlidXRlQm94RXZlbiI+PC9yZWN0Pjx0ZXh0IHN0eWxlPSJkb21pbmFudC1iYXNlbGluZTogbWlkZGxlOyBmb250LXNpemU6IDEwLjJweDsiIHRyYW5zZm9ybT0idHJhbnNsYXRlKDUsMTQ1KSIgeT0iMCIgeD0iMCIgaWQ9InRleHQtZW50aXR5LVRBQkxBRklOQUwtZDFjNDdhMzctOGJjNC01NjM2LTk1Y2YtZDU2YjIwOTkwM2ZjLWF0dHItNi10eXBlIiBjbGFzcz0iZXIgZW50aXR5TGFiZWwiPkZMT0FUPC90ZXh0PjxyZWN0IGhlaWdodD0iMjIiIHdpZHRoPSIxMzYuODY1Nzk4OTUwMTk1MyIgeT0iMTM0IiB4PSI0My4xMTI1NjQwODY5MTQwNiIgY2xhc3M9ImVyIGF0dHJpYnV0ZUJveEV2ZW4iPjwvcmVjdD48dGV4dCBzdHlsZT0iZG9taW5hbnQtYmFzZWxpbmU6IG1pZGRsZTsgZm9udC1zaXplOiAxMC4ycHg7IiB0cmFuc2Zvcm09InRyYW5zbGF0ZSg0OC4xMTI1NjQwODY5MTQwNiwxNDUpIiB5PSIwIiB4PSIwIiBpZD0idGV4dC1lbnRpdHktVEFCTEFGSU5BTC1kMWM0N2EzNy04YmM0LTU2MzYtOTVjZi1kNTZiMjA5OTAzZmMtYXR0ci02LW5hbWUiIGNsYXNzPSJlciBlbnRpdHlMYWJlbCI+Y2FuX3NlbmRfbWVzc2FnZTwvdGV4dD48cmVjdCBoZWlnaHQ9IjIyIiB3aWR0aD0iMjIuNjg3NjgzMTA1NDY4NzUiIHk9IjEzNCIgeD0iMTc5Ljk3ODM2MzAzNzEwOTM4IiBjbGFzcz0iZXIgYXR0cmlidXRlQm94RXZlbiI+PC9yZWN0Pjx0ZXh0IHN0eWxlPSJkb21pbmFudC1iYXNlbGluZTogbWlkZGxlOyBmb250LXNpemU6IDEwLjJweDsiIHRyYW5zZm9ybT0idHJhbnNsYXRlKDE4NC45NzgzNjMwMzcxMDkzOCwxNDUpIiB5PSIwIiB4PSIwIiBpZD0idGV4dC1lbnRpdHktVEFCTEFGSU5BTC1kMWM0N2EzNy04YmM0LTU2MzYtOTVjZi1kNTZiMjA5OTAzZmMtYXR0ci02LWtleSIgY2xhc3M9ImVyIGVudGl0eUxhYmVsIj48L3RleHQ+PHJlY3QgaGVpZ2h0PSIyMiIgd2lkdGg9IjQzLjExMjU2NDA4NjkxNDA2IiB5PSIxNTYiIHg9IjAiIGNsYXNzPSJlciBhdHRyaWJ1dGVCb3hPZGQiPjwvcmVjdD48dGV4dCBzdHlsZT0iZG9taW5hbnQtYmFzZWxpbmU6IG1pZGRsZTsgZm9udC1zaXplOiAxMC4ycHg7IiB0cmFuc2Zvcm09InRyYW5zbGF0ZSg1LDE2NykiIHk9IjAiIHg9IjAiIGlkPSJ0ZXh0LWVudGl0eS1UQUJMQUZJTkFMLWQxYzQ3YTM3LThiYzQtNTYzNi05NWNmLWQ1NmIyMDk5MDNmYy1hdHRyLTctdHlwZSIgY2xhc3M9ImVyIGVudGl0eUxhYmVsIj5GTE9BVDwvdGV4dD48cmVjdCBoZWlnaHQ9IjIyIiB3aWR0aD0iMTM2Ljg2NTc5ODk1MDE5NTMiIHk9IjE1NiIgeD0iNDMuMTEyNTY0MDg2OTE0MDYiIGNsYXNzPSJlciBhdHRyaWJ1dGVCb3hPZGQiPjwvcmVjdD48dGV4dCBzdHlsZT0iZG9taW5hbnQtYmFzZWxpbmU6IG1pZGRsZTsgZm9udC1zaXplOiAxMC4ycHg7IiB0cmFuc2Zvcm09InRyYW5zbGF0ZSg0OC4xMTI1NjQwODY5MTQwNiwxNjcpIiB5PSIwIiB4PSIwIiBpZD0idGV4dC1lbnRpdHktVEFCTEFGSU5BTC1kMWM0N2EzNy04YmM0LTU2MzYtOTVjZi1kNTZiMjA5OTAzZmMtYXR0ci03LW5hbWUiIGNsYXNzPSJlciBlbnRpdHlMYWJlbCI+aGFzX3dlYnNpdGU8L3RleHQ+PHJlY3QgaGVpZ2h0PSIyMiIgd2lkdGg9IjIyLjY4NzY4MzEwNTQ2ODc1IiB5PSIxNTYiIHg9IjE3OS45NzgzNjMwMzcxMDkzOCIgY2xhc3M9ImVyIGF0dHJpYnV0ZUJveE9kZCI+PC9yZWN0Pjx0ZXh0IHN0eWxlPSJkb21pbmFudC1iYXNlbGluZTogbWlkZGxlOyBmb250LXNpemU6IDEwLjJweDsiIHRyYW5zZm9ybT0idHJhbnNsYXRlKDE4NC45NzgzNjMwMzcxMDkzOCwxNjcpIiB5PSIwIiB4PSIwIiBpZD0idGV4dC1lbnRpdHktVEFCTEFGSU5BTC1kMWM0N2EzNy04YmM0LTU2MzYtOTVjZi1kNTZiMjA5OTAzZmMtYXR0ci03LWtleSIgY2xhc3M9ImVyIGVudGl0eUxhYmVsIj48L3RleHQ+PHJlY3QgaGVpZ2h0PSIyMiIgd2lkdGg9IjQzLjExMjU2NDA4NjkxNDA2IiB5PSIxNzgiIHg9IjAiIGNsYXNzPSJlciBhdHRyaWJ1dGVCb3hFdmVuIj48L3JlY3Q+PHRleHQgc3R5bGU9ImRvbWluYW50LWJhc2VsaW5lOiBtaWRkbGU7IGZvbnQtc2l6ZTogMTAuMnB4OyIgdHJhbnNmb3JtPSJ0cmFuc2xhdGUoNSwxODkpIiB5PSIwIiB4PSIwIiBpZD0idGV4dC1lbnRpdHktVEFCTEFGSU5BTC1kMWM0N2EzNy04YmM0LTU2MzYtOTVjZi1kNTZiMjA5OTAzZmMtYXR0ci04LXR5cGUiIGNsYXNzPSJlciBlbnRpdHlMYWJlbCI+RkxPQVQ8L3RleHQ+PHJlY3QgaGVpZ2h0PSIyMiIgd2lkdGg9IjEzNi44NjU3OTg5NTAxOTUzIiB5PSIxNzgiIHg9IjQzLjExMjU2NDA4NjkxNDA2IiBjbGFzcz0iZXIgYXR0cmlidXRlQm94RXZlbiI+PC9yZWN0Pjx0ZXh0IHN0eWxlPSJkb21pbmFudC1iYXNlbGluZTogbWlkZGxlOyBmb250LXNpemU6IDEwLjJweDsiIHRyYW5zZm9ybT0idHJhbnNsYXRlKDQ4LjExMjU2NDA4NjkxNDA2LDE4OSkiIHk9IjAiIHg9IjAiIGlkPSJ0ZXh0LWVudGl0eS1UQUJMQUZJTkFMLWQxYzQ3YTM3LThiYzQtNTYzNi05NWNmLWQ1NmIyMDk5MDNmYy1hdHRyLTgtbmFtZSIgY2xhc3M9ImVyIGVudGl0eUxhYmVsIj5nZW5kZXI8L3RleHQ+PHJlY3QgaGVpZ2h0PSIyMiIgd2lkdGg9IjIyLjY4NzY4MzEwNTQ2ODc1IiB5PSIxNzgiIHg9IjE3OS45NzgzNjMwMzcxMDkzOCIgY2xhc3M9ImVyIGF0dHJpYnV0ZUJveEV2ZW4iPjwvcmVjdD48dGV4dCBzdHlsZT0iZG9taW5hbnQtYmFzZWxpbmU6IG1pZGRsZTsgZm9udC1zaXplOiAxMC4ycHg7IiB0cmFuc2Zvcm09InRyYW5zbGF0ZSgxODQuOTc4MzYzMDM3MTA5MzgsMTg5KSIgeT0iMCIgeD0iMCIgaWQ9InRleHQtZW50aXR5LVRBQkxBRklOQUwtZDFjNDdhMzctOGJjNC01NjM2LTk1Y2YtZDU2YjIwOTkwM2ZjLWF0dHItOC1rZXkiIGNsYXNzPSJlciBlbnRpdHlMYWJlbCI+PC90ZXh0PjxyZWN0IGhlaWdodD0iMjIiIHdpZHRoPSI0My4xMTI1NjQwODY5MTQwNiIgeT0iMjAwIiB4PSIwIiBjbGFzcz0iZXIgYXR0cmlidXRlQm94T2RkIj48L3JlY3Q+PHRleHQgc3R5bGU9ImRvbWluYW50LWJhc2VsaW5lOiBtaWRkbGU7IGZvbnQtc2l6ZTogMTAuMnB4OyIgdHJhbnNmb3JtPSJ0cmFuc2xhdGUoNSwyMTEpIiB5PSIwIiB4PSIwIiBpZD0idGV4dC1lbnRpdHktVEFCTEFGSU5BTC1kMWM0N2EzNy04YmM0LTU2MzYtOTVjZi1kNTZiMjA5OTAzZmMtYXR0ci05LXR5cGUiIGNsYXNzPSJlciBlbnRpdHlMYWJlbCI+RkxPQVQ8L3RleHQ+PHJlY3QgaGVpZ2h0PSIyMiIgd2lkdGg9IjEzNi44NjU3OTg5NTAxOTUzIiB5PSIyMDAiIHg9IjQzLjExMjU2NDA4NjkxNDA2IiBjbGFzcz0iZXIgYXR0cmlidXRlQm94T2RkIj48L3JlY3Q+PHRleHQgc3R5bGU9ImRvbWluYW50LWJhc2VsaW5lOiBtaWRkbGU7IGZvbnQtc2l6ZTogMTAuMnB4OyIgdHJhbnNmb3JtPSJ0cmFuc2xhdGUoNDguMTEyNTY0MDg2OTE0MDYsMjExKSIgeT0iMCIgeD0iMCIgaWQ9InRleHQtZW50aXR5LVRBQkxBRklOQUwtZDFjNDdhMzctOGJjNC01NjM2LTk1Y2YtZDU2YjIwOTkwM2ZjLWF0dHItOS1uYW1lIiBjbGFzcz0iZXIgZW50aXR5TGFiZWwiPmhhc19zaG9ydF9uYW1lPC90ZXh0PjxyZWN0IGhlaWdodD0iMjIiIHdpZHRoPSIyMi42ODc2ODMxMDU0Njg3NSIgeT0iMjAwIiB4PSIxNzkuOTc4MzYzMDM3MTA5MzgiIGNsYXNzPSJlciBhdHRyaWJ1dGVCb3hPZGQiPjwvcmVjdD48dGV4dCBzdHlsZT0iZG9taW5hbnQtYmFzZWxpbmU6IG1pZGRsZTsgZm9udC1zaXplOiAxMC4ycHg7IiB0cmFuc2Zvcm09InRyYW5zbGF0ZSgxODQuOTc4MzYzMDM3MTA5MzgsMjExKSIgeT0iMCIgeD0iMCIgaWQ9InRleHQtZW50aXR5LVRBQkxBRklOQUwtZDFjNDdhMzctOGJjNC01NjM2LTk1Y2YtZDU2YjIwOTkwM2ZjLWF0dHItOS1rZXkiIGNsYXNzPSJlciBlbnRpdHlMYWJlbCI+PC90ZXh0PjxyZWN0IGhlaWdodD0iMjIiIHdpZHRoPSI0My4xMTI1NjQwODY5MTQwNiIgeT0iMjIyIiB4PSIwIiBjbGFzcz0iZXIgYXR0cmlidXRlQm94RXZlbiI+PC9yZWN0Pjx0ZXh0IHN0eWxlPSJkb21pbmFudC1iYXNlbGluZTogbWlkZGxlOyBmb250LXNpemU6IDEwLjJweDsiIHRyYW5zZm9ybT0idHJhbnNsYXRlKDUsMjMzKSIgeT0iMCIgeD0iMCIgaWQ9InRleHQtZW50aXR5LVRBQkxBRklOQUwtZDFjNDdhMzctOGJjNC01NjM2LTk1Y2YtZDU2YjIwOTkwM2ZjLWF0dHItMTAtdHlwZSIgY2xhc3M9ImVyIGVudGl0eUxhYmVsIj5GTE9BVDwvdGV4dD48cmVjdCBoZWlnaHQ9IjIyIiB3aWR0aD0iMTM2Ljg2NTc5ODk1MDE5NTMiIHk9IjIyMiIgeD0iNDMuMTEyNTY0MDg2OTE0MDYiIGNsYXNzPSJlciBhdHRyaWJ1dGVCb3hFdmVuIj48L3JlY3Q+PHRleHQgc3R5bGU9ImRvbWluYW50LWJhc2VsaW5lOiBtaWRkbGU7IGZvbnQtc2l6ZTogMTAuMnB4OyIgdHJhbnNmb3JtPSJ0cmFuc2xhdGUoNDguMTEyNTY0MDg2OTE0MDYsMjMzKSIgeT0iMCIgeD0iMCIgaWQ9InRleHQtZW50aXR5LVRBQkxBRklOQUwtZDFjNDdhMzctOGJjNC01NjM2LTk1Y2YtZDU2YjIwOTkwM2ZjLWF0dHItMTAtbmFtZSIgY2xhc3M9ImVyIGVudGl0eUxhYmVsIj5oYXNfZmlyc3RfbmFtZTwvdGV4dD48cmVjdCBoZWlnaHQ9IjIyIiB3aWR0aD0iMjIuNjg3NjgzMTA1NDY4NzUiIHk9IjIyMiIgeD0iMTc5Ljk3ODM2MzAzNzEwOTM4IiBjbGFzcz0iZXIgYXR0cmlidXRlQm94RXZlbiI+PC9yZWN0Pjx0ZXh0IHN0eWxlPSJkb21pbmFudC1iYXNlbGluZTogbWlkZGxlOyBmb250LXNpemU6IDEwLjJweDsiIHRyYW5zZm9ybT0idHJhbnNsYXRlKDE4NC45NzgzNjMwMzcxMDkzOCwyMzMpIiB5PSIwIiB4PSIwIiBpZD0idGV4dC1lbnRpdHktVEFCTEFGSU5BTC1kMWM0N2EzNy04YmM0LTU2MzYtOTVjZi1kNTZiMjA5OTAzZmMtYXR0ci0xMC1rZXkiIGNsYXNzPSJlciBlbnRpdHlMYWJlbCI+PC90ZXh0PjxyZWN0IGhlaWdodD0iMjIiIHdpZHRoPSI0My4xMTI1NjQwODY5MTQwNiIgeT0iMjQ0IiB4PSIwIiBjbGFzcz0iZXIgYXR0cmlidXRlQm94T2RkIj48L3JlY3Q+PHRleHQgc3R5bGU9ImRvbWluYW50LWJhc2VsaW5lOiBtaWRkbGU7IGZvbnQtc2l6ZTogMTAuMnB4OyIgdHJhbnNmb3JtPSJ0cmFuc2xhdGUoNSwyNTUpIiB5PSIwIiB4PSIwIiBpZD0idGV4dC1lbnRpdHktVEFCTEFGSU5BTC1kMWM0N2EzNy04YmM0LTU2MzYtOTVjZi1kNTZiMjA5OTAzZmMtYXR0ci0xMS10eXBlIiBjbGFzcz0iZXIgZW50aXR5TGFiZWwiPkZMT0FUPC90ZXh0PjxyZWN0IGhlaWdodD0iMjIiIHdpZHRoPSIxMzYuODY1Nzk4OTUwMTk1MyIgeT0iMjQ0IiB4PSI0My4xMTI1NjQwODY5MTQwNiIgY2xhc3M9ImVyIGF0dHJpYnV0ZUJveE9kZCI+PC9yZWN0Pjx0ZXh0IHN0eWxlPSJkb21pbmFudC1iYXNlbGluZTogbWlkZGxlOyBmb250LXNpemU6IDEwLjJweDsiIHRyYW5zZm9ybT0idHJhbnNsYXRlKDQ4LjExMjU2NDA4NjkxNDA2LDI1NSkiIHk9IjAiIHg9IjAiIGlkPSJ0ZXh0LWVudGl0eS1UQUJMQUZJTkFMLWQxYzQ3YTM3LThiYzQtNTYzNi05NWNmLWQ1NmIyMDk5MDNmYy1hdHRyLTExLW5hbWUiIGNsYXNzPSJlciBlbnRpdHlMYWJlbCI+aGFzX2xhc3RfbmFtZTwvdGV4dD48cmVjdCBoZWlnaHQ9IjIyIiB3aWR0aD0iMjIuNjg3NjgzMTA1NDY4NzUiIHk9IjI0NCIgeD0iMTc5Ljk3ODM2MzAzNzEwOTM4IiBjbGFzcz0iZXIgYXR0cmlidXRlQm94T2RkIj48L3JlY3Q+PHRleHQgc3R5bGU9ImRvbWluYW50LWJhc2VsaW5lOiBtaWRkbGU7IGZvbnQtc2l6ZTogMTAuMnB4OyIgdHJhbnNmb3JtPSJ0cmFuc2xhdGUoMTg0Ljk3ODM2MzAzNzEwOTM4LDI1NSkiIHk9IjAiIHg9IjAiIGlkPSJ0ZXh0LWVudGl0eS1UQUJMQUZJTkFMLWQxYzQ3YTM3LThiYzQtNTYzNi05NWNmLWQ1NmIyMDk5MDNmYy1hdHRyLTExLWtleSIgY2xhc3M9ImVyIGVudGl0eUxhYmVsIj48L3RleHQ+PHJlY3QgaGVpZ2h0PSIyMiIgd2lkdGg9IjQzLjExMjU2NDA4NjkxNDA2IiB5PSIyNjYiIHg9IjAiIGNsYXNzPSJlciBhdHRyaWJ1dGVCb3hFdmVuIj48L3JlY3Q+PHRleHQgc3R5bGU9ImRvbWluYW50LWJhc2VsaW5lOiBtaWRkbGU7IGZvbnQtc2l6ZTogMTAuMnB4OyIgdHJhbnNmb3JtPSJ0cmFuc2xhdGUoNSwyNzcpIiB5PSIwIiB4PSIwIiBpZD0idGV4dC1lbnRpdHktVEFCTEFGSU5BTC1kMWM0N2EzNy04YmM0LTU2MzYtOTVjZi1kNTZiMjA5OTAzZmMtYXR0ci0xMi10eXBlIiBjbGFzcz0iZXIgZW50aXR5TGFiZWwiPkZMT0FUPC90ZXh0PjxyZWN0IGhlaWdodD0iMjIiIHdpZHRoPSIxMzYuODY1Nzk4OTUwMTk1MyIgeT0iMjY2IiB4PSI0My4xMTI1NjQwODY5MTQwNiIgY2xhc3M9ImVyIGF0dHJpYnV0ZUJveEV2ZW4iPjwvcmVjdD48dGV4dCBzdHlsZT0iZG9taW5hbnQtYmFzZWxpbmU6IG1pZGRsZTsgZm9udC1zaXplOiAxMC4ycHg7IiB0cmFuc2Zvcm09InRyYW5zbGF0ZSg0OC4xMTI1NjQwODY5MTQwNiwyNzcpIiB5PSIwIiB4PSIwIiBpZD0idGV4dC1lbnRpdHktVEFCTEFGSU5BTC1kMWM0N2EzNy04YmM0LTU2MzYtOTVjZi1kNTZiMjA5OTAzZmMtYXR0ci0xMi1uYW1lIiBjbGFzcz0iZXIgZW50aXR5TGFiZWwiPmFjY2Vzc190b19jbG9zZWRfcHJvZmlsZTwvdGV4dD48cmVjdCBoZWlnaHQ9IjIyIiB3aWR0aD0iMjIuNjg3NjgzMTA1NDY4NzUiIHk9IjI2NiIgeD0iMTc5Ljk3ODM2MzAzNzEwOTM4IiBjbGFzcz0iZXIgYXR0cmlidXRlQm94RXZlbiI+PC9yZWN0Pjx0ZXh0IHN0eWxlPSJkb21pbmFudC1iYXNlbGluZTogbWlkZGxlOyBmb250LXNpemU6IDEwLjJweDsiIHRyYW5zZm9ybT0idHJhbnNsYXRlKDE4NC45NzgzNjMwMzcxMDkzOCwyNzcpIiB5PSIwIiB4PSIwIiBpZD0idGV4dC1lbnRpdHktVEFCTEFGSU5BTC1kMWM0N2EzNy04YmM0LTU2MzYtOTVjZi1kNTZiMjA5OTAzZmMtYXR0ci0xMi1rZXkiIGNsYXNzPSJlciBlbnRpdHlMYWJlbCI+PC90ZXh0PjxyZWN0IGhlaWdodD0iMjIiIHdpZHRoPSI0My4xMTI1NjQwODY5MTQwNiIgeT0iMjg4IiB4PSIwIiBjbGFzcz0iZXIgYXR0cmlidXRlQm94T2RkIj48L3JlY3Q+PHRleHQgc3R5bGU9ImRvbWluYW50LWJhc2VsaW5lOiBtaWRkbGU7IGZvbnQtc2l6ZTogMTAuMnB4OyIgdHJhbnNmb3JtPSJ0cmFuc2xhdGUoNSwyOTkpIiB5PSIwIiB4PSIwIiBpZD0idGV4dC1lbnRpdHktVEFCTEFGSU5BTC1kMWM0N2EzNy04YmM0LTU2MzYtOTVjZi1kNTZiMjA5OTAzZmMtYXR0ci0xMy10eXBlIiBjbGFzcz0iZXIgZW50aXR5TGFiZWwiPkZMT0FUPC90ZXh0PjxyZWN0IGhlaWdodD0iMjIiIHdpZHRoPSIxMzYuODY1Nzk4OTUwMTk1MyIgeT0iMjg4IiB4PSI0My4xMTI1NjQwODY5MTQwNiIgY2xhc3M9ImVyIGF0dHJpYnV0ZUJveE9kZCI+PC9yZWN0Pjx0ZXh0IHN0eWxlPSJkb21pbmFudC1iYXNlbGluZTogbWlkZGxlOyBmb250LXNpemU6IDEwLjJweDsiIHRyYW5zZm9ybT0idHJhbnNsYXRlKDQ4LjExMjU2NDA4NjkxNDA2LDI5OSkiIHk9IjAiIHg9IjAiIGlkPSJ0ZXh0LWVudGl0eS1UQUJMQUZJTkFMLWQxYzQ3YTM3LThiYzQtNTYzNi05NWNmLWQ1NmIyMDk5MDNmYy1hdHRyLTEzLW5hbWUiIGNsYXNzPSJlciBlbnRpdHlMYWJlbCI+aXNfcHJvZmlsZV9jbG9zZWQ8L3RleHQ+PHJlY3QgaGVpZ2h0PSIyMiIgd2lkdGg9IjIyLjY4NzY4MzEwNTQ2ODc1IiB5PSIyODgiIHg9IjE3OS45NzgzNjMwMzcxMDkzOCIgY2xhc3M9ImVyIGF0dHJpYnV0ZUJveE9kZCI+PC9yZWN0Pjx0ZXh0IHN0eWxlPSJkb21pbmFudC1iYXNlbGluZTogbWlkZGxlOyBmb250LXNpemU6IDEwLjJweDsiIHRyYW5zZm9ybT0idHJhbnNsYXRlKDE4NC45NzgzNjMwMzcxMDkzOCwyOTkpIiB5PSIwIiB4PSIwIiBpZD0idGV4dC1lbnRpdHktVEFCTEFGSU5BTC1kMWM0N2EzNy04YmM0LTU2MzYtOTVjZi1kNTZiMjA5OTAzZmMtYXR0ci0xMy1rZXkiIGNsYXNzPSJlciBlbnRpdHlMYWJlbCI+PC90ZXh0PjxyZWN0IGhlaWdodD0iMjIiIHdpZHRoPSI0My4xMTI1NjQwODY5MTQwNiIgeT0iMzEwIiB4PSIwIiBjbGFzcz0iZXIgYXR0cmlidXRlQm94RXZlbiI+PC9yZWN0Pjx0ZXh0IHN0eWxlPSJkb21pbmFudC1iYXNlbGluZTogbWlkZGxlOyBmb250LXNpemU6IDEwLjJweDsiIHRyYW5zZm9ybT0idHJhbnNsYXRlKDUsMzIxKSIgeT0iMCIgeD0iMCIgaWQ9InRleHQtZW50aXR5LVRBQkxBRklOQUwtZDFjNDdhMzctOGJjNC01NjM2LTk1Y2YtZDU2YjIwOTkwM2ZjLWF0dHItMTQtdHlwZSIgY2xhc3M9ImVyIGVudGl0eUxhYmVsIj5JTlQ8L3RleHQ+PHJlY3QgaGVpZ2h0PSIyMiIgd2lkdGg9IjEzNi44NjU3OTg5NTAxOTUzIiB5PSIzMTAiIHg9IjQzLjExMjU2NDA4NjkxNDA2IiBjbGFzcz0iZXIgYXR0cmlidXRlQm94RXZlbiI+PC9yZWN0Pjx0ZXh0IHN0eWxlPSJkb21pbmFudC1iYXNlbGluZTogbWlkZGxlOyBmb250LXNpemU6IDEwLjJweDsiIHRyYW5zZm9ybT0idHJhbnNsYXRlKDQ4LjExMjU2NDA4NjkxNDA2LDMyMSkiIHk9IjAiIHg9IjAiIGlkPSJ0ZXh0LWVudGl0eS1UQUJMQUZJTkFMLWQxYzQ3YTM3LThiYzQtNTYzNi05NWNmLWQ1NmIyMDk5MDNmYy1hdHRyLTE0LW5hbWUiIGNsYXNzPSJlciBlbnRpdHlMYWJlbCI+dGFyZ2V0PC90ZXh0PjxyZWN0IGhlaWdodD0iMjIiIHdpZHRoPSIyMi42ODc2ODMxMDU0Njg3NSIgeT0iMzEwIiB4PSIxNzkuOTc4MzYzMDM3MTA5MzgiIGNsYXNzPSJlciBhdHRyaWJ1dGVCb3hFdmVuIj48L3JlY3Q+PHRleHQgc3R5bGU9ImRvbWluYW50LWJhc2VsaW5lOiBtaWRkbGU7IGZvbnQtc2l6ZTogMTAuMnB4OyIgdHJhbnNmb3JtPSJ0cmFuc2xhdGUoMTg0Ljk3ODM2MzAzNzEwOTM4LDMyMSkiIHk9IjAiIHg9IjAiIGlkPSJ0ZXh0LWVudGl0eS1UQUJMQUZJTkFMLWQxYzQ3YTM3LThiYzQtNTYzNi05NWNmLWQ1NmIyMDk5MDNmYy1hdHRyLTE0LWtleSIgY2xhc3M9ImVyIGVudGl0eUxhYmVsIj48L3RleHQ+PHJlY3QgaGVpZ2h0PSIyMiIgd2lkdGg9IjQzLjExMjU2NDA4NjkxNDA2IiB5PSIzMzIiIHg9IjAiIGNsYXNzPSJlciBhdHRyaWJ1dGVCb3hPZGQiPjwvcmVjdD48dGV4dCBzdHlsZT0iZG9taW5hbnQtYmFzZWxpbmU6IG1pZGRsZTsgZm9udC1zaXplOiAxMC4ycHg7IiB0cmFuc2Zvcm09InRyYW5zbGF0ZSg1LDM0MykiIHk9IjAiIHg9IjAiIGlkPSJ0ZXh0LWVudGl0eS1UQUJMQUZJTkFMLWQxYzQ3YTM3LThiYzQtNTYzNi05NWNmLWQ1NmIyMDk5MDNmYy1hdHRyLTE1LXR5cGUiIGNsYXNzPSJlciBlbnRpdHlMYWJlbCI+U1RSSU5HPC90ZXh0PjxyZWN0IGhlaWdodD0iMjIiIHdpZHRoPSIxMzYuODY1Nzk4OTUwMTk1MyIgeT0iMzMyIiB4PSI0My4xMTI1NjQwODY5MTQwNiIgY2xhc3M9ImVyIGF0dHJpYnV0ZUJveE9kZCI+PC9yZWN0Pjx0ZXh0IHN0eWxlPSJkb21pbmFudC1iYXNlbGluZTogbWlkZGxlOyBmb250LXNpemU6IDEwLjJweDsiIHRyYW5zZm9ybT0idHJhbnNsYXRlKDQ4LjExMjU2NDA4NjkxNDA2LDM0MykiIHk9IjAiIHg9IjAiIGlkPSJ0ZXh0LWVudGl0eS1UQUJMQUZJTkFMLWQxYzQ3YTM3LThiYzQtNTYzNi05NWNmLWQ1NmIyMDk5MDNmYy1hdHRyLTE1LW5hbWUiIGNsYXNzPSJlciBlbnRpdHlMYWJlbCI+aGFzX25pY2tuYW1lPC90ZXh0PjxyZWN0IGhlaWdodD0iMjIiIHdpZHRoPSIyMi42ODc2ODMxMDU0Njg3NSIgeT0iMzMyIiB4PSIxNzkuOTc4MzYzMDM3MTA5MzgiIGNsYXNzPSJlciBhdHRyaWJ1dGVCb3hPZGQiPjwvcmVjdD48dGV4dCBzdHlsZT0iZG9taW5hbnQtYmFzZWxpbmU6IG1pZGRsZTsgZm9udC1zaXplOiAxMC4ycHg7IiB0cmFuc2Zvcm09InRyYW5zbGF0ZSgxODQuOTc4MzYzMDM3MTA5MzgsMzQzKSIgeT0iMCIgeD0iMCIgaWQ9InRleHQtZW50aXR5LVRBQkxBRklOQUwtZDFjNDdhMzctOGJjNC01NjM2LTk1Y2YtZDU2YjIwOTkwM2ZjLWF0dHItMTUta2V5IiBjbGFzcz0iZXIgZW50aXR5TGFiZWwiPjwvdGV4dD48cmVjdCBoZWlnaHQ9IjIyIiB3aWR0aD0iNDMuMTEyNTY0MDg2OTE0MDYiIHk9IjM1NCIgeD0iMCIgY2xhc3M9ImVyIGF0dHJpYnV0ZUJveEV2ZW4iPjwvcmVjdD48dGV4dCBzdHlsZT0iZG9taW5hbnQtYmFzZWxpbmU6IG1pZGRsZTsgZm9udC1zaXplOiAxMC4ycHg7IiB0cmFuc2Zvcm09InRyYW5zbGF0ZSg1LDM2NSkiIHk9IjAiIHg9IjAiIGlkPSJ0ZXh0LWVudGl0eS1UQUJMQUZJTkFMLWQxYzQ3YTM3LThiYzQtNTYzNi05NWNmLWQ1NmIyMDk5MDNmYy1hdHRyLTE2LXR5cGUiIGNsYXNzPSJlciBlbnRpdHlMYWJlbCI+U1RSSU5HPC90ZXh0PjxyZWN0IGhlaWdodD0iMjIiIHdpZHRoPSIxMzYuODY1Nzk4OTUwMTk1MyIgeT0iMzU0IiB4PSI0My4xMTI1NjQwODY5MTQwNiIgY2xhc3M9ImVyIGF0dHJpYnV0ZUJveEV2ZW4iPjwvcmVjdD48dGV4dCBzdHlsZT0iZG9taW5hbnQtYmFzZWxpbmU6IG1pZGRsZTsgZm9udC1zaXplOiAxMC4ycHg7IiB0cmFuc2Zvcm09InRyYW5zbGF0ZSg0OC4xMTI1NjQwODY5MTQwNiwzNjUpIiB5PSIwIiB4PSIwIiBpZD0idGV4dC1lbnRpdHktVEFCTEFGSU5BTC1kMWM0N2EzNy04YmM0LTU2MzYtOTVjZi1kNTZiMjA5OTAzZmMtYXR0ci0xNi1uYW1lIiBjbGFzcz0iZXIgZW50aXR5TGFiZWwiPmhhc19tYWlkZW5fbmFtZTwvdGV4dD48cmVjdCBoZWlnaHQ9IjIyIiB3aWR0aD0iMjIuNjg3NjgzMTA1NDY4NzUiIHk9IjM1NCIgeD0iMTc5Ljk3ODM2MzAzNzEwOTM4IiBjbGFzcz0iZXIgYXR0cmlidXRlQm94RXZlbiI+PC9yZWN0Pjx0ZXh0IHN0eWxlPSJkb21pbmFudC1iYXNlbGluZTogbWlkZGxlOyBmb250LXNpemU6IDEwLjJweDsiIHRyYW5zZm9ybT0idHJhbnNsYXRlKDE4NC45NzgzNjMwMzcxMDkzOCwzNjUpIiB5PSIwIiB4PSIwIiBpZD0idGV4dC1lbnRpdHktVEFCTEFGSU5BTC1kMWM0N2EzNy04YmM0LTU2MzYtOTVjZi1kNTZiMjA5OTAzZmMtYXR0ci0xNi1rZXkiIGNsYXNzPSJlciBlbnRpdHlMYWJlbCI+PC90ZXh0PjxyZWN0IGhlaWdodD0iMjIiIHdpZHRoPSI0My4xMTI1NjQwODY5MTQwNiIgeT0iMzc2IiB4PSIwIiBjbGFzcz0iZXIgYXR0cmlidXRlQm94T2RkIj48L3JlY3Q+PHRleHQgc3R5bGU9ImRvbWluYW50LWJhc2VsaW5lOiBtaWRkbGU7IGZvbnQtc2l6ZTogMTAuMnB4OyIgdHJhbnNmb3JtPSJ0cmFuc2xhdGUoNSwzODcpIiB5PSIwIiB4PSIwIiBpZD0idGV4dC1lbnRpdHktVEFCTEFGSU5BTC1kMWM0N2EzNy04YmM0LTU2MzYtOTVjZi1kNTZiMjA5OTAzZmMtYXR0ci0xNy10eXBlIiBjbGFzcz0iZXIgZW50aXR5TGFiZWwiPlNUUklORzwvdGV4dD48cmVjdCBoZWlnaHQ9IjIyIiB3aWR0aD0iMTM2Ljg2NTc5ODk1MDE5NTMiIHk9IjM3NiIgeD0iNDMuMTEyNTY0MDg2OTE0MDYiIGNsYXNzPSJlciBhdHRyaWJ1dGVCb3hPZGQiPjwvcmVjdD48dGV4dCBzdHlsZT0iZG9taW5hbnQtYmFzZWxpbmU6IG1pZGRsZTsgZm9udC1zaXplOiAxMC4ycHg7IiB0cmFuc2Zvcm09InRyYW5zbGF0ZSg0OC4xMTI1NjQwODY5MTQwNiwzODcpIiB5PSIwIiB4PSIwIiBpZD0idGV4dC1lbnRpdHktVEFCTEFGSU5BTC1kMWM0N2EzNy04YmM0LTU2MzYtOTVjZi1kNTZiMjA5OTAzZmMtYXR0ci0xNy1uYW1lIiBjbGFzcz0iZXIgZW50aXR5TGFiZWwiPmhhc19tb2JpbGU8L3RleHQ+PHJlY3QgaGVpZ2h0PSIyMiIgd2lkdGg9IjIyLjY4NzY4MzEwNTQ2ODc1IiB5PSIzNzYiIHg9IjE3OS45NzgzNjMwMzcxMDkzOCIgY2xhc3M9ImVyIGF0dHJpYnV0ZUJveE9kZCI+PC9yZWN0Pjx0ZXh0IHN0eWxlPSJkb21pbmFudC1iYXNlbGluZTogbWlkZGxlOyBmb250LXNpemU6IDEwLjJweDsiIHRyYW5zZm9ybT0idHJhbnNsYXRlKDE4NC45NzgzNjMwMzcxMDkzOCwzODcpIiB5PSIwIiB4PSIwIiBpZD0idGV4dC1lbnRpdHktVEFCTEFGSU5BTC1kMWM0N2EzNy04YmM0LTU2MzYtOTVjZi1kNTZiMjA5OTAzZmMtYXR0ci0xNy1rZXkiIGNsYXNzPSJlciBlbnRpdHlMYWJlbCI+PC90ZXh0PjxyZWN0IGhlaWdodD0iMjIiIHdpZHRoPSI0My4xMTI1NjQwODY5MTQwNiIgeT0iMzk4IiB4PSIwIiBjbGFzcz0iZXIgYXR0cmlidXRlQm94RXZlbiI+PC9yZWN0Pjx0ZXh0IHN0eWxlPSJkb21pbmFudC1iYXNlbGluZTogbWlkZGxlOyBmb250LXNpemU6IDEwLjJweDsiIHRyYW5zZm9ybT0idHJhbnNsYXRlKDUsNDA5KSIgeT0iMCIgeD0iMCIgaWQ9InRleHQtZW50aXR5LVRBQkxBRklOQUwtZDFjNDdhMzctOGJjNC01NjM2LTk1Y2YtZDU2YjIwOTkwM2ZjLWF0dHItMTgtdHlwZSIgY2xhc3M9ImVyIGVudGl0eUxhYmVsIj5TVFJJTkc8L3RleHQ+PHJlY3QgaGVpZ2h0PSIyMiIgd2lkdGg9IjEzNi44NjU3OTg5NTAxOTUzIiB5PSIzOTgiIHg9IjQzLjExMjU2NDA4NjkxNDA2IiBjbGFzcz0iZXIgYXR0cmlidXRlQm94RXZlbiI+PC9yZWN0Pjx0ZXh0IHN0eWxlPSJkb21pbmFudC1iYXNlbGluZTogbWlkZGxlOyBmb250LXNpemU6IDEwLjJweDsiIHRyYW5zZm9ybT0idHJhbnNsYXRlKDQ4LjExMjU2NDA4NjkxNDA2LDQwOSkiIHk9IjAiIHg9IjAiIGlkPSJ0ZXh0LWVudGl0eS1UQUJMQUZJTkFMLWQxYzQ3YTM3LThiYzQtNTYzNi05NWNmLWQ1NmIyMDk5MDNmYy1hdHRyLTE4LW5hbWUiIGNsYXNzPSJlciBlbnRpdHlMYWJlbCI+YWxsX3Bvc3RzX3Zpc2libGU8L3RleHQ+PHJlY3QgaGVpZ2h0PSIyMiIgd2lkdGg9IjIyLjY4NzY4MzEwNTQ2ODc1IiB5PSIzOTgiIHg9IjE3OS45NzgzNjMwMzcxMDkzOCIgY2xhc3M9ImVyIGF0dHJpYnV0ZUJveEV2ZW4iPjwvcmVjdD48dGV4dCBzdHlsZT0iZG9taW5hbnQtYmFzZWxpbmU6IG1pZGRsZTsgZm9udC1zaXplOiAxMC4ycHg7IiB0cmFuc2Zvcm09InRyYW5zbGF0ZSgxODQuOTc4MzYzMDM3MTA5MzgsNDA5KSIgeT0iMCIgeD0iMCIgaWQ9InRleHQtZW50aXR5LVRBQkxBRklOQUwtZDFjNDdhMzctOGJjNC01NjM2LTk1Y2YtZDU2YjIwOTkwM2ZjLWF0dHItMTgta2V5IiBjbGFzcz0iZXIgZW50aXR5TGFiZWwiPjwvdGV4dD48cmVjdCBoZWlnaHQ9IjIyIiB3aWR0aD0iNDMuMTEyNTY0MDg2OTE0MDYiIHk9IjQyMCIgeD0iMCIgY2xhc3M9ImVyIGF0dHJpYnV0ZUJveE9kZCI+PC9yZWN0Pjx0ZXh0IHN0eWxlPSJkb21pbmFudC1iYXNlbGluZTogbWlkZGxlOyBmb250LXNpemU6IDEwLjJweDsiIHRyYW5zZm9ybT0idHJhbnNsYXRlKDUsNDMxKSIgeT0iMCIgeD0iMCIgaWQ9InRleHQtZW50aXR5LVRBQkxBRklOQUwtZDFjNDdhMzctOGJjNC01NjM2LTk1Y2YtZDU2YjIwOTkwM2ZjLWF0dHItMTktdHlwZSIgY2xhc3M9ImVyIGVudGl0eUxhYmVsIj5TVFJJTkc8L3RleHQ+PHJlY3QgaGVpZ2h0PSIyMiIgd2lkdGg9IjEzNi44NjU3OTg5NTAxOTUzIiB5PSI0MjAiIHg9IjQzLjExMjU2NDA4NjkxNDA2IiBjbGFzcz0iZXIgYXR0cmlidXRlQm94T2RkIj48L3JlY3Q+PHRleHQgc3R5bGU9ImRvbWluYW50LWJhc2VsaW5lOiBtaWRkbGU7IGZvbnQtc2l6ZTogMTAuMnB4OyIgdHJhbnNmb3JtPSJ0cmFuc2xhdGUoNDguMTEyNTY0MDg2OTE0MDYsNDMxKSIgeT0iMCIgeD0iMCIgaWQ9InRleHQtZW50aXR5LVRBQkxBRklOQUwtZDFjNDdhMzctOGJjNC01NjM2LTk1Y2YtZDU2YjIwOTkwM2ZjLWF0dHItMTktbmFtZSIgY2xhc3M9ImVyIGVudGl0eUxhYmVsIj5hdWRpb19hdmFpbGFibGU8L3RleHQ+PHJlY3QgaGVpZ2h0PSIyMiIgd2lkdGg9IjIyLjY4NzY4MzEwNTQ2ODc1IiB5PSI0MjAiIHg9IjE3OS45NzgzNjMwMzcxMDkzOCIgY2xhc3M9ImVyIGF0dHJpYnV0ZUJveE9kZCI+PC9yZWN0Pjx0ZXh0IHN0eWxlPSJkb21pbmFudC1iYXNlbGluZTogbWlkZGxlOyBmb250LXNpemU6IDEwLjJweDsiIHRyYW5zZm9ybT0idHJhbnNsYXRlKDE4NC45NzgzNjMwMzcxMDkzOCw0MzEpIiB5PSIwIiB4PSIwIiBpZD0idGV4dC1lbnRpdHktVEFCTEFGSU5BTC1kMWM0N2EzNy04YmM0LTU2MzYtOTVjZi1kNTZiMjA5OTAzZmMtYXR0ci0xOS1rZXkiIGNsYXNzPSJlciBlbnRpdHlMYWJlbCI+PC90ZXh0PjxyZWN0IGhlaWdodD0iMjIiIHdpZHRoPSI0My4xMTI1NjQwODY5MTQwNiIgeT0iNDQyIiB4PSIwIiBjbGFzcz0iZXIgYXR0cmlidXRlQm94RXZlbiI+PC9yZWN0Pjx0ZXh0IHN0eWxlPSJkb21pbmFudC1iYXNlbGluZTogbWlkZGxlOyBmb250LXNpemU6IDEwLjJweDsiIHRyYW5zZm9ybT0idHJhbnNsYXRlKDUsNDUzKSIgeT0iMCIgeD0iMCIgaWQ9InRleHQtZW50aXR5LVRBQkxBRklOQUwtZDFjNDdhMzctOGJjNC01NjM2LTk1Y2YtZDU2YjIwOTkwM2ZjLWF0dHItMjAtdHlwZSIgY2xhc3M9ImVyIGVudGl0eUxhYmVsIj5TVFJJTkc8L3RleHQ+PHJlY3QgaGVpZ2h0PSIyMiIgd2lkdGg9IjEzNi44NjU3OTg5NTAxOTUzIiB5PSI0NDIiIHg9IjQzLjExMjU2NDA4NjkxNDA2IiBjbGFzcz0iZXIgYXR0cmlidXRlQm94RXZlbiI+PC9yZWN0Pjx0ZXh0IHN0eWxlPSJkb21pbmFudC1iYXNlbGluZTogbWlkZGxlOyBmb250LXNpemU6IDEwLjJweDsiIHRyYW5zZm9ybT0idHJhbnNsYXRlKDQ4LjExMjU2NDA4NjkxNDA2LDQ1MykiIHk9IjAiIHg9IjAiIGlkPSJ0ZXh0LWVudGl0eS1UQUJMQUZJTkFMLWQxYzQ3YTM3LThiYzQtNTYzNi05NWNmLWQ1NmIyMDk5MDNmYy1hdHRyLTIwLW5hbWUiIGNsYXNzPSJlciBlbnRpdHlMYWJlbCI+aGFzX2ludGVyZXN0czwvdGV4dD48cmVjdCBoZWlnaHQ9IjIyIiB3aWR0aD0iMjIuNjg3NjgzMTA1NDY4NzUiIHk9IjQ0MiIgeD0iMTc5Ljk3ODM2MzAzNzEwOTM4IiBjbGFzcz0iZXIgYXR0cmlidXRlQm94RXZlbiI+PC9yZWN0Pjx0ZXh0IHN0eWxlPSJkb21pbmFudC1iYXNlbGluZTogbWlkZGxlOyBmb250LXNpemU6IDEwLjJweDsiIHRyYW5zZm9ybT0idHJhbnNsYXRlKDE4NC45NzgzNjMwMzcxMDkzOCw0NTMpIiB5PSIwIiB4PSIwIiBpZD0idGV4dC1lbnRpdHktVEFCTEFGSU5BTC1kMWM0N2EzNy04YmM0LTU2MzYtOTVjZi1kNTZiMjA5OTAzZmMtYXR0ci0yMC1rZXkiIGNsYXNzPSJlciBlbnRpdHlMYWJlbCI+PC90ZXh0PjxyZWN0IGhlaWdodD0iMjIiIHdpZHRoPSI0My4xMTI1NjQwODY5MTQwNiIgeT0iNDY0IiB4PSIwIiBjbGFzcz0iZXIgYXR0cmlidXRlQm94T2RkIj48L3JlY3Q+PHRleHQgc3R5bGU9ImRvbWluYW50LWJhc2VsaW5lOiBtaWRkbGU7IGZvbnQtc2l6ZTogMTAuMnB4OyIgdHJhbnNmb3JtPSJ0cmFuc2xhdGUoNSw0NzUpIiB5PSIwIiB4PSIwIiBpZD0idGV4dC1lbnRpdHktVEFCTEFGSU5BTC1kMWM0N2EzNy04YmM0LTU2MzYtOTVjZi1kNTZiMjA5OTAzZmMtYXR0ci0yMS10eXBlIiBjbGFzcz0iZXIgZW50aXR5TGFiZWwiPlNUUklORzwvdGV4dD48cmVjdCBoZWlnaHQ9IjIyIiB3aWR0aD0iMTM2Ljg2NTc5ODk1MDE5NTMiIHk9IjQ2NCIgeD0iNDMuMTEyNTY0MDg2OTE0MDYiIGNsYXNzPSJlciBhdHRyaWJ1dGVCb3hPZGQiPjwvcmVjdD48dGV4dCBzdHlsZT0iZG9taW5hbnQtYmFzZWxpbmU6IG1pZGRsZTsgZm9udC1zaXplOiAxMC4ycHg7IiB0cmFuc2Zvcm09InRyYW5zbGF0ZSg0OC4xMTI1NjQwODY5MTQwNiw0NzUpIiB5PSIwIiB4PSIwIiBpZD0idGV4dC1lbnRpdHktVEFCTEFGSU5BTC1kMWM0N2EzNy04YmM0LTU2MzYtOTVjZi1kNTZiMjA5OTAzZmMtYXR0ci0yMS1uYW1lIiBjbGFzcz0iZXIgZW50aXR5TGFiZWwiPmhhc19ib29rczwvdGV4dD48cmVjdCBoZWlnaHQ9IjIyIiB3aWR0aD0iMjIuNjg3NjgzMTA1NDY4NzUiIHk9IjQ2NCIgeD0iMTc5Ljk3ODM2MzAzNzEwOTM4IiBjbGFzcz0iZXIgYXR0cmlidXRlQm94T2RkIj48L3JlY3Q+PHRleHQgc3R5bGU9ImRvbWluYW50LWJhc2VsaW5lOiBtaWRkbGU7IGZvbnQtc2l6ZTogMTAuMnB4OyIgdHJhbnNmb3JtPSJ0cmFuc2xhdGUoMTg0Ljk3ODM2MzAzNzEwOTM4LDQ3NSkiIHk9IjAiIHg9IjAiIGlkPSJ0ZXh0LWVudGl0eS1UQUJMQUZJTkFMLWQxYzQ3YTM3LThiYzQtNTYzNi05NWNmLWQ1NmIyMDk5MDNmYy1hdHRyLTIxLWtleSIgY2xhc3M9ImVyIGVudGl0eUxhYmVsIj48L3RleHQ+PHJlY3QgaGVpZ2h0PSIyMiIgd2lkdGg9IjQzLjExMjU2NDA4NjkxNDA2IiB5PSI0ODYiIHg9IjAiIGNsYXNzPSJlciBhdHRyaWJ1dGVCb3hFdmVuIj48L3JlY3Q+PHRleHQgc3R5bGU9ImRvbWluYW50LWJhc2VsaW5lOiBtaWRkbGU7IGZvbnQtc2l6ZTogMTAuMnB4OyIgdHJhbnNmb3JtPSJ0cmFuc2xhdGUoNSw0OTcpIiB5PSIwIiB4PSIwIiBpZD0idGV4dC1lbnRpdHktVEFCTEFGSU5BTC1kMWM0N2EzNy04YmM0LTU2MzYtOTVjZi1kNTZiMjA5OTAzZmMtYXR0ci0yMi10eXBlIiBjbGFzcz0iZXIgZW50aXR5TGFiZWwiPlNUUklORzwvdGV4dD48cmVjdCBoZWlnaHQ9IjIyIiB3aWR0aD0iMTM2Ljg2NTc5ODk1MDE5NTMiIHk9IjQ4NiIgeD0iNDMuMTEyNTY0MDg2OTE0MDYiIGNsYXNzPSJlciBhdHRyaWJ1dGVCb3hFdmVuIj48L3JlY3Q+PHRleHQgc3R5bGU9ImRvbWluYW50LWJhc2VsaW5lOiBtaWRkbGU7IGZvbnQtc2l6ZTogMTAuMnB4OyIgdHJhbnNmb3JtPSJ0cmFuc2xhdGUoNDguMTEyNTY0MDg2OTE0MDYsNDk3KSIgeT0iMCIgeD0iMCIgaWQ9InRleHQtZW50aXR5LVRBQkxBRklOQUwtZDFjNDdhMzctOGJjNC01NjM2LTk1Y2YtZDU2YjIwOTkwM2ZjLWF0dHItMjItbmFtZSIgY2xhc3M9ImVyIGVudGl0eUxhYmVsIj5oYXNfdHY8L3RleHQ+PHJlY3QgaGVpZ2h0PSIyMiIgd2lkdGg9IjIyLjY4NzY4MzEwNTQ2ODc1IiB5PSI0ODYiIHg9IjE3OS45NzgzNjMwMzcxMDkzOCIgY2xhc3M9ImVyIGF0dHJpYnV0ZUJveEV2ZW4iPjwvcmVjdD48dGV4dCBzdHlsZT0iZG9taW5hbnQtYmFzZWxpbmU6IG1pZGRsZTsgZm9udC1zaXplOiAxMC4ycHg7IiB0cmFuc2Zvcm09InRyYW5zbGF0ZSgxODQuOTc4MzYzMDM3MTA5MzgsNDk3KSIgeT0iMCIgeD0iMCIgaWQ9InRleHQtZW50aXR5LVRBQkxBRklOQUwtZDFjNDdhMzctOGJjNC01NjM2LTk1Y2YtZDU2YjIwOTkwM2ZjLWF0dHItMjIta2V5IiBjbGFzcz0iZXIgZW50aXR5TGFiZWwiPjwvdGV4dD48cmVjdCBoZWlnaHQ9IjIyIiB3aWR0aD0iNDMuMTEyNTY0MDg2OTE0MDYiIHk9IjUwOCIgeD0iMCIgY2xhc3M9ImVyIGF0dHJpYnV0ZUJveE9kZCI+PC9yZWN0Pjx0ZXh0IHN0eWxlPSJkb21pbmFudC1iYXNlbGluZTogbWlkZGxlOyBmb250LXNpemU6IDEwLjJweDsiIHRyYW5zZm9ybT0idHJhbnNsYXRlKDUsNTE5KSIgeT0iMCIgeD0iMCIgaWQ9InRleHQtZW50aXR5LVRBQkxBRklOQUwtZDFjNDdhMzctOGJjNC01NjM2LTk1Y2YtZDU2YjIwOTkwM2ZjLWF0dHItMjMtdHlwZSIgY2xhc3M9ImVyIGVudGl0eUxhYmVsIj5TVFJJTkc8L3RleHQ+PHJlY3QgaGVpZ2h0PSIyMiIgd2lkdGg9IjEzNi44NjU3OTg5NTAxOTUzIiB5PSI1MDgiIHg9IjQzLjExMjU2NDA4NjkxNDA2IiBjbGFzcz0iZXIgYXR0cmlidXRlQm94T2RkIj48L3JlY3Q+PHRleHQgc3R5bGU9ImRvbWluYW50LWJhc2VsaW5lOiBtaWRkbGU7IGZvbnQtc2l6ZTogMTAuMnB4OyIgdHJhbnNmb3JtPSJ0cmFuc2xhdGUoNDguMTEyNTY0MDg2OTE0MDYsNTE5KSIgeT0iMCIgeD0iMCIgaWQ9InRleHQtZW50aXR5LVRBQkxBRklOQUwtZDFjNDdhMzctOGJjNC01NjM2LTk1Y2YtZDU2YjIwOTkwM2ZjLWF0dHItMjMtbmFtZSIgY2xhc3M9ImVyIGVudGl0eUxhYmVsIj5oYXNfcXVvdGVzPC90ZXh0PjxyZWN0IGhlaWdodD0iMjIiIHdpZHRoPSIyMi42ODc2ODMxMDU0Njg3NSIgeT0iNTA4IiB4PSIxNzkuOTc4MzYzMDM3MTA5MzgiIGNsYXNzPSJlciBhdHRyaWJ1dGVCb3hPZGQiPjwvcmVjdD48dGV4dCBzdHlsZT0iZG9taW5hbnQtYmFzZWxpbmU6IG1pZGRsZTsgZm9udC1zaXplOiAxMC4ycHg7IiB0cmFuc2Zvcm09InRyYW5zbGF0ZSgxODQuOTc4MzYzMDM3MTA5MzgsNTE5KSIgeT0iMCIgeD0iMCIgaWQ9InRleHQtZW50aXR5LVRBQkxBRklOQUwtZDFjNDdhMzctOGJjNC01NjM2LTk1Y2YtZDU2YjIwOTkwM2ZjLWF0dHItMjMta2V5IiBjbGFzcz0iZXIgZW50aXR5TGFiZWwiPjwvdGV4dD48cmVjdCBoZWlnaHQ9IjIyIiB3aWR0aD0iNDMuMTEyNTY0MDg2OTE0MDYiIHk9IjUzMCIgeD0iMCIgY2xhc3M9ImVyIGF0dHJpYnV0ZUJveEV2ZW4iPjwvcmVjdD48dGV4dCBzdHlsZT0iZG9taW5hbnQtYmFzZWxpbmU6IG1pZGRsZTsgZm9udC1zaXplOiAxMC4ycHg7IiB0cmFuc2Zvcm09InRyYW5zbGF0ZSg1LDU0MSkiIHk9IjAiIHg9IjAiIGlkPSJ0ZXh0LWVudGl0eS1UQUJMQUZJTkFMLWQxYzQ3YTM3LThiYzQtNTYzNi05NWNmLWQ1NmIyMDk5MDNmYy1hdHRyLTI0LXR5cGUiIGNsYXNzPSJlciBlbnRpdHlMYWJlbCI+U1RSSU5HPC90ZXh0PjxyZWN0IGhlaWdodD0iMjIiIHdpZHRoPSIxMzYuODY1Nzk4OTUwMTk1MyIgeT0iNTMwIiB4PSI0My4xMTI1NjQwODY5MTQwNiIgY2xhc3M9ImVyIGF0dHJpYnV0ZUJveEV2ZW4iPjwvcmVjdD48dGV4dCBzdHlsZT0iZG9taW5hbnQtYmFzZWxpbmU6IG1pZGRsZTsgZm9udC1zaXplOiAxMC4ycHg7IiB0cmFuc2Zvcm09InRyYW5zbGF0ZSg0OC4xMTI1NjQwODY5MTQwNiw1NDEpIiB5PSIwIiB4PSIwIiBpZD0idGV4dC1lbnRpdHktVEFCTEFGSU5BTC1kMWM0N2EzNy04YmM0LTU2MzYtOTVjZi1kNTZiMjA5OTAzZmMtYXR0ci0yNC1uYW1lIiBjbGFzcz0iZXIgZW50aXR5TGFiZWwiPmhhc19hYm91dDwvdGV4dD48cmVjdCBoZWlnaHQ9IjIyIiB3aWR0aD0iMjIuNjg3NjgzMTA1NDY4NzUiIHk9IjUzMCIgeD0iMTc5Ljk3ODM2MzAzNzEwOTM4IiBjbGFzcz0iZXIgYXR0cmlidXRlQm94RXZlbiI+PC9yZWN0Pjx0ZXh0IHN0eWxlPSJkb21pbmFudC1iYXNlbGluZTogbWlkZGxlOyBmb250LXNpemU6IDEwLjJweDsiIHRyYW5zZm9ybT0idHJhbnNsYXRlKDE4NC45NzgzNjMwMzcxMDkzOCw1NDEpIiB5PSIwIiB4PSIwIiBpZD0idGV4dC1lbnRpdHktVEFCTEFGSU5BTC1kMWM0N2EzNy04YmM0LTU2MzYtOTVjZi1kNTZiMjA5OTAzZmMtYXR0ci0yNC1rZXkiIGNsYXNzPSJlciBlbnRpdHlMYWJlbCI+PC90ZXh0PjxyZWN0IGhlaWdodD0iMjIiIHdpZHRoPSI0My4xMTI1NjQwODY5MTQwNiIgeT0iNTUyIiB4PSIwIiBjbGFzcz0iZXIgYXR0cmlidXRlQm94T2RkIj48L3JlY3Q+PHRleHQgc3R5bGU9ImRvbWluYW50LWJhc2VsaW5lOiBtaWRkbGU7IGZvbnQtc2l6ZTogMTAuMnB4OyIgdHJhbnNmb3JtPSJ0cmFuc2xhdGUoNSw1NjMpIiB5PSIwIiB4PSIwIiBpZD0idGV4dC1lbnRpdHktVEFCTEFGSU5BTC1kMWM0N2EzNy04YmM0LTU2MzYtOTVjZi1kNTZiMjA5OTAzZmMtYXR0ci0yNS10eXBlIiBjbGFzcz0iZXIgZW50aXR5TGFiZWwiPlNUUklORzwvdGV4dD48cmVjdCBoZWlnaHQ9IjIyIiB3aWR0aD0iMTM2Ljg2NTc5ODk1MDE5NTMiIHk9IjU1MiIgeD0iNDMuMTEyNTY0MDg2OTE0MDYiIGNsYXNzPSJlciBhdHRyaWJ1dGVCb3hPZGQiPjwvcmVjdD48dGV4dCBzdHlsZT0iZG9taW5hbnQtYmFzZWxpbmU6IG1pZGRsZTsgZm9udC1zaXplOiAxMC4ycHg7IiB0cmFuc2Zvcm09InRyYW5zbGF0ZSg0OC4xMTI1NjQwODY5MTQwNiw1NjMpIiB5PSIwIiB4PSIwIiBpZD0idGV4dC1lbnRpdHktVEFCTEFGSU5BTC1kMWM0N2EzNy04YmM0LTU2MzYtOTVjZi1kNTZiMjA5OTAzZmMtYXR0ci0yNS1uYW1lIiBjbGFzcz0iZXIgZW50aXR5TGFiZWwiPmhhc19nYW1lczwvdGV4dD48cmVjdCBoZWlnaHQ9IjIyIiB3aWR0aD0iMjIuNjg3NjgzMTA1NDY4NzUiIHk9IjU1MiIgeD0iMTc5Ljk3ODM2MzAzNzEwOTM4IiBjbGFzcz0iZXIgYXR0cmlidXRlQm94T2RkIj48L3JlY3Q+PHRleHQgc3R5bGU9ImRvbWluYW50LWJhc2VsaW5lOiBtaWRkbGU7IGZvbnQtc2l6ZTogMTAuMnB4OyIgdHJhbnNmb3JtPSJ0cmFuc2xhdGUoMTg0Ljk3ODM2MzAzNzEwOTM4LDU2MykiIHk9IjAiIHg9IjAiIGlkPSJ0ZXh0LWVudGl0eS1UQUJMQUZJTkFMLWQxYzQ3YTM3LThiYzQtNTYzNi05NWNmLWQ1NmIyMDk5MDNmYy1hdHRyLTI1LWtleSIgY2xhc3M9ImVyIGVudGl0eUxhYmVsIj48L3RleHQ+PHJlY3QgaGVpZ2h0PSIyMiIgd2lkdGg9IjQzLjExMjU2NDA4NjkxNDA2IiB5PSI1NzQiIHg9IjAiIGNsYXNzPSJlciBhdHRyaWJ1dGVCb3hFdmVuIj48L3JlY3Q+PHRleHQgc3R5bGU9ImRvbWluYW50LWJhc2VsaW5lOiBtaWRkbGU7IGZvbnQtc2l6ZTogMTAuMnB4OyIgdHJhbnNmb3JtPSJ0cmFuc2xhdGUoNSw1ODUpIiB5PSIwIiB4PSIwIiBpZD0idGV4dC1lbnRpdHktVEFCTEFGSU5BTC1kMWM0N2EzNy04YmM0LTU2MzYtOTVjZi1kNTZiMjA5OTAzZmMtYXR0ci0yNi10eXBlIiBjbGFzcz0iZXIgZW50aXR5TGFiZWwiPlNUUklORzwvdGV4dD48cmVjdCBoZWlnaHQ9IjIyIiB3aWR0aD0iMTM2Ljg2NTc5ODk1MDE5NTMiIHk9IjU3NCIgeD0iNDMuMTEyNTY0MDg2OTE0MDYiIGNsYXNzPSJlciBhdHRyaWJ1dGVCb3hFdmVuIj48L3JlY3Q+PHRleHQgc3R5bGU9ImRvbWluYW50LWJhc2VsaW5lOiBtaWRkbGU7IGZvbnQtc2l6ZTogMTAuMnB4OyIgdHJhbnNmb3JtPSJ0cmFuc2xhdGUoNDguMTEyNTY0MDg2OTE0MDYsNTg1KSIgeT0iMCIgeD0iMCIgaWQ9InRleHQtZW50aXR5LVRBQkxBRklOQUwtZDFjNDdhMzctOGJjNC01NjM2LTk1Y2YtZDU2YjIwOTkwM2ZjLWF0dHItMjYtbmFtZSIgY2xhc3M9ImVyIGVudGl0eUxhYmVsIj5oYXNfbW92aWVzPC90ZXh0PjxyZWN0IGhlaWdodD0iMjIiIHdpZHRoPSIyMi42ODc2ODMxMDU0Njg3NSIgeT0iNTc0IiB4PSIxNzkuOTc4MzYzMDM3MTA5MzgiIGNsYXNzPSJlciBhdHRyaWJ1dGVCb3hFdmVuIj48L3JlY3Q+PHRleHQgc3R5bGU9ImRvbWluYW50LWJhc2VsaW5lOiBtaWRkbGU7IGZvbnQtc2l6ZTogMTAuMnB4OyIgdHJhbnNmb3JtPSJ0cmFuc2xhdGUoMTg0Ljk3ODM2MzAzNzEwOTM4LDU4NSkiIHk9IjAiIHg9IjAiIGlkPSJ0ZXh0LWVudGl0eS1UQUJMQUZJTkFMLWQxYzQ3YTM3LThiYzQtNTYzNi05NWNmLWQ1NmIyMDk5MDNmYy1hdHRyLTI2LWtleSIgY2xhc3M9ImVyIGVudGl0eUxhYmVsIj48L3RleHQ+PHJlY3QgaGVpZ2h0PSIyMiIgd2lkdGg9IjQzLjExMjU2NDA4NjkxNDA2IiB5PSI1OTYiIHg9IjAiIGNsYXNzPSJlciBhdHRyaWJ1dGVCb3hPZGQiPjwvcmVjdD48dGV4dCBzdHlsZT0iZG9taW5hbnQtYmFzZWxpbmU6IG1pZGRsZTsgZm9udC1zaXplOiAxMC4ycHg7IiB0cmFuc2Zvcm09InRyYW5zbGF0ZSg1LDYwNykiIHk9IjAiIHg9IjAiIGlkPSJ0ZXh0LWVudGl0eS1UQUJMQUZJTkFMLWQxYzQ3YTM3LThiYzQtNTYzNi05NWNmLWQ1NmIyMDk5MDNmYy1hdHRyLTI3LXR5cGUiIGNsYXNzPSJlciBlbnRpdHlMYWJlbCI+U1RSSU5HPC90ZXh0PjxyZWN0IGhlaWdodD0iMjIiIHdpZHRoPSIxMzYuODY1Nzk4OTUwMTk1MyIgeT0iNTk2IiB4PSI0My4xMTI1NjQwODY5MTQwNiIgY2xhc3M9ImVyIGF0dHJpYnV0ZUJveE9kZCI+PC9yZWN0Pjx0ZXh0IHN0eWxlPSJkb21pbmFudC1iYXNlbGluZTogbWlkZGxlOyBmb250LXNpemU6IDEwLjJweDsiIHRyYW5zZm9ybT0idHJhbnNsYXRlKDQ4LjExMjU2NDA4NjkxNDA2LDYwNykiIHk9IjAiIHg9IjAiIGlkPSJ0ZXh0LWVudGl0eS1UQUJMQUZJTkFMLWQxYzQ3YTM3LThiYzQtNTYzNi05NWNmLWQ1NmIyMDk5MDNmYy1hdHRyLTI3LW5hbWUiIGNsYXNzPSJlciBlbnRpdHlMYWJlbCI+aGFzX2FjdGl2aXRpZXM8L3RleHQ+PHJlY3QgaGVpZ2h0PSIyMiIgd2lkdGg9IjIyLjY4NzY4MzEwNTQ2ODc1IiB5PSI1OTYiIHg9IjE3OS45NzgzNjMwMzcxMDkzOCIgY2xhc3M9ImVyIGF0dHJpYnV0ZUJveE9kZCI+PC9yZWN0Pjx0ZXh0IHN0eWxlPSJkb21pbmFudC1iYXNlbGluZTogbWlkZGxlOyBmb250LXNpemU6IDEwLjJweDsiIHRyYW5zZm9ybT0idHJhbnNsYXRlKDE4NC45NzgzNjMwMzcxMDkzOCw2MDcpIiB5PSIwIiB4PSIwIiBpZD0idGV4dC1lbnRpdHktVEFCTEFGSU5BTC1kMWM0N2EzNy04YmM0LTU2MzYtOTVjZi1kNTZiMjA5OTAzZmMtYXR0ci0yNy1rZXkiIGNsYXNzPSJlciBlbnRpdHlMYWJlbCI+PC90ZXh0PjxyZWN0IGhlaWdodD0iMjIiIHdpZHRoPSI0My4xMTI1NjQwODY5MTQwNiIgeT0iNjE4IiB4PSIwIiBjbGFzcz0iZXIgYXR0cmlidXRlQm94RXZlbiI+PC9yZWN0Pjx0ZXh0IHN0eWxlPSJkb21pbmFudC1iYXNlbGluZTogbWlkZGxlOyBmb250LXNpemU6IDEwLjJweDsiIHRyYW5zZm9ybT0idHJhbnNsYXRlKDUsNjI5KSIgeT0iMCIgeD0iMCIgaWQ9InRleHQtZW50aXR5LVRBQkxBRklOQUwtZDFjNDdhMzctOGJjNC01NjM2LTk1Y2YtZDU2YjIwOTkwM2ZjLWF0dHItMjgtdHlwZSIgY2xhc3M9ImVyIGVudGl0eUxhYmVsIj5TVFJJTkc8L3RleHQ+PHJlY3QgaGVpZ2h0PSIyMiIgd2lkdGg9IjEzNi44NjU3OTg5NTAxOTUzIiB5PSI2MTgiIHg9IjQzLjExMjU2NDA4NjkxNDA2IiBjbGFzcz0iZXIgYXR0cmlidXRlQm94RXZlbiI+PC9yZWN0Pjx0ZXh0IHN0eWxlPSJkb21pbmFudC1iYXNlbGluZTogbWlkZGxlOyBmb250LXNpemU6IDEwLjJweDsiIHRyYW5zZm9ybT0idHJhbnNsYXRlKDQ4LjExMjU2NDA4NjkxNDA2LDYyOSkiIHk9IjAiIHg9IjAiIGlkPSJ0ZXh0LWVudGl0eS1UQUJMQUZJTkFMLWQxYzQ3YTM3LThiYzQtNTYzNi05NWNmLWQ1NmIyMDk5MDNmYy1hdHRyLTI4LW5hbWUiIGNsYXNzPSJlciBlbnRpdHlMYWJlbCI+aGFzX211c2ljPC90ZXh0PjxyZWN0IGhlaWdodD0iMjIiIHdpZHRoPSIyMi42ODc2ODMxMDU0Njg3NSIgeT0iNjE4IiB4PSIxNzkuOTc4MzYzMDM3MTA5MzgiIGNsYXNzPSJlciBhdHRyaWJ1dGVCb3hFdmVuIj48L3JlY3Q+PHRleHQgc3R5bGU9ImRvbWluYW50LWJhc2VsaW5lOiBtaWRkbGU7IGZvbnQtc2l6ZTogMTAuMnB4OyIgdHJhbnNmb3JtPSJ0cmFuc2xhdGUoMTg0Ljk3ODM2MzAzNzEwOTM4LDYyOSkiIHk9IjAiIHg9IjAiIGlkPSJ0ZXh0LWVudGl0eS1UQUJMQUZJTkFMLWQxYzQ3YTM3LThiYzQtNTYzNi05NWNmLWQ1NmIyMDk5MDNmYy1hdHRyLTI4LWtleSIgY2xhc3M9ImVyIGVudGl0eUxhYmVsIj48L3RleHQ+PHJlY3QgaGVpZ2h0PSIyMiIgd2lkdGg9IjQzLjExMjU2NDA4NjkxNDA2IiB5PSI2NDAiIHg9IjAiIGNsYXNzPSJlciBhdHRyaWJ1dGVCb3hPZGQiPjwvcmVjdD48dGV4dCBzdHlsZT0iZG9taW5hbnQtYmFzZWxpbmU6IG1pZGRsZTsgZm9udC1zaXplOiAxMC4ycHg7IiB0cmFuc2Zvcm09InRyYW5zbGF0ZSg1LDY1MSkiIHk9IjAiIHg9IjAiIGlkPSJ0ZXh0LWVudGl0eS1UQUJMQUZJTkFMLWQxYzQ3YTM3LThiYzQtNTYzNi05NWNmLWQ1NmIyMDk5MDNmYy1hdHRyLTI5LXR5cGUiIGNsYXNzPSJlciBlbnRpdHlMYWJlbCI+U1RSSU5HPC90ZXh0PjxyZWN0IGhlaWdodD0iMjIiIHdpZHRoPSIxMzYuODY1Nzk4OTUwMTk1MyIgeT0iNjQwIiB4PSI0My4xMTI1NjQwODY5MTQwNiIgY2xhc3M9ImVyIGF0dHJpYnV0ZUJveE9kZCI+PC9yZWN0Pjx0ZXh0IHN0eWxlPSJkb21pbmFudC1iYXNlbGluZTogbWlkZGxlOyBmb250LXNpemU6IDEwLjJweDsiIHRyYW5zZm9ybT0idHJhbnNsYXRlKDQ4LjExMjU2NDA4NjkxNDA2LDY1MSkiIHk9IjAiIHg9IjAiIGlkPSJ0ZXh0LWVudGl0eS1UQUJMQUZJTkFMLWQxYzQ3YTM3LThiYzQtNTYzNi05NWNmLWQ1NmIyMDk5MDNmYy1hdHRyLTI5LW5hbWUiIGNsYXNzPSJlciBlbnRpdHlMYWJlbCI+Y2FuX2FkZF9hc19mcmllbmQ8L3RleHQ+PHJlY3QgaGVpZ2h0PSIyMiIgd2lkdGg9IjIyLjY4NzY4MzEwNTQ2ODc1IiB5PSI2NDAiIHg9IjE3OS45NzgzNjMwMzcxMDkzOCIgY2xhc3M9ImVyIGF0dHJpYnV0ZUJveE9kZCI+PC9yZWN0Pjx0ZXh0IHN0eWxlPSJkb21pbmFudC1iYXNlbGluZTogbWlkZGxlOyBmb250LXNpemU6IDEwLjJweDsiIHRyYW5zZm9ybT0idHJhbnNsYXRlKDE4NC45NzgzNjMwMzcxMDkzOCw2NTEpIiB5PSIwIiB4PSIwIiBpZD0idGV4dC1lbnRpdHktVEFCTEFGSU5BTC1kMWM0N2EzNy04YmM0LTU2MzYtOTVjZi1kNTZiMjA5OTAzZmMtYXR0ci0yOS1rZXkiIGNsYXNzPSJlciBlbnRpdHlMYWJlbCI+PC90ZXh0PjxyZWN0IGhlaWdodD0iMjIiIHdpZHRoPSI0My4xMTI1NjQwODY5MTQwNiIgeT0iNjYyIiB4PSIwIiBjbGFzcz0iZXIgYXR0cmlidXRlQm94RXZlbiI+PC9yZWN0Pjx0ZXh0IHN0eWxlPSJkb21pbmFudC1iYXNlbGluZTogbWlkZGxlOyBmb250LXNpemU6IDEwLjJweDsiIHRyYW5zZm9ybT0idHJhbnNsYXRlKDUsNjczKSIgeT0iMCIgeD0iMCIgaWQ9InRleHQtZW50aXR5LVRBQkxBRklOQUwtZDFjNDdhMzctOGJjNC01NjM2LTk1Y2YtZDU2YjIwOTkwM2ZjLWF0dHItMzAtdHlwZSIgY2xhc3M9ImVyIGVudGl0eUxhYmVsIj5TVFJJTkc8L3RleHQ+PHJlY3QgaGVpZ2h0PSIyMiIgd2lkdGg9IjEzNi44NjU3OTg5NTAxOTUzIiB5PSI2NjIiIHg9IjQzLjExMjU2NDA4NjkxNDA2IiBjbGFzcz0iZXIgYXR0cmlidXRlQm94RXZlbiI+PC9yZWN0Pjx0ZXh0IHN0eWxlPSJkb21pbmFudC1iYXNlbGluZTogbWlkZGxlOyBmb250LXNpemU6IDEwLjJweDsiIHRyYW5zZm9ybT0idHJhbnNsYXRlKDQ4LjExMjU2NDA4NjkxNDA2LDY3MykiIHk9IjAiIHg9IjAiIGlkPSJ0ZXh0LWVudGl0eS1UQUJMQUZJTkFMLWQxYzQ3YTM3LThiYzQtNTYzNi05NWNmLWQ1NmIyMDk5MDNmYy1hdHRyLTMwLW5hbWUiIGNsYXNzPSJlciBlbnRpdHlMYWJlbCI+Y2FuX2ludml0ZV90b19ncm91cDwvdGV4dD48cmVjdCBoZWlnaHQ9IjIyIiB3aWR0aD0iMjIuNjg3NjgzMTA1NDY4NzUiIHk9IjY2MiIgeD0iMTc5Ljk3ODM2MzAzNzEwOTM4IiBjbGFzcz0iZXIgYXR0cmlidXRlQm94RXZlbiI+PC9yZWN0Pjx0ZXh0IHN0eWxlPSJkb21pbmFudC1iYXNlbGluZTogbWlkZGxlOyBmb250LXNpemU6IDEwLjJweDsiIHRyYW5zZm9ybT0idHJhbnNsYXRlKDE4NC45NzgzNjMwMzcxMDkzOCw2NzMpIiB5PSIwIiB4PSIwIiBpZD0idGV4dC1lbnRpdHktVEFCTEFGSU5BTC1kMWM0N2EzNy04YmM0LTU2MzYtOTVjZi1kNTZiMjA5OTAzZmMtYXR0ci0zMC1rZXkiIGNsYXNzPSJlciBlbnRpdHlMYWJlbCI+PC90ZXh0PjxyZWN0IGhlaWdodD0iMjIiIHdpZHRoPSI0My4xMTI1NjQwODY5MTQwNiIgeT0iNjg0IiB4PSIwIiBjbGFzcz0iZXIgYXR0cmlidXRlQm94T2RkIj48L3JlY3Q+PHRleHQgc3R5bGU9ImRvbWluYW50LWJhc2VsaW5lOiBtaWRkbGU7IGZvbnQtc2l6ZTogMTAuMnB4OyIgdHJhbnNmb3JtPSJ0cmFuc2xhdGUoNSw2OTUpIiB5PSIwIiB4PSIwIiBpZD0idGV4dC1lbnRpdHktVEFCTEFGSU5BTC1kMWM0N2EzNy04YmM0LTU2MzYtOTVjZi1kNTZiMjA5OTAzZmMtYXR0ci0zMS10eXBlIiBjbGFzcz0iZXIgZW50aXR5TGFiZWwiPlNUUklORzwvdGV4dD48cmVjdCBoZWlnaHQ9IjIyIiB3aWR0aD0iMTM2Ljg2NTc5ODk1MDE5NTMiIHk9IjY4NCIgeD0iNDMuMTEyNTY0MDg2OTE0MDYiIGNsYXNzPSJlciBhdHRyaWJ1dGVCb3hPZGQiPjwvcmVjdD48dGV4dCBzdHlsZT0iZG9taW5hbnQtYmFzZWxpbmU6IG1pZGRsZTsgZm9udC1zaXplOiAxMC4ycHg7IiB0cmFuc2Zvcm09InRyYW5zbGF0ZSg0OC4xMTI1NjQwODY5MTQwNiw2OTUpIiB5PSIwIiB4PSIwIiBpZD0idGV4dC1lbnRpdHktVEFCTEFGSU5BTC1kMWM0N2EzNy04YmM0LTU2MzYtOTVjZi1kNTZiMjA5OTAzZmMtYXR0ci0zMS1uYW1lIiBjbGFzcz0iZXIgZW50aXR5TGFiZWwiPnN1YnNjcmliZXJzX2NvdW50PC90ZXh0PjxyZWN0IGhlaWdodD0iMjIiIHdpZHRoPSIyMi42ODc2ODMxMDU0Njg3NSIgeT0iNjg0IiB4PSIxNzkuOTc4MzYzMDM3MTA5MzgiIGNsYXNzPSJlciBhdHRyaWJ1dGVCb3hPZGQiPjwvcmVjdD48dGV4dCBzdHlsZT0iZG9taW5hbnQtYmFzZWxpbmU6IG1pZGRsZTsgZm9udC1zaXplOiAxMC4ycHg7IiB0cmFuc2Zvcm09InRyYW5zbGF0ZSgxODQuOTc4MzYzMDM3MTA5MzgsNjk1KSIgeT0iMCIgeD0iMCIgaWQ9InRleHQtZW50aXR5LVRBQkxBRklOQUwtZDFjNDdhMzctOGJjNC01NjM2LTk1Y2YtZDU2YjIwOTkwM2ZjLWF0dHItMzEta2V5IiBjbGFzcz0iZXIgZW50aXR5TGFiZWwiPjwvdGV4dD48cmVjdCBoZWlnaHQ9IjIyIiB3aWR0aD0iNDMuMTEyNTY0MDg2OTE0MDYiIHk9IjcwNiIgeD0iMCIgY2xhc3M9ImVyIGF0dHJpYnV0ZUJveEV2ZW4iPjwvcmVjdD48dGV4dCBzdHlsZT0iZG9taW5hbnQtYmFzZWxpbmU6IG1pZGRsZTsgZm9udC1zaXplOiAxMC4ycHg7IiB0cmFuc2Zvcm09InRyYW5zbGF0ZSg1LDcxNykiIHk9IjAiIHg9IjAiIGlkPSJ0ZXh0LWVudGl0eS1UQUJMQUZJTkFMLWQxYzQ3YTM3LThiYzQtNTYzNi05NWNmLWQ1NmIyMDk5MDNmYy1hdHRyLTMyLXR5cGUiIGNsYXNzPSJlciBlbnRpdHlMYWJlbCI+U1RSSU5HPC90ZXh0PjxyZWN0IGhlaWdodD0iMjIiIHdpZHRoPSIxMzYuODY1Nzk4OTUwMTk1MyIgeT0iNzA2IiB4PSI0My4xMTI1NjQwODY5MTQwNiIgY2xhc3M9ImVyIGF0dHJpYnV0ZUJveEV2ZW4iPjwvcmVjdD48dGV4dCBzdHlsZT0iZG9taW5hbnQtYmFzZWxpbmU6IG1pZGRsZTsgZm9udC1zaXplOiAxMC4ycHg7IiB0cmFuc2Zvcm09InRyYW5zbGF0ZSg0OC4xMTI1NjQwODY5MTQwNiw3MTcpIiB5PSIwIiB4PSIwIiBpZD0idGV4dC1lbnRpdHktVEFCTEFGSU5BTC1kMWM0N2EzNy04YmM0LTU2MzYtOTVjZi1kNTZiMjA5OTAzZmMtYXR0ci0zMi1uYW1lIiBjbGFzcz0iZXIgZW50aXR5TGFiZWwiPmlzX2JsYWNrbGlzdGVkPC90ZXh0PjxyZWN0IGhlaWdodD0iMjIiIHdpZHRoPSIyMi42ODc2ODMxMDU0Njg3NSIgeT0iNzA2IiB4PSIxNzkuOTc4MzYzMDM3MTA5MzgiIGNsYXNzPSJlciBhdHRyaWJ1dGVCb3hFdmVuIj48L3JlY3Q+PHRleHQgc3R5bGU9ImRvbWluYW50LWJhc2VsaW5lOiBtaWRkbGU7IGZvbnQtc2l6ZTogMTAuMnB4OyIgdHJhbnNmb3JtPSJ0cmFuc2xhdGUoMTg0Ljk3ODM2MzAzNzEwOTM4LDcxNykiIHk9IjAiIHg9IjAiIGlkPSJ0ZXh0LWVudGl0eS1UQUJMQUZJTkFMLWQxYzQ3YTM3LThiYzQtNTYzNi05NWNmLWQ1NmIyMDk5MDNmYy1hdHRyLTMyLWtleSIgY2xhc3M9ImVyIGVudGl0eUxhYmVsIj48L3RleHQ+PHJlY3QgaGVpZ2h0PSIyMiIgd2lkdGg9IjQzLjExMjU2NDA4NjkxNDA2IiB5PSI3MjgiIHg9IjAiIGNsYXNzPSJlciBhdHRyaWJ1dGVCb3hPZGQiPjwvcmVjdD48dGV4dCBzdHlsZT0iZG9taW5hbnQtYmFzZWxpbmU6IG1pZGRsZTsgZm9udC1zaXplOiAxMC4ycHg7IiB0cmFuc2Zvcm09InRyYW5zbGF0ZSg1LDczOSkiIHk9IjAiIHg9IjAiIGlkPSJ0ZXh0LWVudGl0eS1UQUJMQUZJTkFMLWQxYzQ3YTM3LThiYzQtNTYzNi05NWNmLWQ1NmIyMDk5MDNmYy1hdHRyLTMzLXR5cGUiIGNsYXNzPSJlciBlbnRpdHlMYWJlbCI+U1RSSU5HPC90ZXh0PjxyZWN0IGhlaWdodD0iMjIiIHdpZHRoPSIxMzYuODY1Nzk4OTUwMTk1MyIgeT0iNzI4IiB4PSI0My4xMTI1NjQwODY5MTQwNiIgY2xhc3M9ImVyIGF0dHJpYnV0ZUJveE9kZCI+PC9yZWN0Pjx0ZXh0IHN0eWxlPSJkb21pbmFudC1iYXNlbGluZTogbWlkZGxlOyBmb250LXNpemU6IDEwLjJweDsiIHRyYW5zZm9ybT0idHJhbnNsYXRlKDQ4LjExMjU2NDA4NjkxNDA2LDczOSkiIHk9IjAiIHg9IjAiIGlkPSJ0ZXh0LWVudGl0eS1UQUJMQUZJTkFMLWQxYzQ3YTM3LThiYzQtNTYzNi05NWNmLWQ1NmIyMDk5MDNmYy1hdHRyLTMzLW5hbWUiIGNsYXNzPSJlciBlbnRpdHlMYWJlbCI+aGFzX2NhcmVlcjwvdGV4dD48cmVjdCBoZWlnaHQ9IjIyIiB3aWR0aD0iMjIuNjg3NjgzMTA1NDY4NzUiIHk9IjcyOCIgeD0iMTc5Ljk3ODM2MzAzNzEwOTM4IiBjbGFzcz0iZXIgYXR0cmlidXRlQm94T2RkIj48L3JlY3Q+PHRleHQgc3R5bGU9ImRvbWluYW50LWJhc2VsaW5lOiBtaWRkbGU7IGZvbnQtc2l6ZTogMTAuMnB4OyIgdHJhbnNmb3JtPSJ0cmFuc2xhdGUoMTg0Ljk3ODM2MzAzNzEwOTM4LDczOSkiIHk9IjAiIHg9IjAiIGlkPSJ0ZXh0LWVudGl0eS1UQUJMQUZJTkFMLWQxYzQ3YTM3LThiYzQtNTYzNi05NWNmLWQ1NmIyMDk5MDNmYy1hdHRyLTMzLWtleSIgY2xhc3M9ImVyIGVudGl0eUxhYmVsIj48L3RleHQ+PHJlY3QgaGVpZ2h0PSIyMiIgd2lkdGg9IjQzLjExMjU2NDA4NjkxNDA2IiB5PSI3NTAiIHg9IjAiIGNsYXNzPSJlciBhdHRyaWJ1dGVCb3hFdmVuIj48L3JlY3Q+PHRleHQgc3R5bGU9ImRvbWluYW50LWJhc2VsaW5lOiBtaWRkbGU7IGZvbnQtc2l6ZTogMTAuMnB4OyIgdHJhbnNmb3JtPSJ0cmFuc2xhdGUoNSw3NjEpIiB5PSIwIiB4PSIwIiBpZD0idGV4dC1lbnRpdHktVEFCTEFGSU5BTC1kMWM0N2EzNy04YmM0LTU2MzYtOTVjZi1kNTZiMjA5OTAzZmMtYXR0ci0zNC10eXBlIiBjbGFzcz0iZXIgZW50aXR5TGFiZWwiPlNUUklORzwvdGV4dD48cmVjdCBoZWlnaHQ9IjIyIiB3aWR0aD0iMTM2Ljg2NTc5ODk1MDE5NTMiIHk9Ijc1MCIgeD0iNDMuMTEyNTY0MDg2OTE0MDYiIGNsYXNzPSJlciBhdHRyaWJ1dGVCb3hFdmVuIj48L3JlY3Q+PHRleHQgc3R5bGU9ImRvbWluYW50LWJhc2VsaW5lOiBtaWRkbGU7IGZvbnQtc2l6ZTogMTAuMnB4OyIgdHJhbnNmb3JtPSJ0cmFuc2xhdGUoNDguMTEyNTY0MDg2OTE0MDYsNzYxKSIgeT0iMCIgeD0iMCIgaWQ9InRleHQtZW50aXR5LVRBQkxBRklOQUwtZDFjNDdhMzctOGJjNC01NjM2LTk1Y2YtZDU2YjIwOTkwM2ZjLWF0dHItMzQtbmFtZSIgY2xhc3M9ImVyIGVudGl0eUxhYmVsIj5oYXNfbWlsaXRhcnlfc2VydmljZTwvdGV4dD48cmVjdCBoZWlnaHQ9IjIyIiB3aWR0aD0iMjIuNjg3NjgzMTA1NDY4NzUiIHk9Ijc1MCIgeD0iMTc5Ljk3ODM2MzAzNzEwOTM4IiBjbGFzcz0iZXIgYXR0cmlidXRlQm94RXZlbiI+PC9yZWN0Pjx0ZXh0IHN0eWxlPSJkb21pbmFudC1iYXNlbGluZTogbWlkZGxlOyBmb250LXNpemU6IDEwLjJweDsiIHRyYW5zZm9ybT0idHJhbnNsYXRlKDE4NC45NzgzNjMwMzcxMDkzOCw3NjEpIiB5PSIwIiB4PSIwIiBpZD0idGV4dC1lbnRpdHktVEFCTEFGSU5BTC1kMWM0N2EzNy04YmM0LTU2MzYtOTVjZi1kNTZiMjA5OTAzZmMtYXR0ci0zNC1rZXkiIGNsYXNzPSJlciBlbnRpdHlMYWJlbCI+PC90ZXh0PjxyZWN0IGhlaWdodD0iMjIiIHdpZHRoPSI0My4xMTI1NjQwODY5MTQwNiIgeT0iNzcyIiB4PSIwIiBjbGFzcz0iZXIgYXR0cmlidXRlQm94T2RkIj48L3JlY3Q+PHRleHQgc3R5bGU9ImRvbWluYW50LWJhc2VsaW5lOiBtaWRkbGU7IGZvbnQtc2l6ZTogMTAuMnB4OyIgdHJhbnNmb3JtPSJ0cmFuc2xhdGUoNSw3ODMpIiB5PSIwIiB4PSIwIiBpZD0idGV4dC1lbnRpdHktVEFCTEFGSU5BTC1kMWM0N2EzNy04YmM0LTU2MzYtOTVjZi1kNTZiMjA5OTAzZmMtYXR0ci0zNS10eXBlIiBjbGFzcz0iZXIgZW50aXR5TGFiZWwiPlNUUklORzwvdGV4dD48cmVjdCBoZWlnaHQ9IjIyIiB3aWR0aD0iMTM2Ljg2NTc5ODk1MDE5NTMiIHk9Ijc3MiIgeD0iNDMuMTEyNTY0MDg2OTE0MDYiIGNsYXNzPSJlciBhdHRyaWJ1dGVCb3hPZGQiPjwvcmVjdD48dGV4dCBzdHlsZT0iZG9taW5hbnQtYmFzZWxpbmU6IG1pZGRsZTsgZm9udC1zaXplOiAxMC4ycHg7IiB0cmFuc2Zvcm09InRyYW5zbGF0ZSg0OC4xMTI1NjQwODY5MTQwNiw3ODMpIiB5PSIwIiB4PSIwIiBpZD0idGV4dC1lbnRpdHktVEFCTEFGSU5BTC1kMWM0N2EzNy04YmM0LTU2MzYtOTVjZi1kNTZiMjA5OTAzZmMtYXR0ci0zNS1uYW1lIiBjbGFzcz0iZXIgZW50aXR5TGFiZWwiPmhhc19ob21ldG93bjwvdGV4dD48cmVjdCBoZWlnaHQ9IjIyIiB3aWR0aD0iMjIuNjg3NjgzMTA1NDY4NzUiIHk9Ijc3MiIgeD0iMTc5Ljk3ODM2MzAzNzEwOTM4IiBjbGFzcz0iZXIgYXR0cmlidXRlQm94T2RkIj48L3JlY3Q+PHRleHQgc3R5bGU9ImRvbWluYW50LWJhc2VsaW5lOiBtaWRkbGU7IGZvbnQtc2l6ZTogMTAuMnB4OyIgdHJhbnNmb3JtPSJ0cmFuc2xhdGUoMTg0Ljk3ODM2MzAzNzEwOTM4LDc4MykiIHk9IjAiIHg9IjAiIGlkPSJ0ZXh0LWVudGl0eS1UQUJMQUZJTkFMLWQxYzQ3YTM3LThiYzQtNTYzNi05NWNmLWQ1NmIyMDk5MDNmYy1hdHRyLTM1LWtleSIgY2xhc3M9ImVyIGVudGl0eUxhYmVsIj48L3RleHQ+PHJlY3QgaGVpZ2h0PSIyMiIgd2lkdGg9IjQzLjExMjU2NDA4NjkxNDA2IiB5PSI3OTQiIHg9IjAiIGNsYXNzPSJlciBhdHRyaWJ1dGVCb3hFdmVuIj48L3JlY3Q+PHRleHQgc3R5bGU9ImRvbWluYW50LWJhc2VsaW5lOiBtaWRkbGU7IGZvbnQtc2l6ZTogMTAuMnB4OyIgdHJhbnNmb3JtPSJ0cmFuc2xhdGUoNSw4MDUpIiB5PSIwIiB4PSIwIiBpZD0idGV4dC1lbnRpdHktVEFCTEFGSU5BTC1kMWM0N2EzNy04YmM0LTU2MzYtOTVjZi1kNTZiMjA5OTAzZmMtYXR0ci0zNi10eXBlIiBjbGFzcz0iZXIgZW50aXR5TGFiZWwiPlNUUklORzwvdGV4dD48cmVjdCBoZWlnaHQ9IjIyIiB3aWR0aD0iMTM2Ljg2NTc5ODk1MDE5NTMiIHk9Ijc5NCIgeD0iNDMuMTEyNTY0MDg2OTE0MDYiIGNsYXNzPSJlciBhdHRyaWJ1dGVCb3hFdmVuIj48L3JlY3Q+PHRleHQgc3R5bGU9ImRvbWluYW50LWJhc2VsaW5lOiBtaWRkbGU7IGZvbnQtc2l6ZTogMTAuMnB4OyIgdHJhbnNmb3JtPSJ0cmFuc2xhdGUoNDguMTEyNTY0MDg2OTE0MDYsODA1KSIgeT0iMCIgeD0iMCIgaWQ9InRleHQtZW50aXR5LVRBQkxBRklOQUwtZDFjNDdhMzctOGJjNC01NjM2LTk1Y2YtZDU2YjIwOTkwM2ZjLWF0dHItMzYtbmFtZSIgY2xhc3M9ImVyIGVudGl0eUxhYmVsIj5tYXJpdGFsX3N0YXR1czwvdGV4dD48cmVjdCBoZWlnaHQ9IjIyIiB3aWR0aD0iMjIuNjg3NjgzMTA1NDY4NzUiIHk9Ijc5NCIgeD0iMTc5Ljk3ODM2MzAzNzEwOTM4IiBjbGFzcz0iZXIgYXR0cmlidXRlQm94RXZlbiI+PC9yZWN0Pjx0ZXh0IHN0eWxlPSJkb21pbmFudC1iYXNlbGluZTogbWlkZGxlOyBmb250LXNpemU6IDEwLjJweDsiIHRyYW5zZm9ybT0idHJhbnNsYXRlKDE4NC45NzgzNjMwMzcxMDkzOCw4MDUpIiB5PSIwIiB4PSIwIiBpZD0idGV4dC1lbnRpdHktVEFCTEFGSU5BTC1kMWM0N2EzNy04YmM0LTU2MzYtOTVjZi1kNTZiMjA5OTAzZmMtYXR0ci0zNi1rZXkiIGNsYXNzPSJlciBlbnRpdHlMYWJlbCI+PC90ZXh0PjxyZWN0IGhlaWdodD0iMjIiIHdpZHRoPSI0My4xMTI1NjQwODY5MTQwNiIgeT0iODE2IiB4PSIwIiBjbGFzcz0iZXIgYXR0cmlidXRlQm94T2RkIj48L3JlY3Q+PHRleHQgc3R5bGU9ImRvbWluYW50LWJhc2VsaW5lOiBtaWRkbGU7IGZvbnQtc2l6ZTogMTAuMnB4OyIgdHJhbnNmb3JtPSJ0cmFuc2xhdGUoNSw4MjcpIiB5PSIwIiB4PSIwIiBpZD0idGV4dC1lbnRpdHktVEFCTEFGSU5BTC1kMWM0N2EzNy04YmM0LTU2MzYtOTVjZi1kNTZiMjA5OTAzZmMtYXR0ci0zNy10eXBlIiBjbGFzcz0iZXIgZW50aXR5TGFiZWwiPlNUUklORzwvdGV4dD48cmVjdCBoZWlnaHQ9IjIyIiB3aWR0aD0iMTM2Ljg2NTc5ODk1MDE5NTMiIHk9IjgxNiIgeD0iNDMuMTEyNTY0MDg2OTE0MDYiIGNsYXNzPSJlciBhdHRyaWJ1dGVCb3hPZGQiPjwvcmVjdD48dGV4dCBzdHlsZT0iZG9taW5hbnQtYmFzZWxpbmU6IG1pZGRsZTsgZm9udC1zaXplOiAxMC4ycHg7IiB0cmFuc2Zvcm09InRyYW5zbGF0ZSg0OC4xMTI1NjQwODY5MTQwNiw4MjcpIiB5PSIwIiB4PSIwIiBpZD0idGV4dC1lbnRpdHktVEFCTEFGSU5BTC1kMWM0N2EzNy04YmM0LTU2MzYtOTVjZi1kNTZiMjA5OTAzZmMtYXR0ci0zNy1uYW1lIiBjbGFzcz0iZXIgZW50aXR5TGFiZWwiPmhhc191bml2ZXJzaXRpZXM8L3RleHQ+PHJlY3QgaGVpZ2h0PSIyMiIgd2lkdGg9IjIyLjY4NzY4MzEwNTQ2ODc1IiB5PSI4MTYiIHg9IjE3OS45NzgzNjMwMzcxMDkzOCIgY2xhc3M9ImVyIGF0dHJpYnV0ZUJveE9kZCI+PC9yZWN0Pjx0ZXh0IHN0eWxlPSJkb21pbmFudC1iYXNlbGluZTogbWlkZGxlOyBmb250LXNpemU6IDEwLjJweDsiIHRyYW5zZm9ybT0idHJhbnNsYXRlKDE4NC45NzgzNjMwMzcxMDkzOCw4MjcpIiB5PSIwIiB4PSIwIiBpZD0idGV4dC1lbnRpdHktVEFCTEFGSU5BTC1kMWM0N2EzNy04YmM0LTU2MzYtOTVjZi1kNTZiMjA5OTAzZmMtYXR0ci0zNy1rZXkiIGNsYXNzPSJlciBlbnRpdHlMYWJlbCI+PC90ZXh0PjxyZWN0IGhlaWdodD0iMjIiIHdpZHRoPSI0My4xMTI1NjQwODY5MTQwNiIgeT0iODM4IiB4PSIwIiBjbGFzcz0iZXIgYXR0cmlidXRlQm94RXZlbiI+PC9yZWN0Pjx0ZXh0IHN0eWxlPSJkb21pbmFudC1iYXNlbGluZTogbWlkZGxlOyBmb250LXNpemU6IDEwLjJweDsiIHRyYW5zZm9ybT0idHJhbnNsYXRlKDUsODQ5KSIgeT0iMCIgeD0iMCIgaWQ9InRleHQtZW50aXR5LVRBQkxBRklOQUwtZDFjNDdhMzctOGJjNC01NjM2LTk1Y2YtZDU2YjIwOTkwM2ZjLWF0dHItMzgtdHlwZSIgY2xhc3M9ImVyIGVudGl0eUxhYmVsIj5TVFJJTkc8L3RleHQ+PHJlY3QgaGVpZ2h0PSIyMiIgd2lkdGg9IjEzNi44NjU3OTg5NTAxOTUzIiB5PSI4MzgiIHg9IjQzLjExMjU2NDA4NjkxNDA2IiBjbGFzcz0iZXIgYXR0cmlidXRlQm94RXZlbiI+PC9yZWN0Pjx0ZXh0IHN0eWxlPSJkb21pbmFudC1iYXNlbGluZTogbWlkZGxlOyBmb250LXNpemU6IDEwLjJweDsiIHRyYW5zZm9ybT0idHJhbnNsYXRlKDQ4LjExMjU2NDA4NjkxNDA2LDg0OSkiIHk9IjAiIHg9IjAiIGlkPSJ0ZXh0LWVudGl0eS1UQUJMQUZJTkFMLWQxYzQ3YTM3LThiYzQtNTYzNi05NWNmLWQ1NmIyMDk5MDNmYy1hdHRyLTM4LW5hbWUiIGNsYXNzPSJlciBlbnRpdHlMYWJlbCI+aGFzX3NjaG9vbHM8L3RleHQ+PHJlY3QgaGVpZ2h0PSIyMiIgd2lkdGg9IjIyLjY4NzY4MzEwNTQ2ODc1IiB5PSI4MzgiIHg9IjE3OS45NzgzNjMwMzcxMDkzOCIgY2xhc3M9ImVyIGF0dHJpYnV0ZUJveEV2ZW4iPjwvcmVjdD48dGV4dCBzdHlsZT0iZG9taW5hbnQtYmFzZWxpbmU6IG1pZGRsZTsgZm9udC1zaXplOiAxMC4ycHg7IiB0cmFuc2Zvcm09InRyYW5zbGF0ZSgxODQuOTc4MzYzMDM3MTA5MzgsODQ5KSIgeT0iMCIgeD0iMCIgaWQ9InRleHQtZW50aXR5LVRBQkxBRklOQUwtZDFjNDdhMzctOGJjNC01NjM2LTk1Y2YtZDU2YjIwOTkwM2ZjLWF0dHItMzgta2V5IiBjbGFzcz0iZXIgZW50aXR5TGFiZWwiPjwvdGV4dD48cmVjdCBoZWlnaHQ9IjIyIiB3aWR0aD0iNDMuMTEyNTY0MDg2OTE0MDYiIHk9Ijg2MCIgeD0iMCIgY2xhc3M9ImVyIGF0dHJpYnV0ZUJveE9kZCI+PC9yZWN0Pjx0ZXh0IHN0eWxlPSJkb21pbmFudC1iYXNlbGluZTogbWlkZGxlOyBmb250LXNpemU6IDEwLjJweDsiIHRyYW5zZm9ybT0idHJhbnNsYXRlKDUsODcxKSIgeT0iMCIgeD0iMCIgaWQ9InRleHQtZW50aXR5LVRBQkxBRklOQUwtZDFjNDdhMzctOGJjNC01NjM2LTk1Y2YtZDU2YjIwOTkwM2ZjLWF0dHItMzktdHlwZSIgY2xhc3M9ImVyIGVudGl0eUxhYmVsIj5TVFJJTkc8L3RleHQ+PHJlY3QgaGVpZ2h0PSIyMiIgd2lkdGg9IjEzNi44NjU3OTg5NTAxOTUzIiB5PSI4NjAiIHg9IjQzLjExMjU2NDA4NjkxNDA2IiBjbGFzcz0iZXIgYXR0cmlidXRlQm94T2RkIj48L3JlY3Q+PHRleHQgc3R5bGU9ImRvbWluYW50LWJhc2VsaW5lOiBtaWRkbGU7IGZvbnQtc2l6ZTogMTAuMnB4OyIgdHJhbnNmb3JtPSJ0cmFuc2xhdGUoNDguMTEyNTY0MDg2OTE0MDYsODcxKSIgeT0iMCIgeD0iMCIgaWQ9InRleHQtZW50aXR5LVRBQkxBRklOQUwtZDFjNDdhMzctOGJjNC01NjM2LTk1Y2YtZDU2YjIwOTkwM2ZjLWF0dHItMzktbmFtZSIgY2xhc3M9ImVyIGVudGl0eUxhYmVsIj5oYXNfcmVsYXRpdmVzPC90ZXh0PjxyZWN0IGhlaWdodD0iMjIiIHdpZHRoPSIyMi42ODc2ODMxMDU0Njg3NSIgeT0iODYwIiB4PSIxNzkuOTc4MzYzMDM3MTA5MzgiIGNsYXNzPSJlciBhdHRyaWJ1dGVCb3hPZGQiPjwvcmVjdD48dGV4dCBzdHlsZT0iZG9taW5hbnQtYmFzZWxpbmU6IG1pZGRsZTsgZm9udC1zaXplOiAxMC4ycHg7IiB0cmFuc2Zvcm09InRyYW5zbGF0ZSgxODQuOTc4MzYzMDM3MTA5MzgsODcxKSIgeT0iMCIgeD0iMCIgaWQ9InRleHQtZW50aXR5LVRBQkxBRklOQUwtZDFjNDdhMzctOGJjNC01NjM2LTk1Y2YtZDU2YjIwOTkwM2ZjLWF0dHItMzkta2V5IiBjbGFzcz0iZXIgZW50aXR5TGFiZWwiPjwvdGV4dD48cmVjdCBoZWlnaHQ9IjIyIiB3aWR0aD0iNDMuMTEyNTY0MDg2OTE0MDYiIHk9Ijg4MiIgeD0iMCIgY2xhc3M9ImVyIGF0dHJpYnV0ZUJveEV2ZW4iPjwvcmVjdD48dGV4dCBzdHlsZT0iZG9taW5hbnQtYmFzZWxpbmU6IG1pZGRsZTsgZm9udC1zaXplOiAxMC4ycHg7IiB0cmFuc2Zvcm09InRyYW5zbGF0ZSg1LDg5MykiIHk9IjAiIHg9IjAiIGlkPSJ0ZXh0LWVudGl0eS1UQUJMQUZJTkFMLWQxYzQ3YTM3LThiYzQtNTYzNi05NWNmLWQ1NmIyMDk5MDNmYy1hdHRyLTQwLXR5cGUiIGNsYXNzPSJlciBlbnRpdHlMYWJlbCI+U1RSSU5HPC90ZXh0PjxyZWN0IGhlaWdodD0iMjIiIHdpZHRoPSIxMzYuODY1Nzk4OTUwMTk1MyIgeT0iODgyIiB4PSI0My4xMTI1NjQwODY5MTQwNiIgY2xhc3M9ImVyIGF0dHJpYnV0ZUJveEV2ZW4iPjwvcmVjdD48dGV4dCBzdHlsZT0iZG9taW5hbnQtYmFzZWxpbmU6IG1pZGRsZTsgZm9udC1zaXplOiAxMC4ycHg7IiB0cmFuc2Zvcm09InRyYW5zbGF0ZSg0OC4xMTI1NjQwODY5MTQwNiw4OTMpIiB5PSIwIiB4PSIwIiBpZD0idGV4dC1lbnRpdHktVEFCTEFGSU5BTC1kMWM0N2EzNy04YmM0LTU2MzYtOTVjZi1kNTZiMjA5OTAzZmMtYXR0ci00MC1uYW1lIiBjbGFzcz0iZXIgZW50aXR5TGFiZWwiPmlzX3ZlcmlmaWVkPC90ZXh0PjxyZWN0IGhlaWdodD0iMjIiIHdpZHRoPSIyMi42ODc2ODMxMDU0Njg3NSIgeT0iODgyIiB4PSIxNzkuOTc4MzYzMDM3MTA5MzgiIGNsYXNzPSJlciBhdHRyaWJ1dGVCb3hFdmVuIj48L3JlY3Q+PHRleHQgc3R5bGU9ImRvbWluYW50LWJhc2VsaW5lOiBtaWRkbGU7IGZvbnQtc2l6ZTogMTAuMnB4OyIgdHJhbnNmb3JtPSJ0cmFuc2xhdGUoMTg0Ljk3ODM2MzAzNzEwOTM4LDg5MykiIHk9IjAiIHg9IjAiIGlkPSJ0ZXh0LWVudGl0eS1UQUJMQUZJTkFMLWQxYzQ3YTM3LThiYzQtNTYzNi05NWNmLWQ1NmIyMDk5MDNmYy1hdHRyLTQwLWtleSIgY2xhc3M9ImVyIGVudGl0eUxhYmVsIj48L3RleHQ+PHJlY3QgaGVpZ2h0PSIyMiIgd2lkdGg9IjQzLjExMjU2NDA4NjkxNDA2IiB5PSI5MDQiIHg9IjAiIGNsYXNzPSJlciBhdHRyaWJ1dGVCb3hPZGQiPjwvcmVjdD48dGV4dCBzdHlsZT0iZG9taW5hbnQtYmFzZWxpbmU6IG1pZGRsZTsgZm9udC1zaXplOiAxMC4ycHg7IiB0cmFuc2Zvcm09InRyYW5zbGF0ZSg1LDkxNSkiIHk9IjAiIHg9IjAiIGlkPSJ0ZXh0LWVudGl0eS1UQUJMQUZJTkFMLWQxYzQ3YTM3LThiYzQtNTYzNi05NWNmLWQ1NmIyMDk5MDNmYy1hdHRyLTQxLXR5cGUiIGNsYXNzPSJlciBlbnRpdHlMYWJlbCI+U1RSSU5HPC90ZXh0PjxyZWN0IGhlaWdodD0iMjIiIHdpZHRoPSIxMzYuODY1Nzk4OTUwMTk1MyIgeT0iOTA0IiB4PSI0My4xMTI1NjQwODY5MTQwNiIgY2xhc3M9ImVyIGF0dHJpYnV0ZUJveE9kZCI+PC9yZWN0Pjx0ZXh0IHN0eWxlPSJkb21pbmFudC1iYXNlbGluZTogbWlkZGxlOyBmb250LXNpemU6IDEwLjJweDsiIHRyYW5zZm9ybT0idHJhbnNsYXRlKDQ4LjExMjU2NDA4NjkxNDA2LDkxNSkiIHk9IjAiIHg9IjAiIGlkPSJ0ZXh0LWVudGl0eS1UQUJMQUZJTkFMLWQxYzQ3YTM3LThiYzQtNTYzNi05NWNmLWQ1NmIyMDk5MDNmYy1hdHRyLTQxLW5hbWUiIGNsYXNzPSJlciBlbnRpdHlMYWJlbCI+aXNfY29uZmlybWVkPC90ZXh0PjxyZWN0IGhlaWdodD0iMjIiIHdpZHRoPSIyMi42ODc2ODMxMDU0Njg3NSIgeT0iOTA0IiB4PSIxNzkuOTc4MzYzMDM3MTA5MzgiIGNsYXNzPSJlciBhdHRyaWJ1dGVCb3hPZGQiPjwvcmVjdD48dGV4dCBzdHlsZT0iZG9taW5hbnQtYmFzZWxpbmU6IG1pZGRsZTsgZm9udC1zaXplOiAxMC4ycHg7IiB0cmFuc2Zvcm09InRyYW5zbGF0ZSgxODQuOTc4MzYzMDM3MTA5MzgsOTE1KSIgeT0iMCIgeD0iMCIgaWQ9InRleHQtZW50aXR5LVRBQkxBRklOQUwtZDFjNDdhMzctOGJjNC01NjM2LTk1Y2YtZDU2YjIwOTkwM2ZjLWF0dHItNDEta2V5IiBjbGFzcz0iZXIgZW50aXR5TGFiZWwiPjwvdGV4dD48cmVjdCBoZWlnaHQ9IjIyIiB3aWR0aD0iNDMuMTEyNTY0MDg2OTE0MDYiIHk9IjkyNiIgeD0iMCIgY2xhc3M9ImVyIGF0dHJpYnV0ZUJveEV2ZW4iPjwvcmVjdD48dGV4dCBzdHlsZT0iZG9taW5hbnQtYmFzZWxpbmU6IG1pZGRsZTsgZm9udC1zaXplOiAxMC4ycHg7IiB0cmFuc2Zvcm09InRyYW5zbGF0ZSg1LDkzNykiIHk9IjAiIHg9IjAiIGlkPSJ0ZXh0LWVudGl0eS1UQUJMQUZJTkFMLWQxYzQ3YTM3LThiYzQtNTYzNi05NWNmLWQ1NmIyMDk5MDNmYy1hdHRyLTQyLXR5cGUiIGNsYXNzPSJlciBlbnRpdHlMYWJlbCI+U1RSSU5HPC90ZXh0PjxyZWN0IGhlaWdodD0iMjIiIHdpZHRoPSIxMzYuODY1Nzk4OTUwMTk1MyIgeT0iOTI2IiB4PSI0My4xMTI1NjQwODY5MTQwNiIgY2xhc3M9ImVyIGF0dHJpYnV0ZUJveEV2ZW4iPjwvcmVjdD48dGV4dCBzdHlsZT0iZG9taW5hbnQtYmFzZWxpbmU6IG1pZGRsZTsgZm9udC1zaXplOiAxMC4ycHg7IiB0cmFuc2Zvcm09InRyYW5zbGF0ZSg0OC4xMTI1NjQwODY5MTQwNiw5MzcpIiB5PSIwIiB4PSIwIiBpZD0idGV4dC1lbnRpdHktVEFCTEFGSU5BTC1kMWM0N2EzNy04YmM0LTU2MzYtOTVjZi1kNTZiMjA5OTAzZmMtYXR0ci00Mi1uYW1lIiBjbGFzcz0iZXIgZW50aXR5TGFiZWwiPmhhc19zdGF0dXM8L3RleHQ+PHJlY3QgaGVpZ2h0PSIyMiIgd2lkdGg9IjIyLjY4NzY4MzEwNTQ2ODc1IiB5PSI5MjYiIHg9IjE3OS45NzgzNjMwMzcxMDkzOCIgY2xhc3M9ImVyIGF0dHJpYnV0ZUJveEV2ZW4iPjwvcmVjdD48dGV4dCBzdHlsZT0iZG9taW5hbnQtYmFzZWxpbmU6IG1pZGRsZTsgZm9udC1zaXplOiAxMC4ycHg7IiB0cmFuc2Zvcm09InRyYW5zbGF0ZSgxODQuOTc4MzYzMDM3MTA5MzgsOTM3KSIgeT0iMCIgeD0iMCIgaWQ9InRleHQtZW50aXR5LVRBQkxBRklOQUwtZDFjNDdhMzctOGJjNC01NjM2LTk1Y2YtZDU2YjIwOTkwM2ZjLWF0dHItNDIta2V5IiBjbGFzcz0iZXIgZW50aXR5TGFiZWwiPjwvdGV4dD48cmVjdCBoZWlnaHQ9IjIyIiB3aWR0aD0iNDMuMTEyNTY0MDg2OTE0MDYiIHk9Ijk0OCIgeD0iMCIgY2xhc3M9ImVyIGF0dHJpYnV0ZUJveE9kZCI+PC9yZWN0Pjx0ZXh0IHN0eWxlPSJkb21pbmFudC1iYXNlbGluZTogbWlkZGxlOyBmb250LXNpemU6IDEwLjJweDsiIHRyYW5zZm9ybT0idHJhbnNsYXRlKDUsOTU5KSIgeT0iMCIgeD0iMCIgaWQ9InRleHQtZW50aXR5LVRBQkxBRklOQUwtZDFjNDdhMzctOGJjNC01NjM2LTk1Y2YtZDU2YjIwOTkwM2ZjLWF0dHItNDMtdHlwZSIgY2xhc3M9ImVyIGVudGl0eUxhYmVsIj5JTlQ8L3RleHQ+PHJlY3QgaGVpZ2h0PSIyMiIgd2lkdGg9IjEzNi44NjU3OTg5NTAxOTUzIiB5PSI5NDgiIHg9IjQzLjExMjU2NDA4NjkxNDA2IiBjbGFzcz0iZXIgYXR0cmlidXRlQm94T2RkIj48L3JlY3Q+PHRleHQgc3R5bGU9ImRvbWluYW50LWJhc2VsaW5lOiBtaWRkbGU7IGZvbnQtc2l6ZTogMTAuMnB4OyIgdHJhbnNmb3JtPSJ0cmFuc2xhdGUoNDguMTEyNTY0MDg2OTE0MDYsOTU5KSIgeT0iMCIgeD0iMCIgaWQ9InRleHQtZW50aXR5LVRBQkxBRklOQUwtZDFjNDdhMzctOGJjNC01NjM2LTk1Y2YtZDU2YjIwOTkwM2ZjLWF0dHItNDMtbmFtZSIgY2xhc3M9ImVyIGVudGl0eUxhYmVsIj5wb3N0c19jb3VudDwvdGV4dD48cmVjdCBoZWlnaHQ9IjIyIiB3aWR0aD0iMjIuNjg3NjgzMTA1NDY4NzUiIHk9Ijk0OCIgeD0iMTc5Ljk3ODM2MzAzNzEwOTM4IiBjbGFzcz0iZXIgYXR0cmlidXRlQm94T2RkIj48L3JlY3Q+PHRleHQgc3R5bGU9ImRvbWluYW50LWJhc2VsaW5lOiBtaWRkbGU7IGZvbnQtc2l6ZTogMTAuMnB4OyIgdHJhbnNmb3JtPSJ0cmFuc2xhdGUoMTg0Ljk3ODM2MzAzNzEwOTM4LDk1OSkiIHk9IjAiIHg9IjAiIGlkPSJ0ZXh0LWVudGl0eS1UQUJMQUZJTkFMLWQxYzQ3YTM3LThiYzQtNTYzNi05NWNmLWQ1NmIyMDk5MDNmYy1hdHRyLTQzLWtleSIgY2xhc3M9ImVyIGVudGl0eUxhYmVsIj48L3RleHQ+PHJlY3QgaGVpZ2h0PSIyMiIgd2lkdGg9IjQzLjExMjU2NDA4NjkxNDA2IiB5PSI5NzAiIHg9IjAiIGNsYXNzPSJlciBhdHRyaWJ1dGVCb3hFdmVuIj48L3JlY3Q+PHRleHQgc3R5bGU9ImRvbWluYW50LWJhc2VsaW5lOiBtaWRkbGU7IGZvbnQtc2l6ZTogMTAuMnB4OyIgdHJhbnNmb3JtPSJ0cmFuc2xhdGUoNSw5ODEpIiB5PSIwIiB4PSIwIiBpZD0idGV4dC1lbnRpdHktVEFCTEFGSU5BTC1kMWM0N2EzNy04YmM0LTU2MzYtOTVjZi1kNTZiMjA5OTAzZmMtYXR0ci00NC10eXBlIiBjbGFzcz0iZXIgZW50aXR5TGFiZWwiPkZMT0FUPC90ZXh0PjxyZWN0IGhlaWdodD0iMjIiIHdpZHRoPSIxMzYuODY1Nzk4OTUwMTk1MyIgeT0iOTcwIiB4PSI0My4xMTI1NjQwODY5MTQwNiIgY2xhc3M9ImVyIGF0dHJpYnV0ZUJveEV2ZW4iPjwvcmVjdD48dGV4dCBzdHlsZT0iZG9taW5hbnQtYmFzZWxpbmU6IG1pZGRsZTsgZm9udC1zaXplOiAxMC4ycHg7IiB0cmFuc2Zvcm09InRyYW5zbGF0ZSg0OC4xMTI1NjQwODY5MTQwNiw5ODEpIiB5PSIwIiB4PSIwIiBpZD0idGV4dC1lbnRpdHktVEFCTEFGSU5BTC1kMWM0N2EzNy04YmM0LTU2MzYtOTVjZi1kNTZiMjA5OTAzZmMtYXR0ci00NC1uYW1lIiBjbGFzcz0iZXIgZW50aXR5TGFiZWwiPmF2Z19saWtlczwvdGV4dD48cmVjdCBoZWlnaHQ9IjIyIiB3aWR0aD0iMjIuNjg3NjgzMTA1NDY4NzUiIHk9Ijk3MCIgeD0iMTc5Ljk3ODM2MzAzNzEwOTM4IiBjbGFzcz0iZXIgYXR0cmlidXRlQm94RXZlbiI+PC9yZWN0Pjx0ZXh0IHN0eWxlPSJkb21pbmFudC1iYXNlbGluZTogbWlkZGxlOyBmb250LXNpemU6IDEwLjJweDsiIHRyYW5zZm9ybT0idHJhbnNsYXRlKDE4NC45NzgzNjMwMzcxMDkzOCw5ODEpIiB5PSIwIiB4PSIwIiBpZD0idGV4dC1lbnRpdHktVEFCTEFGSU5BTC1kMWM0N2EzNy04YmM0LTU2MzYtOTVjZi1kNTZiMjA5OTAzZmMtYXR0ci00NC1rZXkiIGNsYXNzPSJlciBlbnRpdHlMYWJlbCI+PC90ZXh0PjxyZWN0IGhlaWdodD0iMjIiIHdpZHRoPSI0My4xMTI1NjQwODY5MTQwNiIgeT0iOTkyIiB4PSIwIiBjbGFzcz0iZXIgYXR0cmlidXRlQm94T2RkIj48L3JlY3Q+PHRleHQgc3R5bGU9ImRvbWluYW50LWJhc2VsaW5lOiBtaWRkbGU7IGZvbnQtc2l6ZTogMTAuMnB4OyIgdHJhbnNmb3JtPSJ0cmFuc2xhdGUoNSwxMDAzKSIgeT0iMCIgeD0iMCIgaWQ9InRleHQtZW50aXR5LVRBQkxBRklOQUwtZDFjNDdhMzctOGJjNC01NjM2LTk1Y2YtZDU2YjIwOTkwM2ZjLWF0dHItNDUtdHlwZSIgY2xhc3M9ImVyIGVudGl0eUxhYmVsIj5GTE9BVDwvdGV4dD48cmVjdCBoZWlnaHQ9IjIyIiB3aWR0aD0iMTM2Ljg2NTc5ODk1MDE5NTMiIHk9Ijk5MiIgeD0iNDMuMTEyNTY0MDg2OTE0MDYiIGNsYXNzPSJlciBhdHRyaWJ1dGVCb3hPZGQiPjwvcmVjdD48dGV4dCBzdHlsZT0iZG9taW5hbnQtYmFzZWxpbmU6IG1pZGRsZTsgZm9udC1zaXplOiAxMC4ycHg7IiB0cmFuc2Zvcm09InRyYW5zbGF0ZSg0OC4xMTI1NjQwODY5MTQwNiwxMDAzKSIgeT0iMCIgeD0iMCIgaWQ9InRleHQtZW50aXR5LVRBQkxBRklOQUwtZDFjNDdhMzctOGJjNC01NjM2LTk1Y2YtZDU2YjIwOTkwM2ZjLWF0dHItNDUtbmFtZSIgY2xhc3M9ImVyIGVudGl0eUxhYmVsIj5saW5rc19yYXRpbzwvdGV4dD48cmVjdCBoZWlnaHQ9IjIyIiB3aWR0aD0iMjIuNjg3NjgzMTA1NDY4NzUiIHk9Ijk5MiIgeD0iMTc5Ljk3ODM2MzAzNzEwOTM4IiBjbGFzcz0iZXIgYXR0cmlidXRlQm94T2RkIj48L3JlY3Q+PHRleHQgc3R5bGU9ImRvbWluYW50LWJhc2VsaW5lOiBtaWRkbGU7IGZvbnQtc2l6ZTogMTAuMnB4OyIgdHJhbnNmb3JtPSJ0cmFuc2xhdGUoMTg0Ljk3ODM2MzAzNzEwOTM4LDEwMDMpIiB5PSIwIiB4PSIwIiBpZD0idGV4dC1lbnRpdHktVEFCTEFGSU5BTC1kMWM0N2EzNy04YmM0LTU2MzYtOTVjZi1kNTZiMjA5OTAzZmMtYXR0ci00NS1rZXkiIGNsYXNzPSJlciBlbnRpdHlMYWJlbCI+PC90ZXh0PjxyZWN0IGhlaWdodD0iMjIiIHdpZHRoPSI0My4xMTI1NjQwODY5MTQwNiIgeT0iMTAxNCIgeD0iMCIgY2xhc3M9ImVyIGF0dHJpYnV0ZUJveEV2ZW4iPjwvcmVjdD48dGV4dCBzdHlsZT0iZG9taW5hbnQtYmFzZWxpbmU6IG1pZGRsZTsgZm9udC1zaXplOiAxMC4ycHg7IiB0cmFuc2Zvcm09InRyYW5zbGF0ZSg1LDEwMjUpIiB5PSIwIiB4PSIwIiBpZD0idGV4dC1lbnRpdHktVEFCTEFGSU5BTC1kMWM0N2EzNy04YmM0LTU2MzYtOTVjZi1kNTZiMjA5OTAzZmMtYXR0ci00Ni10eXBlIiBjbGFzcz0iZXIgZW50aXR5TGFiZWwiPkZMT0FUPC90ZXh0PjxyZWN0IGhlaWdodD0iMjIiIHdpZHRoPSIxMzYuODY1Nzk4OTUwMTk1MyIgeT0iMTAxNCIgeD0iNDMuMTEyNTY0MDg2OTE0MDYiIGNsYXNzPSJlciBhdHRyaWJ1dGVCb3hFdmVuIj48L3JlY3Q+PHRleHQgc3R5bGU9ImRvbWluYW50LWJhc2VsaW5lOiBtaWRkbGU7IGZvbnQtc2l6ZTogMTAuMnB4OyIgdHJhbnNmb3JtPSJ0cmFuc2xhdGUoNDguMTEyNTY0MDg2OTE0MDYsMTAyNSkiIHk9IjAiIHg9IjAiIGlkPSJ0ZXh0LWVudGl0eS1UQUJMQUZJTkFMLWQxYzQ3YTM3LThiYzQtNTYzNi05NWNmLWQ1NmIyMDk5MDNmYy1hdHRyLTQ2LW5hbWUiIGNsYXNzPSJlciBlbnRpdHlMYWJlbCI+aGFzaHRhZ3NfcmF0aW88L3RleHQ+PHJlY3QgaGVpZ2h0PSIyMiIgd2lkdGg9IjIyLjY4NzY4MzEwNTQ2ODc1IiB5PSIxMDE0IiB4PSIxNzkuOTc4MzYzMDM3MTA5MzgiIGNsYXNzPSJlciBhdHRyaWJ1dGVCb3hFdmVuIj48L3JlY3Q+PHRleHQgc3R5bGU9ImRvbWluYW50LWJhc2VsaW5lOiBtaWRkbGU7IGZvbnQtc2l6ZTogMTAuMnB4OyIgdHJhbnNmb3JtPSJ0cmFuc2xhdGUoMTg0Ljk3ODM2MzAzNzEwOTM4LDEwMjUpIiB5PSIwIiB4PSIwIiBpZD0idGV4dC1lbnRpdHktVEFCTEFGSU5BTC1kMWM0N2EzNy04YmM0LTU2MzYtOTVjZi1kNTZiMjA5OTAzZmMtYXR0ci00Ni1rZXkiIGNsYXNzPSJlciBlbnRpdHlMYWJlbCI+PC90ZXh0PjxyZWN0IGhlaWdodD0iMjIiIHdpZHRoPSI0My4xMTI1NjQwODY5MTQwNiIgeT0iMTAzNiIgeD0iMCIgY2xhc3M9ImVyIGF0dHJpYnV0ZUJveE9kZCI+PC9yZWN0Pjx0ZXh0IHN0eWxlPSJkb21pbmFudC1iYXNlbGluZTogbWlkZGxlOyBmb250LXNpemU6IDEwLjJweDsiIHRyYW5zZm9ybT0idHJhbnNsYXRlKDUsMTA0NykiIHk9IjAiIHg9IjAiIGlkPSJ0ZXh0LWVudGl0eS1UQUJMQUZJTkFMLWQxYzQ3YTM3LThiYzQtNTYzNi05NWNmLWQ1NmIyMDk5MDNmYy1hdHRyLTQ3LXR5cGUiIGNsYXNzPSJlciBlbnRpdHlMYWJlbCI+RkxPQVQ8L3RleHQ+PHJlY3QgaGVpZ2h0PSIyMiIgd2lkdGg9IjEzNi44NjU3OTg5NTAxOTUzIiB5PSIxMDM2IiB4PSI0My4xMTI1NjQwODY5MTQwNiIgY2xhc3M9ImVyIGF0dHJpYnV0ZUJveE9kZCI+PC9yZWN0Pjx0ZXh0IHN0eWxlPSJkb21pbmFudC1iYXNlbGluZTogbWlkZGxlOyBmb250LXNpemU6IDEwLjJweDsiIHRyYW5zZm9ybT0idHJhbnNsYXRlKDQ4LjExMjU2NDA4NjkxNDA2LDEwNDcpIiB5PSIwIiB4PSIwIiBpZD0idGV4dC1lbnRpdHktVEFCTEFGSU5BTC1kMWM0N2EzNy04YmM0LTU2MzYtOTVjZi1kNTZiMjA5OTAzZmMtYXR0ci00Ny1uYW1lIiBjbGFzcz0iZXIgZW50aXR5TGFiZWwiPmF2Z19rZXl3b3JkczwvdGV4dD48cmVjdCBoZWlnaHQ9IjIyIiB3aWR0aD0iMjIuNjg3NjgzMTA1NDY4NzUiIHk9IjEwMzYiIHg9IjE3OS45NzgzNjMwMzcxMDkzOCIgY2xhc3M9ImVyIGF0dHJpYnV0ZUJveE9kZCI+PC9yZWN0Pjx0ZXh0IHN0eWxlPSJkb21pbmFudC1iYXNlbGluZTogbWlkZGxlOyBmb250LXNpemU6IDEwLjJweDsiIHRyYW5zZm9ybT0idHJhbnNsYXRlKDE4NC45NzgzNjMwMzcxMDkzOCwxMDQ3KSIgeT0iMCIgeD0iMCIgaWQ9InRleHQtZW50aXR5LVRBQkxBRklOQUwtZDFjNDdhMzctOGJjNC01NjM2LTk1Y2YtZDU2YjIwOTkwM2ZjLWF0dHItNDcta2V5IiBjbGFzcz0iZXIgZW50aXR5TGFiZWwiPjwvdGV4dD48cmVjdCBoZWlnaHQ9IjIyIiB3aWR0aD0iNDMuMTEyNTY0MDg2OTE0MDYiIHk9IjEwNTgiIHg9IjAiIGNsYXNzPSJlciBhdHRyaWJ1dGVCb3hFdmVuIj48L3JlY3Q+PHRleHQgc3R5bGU9ImRvbWluYW50LWJhc2VsaW5lOiBtaWRkbGU7IGZvbnQtc2l6ZTogMTAuMnB4OyIgdHJhbnNmb3JtPSJ0cmFuc2xhdGUoNSwxMDY5KSIgeT0iMCIgeD0iMCIgaWQ9InRleHQtZW50aXR5LVRBQkxBRklOQUwtZDFjNDdhMzctOGJjNC01NjM2LTk1Y2YtZDU2YjIwOTkwM2ZjLWF0dHItNDgtdHlwZSIgY2xhc3M9ImVyIGVudGl0eUxhYmVsIj5JTlQ8L3RleHQ+PHJlY3QgaGVpZ2h0PSIyMiIgd2lkdGg9IjEzNi44NjU3OTg5NTAxOTUzIiB5PSIxMDU4IiB4PSI0My4xMTI1NjQwODY5MTQwNiIgY2xhc3M9ImVyIGF0dHJpYnV0ZUJveEV2ZW4iPjwvcmVjdD48dGV4dCBzdHlsZT0iZG9taW5hbnQtYmFzZWxpbmU6IG1pZGRsZTsgZm9udC1zaXplOiAxMC4ycHg7IiB0cmFuc2Zvcm09InRyYW5zbGF0ZSg0OC4xMTI1NjQwODY5MTQwNiwxMDY5KSIgeT0iMCIgeD0iMCIgaWQ9InRleHQtZW50aXR5LVRBQkxBRklOQUwtZDFjNDdhMzctOGJjNC01NjM2LTk1Y2YtZDU2YjIwOTkwM2ZjLWF0dHItNDgtbmFtZSIgY2xhc3M9ImVyIGVudGl0eUxhYmVsIj5hdmdfdGV4dF9sZW5ndGg8L3RleHQ+PHJlY3QgaGVpZ2h0PSIyMiIgd2lkdGg9IjIyLjY4NzY4MzEwNTQ2ODc1IiB5PSIxMDU4IiB4PSIxNzkuOTc4MzYzMDM3MTA5MzgiIGNsYXNzPSJlciBhdHRyaWJ1dGVCb3hFdmVuIj48L3JlY3Q+PHRleHQgc3R5bGU9ImRvbWluYW50LWJhc2VsaW5lOiBtaWRkbGU7IGZvbnQtc2l6ZTogMTAuMnB4OyIgdHJhbnNmb3JtPSJ0cmFuc2xhdGUoMTg0Ljk3ODM2MzAzNzEwOTM4LDEwNjkpIiB5PSIwIiB4PSIwIiBpZD0idGV4dC1lbnRpdHktVEFCTEFGSU5BTC1kMWM0N2EzNy04YmM0LTU2MzYtOTVjZi1kNTZiMjA5OTAzZmMtYXR0ci00OC1rZXkiIGNsYXNzPSJlciBlbnRpdHlMYWJlbCI+PC90ZXh0PjxyZWN0IGhlaWdodD0iMjIiIHdpZHRoPSI0My4xMTI1NjQwODY5MTQwNiIgeT0iMTA4MCIgeD0iMCIgY2xhc3M9ImVyIGF0dHJpYnV0ZUJveE9kZCI+PC9yZWN0Pjx0ZXh0IHN0eWxlPSJkb21pbmFudC1iYXNlbGluZTogbWlkZGxlOyBmb250LXNpemU6IDEwLjJweDsiIHRyYW5zZm9ybT0idHJhbnNsYXRlKDUsMTA5MSkiIHk9IjAiIHg9IjAiIGlkPSJ0ZXh0LWVudGl0eS1UQUJMQUZJTkFMLWQxYzQ3YTM3LThiYzQtNTYzNi05NWNmLWQ1NmIyMDk5MDNmYy1hdHRyLTQ5LXR5cGUiIGNsYXNzPSJlciBlbnRpdHlMYWJlbCI+RkxPQVQ8L3RleHQ+PHJlY3QgaGVpZ2h0PSIyMiIgd2lkdGg9IjEzNi44NjU3OTg5NTAxOTUzIiB5PSIxMDgwIiB4PSI0My4xMTI1NjQwODY5MTQwNiIgY2xhc3M9ImVyIGF0dHJpYnV0ZUJveE9kZCI+PC9yZWN0Pjx0ZXh0IHN0eWxlPSJkb21pbmFudC1iYXNlbGluZTogbWlkZGxlOyBmb250LXNpemU6IDEwLjJweDsiIHRyYW5zZm9ybT0idHJhbnNsYXRlKDQ4LjExMjU2NDA4NjkxNDA2LDEwOTEpIiB5PSIwIiB4PSIwIiBpZD0idGV4dC1lbnRpdHktVEFCTEFGSU5BTC1kMWM0N2EzNy04YmM0LTU2MzYtOTVjZi1kNTZiMjA5OTAzZmMtYXR0ci00OS1uYW1lIiBjbGFzcz0iZXIgZW50aXR5TGFiZWwiPmF0dGFjaG1lbnRzX3JhdGlvPC90ZXh0PjxyZWN0IGhlaWdodD0iMjIiIHdpZHRoPSIyMi42ODc2ODMxMDU0Njg3NSIgeT0iMTA4MCIgeD0iMTc5Ljk3ODM2MzAzNzEwOTM4IiBjbGFzcz0iZXIgYXR0cmlidXRlQm94T2RkIj48L3JlY3Q+PHRleHQgc3R5bGU9ImRvbWluYW50LWJhc2VsaW5lOiBtaWRkbGU7IGZvbnQtc2l6ZTogMTAuMnB4OyIgdHJhbnNmb3JtPSJ0cmFuc2xhdGUoMTg0Ljk3ODM2MzAzNzEwOTM4LDEwOTEpIiB5PSIwIiB4PSIwIiBpZD0idGV4dC1lbnRpdHktVEFCTEFGSU5BTC1kMWM0N2EzNy04YmM0LTU2MzYtOTVjZi1kNTZiMjA5OTAzZmMtYXR0ci00OS1rZXkiIGNsYXNzPSJlciBlbnRpdHlMYWJlbCI+PC90ZXh0PjxyZWN0IGhlaWdodD0iMjIiIHdpZHRoPSI0My4xMTI1NjQwODY5MTQwNiIgeT0iMTEwMiIgeD0iMCIgY2xhc3M9ImVyIGF0dHJpYnV0ZUJveEV2ZW4iPjwvcmVjdD48dGV4dCBzdHlsZT0iZG9taW5hbnQtYmFzZWxpbmU6IG1pZGRsZTsgZm9udC1zaXplOiAxMC4ycHg7IiB0cmFuc2Zvcm09InRyYW5zbGF0ZSg1LDExMTMpIiB5PSIwIiB4PSIwIiBpZD0idGV4dC1lbnRpdHktVEFCTEFGSU5BTC1kMWM0N2EzNy04YmM0LTU2MzYtOTVjZi1kNTZiMjA5OTAzZmMtYXR0ci01MC10eXBlIiBjbGFzcz0iZXIgZW50aXR5TGFiZWwiPklOVDwvdGV4dD48cmVjdCBoZWlnaHQ9IjIyIiB3aWR0aD0iMTM2Ljg2NTc5ODk1MDE5NTMiIHk9IjExMDIiIHg9IjQzLjExMjU2NDA4NjkxNDA2IiBjbGFzcz0iZXIgYXR0cmlidXRlQm94RXZlbiI+PC9yZWN0Pjx0ZXh0IHN0eWxlPSJkb21pbmFudC1iYXNlbGluZTogbWlkZGxlOyBmb250LXNpemU6IDEwLjJweDsiIHRyYW5zZm9ybT0idHJhbnNsYXRlKDQ4LjExMjU2NDA4NjkxNDA2LDExMTMpIiB5PSIwIiB4PSIwIiBpZD0idGV4dC1lbnRpdHktVEFCTEFGSU5BTC1kMWM0N2EzNy04YmM0LTU2MzYtOTVjZi1kNTZiMjA5OTAzZmMtYXR0ci01MC1uYW1lIiBjbGFzcz0iZXIgZW50aXR5TGFiZWwiPmF2Z19jb21tZW50czwvdGV4dD48cmVjdCBoZWlnaHQ9IjIyIiB3aWR0aD0iMjIuNjg3NjgzMTA1NDY4NzUiIHk9IjExMDIiIHg9IjE3OS45NzgzNjMwMzcxMDkzOCIgY2xhc3M9ImVyIGF0dHJpYnV0ZUJveEV2ZW4iPjwvcmVjdD48dGV4dCBzdHlsZT0iZG9taW5hbnQtYmFzZWxpbmU6IG1pZGRsZTsgZm9udC1zaXplOiAxMC4ycHg7IiB0cmFuc2Zvcm09InRyYW5zbGF0ZSgxODQuOTc4MzYzMDM3MTA5MzgsMTExMykiIHk9IjAiIHg9IjAiIGlkPSJ0ZXh0LWVudGl0eS1UQUJMQUZJTkFMLWQxYzQ3YTM3LThiYzQtNTYzNi05NWNmLWQ1NmIyMDk5MDNmYy1hdHRyLTUwLWtleSIgY2xhc3M9ImVyIGVudGl0eUxhYmVsIj48L3RleHQ+PHJlY3QgaGVpZ2h0PSIyMiIgd2lkdGg9IjQzLjExMjU2NDA4NjkxNDA2IiB5PSIxMTI0IiB4PSIwIiBjbGFzcz0iZXIgYXR0cmlidXRlQm94T2RkIj48L3JlY3Q+PHRleHQgc3R5bGU9ImRvbWluYW50LWJhc2VsaW5lOiBtaWRkbGU7IGZvbnQtc2l6ZTogMTAuMnB4OyIgdHJhbnNmb3JtPSJ0cmFuc2xhdGUoNSwxMTM1KSIgeT0iMCIgeD0iMCIgaWQ9InRleHQtZW50aXR5LVRBQkxBRklOQUwtZDFjNDdhMzctOGJjNC01NjM2LTk1Y2YtZDU2YjIwOTkwM2ZjLWF0dHItNTEtdHlwZSIgY2xhc3M9ImVyIGVudGl0eUxhYmVsIj5GTE9BVDwvdGV4dD48cmVjdCBoZWlnaHQ9IjIyIiB3aWR0aD0iMTM2Ljg2NTc5ODk1MDE5NTMiIHk9IjExMjQiIHg9IjQzLjExMjU2NDA4NjkxNDA2IiBjbGFzcz0iZXIgYXR0cmlidXRlQm94T2RkIj48L3JlY3Q+PHRleHQgc3R5bGU9ImRvbWluYW50LWJhc2VsaW5lOiBtaWRkbGU7IGZvbnQtc2l6ZTogMTAuMnB4OyIgdHJhbnNmb3JtPSJ0cmFuc2xhdGUoNDguMTEyNTY0MDg2OTE0MDYsMTEzNSkiIHk9IjAiIHg9IjAiIGlkPSJ0ZXh0LWVudGl0eS1UQUJMQUZJTkFMLWQxYzQ3YTM3LThiYzQtNTYzNi05NWNmLWQ1NmIyMDk5MDNmYy1hdHRyLTUxLW5hbWUiIGNsYXNzPSJlciBlbnRpdHlMYWJlbCI+cmVwb3N0c19yYXRpbzwvdGV4dD48cmVjdCBoZWlnaHQ9IjIyIiB3aWR0aD0iMjIuNjg3NjgzMTA1NDY4NzUiIHk9IjExMjQiIHg9IjE3OS45NzgzNjMwMzcxMDkzOCIgY2xhc3M9ImVyIGF0dHJpYnV0ZUJveE9kZCI+PC9yZWN0Pjx0ZXh0IHN0eWxlPSJkb21pbmFudC1iYXNlbGluZTogbWlkZGxlOyBmb250LXNpemU6IDEwLjJweDsiIHRyYW5zZm9ybT0idHJhbnNsYXRlKDE4NC45NzgzNjMwMzcxMDkzOCwxMTM1KSIgeT0iMCIgeD0iMCIgaWQ9InRleHQtZW50aXR5LVRBQkxBRklOQUwtZDFjNDdhMzctOGJjNC01NjM2LTk1Y2YtZDU2YjIwOTkwM2ZjLWF0dHItNTEta2V5IiBjbGFzcz0iZXIgZW50aXR5TGFiZWwiPjwvdGV4dD48cmVjdCBoZWlnaHQ9IjIyIiB3aWR0aD0iNDMuMTEyNTY0MDg2OTE0MDYiIHk9IjExNDYiIHg9IjAiIGNsYXNzPSJlciBhdHRyaWJ1dGVCb3hFdmVuIj48L3JlY3Q+PHRleHQgc3R5bGU9ImRvbWluYW50LWJhc2VsaW5lOiBtaWRkbGU7IGZvbnQtc2l6ZTogMTAuMnB4OyIgdHJhbnNmb3JtPSJ0cmFuc2xhdGUoNSwxMTU3KSIgeT0iMCIgeD0iMCIgaWQ9InRleHQtZW50aXR5LVRBQkxBRklOQUwtZDFjNDdhMzctOGJjNC01NjM2LTk1Y2YtZDU2YjIwOTkwM2ZjLWF0dHItNTItdHlwZSIgY2xhc3M9ImVyIGVudGl0eUxhYmVsIj5GTE9BVDwvdGV4dD48cmVjdCBoZWlnaHQ9IjIyIiB3aWR0aD0iMTM2Ljg2NTc5ODk1MDE5NTMiIHk9IjExNDYiIHg9IjQzLjExMjU2NDA4NjkxNDA2IiBjbGFzcz0iZXIgYXR0cmlidXRlQm94RXZlbiI+PC9yZWN0Pjx0ZXh0IHN0eWxlPSJkb21pbmFudC1iYXNlbGluZTogbWlkZGxlOyBmb250LXNpemU6IDEwLjJweDsiIHRyYW5zZm9ybT0idHJhbnNsYXRlKDQ4LjExMjU2NDA4NjkxNDA2LDExNTcpIiB5PSIwIiB4PSIwIiBpZD0idGV4dC1lbnRpdHktVEFCTEFGSU5BTC1kMWM0N2EzNy04YmM0LTU2MzYtOTVjZi1kNTZiMjA5OTAzZmMtYXR0ci01Mi1uYW1lIiBjbGFzcz0iZXIgZW50aXR5TGFiZWwiPmFkc19yYXRpbzwvdGV4dD48cmVjdCBoZWlnaHQ9IjIyIiB3aWR0aD0iMjIuNjg3NjgzMTA1NDY4NzUiIHk9IjExNDYiIHg9IjE3OS45NzgzNjMwMzcxMDkzOCIgY2xhc3M9ImVyIGF0dHJpYnV0ZUJveEV2ZW4iPjwvcmVjdD48dGV4dCBzdHlsZT0iZG9taW5hbnQtYmFzZWxpbmU6IG1pZGRsZTsgZm9udC1zaXplOiAxMC4ycHg7IiB0cmFuc2Zvcm09InRyYW5zbGF0ZSgxODQuOTc4MzYzMDM3MTA5MzgsMTE1NykiIHk9IjAiIHg9IjAiIGlkPSJ0ZXh0LWVudGl0eS1UQUJMQUZJTkFMLWQxYzQ3YTM3LThiYzQtNTYzNi05NWNmLWQ1NmIyMDk5MDNmYy1hdHRyLTUyLWtleSIgY2xhc3M9ImVyIGVudGl0eUxhYmVsIj48L3RleHQ+PHJlY3QgaGVpZ2h0PSIyMiIgd2lkdGg9IjQzLjExMjU2NDA4NjkxNDA2IiB5PSIxMTY4IiB4PSIwIiBjbGFzcz0iZXIgYXR0cmlidXRlQm94T2RkIj48L3JlY3Q+PHRleHQgc3R5bGU9ImRvbWluYW50LWJhc2VsaW5lOiBtaWRkbGU7IGZvbnQtc2l6ZTogMTAuMnB4OyIgdHJhbnNmb3JtPSJ0cmFuc2xhdGUoNSwxMTc5KSIgeT0iMCIgeD0iMCIgaWQ9InRleHQtZW50aXR5LVRBQkxBRklOQUwtZDFjNDdhMzctOGJjNC01NjM2LTk1Y2YtZDU2YjIwOTkwM2ZjLWF0dHItNTMtdHlwZSIgY2xhc3M9ImVyIGVudGl0eUxhYmVsIj5JTlQ8L3RleHQ+PHJlY3QgaGVpZ2h0PSIyMiIgd2lkdGg9IjEzNi44NjU3OTg5NTAxOTUzIiB5PSIxMTY4IiB4PSI0My4xMTI1NjQwODY5MTQwNiIgY2xhc3M9ImVyIGF0dHJpYnV0ZUJveE9kZCI+PC9yZWN0Pjx0ZXh0IHN0eWxlPSJkb21pbmFudC1iYXNlbGluZTogbWlkZGxlOyBmb250LXNpemU6IDEwLjJweDsiIHRyYW5zZm9ybT0idHJhbnNsYXRlKDQ4LjExMjU2NDA4NjkxNDA2LDExNzkpIiB5PSIwIiB4PSIwIiBpZD0idGV4dC1lbnRpdHktVEFCTEFGSU5BTC1kMWM0N2EzNy04YmM0LTU2MzYtOTVjZi1kNTZiMjA5OTAzZmMtYXR0ci01My1uYW1lIiBjbGFzcz0iZXIgZW50aXR5TGFiZWwiPmF2Z192aWV3czwvdGV4dD48cmVjdCBoZWlnaHQ9IjIyIiB3aWR0aD0iMjIuNjg3NjgzMTA1NDY4NzUiIHk9IjExNjgiIHg9IjE3OS45NzgzNjMwMzcxMDkzOCIgY2xhc3M9ImVyIGF0dHJpYnV0ZUJveE9kZCI+PC9yZWN0Pjx0ZXh0IHN0eWxlPSJkb21pbmFudC1iYXNlbGluZTogbWlkZGxlOyBmb250LXNpemU6IDEwLjJweDsiIHRyYW5zZm9ybT0idHJhbnNsYXRlKDE4NC45NzgzNjMwMzcxMDkzOCwxMTc5KSIgeT0iMCIgeD0iMCIgaWQ9InRleHQtZW50aXR5LVRBQkxBRklOQUwtZDFjNDdhMzctOGJjNC01NjM2LTk1Y2YtZDU2YjIwOTkwM2ZjLWF0dHItNTMta2V5IiBjbGFzcz0iZXIgZW50aXR5TGFiZWwiPjwvdGV4dD48cmVjdCBoZWlnaHQ9IjIyIiB3aWR0aD0iNDMuMTEyNTY0MDg2OTE0MDYiIHk9IjExOTAiIHg9IjAiIGNsYXNzPSJlciBhdHRyaWJ1dGVCb3hFdmVuIj48L3JlY3Q+PHRleHQgc3R5bGU9ImRvbWluYW50LWJhc2VsaW5lOiBtaWRkbGU7IGZvbnQtc2l6ZTogMTAuMnB4OyIgdHJhbnNmb3JtPSJ0cmFuc2xhdGUoNSwxMjAxKSIgeT0iMCIgeD0iMCIgaWQ9InRleHQtZW50aXR5LVRBQkxBRklOQUwtZDFjNDdhMzctOGJjNC01NjM2LTk1Y2YtZDU2YjIwOTkwM2ZjLWF0dHItNTQtdHlwZSIgY2xhc3M9ImVyIGVudGl0eUxhYmVsIj5JTlQ8L3RleHQ+PHJlY3QgaGVpZ2h0PSIyMiIgd2lkdGg9IjEzNi44NjU3OTg5NTAxOTUzIiB5PSIxMTkwIiB4PSI0My4xMTI1NjQwODY5MTQwNiIgY2xhc3M9ImVyIGF0dHJpYnV0ZUJveEV2ZW4iPjwvcmVjdD48dGV4dCBzdHlsZT0iZG9taW5hbnQtYmFzZWxpbmU6IG1pZGRsZTsgZm9udC1zaXplOiAxMC4ycHg7IiB0cmFuc2Zvcm09InRyYW5zbGF0ZSg0OC4xMTI1NjQwODY5MTQwNiwxMjAxKSIgeT0iMCIgeD0iMCIgaWQ9InRleHQtZW50aXR5LVRBQkxBRklOQUwtZDFjNDdhMzctOGJjNC01NjM2LTk1Y2YtZDU2YjIwOTkwM2ZjLWF0dHItNTQtbmFtZSIgY2xhc3M9ImVyIGVudGl0eUxhYmVsIj5wb3N0aW5nX2ZyZXF1ZW5jeV9kYXlzPC90ZXh0PjxyZWN0IGhlaWdodD0iMjIiIHdpZHRoPSIyMi42ODc2ODMxMDU0Njg3NSIgeT0iMTE5MCIgeD0iMTc5Ljk3ODM2MzAzNzEwOTM4IiBjbGFzcz0iZXIgYXR0cmlidXRlQm94RXZlbiI+PC9yZWN0Pjx0ZXh0IHN0eWxlPSJkb21pbmFudC1iYXNlbGluZTogbWlkZGxlOyBmb250LXNpemU6IDEwLjJweDsiIHRyYW5zZm9ybT0idHJhbnNsYXRlKDE4NC45NzgzNjMwMzcxMDkzOCwxMjAxKSIgeT0iMCIgeD0iMCIgaWQ9InRleHQtZW50aXR5LVRBQkxBRklOQUwtZDFjNDdhMzctOGJjNC01NjM2LTk1Y2YtZDU2YjIwOTkwM2ZjLWF0dHItNTQta2V5IiBjbGFzcz0iZXIgZW50aXR5TGFiZWwiPjwvdGV4dD48cmVjdCBoZWlnaHQ9IjIyIiB3aWR0aD0iNDMuMTEyNTY0MDg2OTE0MDYiIHk9IjEyMTIiIHg9IjAiIGNsYXNzPSJlciBhdHRyaWJ1dGVCb3hPZGQiPjwvcmVjdD48dGV4dCBzdHlsZT0iZG9taW5hbnQtYmFzZWxpbmU6IG1pZGRsZTsgZm9udC1zaXplOiAxMC4ycHg7IiB0cmFuc2Zvcm09InRyYW5zbGF0ZSg1LDEyMjMpIiB5PSIwIiB4PSIwIiBpZD0idGV4dC1lbnRpdHktVEFCTEFGSU5BTC1kMWM0N2EzNy04YmM0LTU2MzYtOTVjZi1kNTZiMjA5OTAzZmMtYXR0ci01NS10eXBlIiBjbGFzcz0iZXIgZW50aXR5TGFiZWwiPkZMT0FUPC90ZXh0PjxyZWN0IGhlaWdodD0iMjIiIHdpZHRoPSIxMzYuODY1Nzk4OTUwMTk1MyIgeT0iMTIxMiIgeD0iNDMuMTEyNTY0MDg2OTE0MDYiIGNsYXNzPSJlciBhdHRyaWJ1dGVCb3hPZGQiPjwvcmVjdD48dGV4dCBzdHlsZT0iZG9taW5hbnQtYmFzZWxpbmU6IG1pZGRsZTsgZm9udC1zaXplOiAxMC4ycHg7IiB0cmFuc2Zvcm09InRyYW5zbGF0ZSg0OC4xMTI1NjQwODY5MTQwNiwxMjIzKSIgeT0iMCIgeD0iMCIgaWQ9InRleHQtZW50aXR5LVRBQkxBRklOQUwtZDFjNDdhMzctOGJjNC01NjM2LTk1Y2YtZDU2YjIwOTkwM2ZjLWF0dHItNTUtbmFtZSIgY2xhc3M9ImVyIGVudGl0eUxhYmVsIj5waG9uZV9udW1iZXJzX3JhdGlvPC90ZXh0PjxyZWN0IGhlaWdodD0iMjIiIHdpZHRoPSIyMi42ODc2ODMxMDU0Njg3NSIgeT0iMTIxMiIgeD0iMTc5Ljk3ODM2MzAzNzEwOTM4IiBjbGFzcz0iZXIgYXR0cmlidXRlQm94T2RkIj48L3JlY3Q+PHRleHQgc3R5bGU9ImRvbWluYW50LWJhc2VsaW5lOiBtaWRkbGU7IGZvbnQtc2l6ZTogMTAuMnB4OyIgdHJhbnNmb3JtPSJ0cmFuc2xhdGUoMTg0Ljk3ODM2MzAzNzEwOTM4LDEyMjMpIiB5PSIwIiB4PSIwIiBpZD0idGV4dC1lbnRpdHktVEFCTEFGSU5BTC1kMWM0N2EzNy04YmM0LTU2MzYtOTVjZi1kNTZiMjA5OTAzZmMtYXR0ci01NS1rZXkiIGNsYXNzPSJlciBlbnRpdHlMYWJlbCI+PC90ZXh0PjxyZWN0IGhlaWdodD0iMjIiIHdpZHRoPSI0My4xMTI1NjQwODY5MTQwNiIgeT0iMTIzNCIgeD0iMCIgY2xhc3M9ImVyIGF0dHJpYnV0ZUJveEV2ZW4iPjwvcmVjdD48dGV4dCBzdHlsZT0iZG9taW5hbnQtYmFzZWxpbmU6IG1pZGRsZTsgZm9udC1zaXplOiAxMC4ycHg7IiB0cmFuc2Zvcm09InRyYW5zbGF0ZSg1LDEyNDUpIiB5PSIwIiB4PSIwIiBpZD0idGV4dC1lbnRpdHktVEFCTEFGSU5BTC1kMWM0N2EzNy04YmM0LTU2MzYtOTVjZi1kNTZiMjA5OTAzZmMtYXR0ci01Ni10eXBlIiBjbGFzcz0iZXIgZW50aXR5TGFiZWwiPkZMT0FUPC90ZXh0PjxyZWN0IGhlaWdodD0iMjIiIHdpZHRoPSIxMzYuODY1Nzk4OTUwMTk1MyIgeT0iMTIzNCIgeD0iNDMuMTEyNTY0MDg2OTE0MDYiIGNsYXNzPSJlciBhdHRyaWJ1dGVCb3hFdmVuIj48L3JlY3Q+PHRleHQgc3R5bGU9ImRvbWluYW50LWJhc2VsaW5lOiBtaWRkbGU7IGZvbnQtc2l6ZTogMTAuMnB4OyIgdHJhbnNmb3JtPSJ0cmFuc2xhdGUoNDguMTEyNTY0MDg2OTE0MDYsMTI0NSkiIHk9IjAiIHg9IjAiIGlkPSJ0ZXh0LWVudGl0eS1UQUJMQUZJTkFMLWQxYzQ3YTM3LThiYzQtNTYzNi05NWNmLWQ1NmIyMDk5MDNmYy1hdHRyLTU2LW5hbWUiIGNsYXNzPSJlciBlbnRpdHlMYWJlbCI+YXZnX3RleHRfdW5pcXVlbmVzczwvdGV4dD48cmVjdCBoZWlnaHQ9IjIyIiB3aWR0aD0iMjIuNjg3NjgzMTA1NDY4NzUiIHk9IjEyMzQiIHg9IjE3OS45NzgzNjMwMzcxMDkzOCIgY2xhc3M9ImVyIGF0dHJpYnV0ZUJveEV2ZW4iPjwvcmVjdD48dGV4dCBzdHlsZT0iZG9taW5hbnQtYmFzZWxpbmU6IG1pZGRsZTsgZm9udC1zaXplOiAxMC4ycHg7IiB0cmFuc2Zvcm09InRyYW5zbGF0ZSgxODQuOTc4MzYzMDM3MTA5MzgsMTI0NSkiIHk9IjAiIHg9IjAiIGlkPSJ0ZXh0LWVudGl0eS1UQUJMQUZJTkFMLWQxYzQ3YTM3LThiYzQtNTYzNi05NWNmLWQ1NmIyMDk5MDNmYy1hdHRyLTU2LWtleSIgY2xhc3M9ImVyIGVudGl0eUxhYmVsIj48L3RleHQ+PHJlY3QgaGVpZ2h0PSIyMiIgd2lkdGg9IjQzLjExMjU2NDA4NjkxNDA2IiB5PSIxMjU2IiB4PSIwIiBjbGFzcz0iZXIgYXR0cmlidXRlQm94T2RkIj48L3JlY3Q+PHRleHQgc3R5bGU9ImRvbWluYW50LWJhc2VsaW5lOiBtaWRkbGU7IGZvbnQtc2l6ZTogMTAuMnB4OyIgdHJhbnNmb3JtPSJ0cmFuc2xhdGUoNSwxMjY3KSIgeT0iMCIgeD0iMCIgaWQ9InRleHQtZW50aXR5LVRBQkxBRklOQUwtZDFjNDdhMzctOGJjNC01NjM2LTk1Y2YtZDU2YjIwOTkwM2ZjLWF0dHItNTctdHlwZSIgY2xhc3M9ImVyIGVudGl0eUxhYmVsIj5TVFJJTkc8L3RleHQ+PHJlY3QgaGVpZ2h0PSIyMiIgd2lkdGg9IjEzNi44NjU3OTg5NTAxOTUzIiB5PSIxMjU2IiB4PSI0My4xMTI1NjQwODY5MTQwNiIgY2xhc3M9ImVyIGF0dHJpYnV0ZUJveE9kZCI+PC9yZWN0Pjx0ZXh0IHN0eWxlPSJkb21pbmFudC1iYXNlbGluZTogbWlkZGxlOyBmb250LXNpemU6IDEwLjJweDsiIHRyYW5zZm9ybT0idHJhbnNsYXRlKDQ4LjExMjU2NDA4NjkxNDA2LDEyNjcpIiB5PSIwIiB4PSIwIiBpZD0idGV4dC1lbnRpdHktVEFCTEFGSU5BTC1kMWM0N2EzNy04YmM0LTU2MzYtOTVjZi1kNTZiMjA5OTAzZmMtYXR0ci01Ny1uYW1lIiBjbGFzcz0iZXIgZW50aXR5TGFiZWwiPmNpdHk8L3RleHQ+PHJlY3QgaGVpZ2h0PSIyMiIgd2lkdGg9IjIyLjY4NzY4MzEwNTQ2ODc1IiB5PSIxMjU2IiB4PSIxNzkuOTc4MzYzMDM3MTA5MzgiIGNsYXNzPSJlciBhdHRyaWJ1dGVCb3hPZGQiPjwvcmVjdD48dGV4dCBzdHlsZT0iZG9taW5hbnQtYmFzZWxpbmU6IG1pZGRsZTsgZm9udC1zaXplOiAxMC4ycHg7IiB0cmFuc2Zvcm09InRyYW5zbGF0ZSgxODQuOTc4MzYzMDM3MTA5MzgsMTI2NykiIHk9IjAiIHg9IjAiIGlkPSJ0ZXh0LWVudGl0eS1UQUJMQUZJTkFMLWQxYzQ3YTM3LThiYzQtNTYzNi05NWNmLWQ1NmIyMDk5MDNmYy1hdHRyLTU3LWtleSIgY2xhc3M9ImVyIGVudGl0eUxhYmVsIj48L3RleHQ+PHJlY3QgaGVpZ2h0PSIyMiIgd2lkdGg9IjQzLjExMjU2NDA4NjkxNDA2IiB5PSIxMjc4IiB4PSIwIiBjbGFzcz0iZXIgYXR0cmlidXRlQm94RXZlbiI+PC9yZWN0Pjx0ZXh0IHN0eWxlPSJkb21pbmFudC1iYXNlbGluZTogbWlkZGxlOyBmb250LXNpemU6IDEwLjJweDsiIHRyYW5zZm9ybT0idHJhbnNsYXRlKDUsMTI4OSkiIHk9IjAiIHg9IjAiIGlkPSJ0ZXh0LWVudGl0eS1UQUJMQUZJTkFMLWQxYzQ3YTM3LThiYzQtNTYzNi05NWNmLWQ1NmIyMDk5MDNmYy1hdHRyLTU4LXR5cGUiIGNsYXNzPSJlciBlbnRpdHlMYWJlbCI+U1RSSU5HPC90ZXh0PjxyZWN0IGhlaWdodD0iMjIiIHdpZHRoPSIxMzYuODY1Nzk4OTUwMTk1MyIgeT0iMTI3OCIgeD0iNDMuMTEyNTY0MDg2OTE0MDYiIGNsYXNzPSJlciBhdHRyaWJ1dGVCb3hFdmVuIj48L3JlY3Q+PHRleHQgc3R5bGU9ImRvbWluYW50LWJhc2VsaW5lOiBtaWRkbGU7IGZvbnQtc2l6ZTogMTAuMnB4OyIgdHJhbnNmb3JtPSJ0cmFuc2xhdGUoNDguMTEyNTY0MDg2OTE0MDYsMTI4OSkiIHk9IjAiIHg9IjAiIGlkPSJ0ZXh0LWVudGl0eS1UQUJMQUZJTkFMLWQxYzQ3YTM3LThiYzQtNTYzNi05NWNmLWQ1NmIyMDk5MDNmYy1hdHRyLTU4LW5hbWUiIGNsYXNzPSJlciBlbnRpdHlMYWJlbCI+aGFzX29jY3VwYXRpb248L3RleHQ+PHJlY3QgaGVpZ2h0PSIyMiIgd2lkdGg9IjIyLjY4NzY4MzEwNTQ2ODc1IiB5PSIxMjc4IiB4PSIxNzkuOTc4MzYzMDM3MTA5MzgiIGNsYXNzPSJlciBhdHRyaWJ1dGVCb3hFdmVuIj48L3JlY3Q+PHRleHQgc3R5bGU9ImRvbWluYW50LWJhc2VsaW5lOiBtaWRkbGU7IGZvbnQtc2l6ZTogMTAuMnB4OyIgdHJhbnNmb3JtPSJ0cmFuc2xhdGUoMTg0Ljk3ODM2MzAzNzEwOTM4LDEyODkpIiB5PSIwIiB4PSIwIiBpZD0idGV4dC1lbnRpdHktVEFCTEFGSU5BTC1kMWM0N2EzNy04YmM0LTU2MzYtOTVjZi1kNTZiMjA5OTAzZmMtYXR0ci01OC1rZXkiIGNsYXNzPSJlciBlbnRpdHlMYWJlbCI+PC90ZXh0PjxyZWN0IGhlaWdodD0iMjIiIHdpZHRoPSI0My4xMTI1NjQwODY5MTQwNiIgeT0iMTMwMCIgeD0iMCIgY2xhc3M9ImVyIGF0dHJpYnV0ZUJveE9kZCI+PC9yZWN0Pjx0ZXh0IHN0eWxlPSJkb21pbmFudC1iYXNlbGluZTogbWlkZGxlOyBmb250LXNpemU6IDEwLjJweDsiIHRyYW5zZm9ybT0idHJhbnNsYXRlKDUsMTMxMSkiIHk9IjAiIHg9IjAiIGlkPSJ0ZXh0LWVudGl0eS1UQUJMQUZJTkFMLWQxYzQ3YTM3LThiYzQtNTYzNi05NWNmLWQ1NmIyMDk5MDNmYy1hdHRyLTU5LXR5cGUiIGNsYXNzPSJlciBlbnRpdHlMYWJlbCI+U1RSSU5HPC90ZXh0PjxyZWN0IGhlaWdodD0iMjIiIHdpZHRoPSIxMzYuODY1Nzk4OTUwMTk1MyIgeT0iMTMwMCIgeD0iNDMuMTEyNTY0MDg2OTE0MDYiIGNsYXNzPSJlciBhdHRyaWJ1dGVCb3hPZGQiPjwvcmVjdD48dGV4dCBzdHlsZT0iZG9taW5hbnQtYmFzZWxpbmU6IG1pZGRsZTsgZm9udC1zaXplOiAxMC4ycHg7IiB0cmFuc2Zvcm09InRyYW5zbGF0ZSg0OC4xMTI1NjQwODY5MTQwNiwxMzExKSIgeT0iMCIgeD0iMCIgaWQ9InRleHQtZW50aXR5LVRBQkxBRklOQUwtZDFjNDdhMzctOGJjNC01NjM2LTk1Y2YtZDU2YjIwOTkwM2ZjLWF0dHItNTktbmFtZSIgY2xhc3M9ImVyIGVudGl0eUxhYmVsIj5vY2N1cGF0aW9uX3R5cGVfdW5pdmVyc2l0eTwvdGV4dD48cmVjdCBoZWlnaHQ9IjIyIiB3aWR0aD0iMjIuNjg3NjgzMTA1NDY4NzUiIHk9IjEzMDAiIHg9IjE3OS45NzgzNjMwMzcxMDkzOCIgY2xhc3M9ImVyIGF0dHJpYnV0ZUJveE9kZCI+PC9yZWN0Pjx0ZXh0IHN0eWxlPSJkb21pbmFudC1iYXNlbGluZTogbWlkZGxlOyBmb250LXNpemU6IDEwLjJweDsiIHRyYW5zZm9ybT0idHJhbnNsYXRlKDE4NC45NzgzNjMwMzcxMDkzOCwxMzExKSIgeT0iMCIgeD0iMCIgaWQ9InRleHQtZW50aXR5LVRBQkxBRklOQUwtZDFjNDdhMzctOGJjNC01NjM2LTk1Y2YtZDU2YjIwOTkwM2ZjLWF0dHItNTkta2V5IiBjbGFzcz0iZXIgZW50aXR5TGFiZWwiPjwvdGV4dD48cmVjdCBoZWlnaHQ9IjIyIiB3aWR0aD0iNDMuMTEyNTY0MDg2OTE0MDYiIHk9IjEzMjIiIHg9IjAiIGNsYXNzPSJlciBhdHRyaWJ1dGVCb3hFdmVuIj48L3JlY3Q+PHRleHQgc3R5bGU9ImRvbWluYW50LWJhc2VsaW5lOiBtaWRkbGU7IGZvbnQtc2l6ZTogMTAuMnB4OyIgdHJhbnNmb3JtPSJ0cmFuc2xhdGUoNSwxMzMzKSIgeT0iMCIgeD0iMCIgaWQ9InRleHQtZW50aXR5LVRBQkxBRklOQUwtZDFjNDdhMzctOGJjNC01NjM2LTk1Y2YtZDU2YjIwOTkwM2ZjLWF0dHItNjAtdHlwZSIgY2xhc3M9ImVyIGVudGl0eUxhYmVsIj5TVFJJTkc8L3RleHQ+PHJlY3QgaGVpZ2h0PSIyMiIgd2lkdGg9IjEzNi44NjU3OTg5NTAxOTUzIiB5PSIxMzIyIiB4PSI0My4xMTI1NjQwODY5MTQwNiIgY2xhc3M9ImVyIGF0dHJpYnV0ZUJveEV2ZW4iPjwvcmVjdD48dGV4dCBzdHlsZT0iZG9taW5hbnQtYmFzZWxpbmU6IG1pZGRsZTsgZm9udC1zaXplOiAxMC4ycHg7IiB0cmFuc2Zvcm09InRyYW5zbGF0ZSg0OC4xMTI1NjQwODY5MTQwNiwxMzMzKSIgeT0iMCIgeD0iMCIgaWQ9InRleHQtZW50aXR5LVRBQkxBRklOQUwtZDFjNDdhMzctOGJjNC01NjM2LTk1Y2YtZDU2YjIwOTkwM2ZjLWF0dHItNjAtbmFtZSIgY2xhc3M9ImVyIGVudGl0eUxhYmVsIj5vY2N1cGF0aW9uX3R5cGVfd29yazwvdGV4dD48cmVjdCBoZWlnaHQ9IjIyIiB3aWR0aD0iMjIuNjg3NjgzMTA1NDY4NzUiIHk9IjEzMjIiIHg9IjE3OS45NzgzNjMwMzcxMDkzOCIgY2xhc3M9ImVyIGF0dHJpYnV0ZUJveEV2ZW4iPjwvcmVjdD48dGV4dCBzdHlsZT0iZG9taW5hbnQtYmFzZWxpbmU6IG1pZGRsZTsgZm9udC1zaXplOiAxMC4ycHg7IiB0cmFuc2Zvcm09InRyYW5zbGF0ZSgxODQuOTc4MzYzMDM3MTA5MzgsMTMzMykiIHk9IjAiIHg9IjAiIGlkPSJ0ZXh0LWVudGl0eS1UQUJMQUZJTkFMLWQxYzQ3YTM3LThiYzQtNTYzNi05NWNmLWQ1NmIyMDk5MDNmYy1hdHRyLTYwLWtleSIgY2xhc3M9ImVyIGVudGl0eUxhYmVsIj48L3RleHQ+PHJlY3QgaGVpZ2h0PSIyMiIgd2lkdGg9IjQzLjExMjU2NDA4NjkxNDA2IiB5PSIxMzQ0IiB4PSIwIiBjbGFzcz0iZXIgYXR0cmlidXRlQm94T2RkIj48L3JlY3Q+PHRleHQgc3R5bGU9ImRvbWluYW50LWJhc2VsaW5lOiBtaWRkbGU7IGZvbnQtc2l6ZTogMTAuMnB4OyIgdHJhbnNmb3JtPSJ0cmFuc2xhdGUoNSwxMzU1KSIgeT0iMCIgeD0iMCIgaWQ9InRleHQtZW50aXR5LVRBQkxBRklOQUwtZDFjNDdhMzctOGJjNC01NjM2LTk1Y2YtZDU2YjIwOTkwM2ZjLWF0dHItNjEtdHlwZSIgY2xhc3M9ImVyIGVudGl0eUxhYmVsIj5TVFJJTkc8L3RleHQ+PHJlY3QgaGVpZ2h0PSIyMiIgd2lkdGg9IjEzNi44NjU3OTg5NTAxOTUzIiB5PSIxMzQ0IiB4PSI0My4xMTI1NjQwODY5MTQwNiIgY2xhc3M9ImVyIGF0dHJpYnV0ZUJveE9kZCI+PC9yZWN0Pjx0ZXh0IHN0eWxlPSJkb21pbmFudC1iYXNlbGluZTogbWlkZGxlOyBmb250LXNpemU6IDEwLjJweDsiIHRyYW5zZm9ybT0idHJhbnNsYXRlKDQ4LjExMjU2NDA4NjkxNDA2LDEzNTUpIiB5PSIwIiB4PSIwIiBpZD0idGV4dC1lbnRpdHktVEFCTEFGSU5BTC1kMWM0N2EzNy04YmM0LTU2MzYtOTVjZi1kNTZiMjA5OTAzZmMtYXR0ci02MS1uYW1lIiBjbGFzcz0iZXIgZW50aXR5TGFiZWwiPmhhc19wZXJzb25hbF9kYXRhPC90ZXh0PjxyZWN0IGhlaWdodD0iMjIiIHdpZHRoPSIyMi42ODc2ODMxMDU0Njg3NSIgeT0iMTM0NCIgeD0iMTc5Ljk3ODM2MzAzNzEwOTM4IiBjbGFzcz0iZXIgYXR0cmlidXRlQm94T2RkIj48L3JlY3Q+PHRleHQgc3R5bGU9ImRvbWluYW50LWJhc2VsaW5lOiBtaWRkbGU7IGZvbnQtc2l6ZTogMTAuMnB4OyIgdHJhbnNmb3JtPSJ0cmFuc2xhdGUoMTg0Ljk3ODM2MzAzNzEwOTM4LDEzNTUpIiB5PSIwIiB4PSIwIiBpZD0idGV4dC1lbnRpdHktVEFCTEFGSU5BTC1kMWM0N2EzNy04YmM0LTU2MzYtOTVjZi1kNTZiMjA5OTAzZmMtYXR0ci02MS1rZXkiIGNsYXNzPSJlciBlbnRpdHlMYWJlbCI+PC90ZXh0PjwvZz48ZyB0cmFuc2Zvcm09InRyYW5zbGF0ZSgxODMuNDcxMDk5ODUzNTE1NjIsMjM4MCApIiBpZD0iZW50aXR5LVRBQkxBQVVESVRPUklBLTQ4NGU4MGIxLTcxYmQtNTZmOS1hZjhjLTNkZDhlZTk0ODkyYSI+PHJlY3QgaGVpZ2h0PSIyMDAiIHdpZHRoPSIxNTkuOTI5Nzk0MzExNTIzNDQiIHk9IjAiIHg9IjAiIGNsYXNzPSJlciBlbnRpdHlCb3giPjwvcmVjdD48dGV4dCBzdHlsZT0iZG9taW5hbnQtYmFzZWxpbmU6IG1pZGRsZTsgdGV4dC1hbmNob3I6IG1pZGRsZTsgZm9udC1zaXplOiAxMnB4OyIgdHJhbnNmb3JtPSJ0cmFuc2xhdGUoNzkuOTY0ODk3MTU1NzYxNzIsMTIpIiB5PSIwIiB4PSIwIiBpZD0idGV4dC1lbnRpdHktVEFCTEFBVURJVE9SSUEtNDg0ZTgwYjEtNzFiZC01NmY5LWFmOGMtM2RkOGVlOTQ4OTJhIiBjbGFzcz0iZXIgZW50aXR5TGFiZWwiPlRBQkxBX0FVRElUT1JJQTwvdGV4dD48cmVjdCBoZWlnaHQ9IjIyIiB3aWR0aD0iNTQuNjYzMzMwMDc4MTI1IiB5PSIyNCIgeD0iMCIgY2xhc3M9ImVyIGF0dHJpYnV0ZUJveE9kZCI+PC9yZWN0Pjx0ZXh0IHN0eWxlPSJkb21pbmFudC1iYXNlbGluZTogbWlkZGxlOyBmb250LXNpemU6IDEwLjJweDsiIHRyYW5zZm9ybT0idHJhbnNsYXRlKDUsMzUpIiB5PSIwIiB4PSIwIiBpZD0idGV4dC1lbnRpdHktVEFCTEFBVURJVE9SSUEtNDg0ZTgwYjEtNzFiZC01NmY5LWFmOGMtM2RkOGVlOTQ4OTJhLWF0dHItMS10eXBlIiBjbGFzcz0iZXIgZW50aXR5TGFiZWwiPklOVDwvdGV4dD48cmVjdCBoZWlnaHQ9IjIyIiB3aWR0aD0iODIuNTc4NzgxMTI3OTI5NjkiIHk9IjI0IiB4PSI1NC42NjMzMzAwNzgxMjUiIGNsYXNzPSJlciBhdHRyaWJ1dGVCb3hPZGQiPjwvcmVjdD48dGV4dCBzdHlsZT0iZG9taW5hbnQtYmFzZWxpbmU6IG1pZGRsZTsgZm9udC1zaXplOiAxMC4ycHg7IiB0cmFuc2Zvcm09InRyYW5zbGF0ZSg1OS42NjMzMzAwNzgxMjUsMzUpIiB5PSIwIiB4PSIwIiBpZD0idGV4dC1lbnRpdHktVEFCTEFBVURJVE9SSUEtNDg0ZTgwYjEtNzFiZC01NmY5LWFmOGMtM2RkOGVlOTQ4OTJhLWF0dHItMS1uYW1lIiBjbGFzcz0iZXIgZW50aXR5TGFiZWwiPmlkX2F1ZGl0b3JpYTwvdGV4dD48cmVjdCBoZWlnaHQ9IjIyIiB3aWR0aD0iMjIuNjg3NjgzMTA1NDY4NzUiIHk9IjI0IiB4PSIxMzcuMjQyMTExMjA2MDU0NyIgY2xhc3M9ImVyIGF0dHJpYnV0ZUJveE9kZCI+PC9yZWN0Pjx0ZXh0IHN0eWxlPSJkb21pbmFudC1iYXNlbGluZTogbWlkZGxlOyBmb250LXNpemU6IDEwLjJweDsiIHRyYW5zZm9ybT0idHJhbnNsYXRlKDE0Mi4yNDIxMTEyMDYwNTQ3LDM1KSIgeT0iMCIgeD0iMCIgaWQ9InRleHQtZW50aXR5LVRBQkxBQVVESVRPUklBLTQ4NGU4MGIxLTcxYmQtNTZmOS1hZjhjLTNkZDhlZTk0ODkyYS1hdHRyLTEta2V5IiBjbGFzcz0iZXIgZW50aXR5TGFiZWwiPlBLPC90ZXh0PjxyZWN0IGhlaWdodD0iMjIiIHdpZHRoPSI1NC42NjMzMzAwNzgxMjUiIHk9IjQ2IiB4PSIwIiBjbGFzcz0iZXIgYXR0cmlidXRlQm94RXZlbiI+PC9yZWN0Pjx0ZXh0IHN0eWxlPSJkb21pbmFudC1iYXNlbGluZTogbWlkZGxlOyBmb250LXNpemU6IDEwLjJweDsiIHRyYW5zZm9ybT0idHJhbnNsYXRlKDUsNTcpIiB5PSIwIiB4PSIwIiBpZD0idGV4dC1lbnRpdHktVEFCTEFBVURJVE9SSUEtNDg0ZTgwYjEtNzFiZC01NmY5LWFmOGMtM2RkOGVlOTQ4OTJhLWF0dHItMi10eXBlIiBjbGFzcz0iZXIgZW50aXR5TGFiZWwiPlNUUklORzwvdGV4dD48cmVjdCBoZWlnaHQ9IjIyIiB3aWR0aD0iODIuNTc4NzgxMTI3OTI5NjkiIHk9IjQ2IiB4PSI1NC42NjMzMzAwNzgxMjUiIGNsYXNzPSJlciBhdHRyaWJ1dGVCb3hFdmVuIj48L3JlY3Q+PHRleHQgc3R5bGU9ImRvbWluYW50LWJhc2VsaW5lOiBtaWRkbGU7IGZvbnQtc2l6ZTogMTAuMnB4OyIgdHJhbnNmb3JtPSJ0cmFuc2xhdGUoNTkuNjYzMzMwMDc4MTI1LDU3KSIgeT0iMCIgeD0iMCIgaWQ9InRleHQtZW50aXR5LVRBQkxBQVVESVRPUklBLTQ4NGU4MGIxLTcxYmQtNTZmOS1hZjhjLTNkZDhlZTk0ODkyYS1hdHRyLTItbmFtZSIgY2xhc3M9ImVyIGVudGl0eUxhYmVsIj5ub21icmVfdGFibGE8L3RleHQ+PHJlY3QgaGVpZ2h0PSIyMiIgd2lkdGg9IjIyLjY4NzY4MzEwNTQ2ODc1IiB5PSI0NiIgeD0iMTM3LjI0MjExMTIwNjA1NDciIGNsYXNzPSJlciBhdHRyaWJ1dGVCb3hFdmVuIj48L3JlY3Q+PHRleHQgc3R5bGU9ImRvbWluYW50LWJhc2VsaW5lOiBtaWRkbGU7IGZvbnQtc2l6ZTogMTAuMnB4OyIgdHJhbnNmb3JtPSJ0cmFuc2xhdGUoMTQyLjI0MjExMTIwNjA1NDcsNTcpIiB5PSIwIiB4PSIwIiBpZD0idGV4dC1lbnRpdHktVEFCTEFBVURJVE9SSUEtNDg0ZTgwYjEtNzFiZC01NmY5LWFmOGMtM2RkOGVlOTQ4OTJhLWF0dHItMi1rZXkiIGNsYXNzPSJlciBlbnRpdHlMYWJlbCI+PC90ZXh0PjxyZWN0IGhlaWdodD0iMjIiIHdpZHRoPSI1NC42NjMzMzAwNzgxMjUiIHk9IjY4IiB4PSIwIiBjbGFzcz0iZXIgYXR0cmlidXRlQm94T2RkIj48L3JlY3Q+PHRleHQgc3R5bGU9ImRvbWluYW50LWJhc2VsaW5lOiBtaWRkbGU7IGZvbnQtc2l6ZTogMTAuMnB4OyIgdHJhbnNmb3JtPSJ0cmFuc2xhdGUoNSw3OSkiIHk9IjAiIHg9IjAiIGlkPSJ0ZXh0LWVudGl0eS1UQUJMQUFVRElUT1JJQS00ODRlODBiMS03MWJkLTU2ZjktYWY4Yy0zZGQ4ZWU5NDg5MmEtYXR0ci0zLXR5cGUiIGNsYXNzPSJlciBlbnRpdHlMYWJlbCI+REFURVRJTUU8L3RleHQ+PHJlY3QgaGVpZ2h0PSIyMiIgd2lkdGg9IjgyLjU3ODc4MTEyNzkyOTY5IiB5PSI2OCIgeD0iNTQuNjYzMzMwMDc4MTI1IiBjbGFzcz0iZXIgYXR0cmlidXRlQm94T2RkIj48L3JlY3Q+PHRleHQgc3R5bGU9ImRvbWluYW50LWJhc2VsaW5lOiBtaWRkbGU7IGZvbnQtc2l6ZTogMTAuMnB4OyIgdHJhbnNmb3JtPSJ0cmFuc2xhdGUoNTkuNjYzMzMwMDc4MTI1LDc5KSIgeT0iMCIgeD0iMCIgaWQ9InRleHQtZW50aXR5LVRBQkxBQVVESVRPUklBLTQ4NGU4MGIxLTcxYmQtNTZmOS1hZjhjLTNkZDhlZTk0ODkyYS1hdHRyLTMtbmFtZSIgY2xhc3M9ImVyIGVudGl0eUxhYmVsIj5mZWNoYV9hdWRpdG9yaWE8L3RleHQ+PHJlY3QgaGVpZ2h0PSIyMiIgd2lkdGg9IjIyLjY4NzY4MzEwNTQ2ODc1IiB5PSI2OCIgeD0iMTM3LjI0MjExMTIwNjA1NDciIGNsYXNzPSJlciBhdHRyaWJ1dGVCb3hPZGQiPjwvcmVjdD48dGV4dCBzdHlsZT0iZG9taW5hbnQtYmFzZWxpbmU6IG1pZGRsZTsgZm9udC1zaXplOiAxMC4ycHg7IiB0cmFuc2Zvcm09InRyYW5zbGF0ZSgxNDIuMjQyMTExMjA2MDU0Nyw3OSkiIHk9IjAiIHg9IjAiIGlkPSJ0ZXh0LWVudGl0eS1UQUJMQUFVRElUT1JJQS00ODRlODBiMS03MWJkLTU2ZjktYWY4Yy0zZGQ4ZWU5NDg5MmEtYXR0ci0zLWtleSIgY2xhc3M9ImVyIGVudGl0eUxhYmVsIj48L3RleHQ+PHJlY3QgaGVpZ2h0PSIyMiIgd2lkdGg9IjU0LjY2MzMzMDA3ODEyNSIgeT0iOTAiIHg9IjAiIGNsYXNzPSJlciBhdHRyaWJ1dGVCb3hFdmVuIj48L3JlY3Q+PHRleHQgc3R5bGU9ImRvbWluYW50LWJhc2VsaW5lOiBtaWRkbGU7IGZvbnQtc2l6ZTogMTAuMnB4OyIgdHJhbnNmb3JtPSJ0cmFuc2xhdGUoNSwxMDEpIiB5PSIwIiB4PSIwIiBpZD0idGV4dC1lbnRpdHktVEFCTEFBVURJVE9SSUEtNDg0ZTgwYjEtNzFiZC01NmY5LWFmOGMtM2RkOGVlOTQ4OTJhLWF0dHItNC10eXBlIiBjbGFzcz0iZXIgZW50aXR5TGFiZWwiPklOVDwvdGV4dD48cmVjdCBoZWlnaHQ9IjIyIiB3aWR0aD0iODIuNTc4NzgxMTI3OTI5NjkiIHk9IjkwIiB4PSI1NC42NjMzMzAwNzgxMjUiIGNsYXNzPSJlciBhdHRyaWJ1dGVCb3hFdmVuIj48L3JlY3Q+PHRleHQgc3R5bGU9ImRvbWluYW50LWJhc2VsaW5lOiBtaWRkbGU7IGZvbnQtc2l6ZTogMTAuMnB4OyIgdHJhbnNmb3JtPSJ0cmFuc2xhdGUoNTkuNjYzMzMwMDc4MTI1LDEwMSkiIHk9IjAiIHg9IjAiIGlkPSJ0ZXh0LWVudGl0eS1UQUJMQUFVRElUT1JJQS00ODRlODBiMS03MWJkLTU2ZjktYWY4Yy0zZGQ4ZWU5NDg5MmEtYXR0ci00LW5hbWUiIGNsYXNzPSJlciBlbnRpdHlMYWJlbCI+bnVsb3M8L3RleHQ+PHJlY3QgaGVpZ2h0PSIyMiIgd2lkdGg9IjIyLjY4NzY4MzEwNTQ2ODc1IiB5PSI5MCIgeD0iMTM3LjI0MjExMTIwNjA1NDciIGNsYXNzPSJlciBhdHRyaWJ1dGVCb3hFdmVuIj48L3JlY3Q+PHRleHQgc3R5bGU9ImRvbWluYW50LWJhc2VsaW5lOiBtaWRkbGU7IGZvbnQtc2l6ZTogMTAuMnB4OyIgdHJhbnNmb3JtPSJ0cmFuc2xhdGUoMTQyLjI0MjExMTIwNjA1NDcsMTAxKSIgeT0iMCIgeD0iMCIgaWQ9InRleHQtZW50aXR5LVRBQkxBQVVESVRPUklBLTQ4NGU4MGIxLTcxYmQtNTZmOS1hZjhjLTNkZDhlZTk0ODkyYS1hdHRyLTQta2V5IiBjbGFzcz0iZXIgZW50aXR5TGFiZWwiPjwvdGV4dD48cmVjdCBoZWlnaHQ9IjIyIiB3aWR0aD0iNTQuNjYzMzMwMDc4MTI1IiB5PSIxMTIiIHg9IjAiIGNsYXNzPSJlciBhdHRyaWJ1dGVCb3hPZGQiPjwvcmVjdD48dGV4dCBzdHlsZT0iZG9taW5hbnQtYmFzZWxpbmU6IG1pZGRsZTsgZm9udC1zaXplOiAxMC4ycHg7IiB0cmFuc2Zvcm09InRyYW5zbGF0ZSg1LDEyMykiIHk9IjAiIHg9IjAiIGlkPSJ0ZXh0LWVudGl0eS1UQUJMQUFVRElUT1JJQS00ODRlODBiMS03MWJkLTU2ZjktYWY4Yy0zZGQ4ZWU5NDg5MmEtYXR0ci01LXR5cGUiIGNsYXNzPSJlciBlbnRpdHlMYWJlbCI+SU5UPC90ZXh0PjxyZWN0IGhlaWdodD0iMjIiIHdpZHRoPSI4Mi41Nzg3ODExMjc5Mjk2OSIgeT0iMTEyIiB4PSI1NC42NjMzMzAwNzgxMjUiIGNsYXNzPSJlciBhdHRyaWJ1dGVCb3hPZGQiPjwvcmVjdD48dGV4dCBzdHlsZT0iZG9taW5hbnQtYmFzZWxpbmU6IG1pZGRsZTsgZm9udC1zaXplOiAxMC4ycHg7IiB0cmFuc2Zvcm09InRyYW5zbGF0ZSg1OS42NjMzMzAwNzgxMjUsMTIzKSIgeT0iMCIgeD0iMCIgaWQ9InRleHQtZW50aXR5LVRBQkxBQVVESVRPUklBLTQ4NGU4MGIxLTcxYmQtNTZmOS1hZjhjLTNkZDhlZTk0ODkyYS1hdHRyLTUtbmFtZSIgY2xhc3M9ImVyIGVudGl0eUxhYmVsIj52YWNpb3M8L3RleHQ+PHJlY3QgaGVpZ2h0PSIyMiIgd2lkdGg9IjIyLjY4NzY4MzEwNTQ2ODc1IiB5PSIxMTIiIHg9IjEzNy4yNDIxMTEyMDYwNTQ3IiBjbGFzcz0iZXIgYXR0cmlidXRlQm94T2RkIj48L3JlY3Q+PHRleHQgc3R5bGU9ImRvbWluYW50LWJhc2VsaW5lOiBtaWRkbGU7IGZvbnQtc2l6ZTogMTAuMnB4OyIgdHJhbnNmb3JtPSJ0cmFuc2xhdGUoMTQyLjI0MjExMTIwNjA1NDcsMTIzKSIgeT0iMCIgeD0iMCIgaWQ9InRleHQtZW50aXR5LVRBQkxBQVVESVRPUklBLTQ4NGU4MGIxLTcxYmQtNTZmOS1hZjhjLTNkZDhlZTk0ODkyYS1hdHRyLTUta2V5IiBjbGFzcz0iZXIgZW50aXR5TGFiZWwiPjwvdGV4dD48cmVjdCBoZWlnaHQ9IjIyIiB3aWR0aD0iNTQuNjYzMzMwMDc4MTI1IiB5PSIxMzQiIHg9IjAiIGNsYXNzPSJlciBhdHRyaWJ1dGVCb3hFdmVuIj48L3JlY3Q+PHRleHQgc3R5bGU9ImRvbWluYW50LWJhc2VsaW5lOiBtaWRkbGU7IGZvbnQtc2l6ZTogMTAuMnB4OyIgdHJhbnNmb3JtPSJ0cmFuc2xhdGUoNSwxNDUpIiB5PSIwIiB4PSIwIiBpZD0idGV4dC1lbnRpdHktVEFCTEFBVURJVE9SSUEtNDg0ZTgwYjEtNzFiZC01NmY5LWFmOGMtM2RkOGVlOTQ4OTJhLWF0dHItNi10eXBlIiBjbGFzcz0iZXIgZW50aXR5TGFiZWwiPklOVDwvdGV4dD48cmVjdCBoZWlnaHQ9IjIyIiB3aWR0aD0iODIuNTc4NzgxMTI3OTI5NjkiIHk9IjEzNCIgeD0iNTQuNjYzMzMwMDc4MTI1IiBjbGFzcz0iZXIgYXR0cmlidXRlQm94RXZlbiI+PC9yZWN0Pjx0ZXh0IHN0eWxlPSJkb21pbmFudC1iYXNlbGluZTogbWlkZGxlOyBmb250LXNpemU6IDEwLjJweDsiIHRyYW5zZm9ybT0idHJhbnNsYXRlKDU5LjY2MzMzMDA3ODEyNSwxNDUpIiB5PSIwIiB4PSIwIiBpZD0idGV4dC1lbnRpdHktVEFCTEFBVURJVE9SSUEtNDg0ZTgwYjEtNzFiZC01NmY5LWFmOGMtM2RkOGVlOTQ4OTJhLWF0dHItNi1uYW1lIiBjbGFzcz0iZXIgZW50aXR5TGFiZWwiPmNhbmRpZGFkX2luPC90ZXh0PjxyZWN0IGhlaWdodD0iMjIiIHdpZHRoPSIyMi42ODc2ODMxMDU0Njg3NSIgeT0iMTM0IiB4PSIxMzcuMjQyMTExMjA2MDU0NyIgY2xhc3M9ImVyIGF0dHJpYnV0ZUJveEV2ZW4iPjwvcmVjdD48dGV4dCBzdHlsZT0iZG9taW5hbnQtYmFzZWxpbmU6IG1pZGRsZTsgZm9udC1zaXplOiAxMC4ycHg7IiB0cmFuc2Zvcm09InRyYW5zbGF0ZSgxNDIuMjQyMTExMjA2MDU0NywxNDUpIiB5PSIwIiB4PSIwIiBpZD0idGV4dC1lbnRpdHktVEFCTEFBVURJVE9SSUEtNDg0ZTgwYjEtNzFiZC01NmY5LWFmOGMtM2RkOGVlOTQ4OTJhLWF0dHItNi1rZXkiIGNsYXNzPSJlciBlbnRpdHlMYWJlbCI+PC90ZXh0PjxyZWN0IGhlaWdodD0iMjIiIHdpZHRoPSI1NC42NjMzMzAwNzgxMjUiIHk9IjE1NiIgeD0iMCIgY2xhc3M9ImVyIGF0dHJpYnV0ZUJveE9kZCI+PC9yZWN0Pjx0ZXh0IHN0eWxlPSJkb21pbmFudC1iYXNlbGluZTogbWlkZGxlOyBmb250LXNpemU6IDEwLjJweDsiIHRyYW5zZm9ybT0idHJhbnNsYXRlKDUsMTY3KSIgeT0iMCIgeD0iMCIgaWQ9InRleHQtZW50aXR5LVRBQkxBQVVESVRPUklBLTQ4NGU4MGIxLTcxYmQtNTZmOS1hZjhjLTNkZDhlZTk0ODkyYS1hdHRyLTctdHlwZSIgY2xhc3M9ImVyIGVudGl0eUxhYmVsIj5JTlQ8L3RleHQ+PHJlY3QgaGVpZ2h0PSIyMiIgd2lkdGg9IjgyLjU3ODc4MTEyNzkyOTY5IiB5PSIxNTYiIHg9IjU0LjY2MzMzMDA3ODEyNSIgY2xhc3M9ImVyIGF0dHJpYnV0ZUJveE9kZCI+PC9yZWN0Pjx0ZXh0IHN0eWxlPSJkb21pbmFudC1iYXNlbGluZTogbWlkZGxlOyBmb250LXNpemU6IDEwLjJweDsiIHRyYW5zZm9ybT0idHJhbnNsYXRlKDU5LjY2MzMzMDA3ODEyNSwxNjcpIiB5PSIwIiB4PSIwIiBpZD0idGV4dC1lbnRpdHktVEFCTEFBVURJVE9SSUEtNDg0ZTgwYjEtNzFiZC01NmY5LWFmOGMtM2RkOGVlOTQ4OTJhLWF0dHItNy1uYW1lIiBjbGFzcz0iZXIgZW50aXR5TGFiZWwiPmNhbnRpZGFkX291dDwvdGV4dD48cmVjdCBoZWlnaHQ9IjIyIiB3aWR0aD0iMjIuNjg3NjgzMTA1NDY4NzUiIHk9IjE1NiIgeD0iMTM3LjI0MjExMTIwNjA1NDciIGNsYXNzPSJlciBhdHRyaWJ1dGVCb3hPZGQiPjwvcmVjdD48dGV4dCBzdHlsZT0iZG9taW5hbnQtYmFzZWxpbmU6IG1pZGRsZTsgZm9udC1zaXplOiAxMC4ycHg7IiB0cmFuc2Zvcm09InRyYW5zbGF0ZSgxNDIuMjQyMTExMjA2MDU0NywxNjcpIiB5PSIwIiB4PSIwIiBpZD0idGV4dC1lbnRpdHktVEFCTEFBVURJVE9SSUEtNDg0ZTgwYjEtNzFiZC01NmY5LWFmOGMtM2RkOGVlOTQ4OTJhLWF0dHItNy1rZXkiIGNsYXNzPSJlciBlbnRpdHlMYWJlbCI+PC90ZXh0PjxyZWN0IGhlaWdodD0iMjIiIHdpZHRoPSI1NC42NjMzMzAwNzgxMjUiIHk9IjE3OCIgeD0iMCIgY2xhc3M9ImVyIGF0dHJpYnV0ZUJveEV2ZW4iPjwvcmVjdD48dGV4dCBzdHlsZT0iZG9taW5hbnQtYmFzZWxpbmU6IG1pZGRsZTsgZm9udC1zaXplOiAxMC4ycHg7IiB0cmFuc2Zvcm09InRyYW5zbGF0ZSg1LDE4OSkiIHk9IjAiIHg9IjAiIGlkPSJ0ZXh0LWVudGl0eS1UQUJMQUFVRElUT1JJQS00ODRlODBiMS03MWJkLTU2ZjktYWY4Yy0zZGQ4ZWU5NDg5MmEtYXR0ci04LXR5cGUiIGNsYXNzPSJlciBlbnRpdHlMYWJlbCI+SU5UPC90ZXh0PjxyZWN0IGhlaWdodD0iMjIiIHdpZHRoPSI4Mi41Nzg3ODExMjc5Mjk2OSIgeT0iMTc4IiB4PSI1NC42NjMzMzAwNzgxMjUiIGNsYXNzPSJlciBhdHRyaWJ1dGVCb3hFdmVuIj48L3JlY3Q+PHRleHQgc3R5bGU9ImRvbWluYW50LWJhc2VsaW5lOiBtaWRkbGU7IGZvbnQtc2l6ZTogMTAuMnB4OyIgdHJhbnNmb3JtPSJ0cmFuc2xhdGUoNTkuNjYzMzMwMDc4MTI1LDE4OSkiIHk9IjAiIHg9IjAiIGlkPSJ0ZXh0LWVudGl0eS1UQUJMQUFVRElUT1JJQS00ODRlODBiMS03MWJkLTU2ZjktYWY4Yy0zZGQ4ZWU5NDg5MmEtYXR0ci04LW5hbWUiIGNsYXNzPSJlciBlbnRpdHlMYWJlbCI+ZGlmZXJlbmNpYTwvdGV4dD48cmVjdCBoZWlnaHQ9IjIyIiB3aWR0aD0iMjIuNjg3NjgzMTA1NDY4NzUiIHk9IjE3OCIgeD0iMTM3LjI0MjExMTIwNjA1NDciIGNsYXNzPSJlciBhdHRyaWJ1dGVCb3hFdmVuIj48L3JlY3Q+PHRleHQgc3R5bGU9ImRvbWluYW50LWJhc2VsaW5lOiBtaWRkbGU7IGZvbnQtc2l6ZTogMTAuMnB4OyIgdHJhbnNmb3JtPSJ0cmFuc2xhdGUoMTQyLjI0MjExMTIwNjA1NDcsMTg5KSIgeT0iMCIgeD0iMCIgaWQ9InRleHQtZW50aXR5LVRBQkxBQVVESVRPUklBLTQ4NGU4MGIxLTcxYmQtNTZmOS1hZjhjLTNkZDhlZTk0ODkyYS1hdHRyLTgta2V5IiBjbGFzcz0iZXIgZW50aXR5TGFiZWwiPjwvdGV4dD48L2c+PHJlY3QgaGVpZ2h0PSIxNCIgd2lkdGg9IjQxLjE0ODQzNzUiIHk9Ijk0OC42MjM5NjI0MDIzNDM4IiB4PSIxMTMuNTU3MzQyNTI5Mjk2ODgiIGNsYXNzPSJlciByZWxhdGlvbnNoaXBMYWJlbEJveCI+PC9yZWN0Pjx0ZXh0IHN0eWxlPSJ0ZXh0LWFuY2hvcjogbWlkZGxlOyBkb21pbmFudC1iYXNlbGluZTogbWlkZGxlOyBmb250LXNpemU6IDEycHg7IiB5PSI5NTUuNjIzOTYyNDAyMzQzOCIgeD0iMTM0LjEzMTU2MTI3OTI5Njg4IiBpZD0icmVsMSIgY2xhc3M9ImVyIHJlbGF0aW9uc2hpcExhYmVsIj5pZF9kYXRhPC90ZXh0PjxyZWN0IGhlaWdodD0iMTQiIHdpZHRoPSI0MS4xNDg0Mzc1IiB5PSI5MDUuMjg2MTMyODEyNSIgeD0iMzc4LjY5NTUyNjEyMzA0NjkiIGNsYXNzPSJlciByZWxhdGlvbnNoaXBMYWJlbEJveCI+PC9yZWN0Pjx0ZXh0IHN0eWxlPSJ0ZXh0LWFuY2hvcjogbWlkZGxlOyBkb21pbmFudC1iYXNlbGluZTogbWlkZGxlOyBmb250LXNpemU6IDEycHg7IiB5PSI5MTIuMjg2MTMyODEyNSIgeD0iMzk5LjI2OTc0NDg3MzA0NjkiIGlkPSJyZWwyIiBjbGFzcz0iZXIgcmVsYXRpb25zaGlwTGFiZWwiPmlkX2RhdGE8L3RleHQ+PHJlY3QgaGVpZ2h0PSIxNCIgd2lkdGg9IjM0LjcyNjU2MjUiIHk9IjIzMjMiIHg9IjI0Ni4wNzI3MjMzODg2NzE4OCIgY2xhc3M9ImVyIHJlbGF0aW9uc2hpcExhYmVsQm94Ij48L3JlY3Q+PHRleHQgc3R5bGU9InRleHQtYW5jaG9yOiBtaWRkbGU7IGRvbWluYW50LWJhc2VsaW5lOiBtaWRkbGU7IGZvbnQtc2l6ZTogMTJweDsiIHk9IjIzMzAiIHg9IjI2My40MzYwMDQ2Mzg2NzE5IiBpZD0icmVsMyIgY2xhc3M9ImVyIHJlbGF0aW9uc2hpcExhYmVsIj5hdWRpdGE8L3RleHQ+PC9zdmc+;" vertex="1" parent="1">
                        <mxGeometry x="160" y="-1010" width="1250" height="2600" as="geometry"/>
                    </mxCell>
                </UserObject>
            </root>
        </mxGraphModel>
    </diagram>
</mxfile>